<svg width="308" height="95" viewBox="0 0 308 95" fill="none" xmlns="http://www.w3.org/2000/svg">
<path d="M60.6738 19.92H65.6338V27.2C65.6338 28.0533 65.9271 28.76 66.5138 29.32C67.1004 29.88 67.8071 30.16 68.6338 30.16H85.1938C86.1271 30.16 86.6604 29.64 86.7938 28.6V21.08H91.7538V28.56C91.7538 29.4667 92.2871 30 93.3538 30.16H94.5138C94.8071 30.16 94.9938 30.3467 95.0738 30.72V35.44C95.0738 35.76 94.8871 35.9467 94.5138 36H94.1538C92.2338 36 90.6071 35.2533 89.2738 33.76C88.5804 34.56 87.8071 35.1333 86.9538 35.48C86.1271 35.8267 85.2338 36 84.2738 36H69.0738C66.7538 36 64.7671 35.1733 63.1138 33.52C61.4871 31.8667 60.6738 29.88 60.6738 27.56V19.92ZM77.2338 19.92V14.92H82.2338V19.92H77.2338ZM70.1538 14.92H75.1538V19.92H70.1538V14.92ZM93.9712 35.44V30.76C93.9712 30.44 94.1579 30.24 94.5312 30.16H96.1313C97.1979 29.9733 97.7313 29.4267 97.7313 28.52V21.04H102.691V28.52C102.691 29.4267 103.211 29.9733 104.251 30.16H105.611C106.545 30.16 107.145 29.64 107.411 28.6L108.891 21.08L113.851 21.96L112.571 28.28C112.545 28.3867 112.531 28.5067 112.531 28.64C112.531 28.9867 112.665 29.3333 112.931 29.68C113.225 30 113.611 30.16 114.091 30.16H115.651C116.585 30.16 117.118 29.6267 117.251 28.56V20H122.211V28.48C122.211 29.4667 122.745 30.0267 123.811 30.16H125.371C125.745 30.16 125.931 30.3467 125.931 30.72V35.4C125.931 35.72 125.745 35.92 125.371 36H124.611C122.691 36 121.051 35.24 119.691 33.72C119.025 34.52 118.251 35.1067 117.371 35.48C116.518 35.8267 115.611 36 114.651 36C113.798 36 112.918 35.84 112.011 35.52C111.131 35.1733 110.385 34.5733 109.771 33.72C109.131 34.5733 108.411 35.1733 107.611 35.52C106.838 35.84 106.025 36 105.171 36C104.238 36 103.345 35.8267 102.491 35.48C101.665 35.1067 100.918 34.52 100.251 33.72C98.8646 35.24 97.2246 36 95.3313 36H94.5312C94.2646 36 94.0779 35.8133 93.9712 35.44ZM124.831 35.44V30.72C124.831 30.4267 125.017 30.24 125.391 30.16H150.631C150.924 30.16 151.204 30.04 151.471 29.8C151.737 29.56 151.871 29.2533 151.871 28.88V26.04C151.871 25.24 151.391 24.76 150.431 24.6H130.311L126.751 21.2L138.911 6.96L142.471 10.24L134.871 19.2H149.911C151.804 19.2 153.417 19.88 154.751 21.24C156.111 22.5733 156.791 24.2 156.791 26.12V28.56C156.791 29.4667 157.337 30 158.431 30.16H161.231C161.524 30.16 161.711 30.3467 161.791 30.72V35.44C161.791 35.7867 161.604 35.9733 161.231 36H159.271C157.404 36 155.804 35.4133 154.471 34.24C153.057 35.4133 151.484 36 149.751 36H125.391C125.044 36 124.857 35.8133 124.831 35.44ZM160.69 30.76C160.69 30.44 160.877 30.24 161.25 30.16H167.09C168.023 30.16 168.557 29.6267 168.69 28.56V19.92H173.65V28.52C173.65 30.6 172.917 32.3733 171.45 33.84C170.01 35.28 168.25 36 166.17 36H161.25C160.93 36 160.743 35.8133 160.69 35.44V30.76ZM168.61 16.64V11.64H173.61V16.64H168.61ZM177.393 28.68V8.24H182.353V28.56C182.353 29.4667 182.886 30 183.953 30.16H185.953C186.273 30.16 186.459 30.36 186.513 30.76V35.44C186.513 35.7867 186.326 35.9733 185.953 36H184.753C182.726 36 180.993 35.2933 179.553 33.88C178.113 32.44 177.393 30.7067 177.393 28.68ZM185.377 30.76C185.377 30.44 185.564 30.24 185.938 30.16H189.698C190.631 30.16 191.244 29.6533 191.538 28.64L193.098 21.12L197.938 22L196.698 28.32C196.671 28.4533 196.658 28.5867 196.658 28.72C196.658 29.0667 196.778 29.4 197.018 29.72C197.284 30.0133 197.671 30.16 198.178 30.16H201.378C201.698 30.16 201.884 30.36 201.938 30.76V35.44C201.938 35.7067 201.751 35.8933 201.378 36H198.138C197.311 36 196.498 35.8 195.698 35.4C194.898 35 194.284 34.4533 193.858 33.76C193.324 34.4533 192.631 35 191.778 35.4C190.924 35.8 190.071 36 189.218 36H185.938C185.671 36 185.484 35.8133 185.377 35.44V30.76ZM199.138 17.84H194.138V12.84H199.138V17.84ZM187.058 12.84H192.058V17.84H187.058V12.84ZM200.807 35.44V30.72C200.807 30.3467 200.994 30.16 201.367 30.16H202.647C203.581 30.16 204.194 29.6667 204.487 28.68L205.287 24.56C205.581 22.9867 206.341 21.7067 207.567 20.72C208.794 19.7333 210.181 19.24 211.727 19.24H213.967C215.861 19.24 217.474 19.92 218.807 21.28C220.167 22.6133 220.847 24.2267 220.847 26.12V30.72C220.847 32.16 220.327 33.4 219.287 34.44C218.247 35.48 217.007 36 215.567 36H211.007C210.234 36 209.474 35.8533 208.727 35.56C208.007 35.24 207.341 34.6533 206.727 33.8C206.114 34.6 205.434 35.1733 204.687 35.52C203.941 35.84 203.141 36 202.287 36H201.367C201.101 36 200.914 35.8133 200.807 35.44ZM209.447 29.08C209.447 29.16 209.447 29.2267 209.447 29.28C209.447 29.4667 209.527 29.6667 209.687 29.88C209.847 30.0667 210.074 30.16 210.367 30.16H215.887V26.08C215.887 25.76 215.767 25.48 215.527 25.24C215.314 25 215.034 24.88 214.687 24.88H211.247C210.661 24.88 210.274 25.2133 210.087 25.88L209.447 29.08Z" fill="black"/>
<path d="M3.14375 77.864H4.55975V79.976C4.55975 80.264 4.63975 80.512 4.79975 80.72C4.95975 80.928 5.19975 81.032 5.51975 81.032H9.02375C9.69575 81.032 10.2318 80.768 10.6318 80.24C10.8078 80 10.9198 79.776 10.9678 79.568C11.0158 79.344 11.0398 79.168 11.0398 79.04C11.0398 78.864 11.0158 78.696 10.9678 78.536L9.19175 72.08L10.7518 71.504L13.0318 79.664C13.3838 80.576 13.9758 81.032 14.8078 81.032H15.3118C15.5038 81.032 15.6158 81.152 15.6478 81.392V82.664C15.6478 82.872 15.5358 82.984 15.3118 83H14.8558C13.6398 83 12.6878 82.4 11.9998 81.2C11.6638 81.776 11.2318 82.224 10.7038 82.544C10.1758 82.848 9.60775 83 8.99975 83H5.71175C5.00775 83 4.39975 82.744 3.88775 82.232C3.39175 81.72 3.14375 81.112 3.14375 80.408V77.864ZM15.3125 83C15.1045 83 14.9925 82.888 14.9765 82.664V81.392C14.9765 81.2 15.0885 81.08 15.3125 81.032H16.8725C17.8165 81.032 18.4405 80.528 18.7445 79.52L19.4885 75.728L21.1205 75.992L20.4965 79.16C20.4805 79.272 20.4725 79.376 20.4725 79.472C20.4725 79.6 20.4965 79.752 20.5445 79.928C20.5925 80.104 20.6965 80.28 20.8565 80.456C21.2245 80.84 21.6565 81.032 22.1525 81.032H23.6165C23.8085 81.032 23.9205 81.152 23.9525 81.392V82.664C23.9525 82.872 23.8405 82.984 23.6165 83H22.1285C21.6005 83 21.0805 82.848 20.5685 82.544C20.0565 82.24 19.7205 81.864 19.5605 81.416C18.8565 82.472 17.9365 83 16.8005 83H15.3125ZM22.1765 87.92H20.1365V85.88H22.1765V87.92ZM16.8485 85.88H18.8885V87.92H16.8485V85.88ZM23.2734 81.392C23.2734 81.2 23.3854 81.08 23.6094 81.032H25.1694C26.1134 81.032 26.7374 80.528 27.0414 79.52L27.7854 75.728L29.4174 75.992L28.7934 79.16C28.7774 79.272 28.7694 79.376 28.7694 79.472C28.7694 79.6 28.7934 79.752 28.8414 79.928C28.8894 80.104 28.9934 80.28 29.1534 80.456C29.5214 80.84 29.9534 81.032 30.4494 81.032H31.9134C32.1054 81.032 32.2174 81.152 32.2494 81.392V82.664C32.2494 82.872 32.1374 82.984 31.9134 83H30.4254C29.8974 83 29.3774 82.848 28.8654 82.544C28.3534 82.24 28.0174 81.864 27.8574 81.416C27.1534 82.472 26.2334 83 25.0974 83H23.6094C23.4014 83 23.2894 82.888 23.2734 82.664V81.392ZM28.9854 72.872H26.9454V70.832H28.9854V72.872ZM31.5702 82.64V81.368C31.5702 81.144 31.6822 81.032 31.9062 81.032H45.1543C45.5703 81.032 45.9223 80.888 46.2103 80.6C46.5143 80.312 46.6663 79.952 46.6663 79.52V77.912C46.6663 77.464 46.5063 77.08 46.1863 76.76C45.8663 76.44 45.4823 76.28 45.0343 76.28H33.9463L32.7463 75.152L39.0343 67.784L40.2343 68.888L35.4823 74.48H44.9383C45.8823 74.48 46.6823 74.808 47.3383 75.464C47.9943 76.12 48.3223 76.92 48.3223 77.864V79.64C48.3223 80.568 47.9783 81.36 47.2903 82.016C46.6183 82.672 45.8263 83 44.9143 83H31.9062C31.7142 83 31.6022 82.88 31.5702 82.64ZM51.9228 87.344L54.8268 86.384C55.5468 86.144 56.1068 85.728 56.5068 85.136C56.9228 84.56 57.1308 83.912 57.1308 83.192V75.608H58.7868V79.376C58.7868 79.84 58.9548 80.232 59.2908 80.552C59.6428 80.872 60.0508 81.032 60.5148 81.032H62.9148C63.1068 81.032 63.2188 81.152 63.2508 81.392V82.664C63.2508 82.872 63.1388 82.984 62.9148 83H60.8028C60.4188 83 60.0428 82.92 59.6748 82.76C59.3228 82.6 59.0268 82.36 58.7868 82.04V83.096C58.7868 84.216 58.4588 85.224 57.8028 86.12C57.1468 87.016 56.2748 87.656 55.1868 88.04L52.4508 89L51.9228 87.344ZM62.9141 83C62.7061 83 62.5941 82.888 62.5781 82.664V81.392C62.5781 81.2 62.6901 81.08 62.9141 81.032H64.4741C65.4181 81.032 66.0421 80.528 66.3461 79.52L67.0901 75.728L68.7221 75.992L68.0981 79.16C68.0821 79.272 68.0741 79.376 68.0741 79.472C68.0741 79.6 68.0981 79.752 68.1461 79.928C68.1941 80.104 68.2981 80.28 68.4581 80.456C68.8261 80.84 69.2581 81.032 69.7541 81.032H71.2181C71.4101 81.032 71.5221 81.152 71.5541 81.392V82.664C71.5541 82.872 71.4421 82.984 71.2181 83H69.7301C69.2021 83 68.6821 82.848 68.1701 82.544C67.6581 82.24 67.3221 81.864 67.1621 81.416C66.4581 82.472 65.5381 83 64.4021 83H62.9141ZM69.7781 72.872H67.7381V70.832H69.7781V72.872ZM64.4501 70.832H66.4901V72.872H64.4501V70.832ZM70.9709 82.88C70.9069 82.816 70.8749 82.736 70.8749 82.64V81.368C70.8749 81.144 70.9869 81.032 71.2109 81.032H73.3229V78.104C73.3229 77.176 73.6429 76.384 74.2829 75.728C74.9389 75.072 75.7389 74.744 76.6829 74.744H77.5949C78.3469 74.744 79.0109 74.984 79.5869 75.464C80.1629 75.928 80.5309 76.544 80.6909 77.312L81.0509 79.208C81.0989 79.432 81.1229 79.64 81.1229 79.832C81.1229 80.088 81.0749 80.4 80.9789 80.768C80.8829 81.12 80.6909 81.472 80.4029 81.824C79.7629 82.608 78.9469 83 77.9549 83H75.9389C75.5869 83 75.2589 82.936 74.9549 82.808C72.4589 82.936 71.2109 83 71.2109 83C72.3309 82.952 73.1869 82.928 73.7789 82.928C74.1789 82.928 74.4749 82.944 74.6669 82.976C74.8749 82.992 74.9789 83.016 74.9789 83.048C74.9789 83.816 75.1309 84.4 75.4349 84.8C75.7389 85.216 76.2029 85.488 76.8269 85.616L78.9869 86.024L80.9309 83C81.7629 81.688 82.9709 81.032 84.5549 81.032H84.8909C85.1149 81.032 85.2269 81.144 85.2269 81.368V82.64C85.2269 82.832 85.1149 82.952 84.8909 83H84.1469C83.2189 83 82.5229 83.408 82.0589 84.224C81.2429 85.52 80.4669 86.72 79.7309 87.824L76.1549 87.032C74.3309 86.664 73.3869 85.32 73.3229 83H71.2109C71.1149 83 71.0349 82.96 70.9709 82.88ZM74.9789 81.032H78.1229C78.5869 81.032 78.9229 80.872 79.1309 80.552C79.3549 80.216 79.4669 79.92 79.4669 79.664C79.4669 79.584 79.4589 79.512 79.4429 79.448L79.1309 77.816C79.0669 77.432 78.8909 77.128 78.6029 76.904C78.3309 76.68 78.0109 76.568 77.6429 76.568H76.4669C76.0509 76.568 75.6989 76.72 75.4109 77.024C75.1229 77.312 74.9789 77.664 74.9789 78.08V81.032ZM84.5624 81.392C84.5624 81.2 84.6744 81.08 84.8984 81.032H87.3224C87.8024 81.032 88.2104 80.864 88.5464 80.528C88.8824 80.176 89.0504 79.768 89.0504 79.304V74.912H90.7064V79.328C90.7064 80.352 90.3464 81.224 89.6264 81.944C88.9064 82.648 88.0424 83 87.0344 83H84.8984C84.6904 83 84.5784 82.888 84.5624 82.664V81.392ZM85.3544 85.88H87.3944V87.92H85.3544V85.88ZM98.7373 83H97.0813V67.184H98.7373V83ZM97.7086 88.976L97.1806 87.344L100.109 86.384C100.797 86.144 101.349 85.728 101.765 85.136C102.181 84.56 102.389 83.912 102.389 83.192V75.584H104.021V83.048C104.021 84.168 103.701 85.176 103.061 86.072C102.421 86.984 101.557 87.64 100.469 88.04L97.7086 88.976ZM110.745 77.84H112.161V80.024C112.161 80.296 112.241 80.536 112.401 80.744C112.561 80.936 112.801 81.032 113.121 81.032H116.889C117.625 81.032 118.145 80.824 118.449 80.408C118.769 79.976 118.929 79.536 118.929 79.088C118.929 79.056 118.921 78.944 118.905 78.752C118.889 78.56 118.809 78.32 118.665 78.032L115.905 73.112L117.297 72.176L120.033 77.072C120.433 77.744 120.633 78.432 120.633 79.136C120.633 79.152 120.625 79.336 120.609 79.688C120.593 80.04 120.441 80.504 120.153 81.08C119.833 81.656 119.377 82.12 118.785 82.472C118.209 82.824 117.545 83 116.793 83H113.337C112.617 83 112.001 82.744 111.489 82.232C110.993 81.72 110.745 81.104 110.745 80.384V77.84ZM123.774 80.624C123.694 80.352 123.654 80.088 123.654 79.832C123.654 79.64 123.678 79.44 123.726 79.232L124.134 77.048C124.278 76.296 124.638 75.688 125.214 75.224C125.806 74.744 126.478 74.504 127.23 74.504H128.574C129.502 74.504 130.294 74.832 130.95 75.488C131.606 76.128 131.934 76.912 131.934 77.84V81.032H133.83C134.022 81.032 134.134 81.144 134.166 81.368V82.664C134.166 82.872 134.054 82.984 133.83 83H131.91V83.288C131.734 85.608 130.542 87.208 128.334 88.088L125.598 89.024L125.07 87.368L127.95 86.408C129.486 85.752 130.254 84.696 130.254 83.24V82.808C129.982 82.936 129.662 83 129.294 83H126.822C126.086 83 125.446 82.784 124.902 82.352C124.358 81.904 123.982 81.328 123.774 80.624ZM125.334 79.472C125.318 79.568 125.31 79.656 125.31 79.736C125.31 80.04 125.43 80.336 125.67 80.624C125.91 80.896 126.238 81.032 126.654 81.032H130.278V77.84C130.278 77.424 130.126 77.072 129.822 76.784C129.534 76.48 129.182 76.328 128.766 76.328H127.182C126.446 76.328 125.95 76.736 125.694 77.552L125.334 79.472ZM133.5 81.368C133.5 81.192 133.612 81.08 133.836 81.032H137.748C139.284 81.032 140.652 80.512 141.852 79.472L143.988 77.528C144.18 77.352 144.324 77.24 144.42 77.192L138.66 75.488C138.548 75.456 138.444 75.44 138.348 75.44C138.172 75.44 137.98 75.504 137.772 75.632C137.564 75.744 137.404 75.944 137.292 76.232L136.692 78.152L135.228 77.768L135.78 75.848C136.02 75.08 136.492 74.512 137.196 74.144C137.516 73.968 137.796 73.864 138.036 73.832C138.292 73.8 138.476 73.784 138.588 73.784C138.828 73.784 139.084 73.824 139.356 73.904L148.62 76.688L148.116 78.296L147.156 78.008C146.964 77.96 146.772 77.936 146.58 77.936C146.132 77.936 145.628 78.176 145.068 78.656L142.284 81.2C141.644 81.808 140.916 82.264 140.1 82.568C139.284 82.856 138.444 83 137.58 83H133.836C133.628 83 133.516 82.888 133.5 82.664V81.368ZM137.484 68.936H139.524V70.976H137.484V68.936ZM154.995 79.256V78.44C154.995 77.192 155.475 76.24 156.435 75.584C156.803 75.36 157.115 75.168 157.371 75.008L157.803 74.72L156.195 73.64L157.083 72.224C157.323 72.384 157.579 72.56 157.851 72.752C158.331 73.056 158.899 73.44 159.555 73.904C160.275 74.4 161.099 74.96 162.027 75.584C162.939 76.32 163.395 77.256 163.395 78.392V79.256C163.395 80.28 163.027 81.2 162.291 82.016C161.555 82.816 160.603 83.216 159.435 83.216H158.931C157.795 83.216 156.851 82.816 156.099 82.016C155.363 81.2 154.995 80.28 154.995 79.256ZM156.651 79.088C156.651 79.68 156.859 80.2 157.275 80.648C157.707 81.08 158.235 81.296 158.859 81.296H159.531C160.171 81.296 160.699 81.072 161.115 80.624C161.531 80.16 161.739 79.656 161.739 79.112V78.2C161.739 77.736 161.523 77.328 161.091 76.976C160.915 76.832 160.563 76.6 160.035 76.28C159.779 76.104 159.491 75.912 159.171 75.704L157.251 77C156.883 77.24 156.683 77.632 156.651 78.176V79.088ZM166.667 79.328V67.184H168.323V79.304C168.323 79.784 168.491 80.192 168.827 80.528C169.179 80.864 169.587 81.032 170.051 81.032H171.227C171.419 81.032 171.531 81.152 171.563 81.392V82.664C171.563 82.872 171.451 82.984 171.227 83H170.339C169.331 83 168.467 82.64 167.747 81.92C167.027 81.2 166.667 80.336 166.667 79.328ZM170.883 82.64V81.368C170.883 81.144 170.995 81.032 171.219 81.032H185.955C186.371 81.032 186.723 80.888 187.011 80.6C187.315 80.296 187.467 79.936 187.467 79.52V77.912C187.467 77.464 187.307 77.08 186.987 76.76C186.683 76.44 186.299 76.28 185.835 76.28H174.771L173.547 75.152L179.859 67.784L181.035 68.888L176.307 74.48H185.763C186.691 74.48 187.483 74.808 188.139 75.464C188.795 76.12 189.123 76.92 189.123 77.864V79.304C189.123 79.784 189.291 80.192 189.627 80.528C189.979 80.864 190.395 81.032 190.875 81.032H191.787C191.979 81.032 192.091 81.144 192.123 81.368V82.664C192.123 82.824 192.011 82.936 191.787 83H191.163C190.043 83 189.115 82.496 188.379 81.488C187.707 82.496 186.827 83 185.739 83H171.219C171.011 83 170.899 82.88 170.883 82.64ZM172.515 72.32L177.363 66.608L178.251 67.4L173.403 73.088L172.515 72.32ZM191.797 83C191.589 83 191.477 82.888 191.461 82.664V81.392C191.461 81.2 191.573 81.08 191.797 81.032H194.701C195.181 81.032 195.589 80.864 195.925 80.528C196.261 80.192 196.429 79.792 196.429 79.328V74.912H198.085V79.328C198.085 80.352 197.725 81.224 197.005 81.944C196.285 82.648 195.421 83 194.413 83H191.797ZM197.221 87.92H195.181V85.88H197.221V87.92ZM193.933 87.92H191.893V85.88H193.933V87.92ZM201.683 79.328V67.184H203.339V79.304C203.339 79.784 203.507 80.192 203.843 80.528C204.195 80.864 204.603 81.032 205.067 81.032H206.243C206.435 81.032 206.547 81.152 206.579 81.392V82.664C206.579 82.872 206.467 82.984 206.243 83H205.355C204.347 83 203.483 82.64 202.763 81.92C202.043 81.2 201.683 80.336 201.683 79.328ZM205.898 81.368C205.898 81.192 206.01 81.08 206.234 81.032H210.146C211.682 81.032 213.05 80.512 214.25 79.472L216.386 77.528C216.578 77.352 216.722 77.24 216.818 77.192L211.058 75.488C210.946 75.456 210.842 75.44 210.746 75.44C210.57 75.44 210.378 75.504 210.17 75.632C209.962 75.744 209.802 75.944 209.69 76.232L209.09 78.152L207.626 77.768L208.178 75.848C208.418 75.08 208.89 74.512 209.594 74.144C209.914 73.968 210.194 73.864 210.434 73.832C210.69 73.8 210.874 73.784 210.986 73.784C211.226 73.784 211.482 73.824 211.754 73.904L221.018 76.688L220.514 78.296L219.554 78.008C219.362 77.96 219.17 77.936 218.978 77.936C218.53 77.936 218.026 78.176 217.466 78.656L214.682 81.2C214.042 81.808 213.314 82.264 212.498 82.568C211.682 82.856 210.842 83 209.978 83H206.234C206.026 83 205.914 82.888 205.898 82.664V81.368ZM212.834 87.92V85.88H214.874V87.92H212.834Z" fill="#7E8AAB"/>
<path d="M283.439 42.7314C284.358 40.1045 286.18 38.2825 288.334 37.8371C289.201 37.6578 290.64 37.7412 291.77 38.0363C292.759 38.2948 294.464 39.4514 296.585 41.3029C300.626 44.8308 303.275 46.4444 305.632 46.8137C306.306 46.9195 306.98 47.1061 307.129 47.2283C307.354 47.4134 307.399 49.0023 307.399 56.6776C307.399 59.719 307.356 61.8007 307.301 63.2206C307.226 65.1465 306.139 66.7193 304.466 67.6751L278.927 82.2594C276.469 83.663 273.452 83.6634 270.994 82.2604L246.552 68.3104C244.231 66.9854 242.724 64.5882 242.537 61.9216L242.5 61.39L242.501 58.0055C242.502 57.2651 242.697 56.5379 243.068 55.8971C244.36 53.6666 246.824 52.5528 249.522 52.9801C251.231 53.2507 252.16 53.8161 256.238 57.0674C259.451 59.6295 260.329 60.2232 262.458 61.275C265.4 62.7282 266.477 62.9885 268.961 62.8461C272.373 62.6506 274.965 61.5362 277.285 59.267C279.925 56.6843 280.97 54.1546 282.467 46.7242C282.784 45.1511 283.222 43.3542 283.439 42.7314Z" fill="#09A1A4"/>
<path d="M246.422 26.7052C249.39 24.9714 253.83 22.391 258.722 19.5922C263.573 16.8172 268.027 14.3211 271.037 12.6453C273.47 11.2911 276.428 11.3169 278.846 12.6972L303.298 26.6582C305.749 28.0571 307.286 30.6433 307.303 33.4647C307.319 36.1295 307.304 39.001 307.166 39.1377C306.579 39.719 305.139 39.0177 302.248 36.7438C296.765 32.4308 294.777 31.4373 290.592 30.9199C286.791 30.4502 283.266 31.6648 280.556 34.3779C277.699 37.2369 276.518 40.0167 275.809 45.5456C275.268 49.7643 274.723 51.1728 272.857 53.1744C271.073 55.0882 268.86 55.7801 266.466 55.1724C264.54 54.6837 262.796 53.6506 260.229 51.4789C257.353 49.0448 256.106 48.1846 254.03 47.2014C250.903 45.7206 247.924 45.3389 244.686 46.0038C243.378 46.2723 243.055 46.2849 242.802 46.0769C242.533 45.8553 242.498 44.8548 242.5 37.4784C242.501 35.9792 242.516 34.5465 242.537 33.2968C242.583 30.5683 244.066 28.0815 246.422 26.7052Z" fill="#37396A"/>
</svg>
