<svg width="258" height="193" viewBox="0 0 258 193" fill="none" xmlns="http://www.w3.org/2000/svg">
<g clip-path="url(#clip0_4_905)">
<path fill-rule="evenodd" clip-rule="evenodd" d="M82.5211 104.206C83.5778 112.085 84.6343 119.963 85.6911 127.842L86.5443 134.204C86.6521 135.007 86.5503 136.59 86.9607 137.309C87.1056 137.562 87.4866 137.683 87.7667 137.832C88.7308 138.347 89.6951 138.861 90.6592 139.376C98.8151 143.729 106.971 148.082 115.126 152.436C122.954 156.613 130.781 160.791 138.608 164.969C139.418 165.401 140.728 166.529 141.603 166.232C142.434 165.949 143.283 165.253 144.038 164.813C145.486 163.969 146.935 163.125 148.383 162.281C157.148 157.175 165.913 152.068 174.678 146.961C178.295 144.854 181.911 142.748 185.527 140.64C186.517 140.064 187.506 139.488 188.496 138.911C189.013 138.61 189.08 138.62 189.284 138.108C190.046 136.195 190.398 134.004 190.937 132.018C191.531 129.831 192.125 127.643 192.719 125.456C192.983 124.479 192.859 124.353 192.427 123.411C191.573 121.546 190.718 119.681 189.863 117.816C187.967 113.677 186.07 109.538 184.173 105.398C183.406 103.724 181.558 102.547 180.228 101.315L159.575 82.1994C159.051 81.7138 158.526 81.2283 158.002 80.7427C157.915 83.661 157.335 86.7983 158.186 89.6174C159.582 94.2439 160.978 98.8705 162.374 103.497C163.049 105.733 163.724 107.969 164.399 110.206C164.524 110.621 165.287 112.269 165.083 112.634C164.97 112.837 164.006 113.042 163.797 113.12C162.9 113.46 162.003 113.799 161.106 114.138C158.606 115.084 156.107 116.029 153.607 116.974C151.359 117.825 149.111 118.675 146.863 119.525C146.1 119.814 145.205 120.348 144.4 120.303C143.68 120.263 142.861 119.909 142.164 119.73C140.939 119.417 139.713 119.103 138.488 118.789C136.081 118.173 133.674 117.557 131.267 116.94C128.559 116.247 126.272 114.21 123.956 112.702C119.975 110.111 115.995 107.52 112.014 104.929C111.103 104.336 111.1 103.997 110.737 102.914C109.921 100.48 109.104 98.0464 108.288 95.6124C107.853 94.3128 107.317 93.0077 106.987 91.6771C106.445 89.4813 106.123 87.2082 105.693 84.988C105.563 84.3182 105.433 83.6482 105.304 82.9784C103.637 83.6508 101.97 84.3235 100.302 84.9962C100.061 85.0936 98.8835 85.3843 98.7788 85.6231C98.7125 85.7741 99.0627 86.4591 99.1128 86.6063C100.495 90.6764 101.877 94.7462 103.26 98.816C103.695 100.096 104.129 101.376 104.564 102.657C103.525 101.034 102.486 99.4101 101.447 97.7869C100.631 100.517 99.8142 103.247 98.9977 105.977C97.0681 103.764 95.1384 101.55 93.2086 99.3364C92.5406 101.55 91.8727 103.764 91.2047 105.977C89.1267 103.247 87.0486 100.517 84.9703 97.7869C84.7234 99.2116 84.4763 100.636 84.2291 102.061C84.1545 102.491 84.1694 103.725 83.8816 104.065C83.6444 104.345 82.9618 104.206 82.5211 104.206Z" fill="#E71D36"/>
<path fill-rule="evenodd" clip-rule="evenodd" d="M214.096 121.237C213.98 124.945 214.061 129.76 212.019 133.02C211.69 133.546 210.573 135.186 210.449 133.744C210.326 132.328 210.677 130.926 210.33 129.494C210.144 128.727 209.519 127.053 208.452 127.746C207.908 128.098 207.765 128.97 207.552 129.519C207.237 130.333 206.884 131.133 206.553 131.941C205.395 134.759 204.195 138.122 201.621 139.987C201.958 137.557 202.876 134.962 202.259 132.506C202.049 131.668 201.412 130.14 200.315 130.63C199.245 131.108 198.553 133.241 198.048 134.19C196.518 137.07 194.954 139.894 193.231 142.666C192.365 144.06 191.429 145.334 190.296 146.527C189.587 147.273 188.703 148.533 187.586 148.644C187.586 146.519 188.29 144.465 188.932 142.463C189.623 140.311 190.253 138.14 190.931 135.984C191.52 134.113 192.002 132.257 192.394 130.338C192.556 129.545 192.685 128.724 193.365 128.211C193.976 127.751 194.942 127.532 195.624 127.193C197.414 126.304 199.255 125.345 200.918 124.239C201.601 123.786 202.189 123.199 202.904 122.792C203.719 122.329 204.479 121.938 205.233 121.373C208.485 118.935 211.417 115.935 213.392 112.364C213.713 113.799 214.138 115.2 214.185 116.679C214.232 118.196 214.144 119.721 214.096 121.237ZM187.331 138.283C186.811 137.41 186.019 137.767 185.32 138.188C184.237 138.842 183.151 139.49 182.062 140.135C179.845 141.448 177.67 142.829 175.505 144.223C171.098 147.059 166.537 149.38 161.89 151.781C157.399 154.101 153.085 156.862 148.878 159.653C147.866 160.324 146.862 161.01 145.891 161.737C145.029 162.383 144.34 163.29 143.433 163.865C142.488 164.463 141.838 163.978 140.934 163.536C139.804 162.984 138.626 162.521 137.471 162.024C132.809 160.014 128.133 157.928 123.598 155.648C119.09 153.381 114.819 150.769 110.5 148.175C108.442 146.939 106.421 145.626 104.391 144.345C102.232 142.982 99.9964 141.961 97.7314 140.802C96.7292 140.29 95.8415 139.593 94.8121 139.127C93.73 138.637 92.5869 138.286 91.6179 137.579C91.1835 137.262 90.817 136.883 90.3205 136.659C89.9128 136.475 89.4501 136.444 89.0475 136.249C88.2286 135.851 87.9942 135.044 87.8356 134.205C86.8156 128.818 86.2735 123.282 85.6823 117.835C85.3501 114.772 84.9794 111.72 84.5203 108.674C84.3132 107.3 84.7296 106.236 84.9482 104.899C85.2034 103.338 85.3042 101.745 85.4752 100.174C86.2822 101.66 86.98 103.219 88.0066 104.576C88.7634 105.575 90.0562 106.992 91.4498 106.959C93.6158 106.907 93.5167 103.214 93.604 101.748C94.5906 102.623 94.8898 104.049 95.7088 105.066C96.4564 105.995 97.474 107.146 98.6222 107.562C101.04 108.438 100.807 103.976 100.674 102.711C100.607 102.076 100.247 101.072 101.102 101.362C101.89 101.628 102.656 102.733 103.318 103.24C104.462 104.116 105.717 104.844 106.891 105.68C108.348 106.718 109.919 107.468 111.404 108.434C112.333 109.039 113.346 109.174 114.358 109.619C115.842 110.27 117.152 111.241 118.564 112.022C121.36 113.568 124.461 114.954 127.519 115.886C128.509 116.187 129.827 117.037 130.578 116.164C131.04 115.626 131.344 114.805 131.736 114.203C132.233 113.44 132.76 112.697 133.307 111.97C135.253 109.384 137.412 106.943 139.809 104.762C142.599 102.225 145.649 99.9418 148.912 98.0404C150.314 97.2234 156.168 93.5615 157.454 96.1387C156.397 96.0732 155.481 96.4577 154.576 96.9391C154.356 97.0567 153.218 97.8646 153.484 97.1525C153.153 97.2141 152.864 97.6426 152.613 97.8332C152.181 98.1626 151.524 98.5428 151.023 98.8155C150.528 99.0849 149.916 99.1509 149.465 99.4776C149.3 99.5969 149.2 99.7904 149.043 99.9194L148.593 99.923C148.525 100.171 148.458 100.419 148.39 100.667C148.135 99.8555 147.772 100.911 147.347 101.254C147.091 101.46 146.686 101.672 146.384 101.805C146.159 101.905 146.125 101.674 145.906 101.849C145.712 102.005 145.588 102.349 145.379 102.545C145.123 102.784 144.795 102.971 144.509 103.175C143.962 103.567 143.383 103.875 142.829 104.246C142.083 104.746 141.691 105.605 140.967 106.128C140.624 106.375 140.091 106.404 139.906 106.563C139.44 106.961 139.594 107.564 138.725 107.59C138.804 107.716 138.852 107.853 138.868 108C138.661 107.964 138.477 107.879 138.316 107.744C138.352 108.605 137.501 108.912 136.99 109.443C136.696 109.748 136.329 110.178 136.122 110.545C136.087 110.607 136.021 111.098 136.007 111.104C135.928 111.142 135.448 110.723 135.494 110.758C135.36 111.553 134.585 112.306 134.246 113.042C134.068 113.43 133.886 114.054 133.534 114.327C133.439 114.401 133.144 114.323 132.901 114.581C132.722 114.77 132.516 115.12 132.443 115.371C132.395 115.538 132.453 115.972 132.384 116.072C132.256 116.256 132.058 116.071 131.859 116.207C131.49 116.458 131.481 116.85 130.941 116.902C131.313 117.8 133.558 118.077 134.374 118.333C136.682 119.055 139.103 119.776 141.261 120.882C141.819 121.168 142.347 121.403 142.445 122.062C142.583 122.979 142.113 124.198 142.023 125.125C141.781 127.626 141.731 130.2 141.782 132.712C141.83 135.091 141.907 137.493 142.019 139.869C142.122 142.072 142.569 144.232 142.81 146.419C142.876 147.02 142.832 149.727 143.871 149.591C144.738 149.477 144.19 147.628 144.174 147.098C144.138 145.924 144.386 144.726 144.376 143.543C144.371 142.973 144.621 142.483 144.645 141.939C144.669 141.401 144.4 140.975 144.48 140.418C144.558 139.882 146.15 136.804 144.621 137.164C144.71 136.724 144.789 136.28 144.907 135.847C145.071 135.993 145.202 136.164 145.302 136.358C145.438 135.413 145.392 134.469 145.477 133.523C145.515 133.094 145.689 132.625 145.63 132.192C145.641 132.013 145.618 131.838 145.561 131.665C145.467 131.566 145.351 131.514 145.212 131.509C145.14 131.273 145.121 131.208 145.25 130.975C145.305 130.818 145.415 130.72 145.58 130.681C145.893 130.644 145.929 130.465 145.687 130.144C145.814 129.51 145.83 129.109 145.739 128.477C145.662 127.945 145.944 126.916 145.657 126.443C145.322 125.89 145.155 126.426 145.093 125.66C145.079 125.497 145.069 125.159 145.134 124.997C145.206 124.821 145.423 124.893 145.45 124.831C145.638 124.405 145.65 123.566 144.986 123.638C145.012 123.334 145.038 123.03 145.064 122.725C145.544 123.275 145.376 122.81 145.648 122.504C146.015 122.093 146.373 122.022 146.897 121.86C148.293 121.427 149.639 120.775 151.003 120.247C153.892 119.127 156.835 118.128 159.64 116.805C165.539 114.022 171.32 111.002 177.255 108.293C176.831 107.511 177.095 107.473 177.405 106.738C177.819 107.024 177.732 106.825 178.026 106.807C177.999 106.562 178.076 106.488 178.256 106.586C178.399 106.629 178.546 106.645 178.696 106.632C179.063 106.694 179.364 106.895 179.698 106.972C179.807 107.052 179.928 107.112 180.059 107.153C180.177 107.126 180.278 107.068 180.361 106.979C180.901 107.078 181.084 107.483 181.107 108.069C181.111 108.171 180.798 108.276 180.887 108.413C181.044 108.652 181.467 108.595 181.709 108.626C181.656 108.875 181.603 109.123 181.55 109.372C182.611 108.885 182.334 110.409 182.656 110.909C182.746 111.049 182.945 110.937 183.049 111.099C183.185 111.31 183.144 111.609 183.26 111.819C183.521 112.295 183.782 112.237 184.043 112.782C185.403 115.626 187.212 118.276 188.518 121.181C189.14 122.564 189.7 123.971 190.349 125.341C190.946 126.603 191.288 127.675 190.862 129.053C189.875 132.248 188.819 135.502 187.525 138.589C187.46 138.487 187.396 138.385 187.331 138.283ZM118.465 162.137C118.372 162.293 118.28 162.45 118.187 162.607C117.982 161.43 118.53 161.976 118.465 162.137ZM114.11 159.934C113.814 159.845 113.942 159.363 113.951 159.157C114.139 159.39 114.323 159.627 114.48 159.883C114.356 159.9 114.233 159.917 114.11 159.934ZM102.175 155.411C102.487 155.237 102.711 155.112 103.065 154.915C102.706 155.611 102.706 155.611 102.175 155.411ZM83.399 94.1098C82.9227 95.2719 84.3749 102.447 83.0229 102.681C82.829 102.052 82.8047 100.318 82.002 100.111C81.0061 99.8537 81.1043 101.639 80.9682 102.191C78.9236 100.777 78.0154 98.0457 77.0386 95.8813C75.7935 93.1225 74.8138 90.2531 73.8782 87.3786C73.0782 84.9209 72.4167 82.4198 71.6082 79.9661C71.1003 78.4251 70.5528 76.8802 70.2113 75.2918C70.1371 74.9467 69.8452 74.0717 70.0933 73.7437C70.4537 73.2666 71.7514 73.8129 72.1695 73.9382C74.8822 74.7497 77.6961 75.099 80.4831 75.5705C83.5796 76.094 86.6691 76.6352 89.7843 77.0412C90.5627 77.1425 91.3416 77.2386 92.1209 77.332C92.6263 77.3927 93.3913 77.332 93.8714 77.5574C94.8431 78.0131 95.0499 79.7574 95.4108 80.6623C96.7572 84.0384 98.3419 87.3078 99.7595 90.6533C101.037 93.6671 102.005 96.8734 103.841 99.6175C102.471 99.0141 100.736 95.8239 99.2065 97.6627C98.5487 98.4534 98.7146 99.4951 98.7672 100.441C98.8433 101.809 98.8671 103.188 98.8671 104.558C97.37 104.171 96.364 102.481 95.5781 101.285C94.5044 99.6498 93.8282 98.1094 93.3528 96.2354C93.1469 95.424 92.6009 95.4038 92.1158 94.9182C91.804 94.6061 91.6473 94.1855 91.2002 94.6395C90.6382 95.2101 91.012 96.7904 91.1091 97.4642C91.3396 99.0674 92.0955 101.535 91.3607 103.041C90.369 105.075 87.7116 99.9588 87.4003 99.22C87.242 98.8439 84.4147 91.6311 83.399 94.1098ZM81.5425 59.2664C81.7099 59.2919 81.8771 59.3173 82.0446 59.3428C81.9096 59.4612 81.6289 59.8765 81.3995 59.7667C81.4472 59.6 81.4948 59.4333 81.5425 59.2664ZM90.4109 57.3745C90.3585 57.4318 90.3058 57.489 90.2532 57.5463C90.0132 57.2479 90.0983 56.8129 90.0983 56.4678C90.4155 56.6584 90.493 57.0396 90.4109 57.3745ZM91.1276 60.6851V61.6604C90.4627 61.3739 90.4496 61.2261 91.1276 60.6851ZM91.935 61.9251C91.4692 61.7981 91.4135 61.6956 91.479 60.9839C91.672 61.3826 91.7991 61.6453 91.935 61.9251ZM94.6162 69.1479C94.4209 69.6473 93.2798 68.4573 93.3217 68.1011C93.3615 67.7613 93.5367 67.66 93.7785 67.8784C93.8585 67.9508 93.7398 68.2122 93.7908 68.303C93.9749 68.6315 94.3461 68.9002 94.6162 69.1479ZM94.6289 72.1565C94.343 72.8662 93.8333 71.7486 94.5803 71.718C94.6293 71.8608 94.6456 72.0069 94.6289 72.1565ZM94.0742 71.0376C93.9636 70.8908 93.856 70.7421 93.7516 70.5907C94.1364 70.6679 94.4418 71.2253 94.8477 70.8534C94.7996 71.4205 94.3944 71.4363 94.0742 71.0376ZM69.1935 61.8195C68.5747 61.1482 72.6095 60.6769 73.0962 60.5616C76.6284 59.7242 79.9634 58.5125 83.2661 57.0257C84.8416 56.3164 86.4091 55.5986 87.9476 54.8123C88.612 54.473 89.5227 54.1852 90.0776 53.6757C90.4737 53.312 90.4579 53.0369 90.9726 52.8202C91.4097 52.6366 91.4315 52.81 91.6317 52.4779C91.7519 52.2787 91.888 51.5487 91.8176 51.3327C91.6259 50.7432 91.3425 51.2211 90.9446 50.8149C90.658 50.5221 90.7275 49.6893 90.8056 49.3444C90.9072 49.5087 90.9655 49.6871 90.9811 49.8792C91.4128 49.6676 91.2387 48.9409 91.711 48.8218C92.2086 48.6965 92.1572 49.0819 92.287 49.4759C92.663 48.927 92.3616 48.4588 92.1581 47.9227C93.1927 47.7301 94.3045 47.5435 95.33 47.8857C96.0717 48.133 96.7065 48.741 97.4896 48.8586C98.2564 48.9735 98.4038 48.612 98.9691 48.2452C99.428 47.9475 99.8221 48.2981 100.058 48.0732C99.9127 48.8325 98.6607 48.7286 98.8148 49.6774C98.8843 50.1044 99.4106 50.488 99.6502 50.8202C99.951 51.2372 100.191 51.6983 100.396 52.1683C101.193 53.9962 101.533 56.1174 101.868 58.0722C102.693 62.8973 102.797 67.8176 103.573 72.6581C103.943 74.9638 104.314 77.2707 104.506 79.5989C104.554 80.1811 104.912 81.5014 104.619 82.0615C104.372 82.5343 103.821 82.5356 103.338 82.6501C102.393 82.8734 101.505 83.1769 100.598 83.5131C99.7854 83.8144 99.5491 83.9992 99.0272 83.2389C98.5225 82.5031 98.2729 81.6261 97.9117 80.8195C97.4517 79.7917 96.896 78.8 96.3625 77.8086C97.4105 77.8086 98.0137 77.2461 97.9859 76.1874C97.9556 75.0147 96.9855 74.7364 96.5856 73.7727C96.1966 74.2749 96.1639 74.2891 95.8867 73.8123C95.5696 73.2671 95.3556 72.2694 95.1617 71.651C95.3004 71.7982 95.4391 71.9454 95.5778 72.0924C95.9276 71.6138 95.3797 70.8594 95.1964 70.4087C94.9136 69.7128 94.8638 68.9604 94.5955 68.2665C94.4492 67.8877 94.1103 67.5896 94.0273 67.1944C93.9718 66.9299 94.194 66.6782 94.1413 66.4097C94.0495 65.9422 93.5176 65.4407 93.3522 64.9652C93.0977 64.2338 92.8213 63.5899 92.5056 62.8774C92.0783 61.9129 92.1776 60.9009 92.0995 59.8745C92.0184 58.8102 91.6756 57.792 91.5544 56.7324C91.4707 56.0003 91.7328 55.0786 91.1757 54.4923C91.1105 55.4669 91.3914 55.4518 90.4703 55.6271C89.4216 55.8266 88.661 56.6033 87.6695 56.8351C87.4651 56.8829 87.3162 55.9953 87.3959 57.2061C86.9203 56.857 85.9052 57.2904 86.2839 57.4976C85.9969 57.8028 85.4316 57.5917 85.3372 58.049C84.3617 57.1062 82.7976 60.3152 81.636 58.6413C81.4443 59.7758 80.618 60.4465 79.5087 60.5965C78.951 60.6718 78.6072 60.8566 78.1122 61.0229C78.0118 61.0563 77.9749 61.2 77.856 61.2387C77.6743 61.2976 77.4075 61.1198 77.2766 61.1544C77.0101 61.2247 76.7137 61.5734 76.3417 61.6427C75.9151 61.7221 75.4497 61.6856 75.0227 61.6365C74.4887 61.5749 74.2538 61.5121 73.731 61.6869C73.2608 61.8443 72.7571 62.285 72.3207 61.8051C71.6352 62.9843 70.0006 62.6961 69.1935 61.8195ZM100.887 47.5902C100.369 47.5285 100.729 47.0849 100.969 46.9516C101.622 46.5899 101.447 47.6571 100.887 47.5902ZM72.1602 51.8216C75.2052 47.4543 80.4136 44.4536 84.9963 41.9289C87.4994 40.5498 90.0544 39.2131 92.6826 38.0844C93.9894 37.5235 95.3113 36.9843 96.6457 36.4915C97.3582 36.2283 98.0794 35.989 98.801 35.7509C99.0005 35.6851 99.3634 35.4832 99.5723 35.503C99.5362 35.4994 100.091 35.6495 99.9822 35.6966C100.34 35.5419 100.51 35.1384 100.93 34.977C101.403 34.7955 102.005 34.7205 102.511 34.7041C102.958 34.6895 103.346 34.8734 103.773 34.8878C104.053 34.8971 104.291 34.7647 104.566 34.7453C104.706 34.7355 104.694 34.9445 104.778 34.9566C104.815 34.962 105.189 34.8223 105.193 34.8247C105.329 34.9117 105.45 35.2513 105.573 35.3839C105.926 35.7641 106.444 36.0291 106.915 36.2292C107.488 36.4727 108.886 36.7175 108.239 37.6184C108.699 37.5527 108.913 37.9662 108.337 38.0709C108.025 38.1278 107.891 37.8435 107.659 37.6496C107.124 37.2025 105.824 36.5659 105.053 36.5947C104.619 36.6108 104.283 36.9382 103.883 37.0571C103.489 37.174 103.294 36.9927 102.949 37.0214C102.545 37.0549 102.285 37.3946 101.9 37.4551C101.539 37.5117 101.339 37.2674 101.016 37.2844C100.633 37.3046 100.263 37.6353 99.8969 37.7464C99.3153 37.923 98.8883 38.0434 98.3205 38.3363C97.2201 38.9041 95.9913 39.1197 94.8573 39.6084C93.9507 39.9991 92.9227 40.2047 92.0837 40.6368C91.1508 41.1169 90.2136 41.5953 89.3 42.117C88.6401 42.494 87.2984 42.6237 86.5707 42.5278C86.5603 43.86 85.9007 42.9261 85.2361 43.5096C85.3933 43.6475 85.5719 43.7488 85.7712 43.8137C85.0509 44.0997 84.3851 44.4556 83.6873 44.7843C82.9661 45.1243 82.1966 45.1991 81.7228 45.8422C81.2864 46.4347 81.4343 46.1291 80.783 46.3624C80.4842 46.4695 80.2243 46.7962 80.009 47.0156C79.639 47.3928 79.557 47.9639 79.3457 47.1887C79.2841 47.2832 79.0414 47.8851 78.9942 47.9003C78.7294 47.621 78.6914 47.9521 78.5433 48.0706C78.6212 48.328 78.5099 48.4967 78.2093 48.5766C78.0572 48.689 77.9032 48.7993 77.7475 48.9071C77.1829 49.2964 76.4641 49.6304 76.0665 50.2106C75.7732 50.0386 75.6646 49.7418 75.8431 49.4387C75.2827 49.9523 74.6141 50.4798 74.4624 51.2702C74.3928 51.2034 74.3115 51.1551 74.2193 51.1255C73.9918 51.2782 74.2881 51.7333 74.4324 51.8358C75.0616 51.5927 74.2752 51.6808 74.698 51.72C74.8185 51.7311 74.9423 51.8207 75.0752 51.8223C75.4651 51.8274 75.8313 51.8088 76.2179 51.7497C77.0702 51.6191 77.9078 51.3758 78.733 51.1319C79.6316 50.8663 80.5305 50.6011 81.4093 50.2752C82.133 50.007 82.8446 49.7079 83.556 49.41C83.8401 49.2909 84.1239 49.1702 84.4085 49.052C84.9489 48.8276 85.2339 48.4588 85.1584 49.0906C85.5888 49.0195 85.9618 48.4148 86.2922 48.168C86.7571 47.8211 87.2799 47.5623 87.8307 47.3852C88.0538 47.3135 88.2177 47.2223 88.4484 47.2217C88.5615 47.2214 88.6292 47.5384 88.7004 47.5212C89.1947 47.4021 88.9694 47.1298 89.1916 46.7376C89.6777 45.8803 90.9869 45.4061 91.7909 44.9191C92.3012 44.6099 92.6635 44.194 93.1346 43.8515C93.3551 43.6915 93.5151 43.6207 93.746 43.5529C93.9228 43.5009 94.1397 43.9047 94.2544 43.4989C93.8431 43.3318 93.504 43.1257 93.1083 43.0038C92.8285 42.9172 93.1642 42.6213 92.7207 42.7975C92.5426 42.8683 92.4814 43.2109 92.4159 43.3544C91.9205 42.9146 90.5275 43.3703 89.9397 43.5545C89.8992 43.5671 89.7177 43.4719 89.6322 43.4777C89.2929 43.5003 89.0567 43.9543 88.8334 44.1499C88.2395 44.6699 87.5954 44.8873 86.8642 45.1841C87.0588 44.1271 88.4889 43.6942 89.3236 43.2893C90.5438 42.6974 91.6798 41.9419 93.0157 41.6236C93.9055 41.4113 95.0844 41.2407 95.4687 42.2691C95.6987 42.8856 95.7277 44.4171 94.9495 44.7015C94.8673 44.4138 95.1305 44.1679 95.2098 43.9182C94.4352 44.2121 94.3076 45.1372 93.7193 45.6199C93.3887 45.8911 93.2704 45.9781 93.1106 46.2402C92.9518 46.5005 92.8757 46.7433 92.5036 47.0202C91.8955 45.7362 91.9984 47.495 91.69 47.7157C91.8141 47.627 91.1875 47.8862 91.2623 47.8587C91.2334 47.8693 90.9604 47.4297 90.7834 47.439C90.4612 47.4559 90.5231 47.8085 90.3679 47.986C89.8418 48.5868 89.162 48.9808 88.3152 48.8862C88.2954 49.3137 88.4281 49.8243 87.841 49.8633L87.7639 48.9157C87.4444 49.2371 87.0238 49.5423 86.7638 49.9144C86.4679 50.3379 86.4995 50.5986 86.0085 50.8809C85.4955 51.1759 84.4041 51.7572 83.7935 51.8075C83.9445 51.5945 83.9178 51.4022 83.7138 51.2308C83.4068 51.5456 82.9534 51.5766 82.6266 51.8608C83.7612 52.3321 81.7549 52.3077 81.5004 52.3611C81.3301 52.3969 81.1813 52.5512 81.0088 52.586C80.7797 52.6322 80.75 52.3927 80.5528 52.4686C80.2642 52.5798 80.3813 52.8934 80.0794 53.051C79.8625 53.1644 79.4947 53.1628 79.25 53.2704C78.6669 53.5272 77.4247 54.0958 77.0306 53.4061C76.8308 54.5894 74.7911 53.8691 74.0361 53.7895C73.002 53.6803 71.201 53.1978 72.1602 51.8216ZM76.5033 39.714C76.6496 39.5898 76.7961 39.5989 76.9426 39.7414C76.7387 38.6705 78.3162 38.1506 79.0044 37.6952C79.9173 37.0914 80.9918 35.9198 82.1864 36.0125C81.9827 36.1626 81.7794 36.3127 81.5759 36.4627C81.8664 36.5002 82.1568 36.5376 82.4469 36.575C82.2832 36.814 82.1194 37.0529 81.9553 37.2917C81.6872 35.8228 80.2885 37.6773 79.8837 37.9476C79.476 38.2196 79.0694 38.4224 78.7072 38.7542C78.3482 39.0829 78.0243 39.6748 77.4309 39.3791C77.3768 40.218 76.6984 39.9905 76.2292 40.4551C76.2096 40.1636 76.3775 39.9575 76.5033 39.714ZM82.7007 35.5262C84.1447 34.9885 85.4018 33.9944 86.7624 33.2843C88.0621 32.6059 89.388 31.9967 90.7092 31.3638C91.3794 31.0427 92.6072 30.2121 93.3733 30.6354C94.4071 31.2069 92.9839 31.3913 92.6143 31.5892C92.4776 30.7091 91.9986 31.5064 92.2847 31.996C91.4959 31.6574 89.7754 32.9824 89.0228 33.3478C88.8525 33.4306 88.9289 33.4784 88.7352 33.5758C88.6875 33.5997 88.1937 33.7115 88.0523 33.7587C87.3438 33.9944 86.8769 33.8072 86.5716 34.6574C86.5077 34.4573 86.4438 34.2569 86.3799 34.0566C85.9364 35.0467 84.5882 35.4802 83.7261 36.0656C83.5038 36.2166 82.8693 36.8021 82.5874 36.681C82.1951 36.5123 82.3525 35.6557 82.7007 35.5262ZM108.749 38.5114C109.358 38.5514 108.77 38.8341 108.938 39.0209C108.919 38.9999 109.305 39.3273 109.254 39.2374C109.323 39.3583 109.486 39.3538 109.57 39.5996C109.858 40.4445 108.599 41.3175 108.175 41.7969C107.349 42.7295 106.872 43.9104 106.012 44.8131C105.623 45.2208 105.236 45.5024 104.698 45.6545C104.321 45.7609 103.922 45.6469 103.576 46.0073C103.297 46.2975 103.36 46.4624 103.052 46.6167C102.508 46.8887 102.269 46.6501 101.74 47.238C101.285 46.0086 102.592 46.0106 103.274 45.3235C104.216 44.375 105.247 43.4181 106.13 42.4034C106.914 41.5019 107.229 40.7114 107.601 39.6162C107.718 39.2708 107.846 38.5304 108.169 38.3137C108.673 37.9764 108.371 38.4864 108.749 38.5114ZM111.746 70.4484C113.345 68.6704 115.329 67.074 117.479 66.0031C118.247 65.6202 119.341 65.1177 120.137 65.7072C120.919 66.2849 120.75 67.4375 120.436 68.2215C120.134 68.1038 120.419 67.0019 120.262 66.7296C119.921 66.1355 119.184 66.4509 118.682 66.6501C118.095 66.8834 117.571 67.1411 117.106 67.5646C116.917 67.7361 116.555 67.8899 116.434 68.0079C116.253 67.9329 116.146 67.9876 116.114 68.1717C116.151 68.2846 116.147 68.3957 116.1 68.5051C116.074 68.5398 115.837 68.3973 115.804 68.4258C115.651 68.5562 115.507 68.7096 115.356 68.8307C115.054 69.074 114.796 69.1891 114.518 69.5282C113.98 70.1836 113.268 70.5677 112.728 71.1921C112.606 71.3333 112.46 71.6952 112.432 71.7269C112.159 72.0439 111.754 72.2947 111.446 72.6302C110.913 73.21 110.344 73.5991 109.729 74.0963C109.465 74.3101 109.156 74.5405 108.98 74.838C108.9 74.9737 108.854 75.7175 108.851 75.7206C108.249 76.3775 108.366 75.0569 108.411 74.8914C108.901 73.1097 110.556 71.7721 111.746 70.4484ZM108.455 82.496C108.53 82.7758 108.592 83.0071 108.668 83.2911C108.19 82.9013 108.19 82.9013 108.455 82.496ZM107.939 83.4124C107.763 83.5884 107.587 83.7632 107.409 83.937C107.018 83.526 108.011 83.342 107.939 83.4124ZM107.691 76.3375C107.504 77.0896 106.819 78.0014 106.348 78.5951C106.4 78.5296 105.947 78.6613 105.895 78.6911C105.727 78.7877 106.129 79.4132 105.548 79.1336C105.342 79.2496 105.748 79.722 105.468 79.9334C104.658 78.0995 106.869 76.5106 107.724 75.1493C108.143 75.5313 107.796 75.9158 107.691 76.3375ZM102.432 86.2528C103.023 86.4038 103.33 86.3088 103.728 85.7324C103.968 85.3862 104.055 84.7731 104.603 85.291L104.7 84.625C105.482 84.9439 105.416 86.0968 105.758 86.7356C105.924 86.0129 106.318 83.9939 107.524 84.3177C108.878 84.6814 106.625 86.9963 106.416 87.5635C105.955 86.8533 106.136 87.5139 105.785 87.6139C105.484 87.7 105.013 87.4796 104.647 87.4995C103.534 87.5597 102.555 88.0577 101.538 88.4794C101.28 87.789 101.023 87.0986 100.765 86.4082C101.364 86.454 102.603 84.8691 102.779 86.0211C102.334 85.9442 102.209 85.9637 101.993 86.3657C102.131 86.296 102.278 86.2583 102.432 86.2528ZM104.932 95.2644C104.931 95.2588 106.084 95.3297 106.187 95.2923C106.977 95.0056 106.685 94.1153 106.846 93.486C107.172 93.7835 106.999 94.3265 107.1 94.7114C107.217 95.1639 107.559 95.5495 107.59 96.0333C107.662 97.1266 106.76 96.884 106.076 97.2377C105.491 97.5401 105.426 97.9204 104.933 97.1056C104.799 96.8851 104.512 96.3107 104.541 96.0287C104.57 95.7494 105.015 95.5172 104.932 95.2644ZM105.862 99.9951L105.543 99.6399C106.494 99.9292 105.933 99.4942 106.152 98.8994C106.881 99.3824 107.477 99.8789 108.054 98.9118L109.051 102.912C108.381 103.068 107.517 102.039 107.058 101.686C106.792 101.482 105.319 100.695 106.204 100.465C106.09 100.309 105.976 100.152 105.862 99.9951ZM112.373 87.4351C111.82 87.9586 111.262 88.2516 110.659 88.6631C110.13 89.0244 110.312 89.439 109.854 89.8418C109.55 90.1097 108.836 90.3824 108.46 90.5867C107.79 90.9506 107.19 91.0199 106.501 90.6126C106.688 92.1136 105.654 92.2312 104.367 92.5284C103.753 92.6703 103.39 92.887 102.947 92.3281C102.644 91.9456 102.526 91.253 102.903 90.903C103.501 90.347 105.096 90.5389 105.865 90.1892C106.447 89.924 107.041 88.4296 107.76 88.9735C107.389 88.3858 107.821 88.2275 108.144 87.8085C108.497 87.3492 108.715 86.8122 109.08 86.3566C109.775 85.4907 110.841 84.6197 111.828 84.0975C112.696 83.6382 113.152 83.9634 113.282 84.928C113.347 85.413 113.345 86.1355 113.072 86.5658C112.985 86.7031 112.697 86.7046 112.61 86.8334C112.459 87.0585 112.598 87.223 112.373 87.4351ZM122.561 75.7934C123.253 76.3264 123.186 77.4465 123.295 78.2093C123.449 79.2844 123.337 80.3247 123.321 81.4198C123.303 82.567 122.737 83.3143 122.471 84.3897C122.175 85.5859 121.792 86.2194 121.128 87.2232C121.848 87.3359 120.776 89.4751 120.599 89.752C120.407 90.0526 118.86 91.4378 119.523 91.4378C119.157 91.9177 118.759 92.4102 118.394 92.8768C118.25 93.0606 117.998 93.1327 117.885 93.2624C117.655 93.5261 117.641 93.7611 117.476 94.0688C117.225 94.5357 117.143 94.411 116.814 94.7497C116.586 94.9837 116.437 95.2925 116.214 95.5167C115.494 96.239 115.402 95.6473 115 95.091C114.938 95.24 114.829 95.3334 114.671 95.3713C114.545 94.7417 115.413 94.1058 115.778 93.7233C116.375 93.0964 116.921 92.4058 117.449 91.7203C118.58 90.2514 119.597 88.6908 120.399 87.0191C121.252 85.2401 121.933 83.3148 122.287 81.3739C122.557 79.8946 122.814 77.357 120.825 76.9807C119.379 76.7071 117.785 77.5806 116.593 78.2878C115.866 78.7186 115.136 79.1469 114.444 79.6315C113.693 80.1569 113.043 80.9007 112.228 81.3224C112.674 81.0917 111.203 81.7859 111.428 81.5907C111.322 81.6818 111.413 81.9605 111.344 82.0863C111.253 82.2498 110.937 82.4114 110.795 82.5172C110.421 82.7966 109.824 83.0824 109.654 83.5437C107.281 81.8609 111.999 78.8735 113.209 78.1127C115.608 76.6038 119.783 73.6553 122.561 75.7934ZM128.961 59.428C128.938 58.2163 129.931 56.5621 130.601 55.574C130.929 55.0904 131.453 55.1096 131.645 54.5392C131.756 54.2107 131.611 53.8663 131.643 53.5365C131.688 53.0904 131.883 52.7327 132.107 52.3493C134.136 48.8836 136.601 45.8161 139.227 42.7924C140.522 41.3018 141.749 39.7538 143.146 38.3535C143.729 37.7687 145.297 35.6663 146.194 35.8766C146.669 35.9879 146.945 36.7084 147.159 37.0761C147.514 37.6842 147.904 38.2537 148.334 38.8129C149.472 40.2891 150.783 41.5849 152.332 42.6312C153.299 43.2851 154.277 43.9206 155.223 44.6057C156.001 45.1695 157.178 45.8141 157.734 46.6056C158.291 47.3974 157.474 48.0679 157.027 48.7253C156.334 49.7478 155.695 50.8072 154.999 51.8285C154.722 51.6306 154.793 51.2286 154.604 50.9752C154.435 50.7505 154.197 50.6591 153.965 50.5203C153.519 50.2549 153.082 49.9304 152.68 50.3751C151.976 51.1534 152.944 52.993 153.988 52.7912C154.111 53.5593 152.026 54.8243 151.504 55.2471C149.901 56.5438 148.247 57.6711 146.129 57.7884C145.272 57.8358 144.381 57.7712 143.566 57.4861C143.176 57.3495 142.745 57.162 142.446 56.8643C142.088 56.5079 141.997 55.9775 141.649 55.6247C141.348 55.3186 140.934 55.2714 140.633 54.9642C140.332 54.6567 140.183 54.1711 140.061 53.7729C139.822 52.9948 139.776 52.1742 139.547 51.3944C139.408 50.9254 139.295 50.2983 138.844 50.7489C138.189 51.4037 138.518 53.4625 138.686 54.247C138.925 55.3662 139.488 56.2684 140.077 57.2313C140.715 58.2759 140.951 59.2447 141.065 60.4533C141.28 62.7158 141.933 64.8868 142.949 66.9224C143.377 67.7795 143.889 68.5854 144.351 69.4228C144.566 69.8135 145.05 71.1465 145.637 71.1394C146.574 71.1279 145.239 68.4103 145.053 67.9541C144.026 65.4274 143.046 62.7716 142.826 60.0356C144.298 60.4126 145.902 60.7703 147.426 60.5315C146.443 62.7189 147.47 64.8968 147.345 67.1484C147.282 68.2775 147.236 69.3192 147.26 70.445C147.28 71.4323 146.832 72.4191 146.444 73.3118C145.674 75.0846 144.705 77.2716 143.275 78.6296C142.08 79.7649 140.481 79.8537 138.919 79.5923C135.366 78.9973 133.031 76.2819 131.54 73.198C130.582 71.2169 129.85 69.1021 129.395 66.9505C128.869 64.4605 129.007 61.9537 128.961 59.428ZM133.575 42.6469C130.259 40.2618 135.077 37.5534 137.53 37.9221C138.105 38.0085 139.164 38.2449 139.11 38.9913C139.066 39.6013 138.042 40.2813 137.649 40.6578C136.529 41.7323 135.388 43.9509 133.575 42.6469ZM157.696 95.6429C157.582 95.5415 156.654 95.7903 157.022 95.2444C157.328 94.7909 158.175 95.3593 158.482 95.476C158.229 95.6502 158.008 95.92 157.696 95.6429ZM143.89 124.49C143.605 124.525 143.307 123.76 144.334 124.331C144.186 124.384 144.038 124.437 143.89 124.49ZM143.86 136.943C143.896 137.286 144.001 137.511 143.756 137.76C143.549 137.507 143.523 137.149 143.86 136.943ZM144.277 142.089C144.247 142.275 144.217 142.461 144.187 142.648C143.949 142.528 143.713 142.409 143.475 142.29C143.742 142.223 144.01 142.156 144.277 142.089ZM144.568 137.75C144.921 137.881 144.757 137.461 145.013 137.402C145.105 137.839 144.992 138.214 144.739 138.575C144.715 138.49 144.586 137.756 144.568 137.75ZM153.604 106.699C153.108 106.636 153.033 107.158 152.663 107.36C152.424 107.49 151.697 107.392 151.562 107.642C151.741 107.693 151.92 107.745 152.099 107.796C151.689 108.016 151.279 108.236 150.869 108.455C151.855 108.455 152.883 107.987 153.862 108.125C154.276 108.183 154.579 108.322 154.839 108.657C154.997 108.86 155.135 109.187 155.16 109.435C155.188 109.705 154.977 109.891 155.014 110.019C155.455 110.031 155.403 110.751 155.304 111.044C155.089 111.68 154.236 112.676 153.471 112.272C153.791 112.724 153.71 112.981 153.236 113.243C153.279 113.094 153.311 112.833 153.069 112.859C153.007 113.109 153.031 113.506 152.825 113.694C152.595 113.905 152.39 113.659 152.17 113.796C151.909 113.959 151.988 114.214 151.783 114.391C151.512 114.624 151.473 114.459 151.149 114.504C150.658 114.573 150.971 114.27 150.578 114.665C150.442 114.802 150.465 115.156 150.244 115.356C149.821 115.739 148.691 116.139 148.285 115.647C147.31 117.184 144.386 117.553 143.025 116.339C140.855 114.405 144.902 110.47 146.238 109.223C147.579 107.971 149.068 106.89 150.575 105.846C151.432 105.254 152.311 104.716 153.208 104.187C153.761 103.861 154.457 103.266 155.137 103.323C155.747 103.375 156.268 103.845 156.91 103.938C157.375 104.006 158.277 104.117 157.691 104.743C157.417 105.036 156.341 105.509 155.974 105.58C155.759 105.622 155.532 105.542 155.319 105.585C154.958 105.659 154.71 105.962 154.317 105.924C154.441 106.503 154.214 106.776 153.604 106.699ZM160.027 85.177C160.027 85.6306 159.195 85.5175 159.021 85.3634C158.735 85.11 158.724 84.352 158.618 84.0074C159.102 84.1285 160.027 84.5716 160.027 85.177ZM153.319 70.2139C155.068 68.7847 156.907 67.4742 158.852 66.3201C159.548 65.9068 160.531 65.0732 161.396 65.1772C161.758 65.2211 162.508 65.6352 162.235 66.0919C162.184 66.1773 161.78 66.2116 161.656 66.2736C161.514 66.3438 161.403 66.5372 161.272 66.6329C160.364 67.2954 159.272 67.7025 158.361 68.3809C157.612 68.9381 156.914 69.5614 156.107 70.0395C155.334 70.4979 154.526 70.7881 153.791 71.2959C153.806 71.2857 152.836 71.6324 153.026 71.6955C152.175 71.4124 153.074 70.4143 153.319 70.2139ZM164.981 69.6816C166.02 69.2699 167.037 68.7703 168.125 68.4936C168.668 68.3555 169.225 68.2516 169.787 68.3138C169.883 68.1476 170.01 68.1109 170.169 68.2036C170.293 68.3931 170.456 68.5385 170.659 68.6401C170.969 68.877 172.11 69.1866 171.882 69.7097C171.732 70.0557 170.587 70.0844 170.273 70.1621C169.327 70.3966 168.444 70.9238 167.469 71.0533C167.378 71.0655 167.079 70.9553 167.076 70.9559C166.695 71.0385 166.379 71.4309 166.052 71.6191C165.348 72.024 164.337 72.0919 163.832 72.7907C165.468 73.8933 166.887 72.7998 168.326 71.9673C169.188 71.4688 170.112 71.1091 171.054 70.7895C171.546 70.6226 172.043 70.449 172.541 70.3025C172.748 70.2277 172.96 70.1739 173.178 70.1409C173.38 70.1008 173.525 70.1741 173.613 70.3609C174.216 70.341 174.267 69.9649 174.63 70.6664C175.142 71.6554 174.359 71.6051 173.624 71.7267C172.603 71.8949 171.566 72.2739 170.56 72.5251C170.329 72.5831 168.296 73.0517 168.293 73.0683C168.201 73.7062 174.036 73.1155 174.537 73.0198C175.421 72.8507 176.369 72.3706 177.284 72.4864C177.987 72.5751 179.587 73.6 178.467 74.2809C178.246 73.2308 177.488 74.098 177.093 74.4524C176.566 74.9241 175.811 74.8788 175.089 75.0636C174.101 75.3159 171.571 76.2629 170.869 75.0556C171.091 76.1137 167.059 75.576 166.505 75.541C165.964 75.5067 165.267 75.621 164.744 75.4678C164.404 75.3679 164.214 75.1477 163.893 75.0981C163.815 75.1822 163.721 75.2396 163.611 75.2699C163.449 75.1882 163.302 75.0842 163.171 74.9582C162.091 74.4648 160.42 74.1921 161.02 72.6203C161.586 71.1379 163.609 70.2257 164.981 69.6816ZM175.103 70.5978C175.13 70.5055 175.157 70.4132 175.184 70.3206C175.187 70.6037 175.866 70.7246 175.788 71.0914C175.614 71.9035 174.83 70.6832 174.763 70.5502C174.876 70.5661 174.99 70.5818 175.103 70.5978ZM179.249 71.9471C179.328 72.2798 180.231 72.9882 180.007 73.1515C179.651 72.6703 178.667 72.8888 179.249 71.9471ZM164.016 102.304C164.347 101.652 165.346 102.762 165.241 101.649C165.784 101.698 165.445 102.109 166.096 101.928C166.34 101.86 166.505 101.592 166.802 101.53C166.882 101.513 167.224 101.54 167.343 101.536C167.734 101.524 169.269 101.481 168.213 100.97C168.804 100.582 168.877 100.779 169.411 101.135C169.274 100.399 170.059 100.817 170.425 100.909C170.164 100.489 170.811 100.042 171.021 99.7583C170.946 100.195 170.985 100.685 171.622 100.405C171.78 100.336 171.745 100.027 171.87 99.9763C172.101 99.884 172.229 100.052 172.312 100.043C172.393 100.033 172.564 100.079 172.735 100.015C172.957 99.9318 172.85 99.6357 173.131 99.5916C173.315 99.5631 173.449 99.8309 173.672 99.8331C173.787 99.8342 173.979 99.7182 174.066 99.7244C174.082 99.7255 174.191 99.4635 174.325 99.457C174.521 99.4475 174.601 99.9706 174.673 100.072C175.017 100.557 175.474 100.873 176.001 101.132C175.047 102.001 173.123 101.909 171.924 102.202C171.274 102.361 170.72 102.59 170.125 102.885C169.982 102.978 169.858 103.092 169.755 103.227C169.671 103.171 169.587 103.116 169.502 103.06C169.177 103.08 168.868 102.92 168.502 102.981C167.369 103.171 166.482 104.015 165.331 104.203C164.814 104.287 164.389 104.405 164.052 103.959C163.756 103.568 163.805 102.719 164.016 102.304ZM162.463 97.1078C162.72 97.3236 162.411 98.0262 162.908 97.9498C163.26 97.8956 163.19 97.3517 163.467 97.2364C163.831 97.0852 164.05 97.444 164.392 97.4108C165.03 97.3484 164.993 96.795 164.455 96.552C165.015 96.405 165.194 97.0633 165.69 97.0573C166.341 97.0496 166.186 96.2857 166.74 96.1591C166.98 96.1042 166.9 96.4546 167.056 96.4982C167.367 96.5852 167.584 96.4358 167.86 96.3043C168.107 96.1867 168.282 95.9596 168.552 95.8826C168.675 95.8474 168.986 95.9118 169.076 95.8465C169.258 95.715 169.42 95.2028 169.599 95.1351C169.562 95.1488 170.148 95.4406 170.232 95.468C170.181 95.6843 170.061 95.71 169.874 95.5453C169.874 96.0334 171.239 96.1854 170.959 95.5822C171.697 95.8859 171.147 96.0422 171.074 96.4661C171.044 96.6365 170.945 96.6319 170.974 96.8121C170.988 96.8951 171.374 96.8236 171.37 96.9367C171.337 97.6652 169.002 97.8892 168.559 97.9534C167.643 98.0864 166.776 98.3102 165.893 98.5858C165.236 98.791 164.103 99.3787 163.403 99.3421C162.397 99.2897 162.266 97.9846 162.463 97.1078ZM160.215 89.6743C159.969 88.8639 160.756 87.19 161.782 87.3992C162.034 87.4506 162.096 87.6582 162.291 87.7503C162.564 87.8791 163.008 87.8114 163.245 87.9444C163.775 88.243 163.508 89.0038 164.04 89.2787C163.2 89.481 160.605 90.9623 160.215 89.6743ZM161.186 92.8228C161.548 92.6296 162.134 92.6048 162.38 92.2331C162.503 92.3177 162.736 92.831 162.956 92.7524C163.059 92.7159 163.165 92.4377 163.158 92.4379C163.354 92.4324 163.393 92.1683 163.693 92.1979C163.968 92.2254 164.276 92.5543 164.521 92.677C164.479 91.8615 164.689 91.7836 165.354 91.3471C165.5 91.2514 165.622 90.8924 165.756 90.7472C165.628 91.6029 165.952 91.6076 166.639 91.7362C167.501 91.8973 168.038 92.3573 168.383 93.185C167.649 93.0426 166.702 93.214 166.412 93.9987C165.826 92.9342 163.696 94.4031 163.007 94.7039C162.496 94.9272 161.901 95.2274 161.472 94.707C161.17 94.3404 161.343 93.8995 161.35 93.5739C161.351 93.4716 161.458 93.4656 161.448 93.3133C161.435 93.119 161.181 93.0413 161.186 92.8228ZM169.026 109.562C168.832 109.635 167.834 109.676 167.827 109.347C167.822 109.057 169.589 109.349 169.026 109.562ZM167.405 108.498C166.649 108.961 165.804 107.33 165.527 106.861C166.319 106.961 166.706 106.303 167.172 105.802C167.616 106.769 168.29 106.258 169 105.935C169.836 105.554 170.752 105.551 171.609 105.245C171.877 105.15 172.123 105.008 172.384 104.899C172.594 104.821 172.804 104.741 173.012 104.659C173.16 104.526 173.213 104.362 173.17 104.168C173.1 104.005 173.148 103.902 173.314 103.86C173.511 103.918 173.712 103.953 173.918 103.962C174.248 103.897 174.723 103.587 174.324 103.253C174.751 102.867 175.179 103.251 175.59 103.42C175.492 103.143 175.395 102.866 175.297 102.589C175.501 102.675 176.107 103.516 176.168 103.512C176.56 103.482 176.519 102.96 176.744 102.749C176.874 102.909 176.911 104.095 177.421 103.696C177.64 103.525 177.17 102.942 177.054 102.81C177.638 102.941 178.147 103.634 178.305 104.172C178.028 104.211 177.772 104.156 177.536 104.005C177.386 104.754 178.781 104.451 179.006 104.842C179.449 105.608 176.572 106.14 176.198 106.211C175.448 106.354 174.563 106.406 173.875 106.737C173.217 107.053 173.061 107.144 172.291 107.203C171.413 107.271 170.556 107.559 169.706 107.783C168.969 107.977 168.058 108.098 167.405 108.498ZM183.458 81.0747C184.152 80.8265 186.488 79.5389 187.082 80.1116C187.02 80.0509 187.511 81.0607 187.506 80.9972C187.548 81.5225 187.536 81.7339 186.885 81.9855C186.419 82.1657 186.014 81.7828 185.595 81.9349C185.134 82.102 185.456 82.3977 185.219 82.6042C184.96 82.8307 184.459 82.9285 184.136 83.0277C183.345 83.2705 182.548 83.4735 181.761 83.7351C180.16 84.2675 178.464 84.7629 176.818 85.1394C175.588 85.4207 173.5 86.12 172.367 85.2941C172.256 85.7636 171.986 85.6994 171.61 85.7678C171.316 85.8214 170.783 85.9664 170.521 85.9739C170.086 85.9865 168.874 85.873 169.041 85.2654C168.995 85.4327 169.983 84.8598 169.812 84.8242C170.232 84.9121 170.096 84.702 170.44 84.5851C170.889 84.4326 171.358 84.4408 171.817 84.2792C172.972 83.8719 173.942 83.3433 175.162 83.0881C177.948 82.5053 180.77 82.0365 183.458 81.0747ZM71.7521 143.849C71.5263 143.855 71.3506 143.217 72.0375 143.673C71.9424 143.731 71.8473 143.79 71.7521 143.849ZM66.3259 143.024C66.0189 143.102 65.8964 142.931 65.959 142.513C66.3872 142.345 66.5094 142.515 66.3259 143.024ZM62.1369 142.17C62.0583 141.796 62.3366 141.712 62.5889 141.545C62.5635 142.039 62.5635 142.039 62.1369 142.17ZM51.5968 139.098C51.1722 139.006 50.6064 138.593 50.5091 139.286C50.4381 139.125 50.0756 138.371 50.2312 138.196C50.3125 138.105 50.6202 138.527 50.5875 138.486C50.9591 137.738 51.5997 138.64 51.9577 138.907C51.8375 138.971 51.717 139.035 51.5968 139.098ZM161.993 56.5121C162.14 56.204 162.313 56.1062 162.511 56.2188C162.199 56.9396 161.142 57.3302 161.993 56.5121ZM169.339 49.7466C169.601 50.2347 169.207 50.441 168.925 50.8468C169.09 50.4092 169.204 50.1059 169.339 49.7466ZM201.263 97.3918C202.207 97.3916 204.219 96.896 204.789 97.9693C205.166 97.24 205.594 98.6077 205.921 98.8271C205.958 98.8519 206.194 98.6728 206.303 98.7387C206.468 98.8381 206.611 99.1088 206.706 99.2698C206.991 99.755 207.113 100.332 207.272 100.866C205.622 100.866 203.93 100.484 202.282 100.345C201.2 100.254 200.139 100.251 199.056 100.309C198.841 100.321 198.413 100.25 198.229 100.29C198.042 100.331 197.703 100.71 197.497 100.649C197.817 101.247 201.92 102.695 202.234 102.032C201.863 101.809 201.039 101.638 201.039 101.099C201.04 100.495 201.812 100.496 202.221 100.514C203.117 100.553 204.615 100.849 204.982 101.774C205.14 102.171 205.188 103.169 205.015 103.552C204.904 103.8 204.715 104.097 204.416 104.147C204.293 104.168 204.116 104.005 204.097 104.009C203.483 104.139 202.347 104.629 201.677 103.938C201.194 104.559 198.868 103.881 198.155 103.646C196.91 103.236 195.195 102.673 194.438 101.518C193.516 100.11 195.391 98.9194 196.467 98.3469C197.939 97.5647 199.62 97.3925 201.263 97.3918ZM207.549 100.648C207.838 100.729 208.128 100.811 208.417 100.892C208.34 101.397 207.198 100.997 207.549 100.648ZM216.301 118.993C216.39 116.971 215.802 115.19 215.463 113.235C215.378 112.75 215.464 111.902 215.094 111.504C214.74 111.122 213.95 111.432 213.919 110.758C213.571 111.164 213.606 111.249 213.176 110.782C213.255 110.983 213.266 111.186 213.21 111.393C212.944 111.241 211.978 110.737 212.059 111.427C211.265 111.252 211.495 110.758 211.042 110.381C210.977 110.328 210.719 110.518 210.618 110.437C210.436 110.29 210.346 110.157 210.192 109.968C209.997 110.202 209.731 110.372 209.492 110.557C209.354 110.257 209.084 110.036 208.759 109.963C209.062 110.595 209.813 111.412 208.784 111.772C208.169 111.986 207.163 111.723 206.513 111.773C204.101 111.959 201.46 111.437 199.129 110.865C196.733 110.279 194.311 109.451 192.157 108.24C191.698 107.982 191.409 107.677 191.014 107.357C190.629 107.045 190.35 106.996 189.888 106.797C189.056 106.439 188.296 105.865 187.663 105.225C186.303 103.848 185.039 102.048 185.418 100.032C185.795 98.0235 187.184 96.4537 188.671 95.1309C190.426 93.5686 192.408 92.2641 194.511 91.2125C195.451 90.7425 197.857 88.9766 198.786 90.0099C199.38 90.6699 199.046 91.5122 198.235 91.6589C198.034 91.6953 197.825 91.5618 197.623 91.6532C197.331 91.7851 197.434 91.941 197.313 92.051C197.104 92.242 196.882 92.5399 196.57 92.7055C195.479 93.2835 194.425 93.7414 193.383 94.4454C192.903 94.7696 192.44 94.9091 192.017 95.1922C191.595 95.4735 191.5 95.9393 190.933 95.652C191.135 96.471 189.924 97.348 189.449 97.8498C188.714 98.6267 187.832 99.6184 188.175 100.768C188.847 103.018 191.882 104.727 193.824 105.716C196.248 106.951 198.921 107.933 201.62 108.34C202.961 108.542 204.348 108.667 205.7 108.795C206.752 108.895 208.367 108.529 209.125 109.472C209.148 108.373 212.6 108.47 213.335 108.329C211.862 103.323 208.969 98.8727 205.877 94.7143C204.359 92.673 202.869 90.5737 201.139 88.7023C199.245 86.6537 197.081 84.8229 195.026 82.9378C190.993 79.2405 186.433 75.9408 181.792 73.034C177.162 70.134 172.368 67.2799 167.295 65.2122C161.502 62.8508 155.403 61.2976 149.297 59.9748C150.125 58.9255 151.472 58.4138 152.533 57.6461C152.904 57.3774 153.406 56.7324 153.888 56.6443C154.411 56.5486 154.822 57.1073 155.194 57.3878C156.261 58.1926 156.999 57.8509 158.221 57.8024C158.953 57.7734 160.685 58.1782 160.993 57.1948C161.403 57.7375 160.809 58.1727 160.504 58.5707C160.726 58.878 160.905 58.5592 161.123 58.5112C161.191 58.4556 161.258 58.3998 161.326 58.3443C161.434 58.188 161.532 58.1871 161.619 58.3412C161.75 58.5364 161.881 58.4932 162.013 58.2115C162.05 58.1889 162.086 58.1661 162.122 58.1435C162.28 58.0598 162.433 57.9275 162.58 57.8232C163.69 57.0341 164.68 56.3618 165.906 55.7805C166.936 55.2927 166.383 54.3592 167.061 53.7C167.215 53.5508 167.474 53.6257 167.638 53.4993C167.799 53.3751 167.823 53.2343 167.94 53.1013C168.222 52.7814 167.887 52.4102 168.606 52.8018L168.347 51.3495C169.758 52.7104 169.752 48.7942 169.945 48.2147C169.919 48.2912 170.071 47.6982 170.071 47.7033C170.113 46.5282 170.274 45.6764 168.89 45.6082C169.414 45.2804 169.574 45.9205 169.816 45.2578C169.937 44.9258 169.559 44.3551 170.162 44.5692C170.289 43.8635 170.163 43.2924 170.005 42.6066C169.843 41.9047 169.939 41.4363 169.946 40.7344C169.954 39.9382 169.579 39.138 169.459 38.354C169.365 37.74 169.462 36.7715 168.664 36.9971C168.551 36.8224 168.946 36.2852 168.93 36.0196C168.905 35.607 168.454 35.1877 168.327 34.7915C168.139 34.9841 167.875 35.0483 167.619 34.9613C167.859 34.423 167.634 34.2421 167.404 33.7779C167.273 33.5121 167.352 33.2186 167.071 33.028C166.909 32.9186 166.634 33.1028 166.507 32.9746C166.236 32.7002 166.336 32.336 166.15 31.9743C165.916 31.5208 165.381 31.1744 165.013 30.8339C162.942 28.9203 160.693 27.4578 157.938 26.7101C155.159 25.9557 151.919 25.6855 149.15 26.5556C148.043 26.9033 147.06 26.8677 146.063 27.5172C145.74 27.7279 145.706 27.6714 145.541 28.0227C145.504 28.1046 145.848 28.3227 145.637 28.4566C145.408 28.602 145.155 28.3063 145.039 28.0608C143.597 29.0981 142.247 30.4809 141.426 32.0664C140.61 33.642 140.535 35.493 140.224 37.2052C138.787 35.5733 136.843 34.7911 134.731 35.5756C132.889 36.2591 131.462 37.7616 131.102 39.7082C130.882 40.8949 131.122 42.0966 131.664 43.1673C131.899 43.63 132.183 44.1422 132.614 44.4536C132.954 44.6998 133.538 44.6652 133.699 45.1093C133.945 45.7895 132.524 47.2586 132.155 47.8541C131.488 48.9316 130.868 50.0444 130.395 51.2213C128.703 48.8446 127.083 46.2488 125.159 44.0574C123.342 41.9891 121.177 40.1341 119.054 38.3859C114.647 34.7574 110.064 31.3486 105.134 28.4579C100.543 25.7662 94.9983 24.2719 89.6483 24.8003C84.421 25.3167 80.4189 28.6033 77.0513 32.394C70.576 39.6826 66.61 50.0709 66.2226 59.7731C66.1062 62.6877 66.3295 65.5642 67.0536 68.3911C67.3985 69.7371 67.3484 71.0611 67.5488 72.4244C67.775 73.9624 68.1662 75.4948 68.5445 77.0013C69.9855 82.7404 71.8215 88.475 73.8818 94.0239C74.953 96.9095 76.249 99.7304 78.0025 102.275C78.8123 103.45 79.8614 104.37 80.7329 105.486C81.5783 106.568 81.8016 107.897 81.9876 109.225C82.4333 112.41 82.729 115.608 82.9971 118.811C83.1109 120.168 83.2438 121.514 83.4246 122.862C83.5822 124.038 83.1857 123.98 82.1911 124.379C82.3928 123.323 77.6409 124.041 77.1922 124.113C76.7039 124.192 76.1869 124.193 75.8024 124.255C75.3724 124.325 74.9516 124.426 74.4564 124.411C73.7286 124.391 72.3657 124.206 72.0878 125.129C71.8966 124.059 70.6332 125.23 71.5679 125.031C70.6085 125.137 69.6295 124.96 68.6585 125.05C67.5456 125.152 66.4232 125.25 65.3182 125.417C64.5489 125.533 63.8148 125.827 63.0442 125.913C62.058 126.022 61.0289 126.012 60.0332 126.099C56.3605 126.421 52.5537 127.218 48.9837 128.13C48.175 128.336 47.2458 128.483 46.4732 128.815C46.2664 128.903 46.0802 129.101 45.8821 129.178C45.5499 129.305 45.5953 129.217 45.3003 129.275C43.5326 129.627 41.709 130.2 39.9416 130.651C38.9612 130.901 37.3666 131.126 36.5668 131.806C36.2083 132.111 35.895 132.651 36.4695 132.997C36.9284 133.274 37.5834 132.832 37.9548 132.594C37.624 133.451 36.9999 133.878 37.337 134.854C37.603 135.624 38.2038 136.574 39.128 136.077C39.2518 136.363 39.3019 136.933 39.6664 137.038C39.9939 137.132 40.2311 136.72 40.5519 136.817C40.6668 136.851 40.6232 137.067 40.726 137.124C40.9033 137.221 41.0829 137.262 41.286 137.33C41.4606 137.389 41.7416 137.51 41.9237 137.523C42.0392 137.531 42.3116 137.334 42.3107 137.334C42.5761 137.375 42.7188 137.879 42.9098 138.025C43.1579 138.215 43.3627 138.258 43.6733 138.327C44.319 138.469 45.1513 138.714 45.5775 138.056C45.48 138.526 46.1219 138.48 46.4051 138.539C46.3737 138.292 46.2363 138.065 46.0243 137.93C46.6576 137.971 46.4009 138.597 46.8689 138.762C47.2024 138.88 47.1646 138.581 47.4197 138.548C47.7559 138.504 48.0111 138.747 48.5361 138.523C48.6499 139.026 48.6915 139.533 49.3125 139.608C49.677 139.652 50.5269 138.998 50.4788 139.542C51.2931 139.305 51.6021 139.465 52.0276 140.179C52.0995 139.741 52.4475 139.868 52.7668 139.841C53.2729 139.798 53.2858 139.838 53.6782 139.553C53.714 139.527 54.0226 138.825 54.1598 139.261C54.2214 139.457 53.8138 139.917 53.6628 140.035C53.8503 140.129 54.4646 140.459 54.7008 140.398C54.9052 140.346 54.9059 139.998 55.1515 139.981C55.0914 140.18 55.0315 140.38 54.9711 140.58C55.4489 140.649 55.8482 140.331 56.2256 140.098C56.5854 141.003 57.6138 140.493 58.1731 141.174C58.4691 141.534 58.4829 141.807 59.0466 141.901C59.6235 141.998 60.1274 141.746 60.6177 142.219C60.4623 141.926 60.0751 141.682 60.4598 141.367C60.7217 141.736 60.8568 142.181 61.1587 142.525C61.2004 142.35 61.242 142.175 61.2836 142C62.0707 142.837 63.0616 142.845 64.0697 143.309V142.696C64.7916 143.791 64.8301 143.098 65.6925 142.651C65.6339 142.973 65.5751 143.295 65.5166 143.617C66.1371 143.57 66.7169 144.301 67.2263 143.68C67.5341 144.194 67.907 143.941 68.4113 144.104C68.6981 144.197 68.9116 144.477 69.1906 144.579C69.609 144.731 69.7339 144.724 70.1278 144.857C70.478 144.975 70.6771 145.204 71.1155 145.277C71.4003 145.325 71.6585 145.322 71.9311 145.309C72.0364 145.303 72.0017 145.068 72.2357 145.123C72.5975 145.208 72.8669 145.659 73.1274 145.89C73.5193 144.911 74.6165 146.223 75.1469 146.398C75.1977 146.147 75.1885 145.844 75.3713 145.638C75.586 146.105 75.6679 146.498 76.1134 146.799C76.3706 146.973 76.7482 147.097 77.0453 147.161C77.233 147.201 77.5741 147.153 77.6921 147.21C77.8934 147.308 77.9675 147.57 78.1708 147.595C78.2904 147.609 78.4676 147.297 78.5571 147.321C78.9668 147.432 79.1943 147.927 79.608 148.194C80.8391 148.991 82.3883 149.068 83.7599 149.242C84.1041 149.286 84.154 149.193 84.4337 149.393C84.5828 149.501 84.5152 149.827 84.6986 149.918C85.39 150.263 85.3904 149.528 85.5354 149.071C85.764 149.371 85.8034 149.767 86.1163 150.006C86.2871 150.001 86.4581 150.005 86.6286 150.017C86.7248 150.127 86.788 150.253 86.8174 150.395C87.2316 150.673 87.7007 150.577 88.1284 150.785C88.2687 150.854 88.5172 151.267 88.69 151.386C88.9992 151.599 89.4775 151.713 89.8309 151.806C90.5719 151.999 91.6344 151.742 92.0752 152.511C92.6606 151.887 92.4341 152.632 92.8316 152.789C93.0663 152.881 93.4192 152.514 93.6795 152.55C94.1482 152.616 94.3169 153.12 94.467 153.487C94.7524 153.424 94.5565 152.621 94.5485 152.445C94.9032 152.403 94.982 153.332 95.0432 153.536C95.6032 153.268 94.6841 152.433 95.2862 152.166C95.2309 152.877 95.8007 153.462 94.7832 153.564C94.9237 153.992 98.2056 154.467 98.4336 154.089C98.4842 154.788 98.9562 154.136 99.1303 153.896C99.1499 154.304 99.0103 154.882 99.4703 155.072C99.7829 155.2 100.488 154.868 100.611 154.563C100.751 155.028 100.985 155.013 101.277 155.309C101.477 155.512 101.609 155.864 101.82 156.034C102.206 156.347 102.926 156.299 103.376 156.229C104.258 156.092 104.154 155.924 104.468 156.835C104.539 156.489 104.762 155.766 105.15 156.304C105.397 156.645 104.871 157.398 104.719 157.698C105.059 157.513 105.396 157.293 105.783 157.213C105.804 157.331 105.824 157.582 105.767 157.692C105.779 157.67 106.191 157.945 106.344 158.021C106.307 158.003 106.465 157.318 106.46 157.34C107.004 157.674 106.627 158.312 107.109 158.642C107.233 158.727 107.525 158.627 107.676 158.679C107.938 158.77 108.165 159.014 108.397 159.156C108.212 158.909 108.238 158.492 108.251 158.206C108.369 158.271 108.454 158.515 108.574 158.534C108.619 158.541 109.087 158.603 109.084 158.601C109.572 158.94 109.472 158.983 109.053 159.392C109.203 159.625 109.828 159.219 109.997 159.152C110.033 159.243 110.042 159.575 110.108 159.634C110.149 159.733 110.189 159.831 110.23 159.929C110.355 159.837 110.489 159.806 110.632 159.836C110.722 159.868 111.428 160.153 111.475 160.055C111.321 160.006 111.181 159.93 111.056 159.827C111.463 159.463 111.731 159.27 112.106 159.795C112.153 159.861 111.991 160.099 112.039 160.186C112.218 160.507 112.587 160.763 112.837 161.024C112.94 160.663 112.699 159.758 113.274 159.791C113.734 159.817 114.083 160.923 113.924 161.267C114.107 161.069 115.197 160.872 115.402 160.933C115.984 161.109 115.821 161.644 116.537 160.86C117.025 161.195 116.595 161.322 116.683 161.73C116.812 161.757 116.934 161.725 117.049 161.635C116.963 163.37 118.25 162.044 119.087 162.309C119.415 162.413 119.499 162.784 119.851 162.892C120.037 162.949 120.245 162.814 120.426 162.847C120.571 162.826 120.715 162.801 120.859 162.77C121.04 162.68 121.126 162.781 121.114 163.074C121.407 163.225 121.296 163.283 121.638 163.313C121.858 163.332 122.06 163.104 122.31 163.143C122.741 163.21 122.684 163.539 122.96 163.711C123.208 163.866 123.488 163.861 123.793 163.831C123.949 163.816 124.386 163.617 124.439 163.616C124.765 163.611 124.588 163.542 124.98 163.821C125.285 164.038 125.413 164.179 125.787 164.279C126.217 164.394 126.979 164.644 127.268 164.335C127.658 164.917 127.964 164.49 128.479 164.529C128.743 164.549 128.785 164.651 129.019 164.691C129.4 164.757 129.874 164.7 130.279 164.829C130.916 165.033 130.988 165.135 131.639 165.163C131.757 165.117 131.875 165.071 131.992 165.026C132.027 165.221 132.12 165.38 132.269 165.503C132.634 165.579 132.873 165.396 133.174 165.196C133.398 165.889 134.125 165.95 134.746 166.041C135.749 166.188 136.708 166.269 137.676 166.597C138.493 166.873 139.311 167.184 140.097 167.538C140.788 167.85 141.441 168.317 142.223 168.098C143.996 167.602 145.714 165.792 147.197 164.754C148.954 163.523 150.849 162.51 152.684 161.403C159.992 157 167.712 153.275 174.917 148.707C178.851 146.214 182.501 143.251 186.725 141.233C186.124 143.704 185.1 146.212 185.285 148.798C185.36 149.841 185.668 151.072 186.481 151.8C187.487 152.7 188.607 152.127 189.568 151.484C191.628 150.107 193.002 148.097 194.544 146.211C196.368 143.978 197.782 141.58 199.121 139.036C199.442 139.484 199.198 140.234 199.203 140.731C199.209 141.364 199.381 141.975 199.677 142.54C200.439 144 201.891 144.354 203.203 143.354C205.727 141.429 207.192 138.001 208.545 135.241C209.316 136.668 210.411 138.464 212.264 137.445C213.793 136.604 214.691 134.725 215.159 133.133C216.524 128.488 216.091 123.755 216.301 118.993Z" fill="black"/>
<path fill-rule="evenodd" clip-rule="evenodd" d="M213.983 91.0873C213.808 90.6663 213.732 90.7352 214.052 90.327C214.302 90.5716 214.102 90.7737 213.983 91.0873ZM221.709 116.568C221.219 115.182 221.521 113.678 221.224 112.256C221.087 111.604 220.871 110.972 220.794 110.308C220.759 110.013 220.495 108.687 220.675 108.478C220.122 108.145 220.12 107.899 219.992 107.246C220.189 107.038 220.165 106.861 219.918 106.714C219.757 106.52 219.595 106.326 219.434 106.132C220.139 106.475 219.722 105.597 219.65 105.091C219.593 104.692 219.555 104.275 219.421 103.891C219.256 103.42 218.889 103.182 219.652 103.182C219.401 102.898 219.025 102.605 218.9 102.257C218.72 101.757 219.017 101.095 218.65 100.653C218.445 100.407 217.391 100.31 217.576 99.7777C217.67 99.5063 218.097 99.7089 218.23 99.5187C218.75 98.7714 217.215 98.4618 217.139 98.1439C217.042 97.7317 217.596 97.6397 217.63 97.2543C217.663 96.8771 217.074 96.2573 216.918 95.92C216.705 95.9713 216.472 96.3053 216.229 96.1457C216.183 96.1156 216.252 94.8099 216.197 94.6365C216.143 94.4661 216.032 94.0141 215.992 93.9304C215.835 93.5982 215.384 93.4364 215.313 93.0439C215.27 92.8097 216.193 92.4551 215.135 92.444C215.515 91.7778 214.818 91.3729 214.565 90.8036C214.239 90.0716 214.046 89.2809 213.712 88.5451C213.386 87.8299 213.022 87.1512 212.553 86.5188C212.128 85.9462 211.944 85.3955 211.605 84.7907C211.537 84.7376 211.469 84.6845 211.401 84.6313C211.118 84.6721 211.027 84.5439 211.128 84.2466C210.912 83.9276 210.751 83.5872 210.56 83.2541C210.338 82.8669 210.038 82.5513 209.809 82.1747C209.504 81.6756 209.414 81.1127 209.07 80.612C208.648 79.996 208.172 79.4528 207.78 78.8137C207.289 78.0131 206.745 77.5155 206.127 76.8954C205.833 76.6002 205.797 75.8626 205.437 75.4434C205.044 74.9867 204.657 74.863 204.384 74.2635C204.03 73.4837 203.511 73.1114 203.005 72.4374C202.588 71.8813 202.384 71.2423 201.925 70.7044C201.53 70.2424 201.081 69.8203 200.659 69.3822C200.126 68.8291 199.733 68.1568 199.179 67.6309C199.259 67.7068 198.696 67.2637 198.725 67.2778C198.6 67.2147 198.198 67.1641 198.257 67.1984C197.42 66.7094 196.372 64.9197 195.113 65.868C194.45 66.3667 194.768 67.2814 195.23 67.7781C195.429 67.9915 196.461 69.0434 196.684 68.5998C196.925 68.9389 197.666 70.5782 198.282 70.1085C198.22 70.6688 198.546 70.4828 198.761 70.8616C198.903 71.1115 198.834 71.2341 198.938 71.6241C199.222 72.6964 200.307 73.7436 200.885 74.6786C202.323 77.0057 203.909 79.2128 205.349 81.5426C206.72 83.763 208.257 85.8698 209.573 88.1201C211.07 90.679 212.935 93.0944 214.062 95.8529C214.101 95.9456 214.414 96.0924 214.492 96.2316C214.627 96.4736 214.598 96.8919 214.685 97.166C214.988 98.116 215.478 99.0512 216.037 99.8381C216.527 100.529 216.563 101.467 216.9 102.277C217.376 103.418 217.879 104.548 218.341 105.695C219.06 107.481 219.548 109.192 220.045 111.057C220.367 112.265 220.623 113.472 220.726 114.72C220.82 115.867 220.844 117.062 221.271 118.148C221.562 117.701 221.905 117.122 221.709 116.568Z" fill="black"/>
<path fill-rule="evenodd" clip-rule="evenodd" d="M57.1353 141.152C56.6183 141.048 56.1318 140.909 56.0222 140.319C55.9472 140.598 55.8724 140.876 55.7974 141.154C56.4268 141.296 57.0565 141.438 57.6859 141.579C57.539 141.322 57.4317 141.211 57.1353 141.152Z" fill="black"/>
<path fill-rule="evenodd" clip-rule="evenodd" d="M58.5225 44.3005C58.5617 44.134 58.6125 43.9709 58.6751 43.8117C58.7176 43.9669 58.926 44.3025 58.8047 44.4488C58.6501 44.6345 58.4938 44.5294 58.5225 44.3005ZM61.057 39.5064C61.2267 39.5808 61.5939 39.5952 61.8045 39.658C61.2581 40.1253 61.1619 39.9878 60.4554 39.9336C60.424 39.4608 60.6173 39.314 61.057 39.5064ZM56.3209 51.2112C56.3942 51.2132 56.4677 51.2149 56.5414 51.2167C56.5458 51.0108 56.5405 50.8052 56.5249 50.5998C57.2699 50.7616 56.8482 49.4673 56.6142 49.1991C57.3409 49.2232 57.6949 46.9357 57.9252 46.495C58.1296 46.1036 58.3611 45.9522 58.5105 45.475C58.6412 45.0573 58.7826 44.6814 58.9712 44.2863C59.4045 43.3779 59.9729 42.5529 59.8681 41.4942C60.2352 42.2886 60.5581 41.4955 60.791 41.1156C61.1661 40.5036 62.0815 39.7227 62.1788 38.9957C62.2647 38.3558 61.7865 38.3219 62.0688 37.7285C62.3542 37.1277 62.5889 37.1879 63.089 36.9958C63.4217 36.8679 63.4878 37.0232 63.7225 36.6058C63.8745 36.3355 63.8209 36.1341 64.0157 35.9125C64.0961 35.982 64.1876 36.0108 64.29 35.9988C64.4481 35.7914 64.5519 35.5603 64.6011 35.3055C64.73 34.9616 64.7923 34.6457 64.9865 34.3181C65.1706 34.0077 65.4975 33.1774 65.6707 33.0278C65.8546 32.8689 66.8978 32.9497 66.8933 32.9554C67.3241 32.4166 66.5335 31.8799 67.6283 31.9934C67.4121 31.5932 68.1716 31.0965 68.392 30.8738C68.9426 30.318 68.9865 30.0608 69.1027 29.3617C69.1617 29.0054 68.7765 29.0465 69.2929 28.9653C69.5064 28.9319 69.7112 29.2032 69.8653 29.1634C70.5455 28.9881 69.8339 29.0215 70.0216 28.7459C70.0809 28.6585 70.3834 28.3057 70.3805 28.3094C70.3659 28.3271 70.4487 28.0024 70.5173 27.9189C70.6473 27.9079 70.7753 27.8853 70.9011 27.8512C70.965 27.7228 71.0216 27.5913 71.0706 27.4568C71.5629 27.0486 72.2994 26.866 72.6398 26.4175C72.8601 26.1275 72.7941 25.8435 73.0787 25.5544C73.3497 25.2791 73.7081 25.4785 73.7618 24.8565C73.8302 24.0652 72.9752 23.713 72.6254 24.5116C71.6769 23.3502 67.7122 27.6115 67.2542 28.1682C65.2648 30.5849 63.3094 33.0614 61.6776 35.7339C60.0876 38.3379 58.7826 41.0778 57.7626 43.9499C57.2708 45.3347 56.9713 46.7132 56.6709 48.1456C56.5701 48.6253 55.8164 50.7629 56.1301 51.2413C56.1936 51.2313 56.2572 51.2211 56.3209 51.2112Z" fill="black"/>
<path fill-rule="evenodd" clip-rule="evenodd" d="M212.916 110.477C213.251 110.254 213.251 110.254 213.31 109.834C212.861 109.916 212.861 109.916 212.916 110.477Z" fill="black"/>
<path fill-rule="evenodd" clip-rule="evenodd" d="M47.742 138.728C47.7465 138.727 47.7497 138.728 47.7523 138.731C47.7448 138.721 47.7177 138.693 47.742 138.728Z" fill="black"/>
<path fill-rule="evenodd" clip-rule="evenodd" d="M47.5167 138.952C47.6202 139.174 47.7866 139.23 48.0159 139.118C48.1063 139.246 47.2317 138.316 47.5167 138.952Z" fill="black"/>
<path fill-rule="evenodd" clip-rule="evenodd" d="M62.6408 37.418C62.116 38.4408 62.7733 37.6969 62.7397 38.0291C62.7617 37.8109 62.8528 37.4999 62.6408 37.418Z" fill="black"/>
<path fill-rule="evenodd" clip-rule="evenodd" d="M147.961 53.2495C148.188 55.0837 150.712 54.2162 151.28 53.1068C151.693 52.299 152.737 49.1073 151.614 48.4331C150.781 47.9333 150.603 50.0875 150.398 50.5687C150.054 51.3747 149.785 50.8036 149.021 51.0103C148.177 51.2385 147.867 52.489 147.961 53.2495Z" fill="black"/>
<path fill-rule="evenodd" clip-rule="evenodd" d="M145.203 49.8924C146.105 50.0916 146.99 49.9889 147.63 49.2806C147.985 48.8884 148.458 48.1103 147.819 47.7307C147.239 47.3869 146.583 48.192 145.973 48.0255C145.144 47.7991 145.571 46.915 145.286 46.3311C144.24 46.9296 143.657 49.5511 145.203 49.8924Z" fill="black"/>
<path fill-rule="evenodd" clip-rule="evenodd" d="M146.138 54.5234C145.269 54.5217 145.262 55.5851 145.716 56.0408C146.15 56.4769 147.249 56.9183 147.837 56.5792C148.999 55.9098 146.842 54.5925 146.138 54.5234Z" fill="black"/>
<path fill-rule="evenodd" clip-rule="evenodd" d="M95.5357 96.8103C95.7214 96.9 96.2687 97.3613 96.4993 97.153C96.1738 96.8269 95.8481 96.5009 95.5225 96.1748C95.3426 96.3709 95.2193 96.6576 95.5357 96.8103Z" fill="black"/>
<path fill-rule="evenodd" clip-rule="evenodd" d="M91.4256 50.1577C91.3332 50.2263 91.2406 50.2947 91.1482 50.3631C91.4601 50.6215 91.4523 50.6983 91.7667 50.4537C91.6734 50.3315 91.5599 50.233 91.4256 50.1577Z" fill="black"/>
<path fill-rule="evenodd" clip-rule="evenodd" d="M150.369 111.011C150.195 110.699 149.864 111.275 149.641 111.368C149.278 111.52 148.98 110.715 149.084 111.68C148.262 111.306 147.764 112.164 147.234 112.611C146.486 113.242 145.57 113.585 145.071 114.481C147.421 115.028 150.003 113.014 151.755 111.691C152.041 111.475 153.47 110.385 152.501 110.28C152.105 110.237 150.663 111.536 150.369 111.011Z" fill="black"/>
<path fill-rule="evenodd" clip-rule="evenodd" d="M149.672 109.121C150.133 108.76 149.14 108.727 148.983 108.689C148.997 108.976 149.01 109.263 149.023 109.549C149.246 109.415 149.462 109.272 149.672 109.121Z" fill="black"/>
<path fill-rule="evenodd" clip-rule="evenodd" d="M147.943 110.322C148.081 110.237 148.465 109.97 148.204 109.771C147.968 109.921 147.799 110.164 147.762 110.442C147.823 110.402 147.883 110.362 147.943 110.322Z" fill="black"/>
<path fill-rule="evenodd" clip-rule="evenodd" d="M109.889 87.0786C109.595 87.1933 109.463 87.3746 109.494 87.6229C109.946 87.5311 109.86 87.1067 109.889 87.0786Z" fill="black"/>
</g>
<defs>
<clipPath id="clip0_4_905">
<rect width="228" height="170" fill="white" transform="translate(15 11)"/>
</clipPath>
</defs>
</svg>
