<svg width="258" height="193" viewBox="0 0 258 193" fill="none" xmlns="http://www.w3.org/2000/svg">
<path fill-rule="evenodd" clip-rule="evenodd" d="M133.563 97.9018C134.149 98.0147 135.119 99.6833 135.517 100.157C136.799 101.687 138.081 103.216 139.363 104.746C139.876 105.358 140.616 106.001 140.981 106.709C141.262 107.254 141.359 108.006 141.527 108.59C143.611 115.846 145.65 123.149 147.168 130.546C147.495 132.139 147.805 133.742 147.987 135.358C148.077 136.157 148.312 137.331 147.963 138.103C147.569 138.973 146.301 139.335 145.478 139.605C143.876 140.13 142.198 140.442 140.539 140.723C136.54 141.399 132.491 141.791 128.449 142.109C127.215 142.206 125.944 142.204 124.717 142.37C124.131 142.448 124.307 142.292 124.122 142.684C123.865 143.229 124.035 144.366 124.005 144.96C123.933 146.358 123.861 147.755 123.789 149.153L123.201 160.589C123.002 164.454 122.804 168.319 122.604 172.184C122.529 173.648 122.454 175.112 122.379 176.577C122.339 177.36 122.458 178.37 122.248 179.128C122.088 179.701 122.35 179.532 121.644 179.566C120.01 179.645 118.316 179.448 116.681 179.39C114.827 179.324 112.973 179.257 111.118 179.192C110.588 179.173 109.996 179.322 109.783 178.944C109.523 178.484 109.721 177.218 109.703 176.704C109.651 175.271 109.6 173.838 109.548 172.405C109.407 168.472 109.266 164.539 109.125 160.606C108.932 155.243 108.739 149.879 108.546 144.515C106.484 144.928 104.422 145.341 102.359 145.754C99.312 146.365 96.2645 146.976 93.2171 147.586C91.8195 147.866 90.1596 148.506 88.7164 148.299C87.2829 148.095 86.6904 147.485 86.6099 146.13C86.5235 144.678 86.5572 143.214 86.5767 141.76C86.6089 139.382 86.6774 137.005 86.7677 134.629C90.8393 134.264 94.9111 133.899 98.9827 133.533C101.151 133.339 103.319 133.144 105.487 132.95C105.979 132.906 107.192 133 107.411 132.631C107.753 132.057 107.373 130.169 107.362 129.52L107.265 123.381L106.909 100.794C107.884 100.826 108.859 100.855 109.834 100.882C114.075 101.001 118.337 101.174 122.58 101.044C124.707 100.979 126.723 100.407 128.731 99.7331C129.799 99.3746 130.856 98.9843 131.905 98.5738C132.235 98.4447 133.207 97.8333 133.563 97.9018ZM127.812 118.915L125.646 129.467L133.06 128.978L127.812 118.915Z" fill="#08CBBF"/>
<path fill-rule="evenodd" clip-rule="evenodd" d="M189.825 31.9167C189.674 33.0904 189.782 34.37 188.451 34.6794C187.22 34.9659 185.869 34.8855 184.613 34.9858C183.202 35.0988 181.795 35.253 180.388 35.3919C178.612 35.567 178.866 34.8877 178.478 33.3782C178.123 31.9998 177.557 30.6241 177.086 29.2797C176.867 28.6548 176.606 28.08 176.308 27.4911C176.038 26.9581 176.166 26.2329 175.875 25.7849C174.881 24.2561 170.034 28.4365 169.584 27.6125C170.404 26.9768 171.823 26.2655 172.075 25.1775C172.371 23.8989 171.555 23.5172 170.53 23.9846C168.007 25.1355 165.095 26.035 162.344 26.4544C163.233 25.8621 171.282 21.1938 168.581 19.8091C167.972 19.4971 167.159 20.0845 166.61 20.3067C165.739 20.6596 164.828 20.8961 163.919 21.1273C162.96 21.3709 162 21.6052 161.036 21.8267C160.36 21.9821 159.155 22.5341 158.496 22.3979C157.828 22.2595 159.012 21.8461 159.206 21.7488C160.052 21.3245 160.884 20.8687 161.709 20.407C163.174 19.5879 164.527 18.6391 165.641 17.3727C166.482 16.4171 167.87 14.3303 167.284 13.0089C166.945 12.243 166.202 11.5351 165.765 10.8095C165.256 9.96195 164.844 9.05856 164.401 8.17557C165.142 8.50002 165.974 8.58307 166.731 8.87424C167.487 9.16566 168.255 9.40146 169.042 9.61808C170.621 10.0525 172.195 10.1298 173.759 10.4821C175.53 10.8809 177.376 11.3267 179.175 11.5572C180.741 11.7576 182.15 12.1845 183.492 13.0349C186.234 14.7723 188.135 17.268 189.097 20.3543C189.66 22.1623 189.797 24.0488 189.864 25.9298C189.934 27.9132 190.081 29.9422 189.825 31.9167ZM174.442 32.0627C172.528 33.452 170.296 34.5378 168.242 35.7197C167.067 36.3958 165.866 37.0277 164.667 37.6615C163.817 38.1113 162.783 38.9389 161.846 39.1696C161.254 39.3155 161.298 39.3267 160.923 38.7888C160.565 38.2752 160.252 37.7222 159.916 37.1933C159.298 36.218 158.674 35.2464 158.05 34.2748C156.65 32.0967 155.254 29.9191 153.783 27.7874C152.308 25.6484 150.893 23.47 149.464 21.3007C148.8 20.2922 148.14 19.2797 147.435 18.2989C146.897 17.5499 145.517 16.4076 146.172 15.5258C146.781 14.7067 148.167 14.0262 148.987 13.4062C149.99 12.6493 150.998 11.9001 151.997 11.1393C154.146 9.5037 156.238 7.79698 158.384 6.15922C160.206 9.34075 162.349 12.3234 164.511 15.2813C162.556 16.5234 160.581 17.7041 158.521 18.7676C157 19.5529 154.672 20.6142 153.711 22.104C152.764 23.5711 153.694 25.2637 155.382 25.2907C156.391 25.3067 157.397 25.0405 158.386 24.8885C159.101 24.7787 160.405 24.2661 161.049 24.6275C159.891 25.3628 155.692 27.5059 157.956 29.3848C159.573 30.728 162.309 28.768 164.057 29.1714C163.524 30.1894 162.97 31.8133 164.449 32.367C165.68 32.8279 167.29 31.9689 168.398 31.5134C169.198 31.1843 169.993 30.8441 170.78 30.4849C171.406 30.1991 172.155 29.6201 172.824 29.4968C173.604 29.3528 175.192 31.5177 174.442 32.0627ZM138.858 107.095C139.954 106.897 140.516 106.446 140.861 107.77C141.17 108.956 141.476 110.098 141.874 111.262C140.163 111.409 138.654 112.222 137.407 113.366C136.519 114.182 134.752 116.127 135.19 117.492C136.254 120.81 141.628 113.368 142.267 112.573C143.049 113.71 143.336 115.2 143.725 116.501C144.002 117.427 145.028 119.202 143.671 119.427C141.766 119.744 138.192 120.45 138.418 123.136C138.685 126.307 142.736 126.289 145.009 126.432C146.29 126.512 146.296 127.534 146.478 128.678C146.56 129.19 146.815 129.881 146.379 130.256C145.991 130.588 144.805 130.598 144.301 130.705C142.831 131.019 141.362 131.34 139.892 131.654C138.224 132.01 137.341 131.511 135.782 131.056C135.204 130.887 134.624 130.959 134.581 130.315C134.555 129.92 134.944 129.309 135.071 128.918C135.574 127.372 136.003 125.781 136.147 124.157C136.358 121.799 136.095 118.262 133.178 117.802C131.79 117.583 131.524 117.511 130.897 116.215C130.22 114.812 129.144 113.514 129.404 111.898C129.592 110.728 129.275 108.513 130.025 107.542C130.372 107.093 131.048 106.825 131.509 106.496C132.098 106.076 132.664 105.626 133.212 105.156C133.673 104.76 134.235 103.987 134.758 103.702C135.396 103.352 135.416 103.59 135.875 104.136C136.551 104.941 137.628 107.319 138.858 107.095ZM141.954 112.336C141.574 113.099 140.697 113.808 140.138 114.444C139.576 115.085 139.045 115.762 138.418 116.342C137.728 116.981 135.278 118.524 135.817 116.447C136.238 114.831 137.809 113.523 139.193 112.717C139.461 112.56 142.596 111.045 141.954 112.336ZM144.634 120.027C144.877 121.109 145.008 122.223 145.215 123.313C145.322 123.869 145.91 125.214 145.67 125.75C145.264 126.658 141.608 125.583 140.85 125.271C139.046 124.527 138.218 122.618 139.882 121.259C140.513 120.744 144.391 118.946 144.634 120.027ZM147.031 133.015C147.235 134.047 147.83 135.004 146.846 135.785C146.028 136.433 144.688 136.875 143.681 137.105C142.307 137.42 141.866 136.654 141.139 135.668C140.357 134.608 139.525 133.584 138.662 132.589C141.373 131.985 144.084 131.381 146.795 130.777C146.794 131.529 146.885 132.278 147.031 133.015ZM140.535 137.806C139.121 137.733 137.6 138.157 136.166 138.268C134.376 138.407 132.59 138.61 130.798 138.73C131.257 137.271 132.082 135.97 132.727 134.592C133.374 133.209 133.828 133.06 135.317 132.953C136.697 132.854 137.67 132.381 138.688 133.547C139.748 134.759 140.707 136.076 141.674 137.361C141.345 137.58 140.952 137.827 140.535 137.806ZM130.429 138.104C130.08 138.357 129.005 137.637 128.642 137.498C127.937 137.227 127.78 137.139 127.412 136.454C127.096 135.865 126.593 135.196 126.494 134.524C126.363 133.638 126.757 132.471 126.901 131.591C127.282 132.508 128.535 132.614 129.382 132.764C130.022 132.878 131.92 132.697 132.402 133.151C132.936 133.652 131.954 135.051 131.698 135.578C131.393 136.207 131.015 137.678 130.429 138.104ZM129.746 138.83C129.326 138.898 128.118 139.314 128.142 138.55C128.169 137.678 129.831 138.619 129.746 138.83ZM127.617 138.785C127.54 139.519 125.953 139.458 125.917 138.812C125.855 137.721 127.739 137.612 127.617 138.785ZM125.802 118.981C125.396 120.132 122.925 120.544 121.976 120.898C121.109 121.221 118.52 122.715 117.626 122.173C120.651 120.103 123.751 118.074 126.315 115.431C126.42 116.084 126.26 116.629 126.066 117.247C125.892 117.805 125.982 118.472 125.802 118.981ZM125.05 123.177C124.614 125.996 124.187 128.851 123.598 131.642C122.475 131.3 121.55 130.608 120.37 130.367C119.294 130.147 118.182 130.141 117.097 130.302C114.785 130.645 112.723 131.783 110.706 132.893C110.52 130.96 110.134 128.892 110.179 126.952C110.217 125.341 112.986 124.864 114.242 124.198C115.002 123.796 115.689 123.229 116.555 123.089C117.446 122.944 118.305 122.949 119.185 122.678C121.266 122.039 123.224 121.026 125.262 120.271C125.429 121.238 125.197 122.224 125.05 123.177ZM123.106 135.106C123.013 135.746 123.13 136.89 122.639 137.378C122.178 137.838 121.191 137.853 120.583 137.978C118.728 138.358 116.875 138.741 115.022 139.133C114.194 139.309 113.365 139.476 112.533 139.633C112.136 139.707 111.141 140.086 110.806 139.772C110.489 139.473 110.725 138.519 110.742 138.119C110.777 137.32 110.822 136.518 110.772 135.718C110.675 134.184 110.761 133.597 112.195 132.803C113.718 131.96 115.291 131.382 117.006 131.07C118.742 130.753 120.396 130.926 122.048 131.59C122.508 131.774 123.198 132.002 123.412 132.496C123.703 133.167 123.204 134.425 123.106 135.106ZM121.017 159.833C120.337 160.257 118.858 160.185 118.077 160.271C116.816 160.41 115.547 160.331 114.294 160.137C113.351 159.991 111.943 159.789 111.221 159.13C110.194 158.193 111.379 158.15 112.165 158.216C114.449 158.407 116.763 158.274 119.046 158.11C119.49 158.077 120.685 157.689 121.113 157.871C121.661 158.103 121.493 159.536 121.017 159.833ZM119.722 174.971C115.465 174.559 112.997 171.049 111.453 167.461C110.624 165.534 110.923 163.513 110.841 161.475C110.826 161.103 110.592 160.18 110.976 159.902C111.337 159.641 112.797 160.448 113.192 160.545C115.217 161.039 117.456 161.086 119.486 160.606C120.365 160.398 120.857 160.011 121.136 160.879C121.361 161.578 120.992 162.865 120.952 163.597C120.882 164.864 121.082 175.102 119.722 174.971ZM111.218 174.975C111.201 174.36 110.89 168.147 111.192 168.128C112.09 170.057 113.013 171.783 114.648 173.202C115.483 173.927 116.422 174.581 117.467 174.97C117.859 175.116 120.083 175.227 120.192 175.712C120.382 176.561 118.864 176.218 118.414 176.149C118.053 176.094 117.728 175.94 117.373 175.876C116.698 175.754 116.06 175.918 115.382 175.932C114.351 175.953 113.34 175.845 112.309 175.934C111.366 176.015 111.243 175.907 111.218 174.975ZM111.846 147.106C115.49 145.933 118.536 148.155 120.459 151.062C121.556 152.72 121.801 153.879 121.61 155.842C121.541 156.545 121.668 157.021 121.019 157.307C120.376 157.591 118.917 157.38 118.222 157.413C116.224 157.506 114.233 157.629 112.234 157.511C110.936 157.435 110.753 157.216 110.775 155.961C110.802 154.451 110.676 152.947 110.59 151.434C110.497 149.797 109.933 147.722 111.846 147.106ZM110.653 144.93C110.656 143.821 110.589 142.682 110.657 141.574C110.725 140.475 111.194 140.53 112.236 140.342C114.491 139.936 116.744 139.482 118.969 138.931C119.849 138.714 120.844 138.296 121.761 138.292C122.723 138.289 122.672 138.781 122.608 139.63C122.465 141.509 122.119 143.36 122.014 145.229C121.901 147.246 121.841 149.289 121.85 151.308C121.853 151.99 122.02 152.495 121.436 151.857C120.852 151.218 120.566 150.2 120.044 149.481C118.976 148.011 117.387 146.828 115.625 146.33C114.65 146.055 113.625 146.007 112.632 146.206C112.33 146.267 110.82 146.984 110.628 146.842C110.498 146.746 110.653 144.975 110.653 144.93ZM123.986 183.396C125.431 184.426 127.032 185.259 128.652 185.982C129.564 186.389 133.173 187.245 133.288 188.16C133.35 188.649 132.752 189.196 132.36 189.254C131.863 189.327 131.044 189.004 130.538 188.943C128.697 188.72 126.86 188.719 125.064 188.209C121.479 187.19 117.761 186.903 114.138 186.014C113.276 185.803 112.412 185.605 111.545 185.413C110.722 185.232 110.353 185.263 110.324 184.387C110.26 182.465 110.814 180.496 110.818 178.55C113.749 178.883 116.69 178.878 119.63 179.153C120.889 179.27 120.86 179.508 121.411 180.603C121.984 181.74 122.959 182.664 123.986 183.396ZM109.695 120.949C109.657 120.237 109.628 119.524 109.564 118.814C109.52 118.338 109.083 117.005 109.33 116.634C109.623 116.193 109.918 116.462 110.442 116.45C111.133 116.433 111.712 116.157 112.281 115.795C113.361 115.109 114.163 114.207 114.863 113.154C115.479 112.228 115.365 110.962 115.357 109.852C115.338 106.983 115.548 104.184 115.372 101.302C115.291 99.9786 116.426 100.79 117.342 100.962C118.841 101.242 120.47 101.048 121.994 101.052C121.937 101.405 118.822 102.281 118.319 102.614C117.03 103.467 116.279 104.832 116.397 106.388C116.633 109.519 120.096 110.042 122.626 110.048C120.527 111.897 118.465 113.659 116.815 115.939C115.599 117.62 113.456 120.935 115.445 122.795C113.687 123.789 111.944 124.895 109.956 125.373C109.867 123.899 109.772 122.424 109.695 120.949ZM108.896 63.7988C109.612 64.2566 109.913 63.6094 110.458 63.2743C111.225 62.802 111.479 62.8483 111.576 61.7937C111.756 59.8375 110.93 58.0669 109.892 56.4661C109.421 55.7385 108.95 54.872 108.284 54.3033C107.678 53.7848 107.064 53.9633 106.502 53.4274C106.281 53.2166 106.328 52.9191 105.963 52.9276C105.723 52.9332 105.139 53.6743 104.941 53.838C104.314 54.3548 103.547 54.7482 102.725 54.322C101.529 53.7018 101.913 51.4506 102.842 50.7213C103.558 50.1599 104.403 50.2466 105.218 50.156C105.829 50.0882 105.956 50.1147 105.704 49.4187C105.528 48.9313 105.122 48.551 104.922 48.0743C104.536 47.159 104.62 46.0465 104.454 45.0778C104.304 44.2099 103.955 43.271 103.968 42.3895C103.984 41.2671 104.353 40.9754 105.329 40.6607C106.275 40.3559 107.059 39.6839 107.865 39.1193C108.777 38.4802 109.776 38.0581 110.714 37.4745C111.35 37.0782 111.761 36.277 112.461 36.6513C113.292 37.0959 114.172 38.3833 114.879 39.0411C113.844 39.6951 113.604 39.9812 113.746 41.2615C113.877 42.4352 114.117 43.4811 115.018 44.2988C115.364 44.613 116.01 44.8646 116.278 45.2269C116.591 45.649 116.388 45.2769 116.348 45.7534C116.327 46.0103 116.123 46.1784 116.167 46.4754C116.366 47.7945 117.888 47.016 118.515 46.5577C120.756 44.9204 116.572 43.6202 115.578 43.0238C114.892 42.6117 114.553 41.2964 115.64 41.6459C116.363 41.8783 117.997 43.8488 118.163 42.0527C119.956 43.0899 121.063 45.2937 122.567 46.6872C123.651 47.692 125.108 48.8067 124.247 50.4117C123.15 52.4574 120.975 53.3861 118.989 54.2688C117.063 55.1249 117.463 57.5475 118.493 59.0303C119.088 59.8876 119.868 60.3898 120.806 60.8062C121.764 61.232 121.963 61.732 122.173 62.7194C122.405 63.8146 122.158 64.2561 121.206 64.822C120.276 65.3747 119.304 65.9099 118.311 66.3424C116.164 67.2779 113.937 67.3369 111.654 67.6557C110.853 67.7674 110.086 68.0001 109.649 67.2101C109.158 66.3211 109.122 64.7899 108.896 63.7988ZM108.551 59.5442C108.014 59.2622 106.717 60.1989 106.037 60.2399C104.938 60.3062 104.217 60.2812 103.241 60.8616C101.397 61.9588 99.8671 63.3714 98.3884 64.9033C96.7229 66.6287 95.0669 68.3631 93.4069 70.0937C92.6546 70.8776 91.8985 71.6574 91.1342 72.4294C90.532 73.0379 89.9431 73.8937 89.1977 74.3279C89.2365 73.8121 89.5541 73.4471 89.6667 72.969C89.7324 72.6895 89.6177 72.4522 89.6602 72.1846C89.6741 72.0976 89.9085 71.7955 89.9441 71.6965C90.0392 71.4349 90.1556 71.1765 90.2685 70.905C90.3739 70.6515 90.3585 70.3887 90.4654 70.124C90.5754 69.8511 90.8764 69.6704 90.9808 69.4016C91.2869 68.6147 90.7803 68.25 89.97 68.2684C90.2871 66.6941 90.4256 65.924 92.0787 65.3688C93.6582 64.8385 95.201 64.243 96.6519 63.4142C97.9401 62.6784 99.0149 61.6178 100.253 60.7977C101.362 60.0634 102.742 59.294 102.731 57.7881C103.359 58.2126 103.948 58.5699 104.667 58.1473C105.274 57.7903 105.355 57.503 106.056 57.4358C106.629 57.3811 106.984 57.3666 107.495 57.6174C108.097 57.9122 108.179 58.1175 108.529 57.249C108.927 57.5827 109.934 58.9725 109.9 59.5226C109.882 59.8256 109.836 59.9624 109.458 60.0422C108.924 60.1554 108.944 59.7504 108.551 59.5442ZM106.045 141.795C105.784 142.194 104.682 142.12 104.256 142.115C102.958 142.098 102.505 141.014 101.935 139.966C101.038 138.314 99.6959 134.882 101.169 133.148C102.331 131.779 104.595 133.504 105.388 134.537C106.072 135.43 105.869 136.769 105.933 137.841C105.986 138.744 106.562 141.007 106.045 141.795ZM102.5 142.393C101.981 142.91 100.297 142.8 99.61 142.911C98.3831 143.109 97.1629 143.347 95.9726 143.708C95.0864 143.976 94.2104 144.699 93.9767 143.469C93.7806 142.435 93.8782 141.195 93.897 140.151C93.9172 139.025 94.0355 137.913 94.1338 136.792C94.2004 136.034 94.0338 134.639 94.6553 134.057C95.191 133.556 96.4934 133.507 97.1888 133.341C98.3306 133.069 99.5237 132.71 100.711 132.833C100.018 134.704 99.9593 136.667 100.702 138.532C100.914 139.064 102.821 142.074 102.5 142.393ZM93.7738 134.937C93.4845 137.752 93.1935 140.585 93.472 143.415C93.4889 143.584 93.6913 144.357 93.6033 144.478C93.5123 144.603 92.7917 144.668 92.6281 144.706C91.9782 144.86 91.3294 145.022 90.6754 145.159C89.4026 145.423 89.2365 144.623 88.9867 143.448C88.4517 140.932 89.4889 138.203 90.1173 135.786C90.4234 134.609 90.6503 134.473 91.8126 134.376C92.6215 134.308 93.8967 133.741 93.7738 134.937ZM88.8586 145.44C88.3722 145.881 87.8861 143.802 87.8431 143.591C87.6731 142.749 87.7678 141.896 87.7702 141.042C87.7743 139.708 87.6719 138.379 87.6699 137.051C87.6687 136.333 87.1282 134.864 87.9819 134.484C88.2324 134.372 89.2277 134.419 89.4536 134.566C89.9226 134.871 89.7377 135.068 89.5987 135.599C89.2874 136.79 89.0184 137.987 88.7474 139.187C88.4815 140.365 88.2193 141.498 88.3459 142.714C88.3876 143.116 89.1686 145.16 88.8586 145.44ZM104.371 132.323C105.557 131.99 105.62 132.895 105.618 133.76C105.438 133.623 103.752 132.496 104.371 132.323ZM88.5103 68.7736C88.2198 69.2503 86.3796 69.3804 85.8536 69.506C84.8191 69.7527 83.7841 69.9977 82.7523 70.2547C80.8192 70.736 78.9336 71.279 76.9519 71.5308C78.0401 69.7959 78.3787 68.2978 78.1762 66.1328C77.9208 63.3994 77.5961 60.6936 76.9641 58.0179C76.3411 55.3794 75.6198 52.7586 74.9251 50.1378C74.5839 48.8502 74.2148 47.5871 73.7608 46.3343C73.3969 45.3301 72.8285 44.0661 73.4462 43.0367C75.0137 44.1754 76.2709 45.4023 77.1649 47.132C78.1228 48.9864 78.959 50.8901 80.0706 52.6641C80.5789 53.4752 81.1724 54.2149 81.7161 55C82.0396 55.4673 82.2752 56.1412 82.6872 56.5353C83.1621 56.9894 83.6685 57.2036 83.94 56.4372C84.2313 55.6147 83.3021 53.9871 83.028 53.2146C82.3657 51.3498 81.709 49.4889 81.1983 47.576C80.785 46.0298 80.102 44.1603 80.3438 42.5289C80.5831 40.9137 81.6837 42.0697 82.2406 42.8205C83.3887 44.3687 84.0761 46.1733 84.8304 47.9283C85.5236 49.5408 86.3322 51.0781 87.0994 52.6532C87.3663 53.2013 87.718 54.6171 88.4171 54.78C89.4333 55.0173 89.3472 53.5922 89.2501 53.014C88.6061 49.1812 86.925 45.511 86.5762 41.6117C86.5593 41.4254 86.3164 39.9766 86.5118 39.8556C86.8906 39.621 87.4016 41.0907 87.5651 41.4509C88.4151 43.324 89.0072 45.2986 89.5504 47.2773C90.0124 48.9599 90.4302 50.6555 90.9488 52.3222C91.2338 53.2384 91.5604 54.1394 91.8824 55.043C92.1736 55.8616 92.4693 57.2607 93.2289 57.8C94.3065 58.5653 98.1631 56.7459 98.5538 58.3724C98.8319 59.5286 95.2559 60.4597 94.4944 60.8109C93.4918 61.273 92.5083 61.7791 91.5052 62.2417C90.7459 62.5917 89.6546 62.7352 89.1052 63.3938C88.5232 64.0915 88.43 65.0711 88.4127 65.9366C88.3993 66.5916 88.8552 68.2082 88.5103 68.7736ZM86.0732 81.3984C86.0222 81.7617 85.7322 82.2428 85.6017 82.5886C85.336 83.2931 85.1101 84.1348 84.7406 84.7929C84.4228 85.3597 83.9537 85.8665 83.6466 86.4419C83.3553 86.9878 83.3165 87.6172 82.9763 88.1639C82.5869 88.7885 81.9435 89.2377 81.5568 89.8585C81.3663 90.1647 81.1695 90.5144 80.9002 90.8405C79.9467 91.9958 79 93.0857 78.233 94.3232C78.0369 94.6401 77.079 96.0231 76.6978 96.0979C75.9008 96.2538 76.8285 95.1258 76.9844 94.8924C78.1135 93.2051 79.1163 91.4287 80.2062 89.7152C81.2619 88.0561 82.3423 86.4098 83.3582 84.7257C84.1869 83.3526 84.7599 81.3814 86.1066 80.4142C86.1117 80.743 86.1007 81.0711 86.0732 81.3984ZM122.892 65.891C123.548 68.5759 124.333 71.1777 125.072 73.8386C125.758 76.3076 126.671 78.9498 126.956 81.4951C127.237 84.0165 127.885 86.5676 128.755 88.9609C129.158 90.0683 129.572 91.1798 130.009 92.2743C130.249 92.8756 130.517 93.4633 130.789 94.0505C131.001 94.5068 131.56 95.2455 131.581 95.729C131.598 96.1161 131.733 95.9614 131.35 96.2524C130.952 96.5537 130.264 96.4442 129.801 96.4974C128.594 96.6363 127.417 97.0885 126.241 97.3814C123.971 97.946 121.266 98.3943 118.941 98.0014C117.963 97.836 116.947 97.6927 115.98 97.4773C114.79 97.2121 114.545 96.7218 114.301 95.5571C113.766 93.0109 113.306 90.4712 112.865 87.9079C112.341 84.859 111.773 81.8134 111.369 78.7456C110.96 75.642 110.666 72.5353 110.026 69.4654C112.61 69.8958 115.043 70.3817 117.634 69.6767C119.929 69.0523 121.586 67.832 122.892 65.891ZM133.007 99.1316C133.585 100.317 132.192 101.383 131.518 102.296C130.628 103.5 129.797 104.757 128.762 105.846C128.451 104.609 128.179 103.217 127.35 102.201C126.292 100.903 125.057 101.433 123.761 100.82C125.12 100.161 126.856 100.412 128.298 99.8251C129.721 99.2459 131.157 98.7913 132.481 98.039C132.657 98.403 132.83 98.768 133.007 99.1316ZM127.966 126.791C127.097 126.839 127.678 125.015 127.734 124.561C127.89 123.315 128.046 122.069 128.182 120.821C128.899 122.703 129.616 124.585 130.332 126.467C129.545 126.579 128.762 126.747 127.966 126.791ZM126.552 135.814C126.671 136.077 127.224 136.951 126.787 137.112C126.189 137.333 126.117 135.885 126.552 135.814ZM125.516 115.537C122.748 117.737 119.999 119.943 117.004 121.838C116.348 122.253 115.687 122.426 115.253 121.603C114.911 120.956 115.272 120.227 115.491 119.594C116.05 117.978 117.024 116.574 118.104 115.26C120.259 112.635 122.825 110.392 126.099 109.357C126.635 109.188 127.462 108.677 127.649 109.383C127.76 109.798 127.292 110.834 127.197 111.224C126.806 112.832 126.892 114.443 125.516 115.537ZM133.483 131.584C133.544 133.453 128.414 131.946 127.775 131.612C128.446 131.388 133.455 130.744 133.483 131.584ZM135.388 131.596C135.693 131.677 136.861 131.78 136.425 132.177C136.034 132.533 134.264 132.391 133.795 132.434C134.11 131.403 134.35 131.321 135.388 131.596ZM134.438 129.093C134.323 129.509 134.276 130.143 133.902 130.428C133.436 130.783 132.445 130.567 131.918 130.57C131.022 130.575 130.126 130.62 129.235 130.709C128.893 130.743 127.511 131.158 127.191 130.875C126.956 130.667 127.044 129.692 127.215 129.473C127.566 129.022 128.375 129.178 128.882 129.16C130.737 129.094 132.582 129.089 134.438 129.093ZM133.247 122.187C132.985 121.8 132.938 121.804 132.826 121.218C132.707 120.592 132.403 120.056 132.225 119.451C131.832 118.119 133.087 118.238 134.008 118.726C136.396 119.993 135.819 124.42 135.229 126.492C134.37 125.864 134.053 125.579 133.758 124.564C133.646 124.179 133.52 123.8 133.403 123.417C133.317 123.135 133.377 122.38 133.247 122.187ZM133.454 100.642C134.12 100.562 134.73 102.622 134.54 103.068C134.15 103.979 132.66 104.794 131.902 105.376C131.396 105.763 130.895 106.208 130.355 106.546C129.854 106.859 129.565 106.683 129.099 106.834C128.425 107.051 128.261 107.762 127.571 108.067C126.6 108.497 125.422 108.617 124.408 109.005C123.177 109.476 122.049 109.489 120.758 109.266C118.902 108.945 116.727 108.028 116.894 105.783C117.189 101.82 125.091 99.7902 127.247 103.15C127.808 104.024 127.799 105.043 128.163 105.983C128.557 106.999 128.94 106.6 129.533 105.851C130.309 104.871 131.03 103.839 131.776 102.836C132.017 102.512 132.972 100.7 133.454 100.642ZM85.0236 139.22C84.9857 139.894 85.0262 140.577 84.7908 141.22C84.5537 141.869 84.073 142.393 83.7961 143.023C83.2348 144.3 83.239 145.846 83.2614 147.214C83.3136 150.398 84.0708 153.49 84.4713 156.636C83.1382 156.633 81.7603 156.648 80.4682 156.269C79.3141 155.929 79.13 155.09 78.8036 154.031C77.8872 151.059 76.8973 148.099 76.6014 144.987C76.4607 143.503 76.4014 142.008 76.3341 140.52C76.2753 139.214 76.5697 138.645 77.7532 137.998C80.3257 136.593 82.9924 135.424 85.5385 133.952C85.2782 135.698 85.1226 137.458 85.0236 139.22ZM194.844 34.8996C194.218 34.7852 193.586 34.7136 192.954 34.6386C192.624 34.5992 191.596 34.6539 191.349 34.4399C191.056 34.1852 191.564 32.2592 191.59 31.8458C191.749 29.3603 191.564 26.798 191.335 24.322C190.921 19.8395 189.505 15.6868 186.239 12.4591C184.613 10.8525 182.785 9.57777 180.565 8.96264C179.271 8.6042 177.938 8.41308 176.642 8.06556C175.596 7.78483 174.62 7.46355 173.534 7.35232C171.367 7.13036 169.386 6.31513 167.271 5.84352C165.715 5.49649 163.213 4.67348 162.205 6.42271C161.411 5.49552 160.612 4.79928 159.611 4.10765C158.651 3.44517 158.495 2.78341 157.32 3.54838C155.038 5.03484 152.901 6.84817 150.769 8.53936C148.779 10.1188 146.853 11.7729 144.766 13.2253C142.638 14.7069 143.042 17.2211 144.043 19.3055C145.925 23.2287 148.829 26.5826 151.371 29.9456C152.963 32.0522 154.56 34.1616 156.146 36.2724C157.662 38.29 158.973 40.625 160.744 42.4376C161.861 43.5802 163.194 42.0859 164.202 41.3955C165.453 40.538 166.683 39.6487 167.935 38.7937C170.543 37.0126 173.335 35.3445 176.088 33.7942C176.289 34.3595 176.489 34.9249 176.689 35.4902C176.084 35.5354 175.267 35.4009 174.96 36.0483C174.52 36.973 175.599 37.0945 175.788 37.6246C175.957 38.0982 175.264 39.3488 175.059 39.7755C174.598 40.7369 173.955 41.5658 173.246 42.3572C170.442 45.4892 166.893 47.7294 163.292 49.8648C159.439 52.1495 155.309 53.5444 151.091 55.0168C148.946 55.7652 146.72 56.113 144.506 56.5924C142.373 57.0543 140.242 57.6609 138.063 57.8353C133.604 58.1915 128.872 58.4586 124.467 57.5011C123.985 57.3964 123.474 57.1694 122.984 57.1262C122.591 57.0914 122.299 57.2556 121.928 57.2767C121.131 57.3221 120.674 56.6123 120.041 57.2719C119.724 57.6016 119.718 58.1556 119.277 57.54C118.715 56.7568 120.151 56.6052 120.683 56.3821C122.474 55.6307 123.914 54.1183 125.052 52.5893C126.19 51.0615 126.353 49.4299 125.661 47.641C124.968 45.853 123.394 44.6409 122.212 43.1889C121.64 42.4859 121.114 41.7421 120.486 41.0856C120.151 40.735 119.611 40.3994 119.59 40.0458C119.565 39.6349 119.813 39.4307 119.665 38.9311C119.626 38.8012 119.462 38.7274 119.428 38.5846C119.372 38.357 119.458 38.1618 119.429 37.9401C119.363 37.4315 119.162 37.1122 118.879 36.6955C118.702 36.4351 118.444 35.914 118.201 35.719C117.775 35.3771 117.194 35.5165 116.761 35.1699C116.076 34.6218 115.835 33.4668 115.229 32.8014C114.376 31.865 114.194 32.8111 113.29 32.5127C112.517 32.2572 112.526 31.0991 111.901 30.7074C111.021 30.1556 110.28 31.1707 109.499 31.3968C108.471 31.6943 108.866 30.5396 107.95 30.4344C107.122 30.3392 105.976 32.0105 105.564 32.604C105.143 32.1161 104.684 31.2849 103.927 31.5826C103.133 31.8954 102.992 33.3505 102.412 33.8697C102.209 34.0501 102.252 34.1835 102.003 34.2665C101.682 34.3736 101.254 33.9093 100.838 34.0509C100.001 34.3365 100.103 35.4499 100.101 36.1712C99.1124 36.0274 98.4228 35.9541 98.0918 37.0151C97.7679 38.0535 97.6449 37.5952 96.6026 37.9325C95.704 38.2232 95.5784 39.0729 95.4301 39.904C95.3384 40.4207 95.4232 40.6318 95.5628 41.1029C95.7389 41.6964 95.7389 41.6889 95.4518 42.2554C94.9515 43.2438 94.9215 44.3328 94.8415 45.4205C94.7566 46.5813 94.5527 47.6379 94.8839 48.7715C95.0888 49.4731 95.1044 50.4277 95.7945 50.8206C96.0682 50.9763 96.5331 50.8911 96.7661 51.0455C97.2108 51.3403 97.0754 51.7891 97.3715 52.2197C97.5935 52.5419 97.9513 52.573 98.1999 52.8343C98.4702 53.1187 98.4863 53.4652 98.6402 53.8123C99.0958 54.84 99.5244 55.3371 98.0391 55.3959C97.1229 55.4321 96.1455 55.7057 95.233 55.6217C94.156 55.5229 93.8882 54.9235 93.5455 54.0109C91.818 49.4119 90.8896 44.427 88.6144 40.0536C88.1149 39.0933 86.0644 35.1704 85.1977 38.0287C84.4669 40.4394 85.4258 43.3815 85.7934 45.7811C84.6399 44.7458 84.2132 42.8813 83.3373 41.6172C82.6904 40.6835 80.6645 38.3903 79.4771 39.7043C78.5411 40.7401 78.7751 42.9361 78.9478 44.1744C79.2207 46.1332 79.8493 48.0211 80.2984 49.9423C79.733 49.206 79.4542 48.3067 79.0619 47.4776C78.5699 46.438 77.9559 45.4513 77.2564 44.5377C76.6451 43.7392 75.9616 42.9971 75.2205 42.3164C74.6541 41.7957 73.6396 40.6563 72.8351 40.5946C70.7649 40.4365 71.416 44.2179 71.7314 45.299C72.3848 47.5398 73.0935 49.7186 73.6008 52.0045C74.5926 56.4705 75.794 60.8332 76.5246 65.356C76.6863 66.3589 76.8812 67.1594 76.4829 68.1232C76.1318 68.9724 75.7677 69.988 75.12 70.641C73.654 72.1197 72.4368 73.6987 71.3411 75.4805C70.1673 77.3888 68.9591 79.3192 68.0009 81.345C67.5604 82.277 67.2001 83.2851 66.6937 84.1817C66.2366 84.9908 65.687 85.6303 65.3621 86.5261C63.8095 90.8068 62.6599 95.0126 62.1335 99.5454C61.7012 103.267 62.1039 108.217 66.6164 109.088C68.6893 109.488 70.5505 108.572 72.4197 107.817C74.3531 107.036 75.7511 105.766 77.3281 104.416C79.2876 102.739 81.3219 101.165 83.3021 99.516C85.2833 97.8658 87.1133 96.036 89.0838 94.3681C91.0301 92.7204 92.7908 90.9705 94.4739 89.0571C96.1436 87.159 97.4998 85.0562 99.1163 83.1316C99.1102 85.6235 98.7387 88.0925 98.6346 90.5809C98.5392 92.8625 98.537 95.1418 98.6294 97.4222C98.7219 99.7013 98.1172 101.871 98.1123 104.145C98.1072 106.363 98.0189 108.569 97.9701 110.785C97.9482 111.779 97.7525 112.894 98.1255 113.853C98.4041 114.569 99.2795 114.793 100.026 114.986C101.181 115.284 104.654 114.71 105.169 115.938C105.45 116.608 105.167 117.828 105.189 118.568C105.226 119.788 105.27 121.008 105.312 122.228C105.356 123.488 105.398 124.748 105.444 126.007C105.485 127.117 105.702 128.354 105.568 129.453C105.453 130.394 104.901 130.271 104.027 130.32C102.708 130.392 101.388 130.451 100.068 130.508C98.1323 130.592 96.1119 130.554 94.2558 130.781C93.4762 130.877 92.6244 130.836 91.8021 130.992C90.7708 131.187 89.8182 131.237 88.7723 131.288C87.929 131.33 86.845 131.269 86.1825 131.89C85.9527 132.105 85.9012 132.362 85.7383 132.601C85.4331 133.05 85.6029 132.932 85.1021 133.033C83.1463 133.428 81.2888 133.873 79.3761 134.537C78.4187 134.869 77.5303 135.315 76.5685 135.627C75.7255 135.901 75.1076 136.239 74.6909 137.063C73.9465 138.534 74.135 140.663 74.1889 142.249C74.2738 144.724 74.8258 147.079 75.4213 149.472C76.0406 151.962 76.5263 154.518 77.731 156.805C78.1269 157.557 78.5543 158.516 79.3629 158.907C80.4069 159.413 82.0125 159.106 83.1519 159.108C83.9166 159.11 85.9649 159.371 86.5364 158.733C87.0899 158.114 86.533 156.371 86.4549 155.604C86.181 152.915 85.688 150.201 85.6946 147.494C86.3183 148.412 87.3999 149.996 88.4822 148.59C88.7486 148.244 88.6447 148.083 89.1177 147.883C89.3794 147.772 89.9309 147.704 90.2158 147.723C90.6034 147.749 90.7469 147.904 91.103 147.828C91.4182 147.761 91.7726 147.48 92.1341 147.394C96.6143 146.334 101.069 145.191 105.568 144.246C106.758 143.996 106.589 144.906 106.667 145.93C106.754 147.063 106.589 148.207 106.746 149.327C106.884 150.301 106.991 151.251 106.797 152.231C106.569 153.388 106.716 154.352 106.943 155.497C107.818 159.913 107.662 164.702 107.859 169.19C107.962 171.528 107.741 173.914 107.962 176.239C108.046 177.117 108.538 177.602 108.737 178.401C108.966 179.318 108.342 180.486 108.152 181.374C107.77 183.158 107.099 185.711 108.326 187.263C108.989 188.101 109.857 188.222 110.838 188.506C112.012 188.845 113.169 189.24 114.348 189.562C118.657 190.736 123.314 190.966 127.73 191.613C128.811 191.771 129.814 191.756 130.903 191.681C131.574 191.635 133.226 191.855 133.784 191.455C134.083 191.241 133.931 190.973 134.083 190.712C134.299 190.34 134.56 190.189 134.928 189.958C135.536 189.575 136.239 189.351 136.342 188.561C136.593 186.626 134.164 185.6 132.865 184.763C131.205 183.693 129.2 183.28 127.438 182.407C126.466 181.925 125.529 181.379 124.592 180.832C124.186 180.595 123.363 180.327 123.08 179.954C122.791 179.573 123.074 179.03 123.193 178.485C123.687 176.237 123.52 173.938 123.775 171.665C124.031 169.389 123.961 167.099 124.045 164.812C124.132 162.456 124.328 160.106 124.478 157.753C124.616 155.581 124.755 153.373 124.778 151.198C124.8 149.181 125.076 147.202 125.141 145.172C125.164 144.483 125.039 143.234 125.499 142.65C125.902 142.138 127.236 142.203 127.858 142.113C129.535 141.87 131.132 141.658 132.79 141.512C136.736 141.164 141.127 140.908 144.858 139.539C146.396 138.974 148.444 138.202 148.955 136.443C149.542 134.421 148.775 131.935 148.75 129.867C148.723 127.659 148.08 125.505 147.598 123.366C147.079 121.063 146.752 118.721 146.191 116.426C145.677 114.321 144.842 112.457 144.053 110.458C143.732 109.648 141.909 106.854 142.475 106.165C142.779 105.794 143.877 105.7 144.322 105.531C145.282 105.165 146.243 104.749 147.128 104.229C148.309 103.533 150.896 102.383 151.015 100.839C151.129 99.362 149.672 97.87 148.931 96.7106C147.738 94.8422 146.233 93.2088 145.097 91.3034C142.8 87.4528 140.973 83.2353 139.299 79.0858C138.423 76.9147 138.136 74.8705 137.992 72.5532C140.536 72.5593 143.125 72.8709 145.653 72.5168C148.403 72.1311 151.158 71.482 153.885 70.947C158.85 69.9725 163.618 68.8721 168.217 66.6778C172.525 64.6231 176.896 62.3741 180.462 59.1124C182.306 57.4258 184.187 55.707 185.78 53.7783C187.416 51.7971 188.646 49.5462 189.909 47.322C191.302 44.867 192.411 42.287 193.287 39.6016C193.464 39.0618 193.465 38.3743 193.69 37.8643C193.945 37.2885 194.408 37.2734 194.892 36.9701C195.572 36.5434 196.025 35.1155 194.844 34.8996Z" fill="black"/>
<path fill-rule="evenodd" clip-rule="evenodd" d="M135.623 7.41818C136.204 7.91559 138.711 9.66771 139.52 9.24168C140.519 8.71572 138.938 7.13145 138.512 6.74086C137.97 6.24395 136.034 4.74065 135.293 4.8802C133.811 5.1593 135.1 6.97049 135.623 7.41818Z" fill="black"/>
<path fill-rule="evenodd" clip-rule="evenodd" d="M136.861 25.4003C137.189 24.7565 138.063 24.5198 138.467 23.8967C138.953 23.1477 139.177 22.4922 138.997 21.5737C137.753 21.9908 136.338 23.2531 135.505 24.2403C134.809 25.0652 133.821 26.7891 135.637 26.7934C135.621 26.548 135.605 26.3024 135.589 26.0572C136.133 26.136 136.613 25.8856 136.861 25.4003Z" fill="black"/>
<path fill-rule="evenodd" clip-rule="evenodd" d="M130.933 14.6888C131.735 14.9184 132.397 14.8859 133.217 14.9038C133.811 14.917 134.624 15.2425 135.106 14.8756C134.678 14.629 135.219 14.6154 135.113 14.3749C135.024 14.1744 134.855 14.2401 134.718 14.0778C134.228 13.4995 133.802 13.5065 133.026 13.3863C132.425 13.2926 131.54 13.0767 130.962 13.3745C130.354 13.6879 130.118 14.4556 130.933 14.6888Z" fill="black"/>
<path fill-rule="evenodd" clip-rule="evenodd" d="M142.352 32.4256C142.87 31.9923 143.436 30.7379 143.541 30.0907C143.582 29.8372 143.398 29.6429 143.42 29.4562C143.462 29.1006 144.196 28.413 143.427 28.1212C142.755 27.8658 142.123 29.8503 141.952 30.2833C141.776 30.7262 141.299 31.5889 141.445 32.0174C141.567 32.3728 142.001 32.7179 142.352 32.4256Z" fill="black"/>
<path fill-rule="evenodd" clip-rule="evenodd" d="M148.558 5.56567C149.027 5.13188 149.324 4.63991 149.276 4.04338C149.237 3.57348 148.884 1.95339 148.486 2.00103C147.165 2.15975 147.759 6.30438 148.558 5.56567Z" fill="black"/>
<path fill-rule="evenodd" clip-rule="evenodd" d="M120.676 77.9981C120.567 77.602 120.172 75.1799 119.489 75.345C118.97 75.4704 119.509 77.6017 119.533 77.8822C119.584 78.4689 118.451 78.4497 117.925 78.3704C117.09 78.2448 117.157 77.7578 117.032 77.0022C116.985 76.7166 116.805 75.4261 116.207 75.8988C115.802 76.2182 116.091 77.8095 116.125 78.1726C116.242 79.4301 116.379 81.5775 117.129 82.7195C117.429 83.1749 117.698 83.3997 118.013 82.8157C118.331 82.2247 117.611 80.4231 117.484 79.8184C118.079 79.8763 119.789 79.6843 120.147 80.2989C120.474 80.8598 119.951 82.4626 121 82.5926C121.622 82.6699 121.509 81.9522 121.449 81.4006C121.324 80.243 120.983 79.1163 120.676 77.9981Z" fill="black"/>
<path fill-rule="evenodd" clip-rule="evenodd" d="M122.269 77.4379C121.581 77.7476 122.445 82.2647 123.453 82.1191C124.629 81.9488 122.926 77.1426 122.269 77.4379Z" fill="black"/>
<path fill-rule="evenodd" clip-rule="evenodd" d="M121.502 75.942C121.417 76.9591 122.744 77.3383 122.807 76.233C122.855 75.3802 121.591 74.8728 121.502 75.942Z" fill="black"/>
<path fill-rule="evenodd" clip-rule="evenodd" d="M114.216 48.9762C114.822 51.2249 120.337 52.1813 119.594 49.1488C119.222 47.6303 117.668 48.9793 116.583 48.8026C115.88 48.6884 113.789 47.3905 114.216 48.9762Z" fill="black"/>
<path fill-rule="evenodd" clip-rule="evenodd" d="M112.831 44.965C113.09 43.7616 110.447 42.4336 109.488 42.7649C108.084 43.2496 108.09 46.3488 109.161 47.1727C109.302 47.2812 109.733 47.5398 109.945 47.3337C110.279 47.0077 109.914 47.0966 109.836 46.7712C109.713 46.2536 109.308 45.5891 109.711 45.0002C110.472 43.8878 112.459 46.689 112.831 44.965Z" fill="black"/>
<path fill-rule="evenodd" clip-rule="evenodd" d="M104.771 50.8056C103.817 50.7523 103.036 52.2252 104.438 52.1018C104.707 52.0782 105.284 52.0109 105.439 51.73C105.697 51.2645 105.19 50.829 104.771 50.8056Z" fill="black"/>
<path fill-rule="evenodd" clip-rule="evenodd" d="M151.006 15.6922C150.679 15.2224 149.996 14.4663 149.407 14.9375C148.886 15.3554 148.977 16.3869 149.177 16.8994C149.715 18.2793 150.987 19.5086 152.426 18.7136C151.926 17.7163 151.644 16.612 151.006 15.6922Z" fill="black"/>
</svg>
