<svg width="258" height="193" viewBox="0 0 258 193" fill="none" xmlns="http://www.w3.org/2000/svg">
<g clip-path="url(#clip0_4_829)">
<path fill-rule="evenodd" clip-rule="evenodd" d="M131.627 38.7544C131.017 40.3755 130.407 41.9969 129.796 43.618C129.405 44.6569 129.014 45.6955 128.622 46.7344C128.484 47.1027 128.406 47.4805 128.138 47.7362C127.506 48.3383 126.371 48.7215 125.611 49.145C125.101 49.4288 124.592 49.7126 124.083 49.9965C123.82 50.1429 123.238 50.3268 123.054 50.5698C122.852 50.8376 122.948 51.3294 122.948 51.6997V54.8969V60.9211C125.578 60.5911 128.208 60.2614 130.838 59.9315C127.334 63.9882 123.83 68.0447 120.326 72.1014C119.462 73.1011 118.414 74.0633 117.77 75.2265C116.401 77.7024 115.062 80.1962 113.708 82.6808C112.448 84.9935 111.188 87.3063 109.928 89.619L121.265 89.1349C124.2 89.0096 127.215 89.198 130.043 88.3634C132.374 87.6754 134.705 86.9877 137.037 86.2997C137.347 86.2081 138.313 86.1046 138.532 85.8542C138.738 85.6197 138.734 84.7336 138.792 84.4336C139.892 78.7593 141.293 72.5063 144.504 67.6219C146.807 64.1206 149.914 61.0551 152.759 58.0018C153.87 56.8101 155 55.6327 156.071 54.4049C156.345 54.0904 156.742 53.7335 156.923 53.3515C157.04 53.1047 157.204 52.6345 157.131 52.4154C157.1 52.3204 156.368 51.9796 156.263 51.9119C155.521 51.4335 154.785 50.9451 154.048 50.459C151.978 49.093 149.909 47.7236 147.826 46.3758C146.202 45.3248 144.583 44.2106 142.87 43.3075C141.095 42.3713 139.14 41.7125 137.279 40.9728C135.398 40.2253 133.514 39.4863 131.627 38.7544Z" fill="#F916F9"/>
<path fill-rule="evenodd" clip-rule="evenodd" d="M195.461 125.359C194.558 126.213 192.913 127.359 191.613 126.838C190.96 126.576 190.402 126.002 189.808 125.631C189.109 125.196 188.452 124.76 187.86 124.18C186.678 123.022 185.783 121.33 184.387 120.423C183.918 120.118 183.002 120.053 182.677 119.566C182.531 119.348 182.518 119.017 182.544 118.765C182.603 118.221 182.895 118.253 182.406 117.854H183.166C183.18 117.56 182.888 117.536 182.669 117.574C182.771 117.107 182.874 115.282 182.027 116.109C181.292 116.826 181.66 118.016 181.139 118.792C180.741 119.387 179.684 118.906 179.542 118.251C179.477 117.957 179.8 117.498 179.839 117.21C179.923 116.571 179.639 116.019 179.226 115.535C178.319 116.14 178.833 117.394 178.317 118.19C177.849 118.91 176.808 118.574 176.097 118.448C175.244 118.296 174.28 118.45 173.463 118.247C172.231 117.942 172.691 116.491 172.569 115.554C172.439 114.55 171.428 113.157 171.731 112.145C172.058 111.058 173.965 110.823 174.877 110.559C176.961 109.956 179.933 109.84 181.482 108.152C182.714 109.53 183.705 111.109 184.997 112.436C186.393 113.87 187.884 115.193 189.224 116.684C190.619 118.236 192.059 119.759 193.402 121.356C193.989 122.052 194.504 122.803 195.11 123.483C195.65 124.087 196.218 124.644 195.461 125.359ZM133.527 98.547C134.167 98.2054 134.248 98.4196 134.248 99.1231C134.064 98.7853 133.881 98.6949 133.527 98.547ZM128.098 112.224V110.984C128.715 110.968 128.336 112.029 128.098 112.224ZM127.947 114.071C127.947 113.522 127.932 112.999 128.09 112.465C128.173 113.047 128.331 113.551 127.947 114.071ZM130.601 151.798C131.168 151.852 132.042 151.46 132.518 151.906C133.008 152.365 132.969 153.699 133.085 154.319C133.277 155.343 133.447 156.37 133.608 157.399C133.714 158.073 133.845 158.758 133.085 159.016C131.962 159.397 130.357 158.853 129.186 158.804C126.873 158.706 124.561 158.571 122.247 158.523C120.003 158.478 117.755 158.514 115.521 158.748C114.513 158.854 113.526 159.041 112.528 159.21C112.001 159.299 110.591 159.672 110.116 159.227C109.221 158.389 110.708 156.432 111.348 155.88C112.535 154.854 114.223 154.115 115.711 153.67C116.506 153.432 117.832 152.763 118.459 153.511C118.94 154.084 118.92 154.85 119.609 155.284C121.205 156.291 120.272 153.403 119.274 153.048C119.944 151.475 121.22 153.696 121.75 154.229C121.938 154.419 122.551 155.045 122.817 154.73C123.016 154.494 122.618 153.65 122.545 153.421C122.433 153.072 122.149 152.542 122.231 152.163C122.378 151.479 123.335 151.293 123.908 151.236C124.797 151.147 125.668 151.43 126.547 151.524C127.894 151.669 129.252 151.671 130.601 151.798ZM121.678 87.3348C119.924 87.475 118.159 87.2058 116.409 87.4261C114.753 87.6347 113.192 88.2447 111.631 88.805C113.952 83.3442 116.954 78.3732 120.614 73.7164C122.436 71.397 124.396 69.0936 126.365 66.8986C127.282 65.8773 128.229 64.8899 129.175 63.8973C130.019 63.0119 130.624 61.5081 131.637 60.8469C132.501 60.2824 134.012 60.685 134.97 60.72C136.052 60.7596 137.37 60.8583 138.426 60.4967C139.191 60.2347 139.402 59.5355 138.444 59.5123C137.314 59.4848 136.203 59.6029 135.058 59.4967C132.093 59.2218 129.234 58.7699 126.245 59.0262C125.56 59.0848 124.658 59.3775 123.986 59.2896C123.503 59.2261 123.821 59.4699 123.485 59.0808C123.356 58.932 123.201 58.5821 123.163 58.3844C122.949 57.2739 123.557 55.687 123.702 54.5689C123.837 53.5342 123.718 52.397 123.969 51.3894C124.199 50.4725 124.897 50.3501 125.758 50.2522C128.112 49.984 130.514 49.8413 132.879 49.6392C138.275 49.1781 143.843 48.4824 149.203 49.622C151.138 50.0335 153.498 50.6698 155.227 51.6887C155.767 52.0071 156.313 52.3822 156.116 53.042C155.912 53.727 154.912 54.4506 154.417 54.9018C150.756 58.2363 147.22 61.6375 144.648 65.9161C141.368 71.3721 139.486 77.2646 138.382 83.5166C138.144 84.8617 137.924 85.5657 136.544 85.9528C135.064 86.3686 133.635 86.6388 132.099 86.7652C128.629 87.0512 125.147 87.0572 121.678 87.3348ZM122.854 51.2032C122.588 53.1893 122.228 55.171 122.192 57.1727C122.179 57.9288 122.108 58.3076 121.306 58.4762C120.362 58.6749 119.401 58.823 118.452 59.0292C113.872 60.0251 109.378 61.2482 104.897 62.6249C100.542 63.9633 96.2584 65.4688 91.8055 66.4602C89.8901 66.8867 87.6488 67.1741 85.9041 68.1183C84.0273 69.1344 84.2743 70.8003 84.1059 72.63C83.8808 75.0747 83.1582 77.4418 82.9041 79.8854C82.7826 81.0532 82.6719 82.2278 82.6903 83.4028C82.7059 84.4045 82.8489 85.512 82.1778 86.3549C80.8314 84.5492 80.1933 82.2779 79.928 80.0646C79.799 78.9887 79.8501 77.9041 79.8132 76.8233C79.7834 75.953 79.8027 74.5688 79.2377 73.8421C78.0096 72.2627 76.4123 78.5921 76.2604 79.2679C76.0049 80.4056 75.7943 81.5527 75.5398 82.6905C75.427 83.1948 75.2822 85.0281 74.6087 85.2108C73.213 85.5896 73.5194 81.6548 73.4973 81.0557C73.4531 79.8465 73.4231 78.6358 73.4513 77.4255C73.4719 76.5519 73.6403 75.6039 73.5403 74.7299C73.2947 72.5839 72.092 74.8449 71.7539 75.6437C70.8995 77.6603 70.5131 79.8187 69.7469 81.8676C69.6195 82.2084 69.32 83.3557 68.8456 83.3771C68.3177 83.4006 68.3218 82.2157 68.2917 81.8696C68.1165 79.8629 67.5249 77.8703 67.7034 75.8428C67.8837 73.7956 68.599 71.6909 69.6112 69.9103C71.7511 66.1455 75.6155 63.9838 79.317 62.0148C83.5531 59.7617 88.0253 57.9816 92.593 56.5315C98.0865 54.7874 103.727 53.3763 109.402 52.3721C112.289 51.8612 115.22 51.4959 118.137 51.203C119.162 51.1001 120.187 51.0399 121.199 50.8441C121.581 50.7701 122.959 50.4184 122.854 51.2032ZM125.805 44.7758C124.357 44.7873 122.879 44.0833 121.469 43.7924C119.79 43.4456 118.151 42.9439 116.475 42.5819C113.193 41.8732 109.91 41.1821 106.631 40.4577C105.208 40.1432 103.778 39.8695 102.36 39.5316C100.843 39.1702 99.2048 38.7673 97.6523 39.1566C95.2991 39.7468 94.3051 42.3298 93.4411 44.3456C92.8307 45.7694 92.3526 47.3565 91.4007 48.5954C91.0618 49.0372 90.5801 49.564 89.9656 49.4209C88.8241 49.1553 89.0053 47.6397 89.1507 46.8019C89.3614 45.5861 89.6599 44.3845 89.8988 43.1743C89.995 42.6858 90.7411 39.4889 89.4091 39.9839C88.421 40.351 87.8983 42.7691 87.5243 43.6329C87.2463 44.2747 86.9518 44.9124 86.6399 45.5384C86.2237 46.3734 85.0362 49.1634 83.7214 48.8036C81.8399 48.2886 83.6447 43.3259 83.9652 42.2799C84.1412 41.7057 86.0537 37.3514 84.4394 37.7072C83.752 37.859 83.0822 39.1401 82.7317 39.6712C82.1101 40.613 81.4905 41.5617 80.9054 42.5267C80.3036 43.5192 79.9962 44.649 79.3993 45.6271C79.0853 46.1418 78.4443 46.8278 77.8186 46.3512C76.8431 45.6089 77.4213 43.0264 77.5921 42.0499C77.9099 40.2344 78.6994 38.3732 79.7826 36.889C81.4102 34.6589 84.4815 33.9383 87.0641 33.5051C90.3976 32.9457 93.7776 33.0987 97.1252 33.4297C100.89 33.8019 104.597 34.2005 108.308 34.9617C112.048 35.7289 115.79 36.4898 119.473 37.5044C121.207 37.9823 122.967 38.4061 124.677 38.9672C126.495 39.5635 128.269 40.3057 130.138 40.7354C129.481 42.381 128.823 44.0267 128.166 45.6726C127.537 45.0482 126.678 44.7687 125.805 44.7758ZM158.023 49.3107C158.599 48.9944 159.236 48.8452 159.446 48.1461C159.632 47.5284 159.314 46.8286 159.162 46.2357C158.738 44.5755 158.626 42.8558 159.002 41.1761C159.361 41.7265 160.706 43.8436 161.525 42.5619C162.018 41.7889 160.696 40.6768 160.31 40.1333C161.157 39.6088 162.367 38.2012 163.343 39.0501C163.974 39.5989 164.241 40.1274 165.091 40.3941C166.123 40.7181 167.094 40.6439 168.148 40.5545C168.886 40.4919 169.063 40.3932 169.352 40.9632C169.578 41.4112 169.695 41.9658 169.827 42.4469C170.087 43.3956 170.69 45.2647 169.976 46.1533C169.351 46.9317 166.923 46.2644 166.586 47.2692C166.402 47.8172 167.28 47.8368 167.615 48.1079C168.03 48.4436 168.374 48.9778 168.599 49.455C168.767 49.8079 169.021 50.3909 168.736 50.7517C168.343 51.2509 167.615 50.8722 167.298 50.5095C166.878 50.0275 166.741 49.3687 166.39 48.8438C165.746 47.8807 165.708 48.6469 165.532 49.3384C165.35 50.0568 164.919 50.0074 164.259 50.0996C163.102 50.2617 161.932 50.4903 160.805 50.8016C160.227 50.9611 159.667 51.1644 159.117 51.4019C158.763 51.5547 158.148 52.0176 157.763 52.022C157.051 52.0301 156.557 50.8341 156.189 50.3351C156.8 49.9929 157.409 49.6475 158.023 49.3107ZM196.298 122.544C194.518 120.401 192.976 118.071 191.22 115.909C189.488 113.776 187.484 111.911 185.54 109.979C184.622 109.067 183.743 108.067 182.73 107.259C181.975 106.656 181.394 106.647 180.485 106.914C177.903 107.673 175.273 108.586 172.829 109.718C170.554 110.773 168.481 112.127 166.014 112.715C163.495 113.315 160.876 113.508 158.294 113.359C155.646 113.207 153.148 112.654 150.63 111.841C148.245 111.072 145.758 110.4 143.719 108.875C141.58 107.276 139.928 104.976 138.397 102.813C137.622 101.719 136.853 100.569 136.331 99.3278C135.878 98.2509 135.582 96.9799 134.768 96.1021C134.569 96.3858 134.321 96.629 134.219 96.9621C134.173 97.1135 134.445 97.1088 134.417 97.2291C134.365 97.4557 134.064 97.6869 133.889 97.8102C133.261 98.2535 133.258 97.9006 133.422 98.7297C133.518 99.213 133.337 100.303 132.551 99.9471C132.84 100.294 132.381 100.733 132.231 101.019C132.128 100.9 131.999 100.859 131.846 100.895C132.133 101.468 131.963 101.484 131.685 101.94C131.634 102.023 131.454 102.459 131.48 102.422C131.195 102.829 130.867 102.931 130.701 103.437C130.564 103.853 130.599 104.31 130.448 104.725C130.264 104.471 130.08 104.216 129.897 103.961C129.934 104.162 130.009 104.458 130.096 104.64C130.151 104.753 130.386 105.019 130.383 105.081C130.37 105.312 130.082 105.257 130 105.456C129.846 105.831 130.069 105.886 129.985 106.252C129.888 106.671 129.63 106.503 129.507 106.861C129.484 106.929 129.665 107.196 129.637 107.343C129.596 107.55 129.409 107.665 129.343 107.849C129.175 108.318 129.236 108.661 129.003 109.11C128.912 109.284 128.781 109.4 128.717 109.598C128.661 109.772 128.781 110.143 128.674 110.299C128.153 111.05 128.226 109.755 128.266 109.434C128.597 106.737 129.66 103.954 130.632 101.433C131.116 100.18 131.586 98.8886 132.192 97.689C132.436 97.2059 132.717 96.7074 133.12 96.3379C133.63 95.8704 134.353 95.6834 134.815 95.1612C134.742 95.2436 135.315 94.6993 135.224 94.8782C135.306 94.7183 135.162 94.5018 135.213 94.347C135.277 94.1548 135.396 94.1145 135.53 93.9462C135.769 93.6442 136.054 93.4938 135.678 93.1091C136.236 92.9852 136.503 92.8033 136.615 92.203C136.696 91.7638 136.532 91.7925 136.819 91.4998C137.107 91.2057 137.253 91.4353 137.435 90.926C137.652 90.3166 137.796 89.488 137.927 88.8503C138.04 88.2935 137.764 87.4748 138.232 87.0817C138.825 86.5839 139.355 86.7947 139.249 85.7937C139.145 84.8177 139.447 84.2266 139.751 83.3031C140.357 81.4595 140.591 79.513 141.123 77.6474C142.257 73.6661 144.261 70.0765 146.416 66.572C148.408 63.3337 151.191 60.5747 153.88 57.9177C154.616 57.1899 155.343 56.4517 156.004 55.6539C156.574 54.9669 156.834 54.0316 157.381 53.3795C157.713 52.9834 158.332 52.814 158.796 52.604C159.57 52.2537 160.493 51.7967 161.366 51.8676C161.019 53.0418 160.906 54.414 161.931 55.2945C163.173 56.3627 164.3 55.2529 165.439 54.6439C167.516 53.5338 170.487 54.5529 172.297 52.889C172.729 52.4928 172.849 51.8597 173.297 51.4896C173.626 51.2182 174.095 51.1493 174.465 50.9471C175.59 50.3325 176.137 49.2076 175.698 47.9649C175.298 46.8288 174.676 46.4348 176.061 45.859C177.185 45.3919 177.613 44.6881 177.104 43.4351C176.619 42.2405 175.73 42.103 174.889 41.3212C174.074 40.564 175.01 39.6826 175.62 39.1142C176.407 38.3809 176.558 37.7201 175.645 36.9575C174.689 36.1591 173.325 36.187 172.211 36.5819C170.952 37.0282 170.122 37.7702 169.589 38.9725C169.046 40.1966 167.7 39.855 166.611 39.5138C165.568 39.1876 165.297 38.4839 164.613 37.726C163.852 36.8831 162.301 37.6039 161.403 37.9891C159.192 38.9371 156.995 40.4333 156.907 43.0836C156.855 44.664 157.521 46.0073 157.868 47.4906C158.184 48.8472 156.012 48.7403 155.636 50.0525C151.624 47.9213 147.155 47.2692 142.669 47.1241C137.902 46.9697 133.066 46.846 128.34 47.6005C129.437 45.6827 130.016 43.5796 130.971 41.6094C131.245 41.0421 131.364 41.0906 131.97 41.262C133.135 41.5911 134.291 41.9595 135.454 42.2985C139.7 43.5371 143.864 45.0294 147.97 46.6637C148.369 46.8227 149.26 47.2638 149.61 46.7841C150.014 46.2309 149.08 45.5489 148.702 45.2706C147.048 44.0536 144.999 43.315 143.148 42.4612C139.099 40.595 134.616 39.7092 130.392 38.3231C121.272 35.3304 111.838 33.0576 102.361 31.5564C100.048 31.19 97.7109 31.1364 95.3881 30.8645C93.3306 30.6236 91.2694 30.6291 89.2121 30.8779C85.4124 31.3377 81.0072 32.3296 78.8612 35.8193C76.9238 38.9701 75.6305 42.5126 76.1249 46.2501C76.2734 47.3727 76.7473 48.7021 78.1279 48.4127C79.0856 48.2121 79.5942 47.3956 80.0388 46.5988C80.7107 45.3951 81.3743 44.1914 82.1024 43.0199C82.3725 44.7764 81.3911 46.5036 81.5454 48.293C81.6503 49.5072 82.319 51.4256 83.8902 51.0818C86.0438 50.6108 86.9301 47.2353 87.9656 45.616C88.018 46.8632 87.5823 48.0925 87.7156 49.3426C87.8472 50.5774 88.8089 51.7431 90.1595 51.5739C91.4335 51.4143 92.2614 50.045 92.8025 49.014C93.5555 47.5793 94.0964 46.0411 94.8318 44.5969C95.521 43.2432 96.3375 41.6315 97.9831 41.3772C99.4517 41.15 101.135 41.6759 102.586 41.8928C106.61 42.4944 110.552 43.5189 114.533 44.3465C118.8 45.2338 123.168 45.7727 127.304 47.2045C125.85 49.1904 122.044 48.7613 119.878 48.9744C116.604 49.2966 113.288 49.5391 110.033 50.0145C106.818 50.4839 103.67 51.3174 100.48 51.9224C97.3069 52.5243 94.1392 53.1271 91.0687 54.1535C85.368 56.0592 79.5721 58.4711 74.5493 61.7963C72.2123 63.3436 70.1363 65.112 68.6927 67.5542C67.2398 70.0118 66.5417 72.7907 66.2754 75.6176C66.1097 77.3778 66.3912 78.9012 66.7311 80.6144C66.9773 81.8547 67.057 83.9315 68.0482 84.8397C69.9402 86.5732 71.511 79.5417 71.8604 78.6924C72.1119 80.0842 71.7006 87.9248 74.7363 87.2871C76.0912 87.0027 76.3985 85.137 76.6232 84.0132C77.0331 81.9646 77.4002 79.8748 78.1013 77.9017C78.5513 80.5601 78.7389 83.3298 79.7082 85.8689C80.3521 87.5551 82.1892 90.5472 83.4701 87.6604C84.4308 85.4954 84.1011 83.0106 84.2163 80.7119C84.344 78.1648 85.0729 75.7078 85.3309 73.1856C85.4309 72.2085 85.3403 71.1073 86.319 70.5741C87.1591 70.1165 88.3877 69.9674 89.305 69.7119C92.0219 68.9551 94.7566 68.2594 97.4607 67.4565C100.166 66.6529 102.834 65.7142 105.503 64.7981C108.056 63.9219 110.662 63.4237 113.246 62.6734C114.715 62.2467 116.166 61.8004 117.656 61.4442C118.349 61.2785 119.051 61.1495 119.742 60.9779C120.255 60.8508 120.931 60.3713 121.458 60.3798C122 60.3887 122.204 60.8494 122.826 60.8856C123.496 60.9244 124.177 60.7762 124.843 60.7249C126.465 60.6001 128.19 60.3982 129.809 60.6238C128.836 61.7816 127.522 62.582 126.37 63.5411C125.042 64.6473 123.757 65.8417 122.622 67.1479C120.339 69.7763 118.182 72.5544 116.178 75.4018C114.2 78.2109 112.608 81.2847 111.224 84.4253C110.535 85.9902 109.865 87.5894 109.389 89.2342C109.193 89.9099 109.033 90.5882 108.68 91.2027C108.356 91.7664 107.899 92.2523 108.282 92.9329C108.546 92.7673 108.783 92.5614 109.021 92.3625C108.746 94.3102 108.151 96.1944 107.845 98.1361C107.544 100.049 107.556 102.017 107.576 103.949C107.617 107.995 107.917 111.95 108.735 115.918C109.562 119.932 110.625 123.914 111.965 127.786C113.255 131.513 114.55 135.422 116.351 138.935C118.274 142.688 120.562 146.633 123.346 149.81C121.528 150.557 119.213 150.417 117.288 150.718C115.275 151.033 113.533 151.627 111.818 152.744C110.082 153.875 109.14 155.331 108.9 157.393C108.73 158.861 108.224 160.892 110.143 161.278C111.523 161.555 113.066 161.1 114.449 160.987C116.868 160.79 119.291 160.668 121.716 160.561C124.134 160.456 126.553 160.362 128.972 160.287C130.11 160.252 131.248 160.234 132.385 160.193C132.895 160.175 133.204 160.167 133.661 160.315C134.023 160.432 133.996 160.674 134.399 160.374C135.048 159.89 134.914 158.363 134.896 157.692C134.868 156.656 134.771 155.608 134.569 154.591C134.45 153.987 132.999 150.093 134.127 149.93C132.816 148.484 132.293 146.421 131.704 144.609C130.966 142.34 130.318 140.077 129.81 137.743C128.724 132.757 128.244 127.717 128.244 122.616C133.278 125.729 138.604 127.415 144.533 127.603C150.428 127.79 156.904 127.305 162.501 125.337C165.093 124.426 167.415 123.229 169.637 121.617C170.434 121.039 171.287 119.731 172.333 119.753C173.58 119.78 174.978 120.254 176.217 120.457C178.586 120.844 181.679 121.063 183.685 122.533C184.775 123.332 185.556 124.45 186.528 125.37C187.268 126.071 188.246 126.451 188.981 127.151C189.773 127.907 189.458 128.894 190.772 128.955C191.895 129.007 193.126 128.554 194.094 128.022C196.026 126.96 198.084 124.695 196.298 122.544Z" fill="black"/>
<path fill-rule="evenodd" clip-rule="evenodd" d="M177.728 72.0582C180.555 74.0732 183.798 75.4497 186.753 77.2644C187.493 77.7186 189.797 78.6617 189.774 79.5042C189.761 79.9968 189.069 80.6145 188.766 80.9559C188.246 81.5408 187.758 82.1317 187.278 82.7504C185.084 85.5836 183.018 88.4435 180.64 91.1344C180.282 91.5391 179.204 93.4718 178.856 92.5119C178.698 92.0766 178.828 91.5876 178.417 91.1819C178.205 90.9729 177.387 90.8577 177.625 90.4094C177.784 90.481 177.943 90.5529 178.102 90.6243C177.979 90.2661 177.988 89.8736 177.803 89.535C177.688 89.3246 177.463 89.2251 177.385 88.9882C177.277 88.6608 177.46 88.2804 177.429 87.943C177.399 87.6065 177.225 87.2885 177.122 86.971C176.506 85.0892 176.286 83.1922 175.971 81.2506C175.659 79.3294 175.173 77.4684 174.983 75.5259C174.781 73.4741 174.535 71.4264 174.205 69.391C174.793 69.4738 175.245 70.1144 175.66 70.4766C176.314 71.0458 177.023 71.5559 177.728 72.0582ZM175.512 91.9225C175.377 91.8162 175.271 91.6856 175.195 91.5308C176.581 90.842 175.744 92.0171 175.512 91.9225ZM174.669 90.4535C174.065 90.6206 173.631 90.6544 173.165 90.405C173.121 90.3815 173.172 90.1992 173.092 90.1618C173.022 90.1293 172.916 90.1695 172.857 90.139C172.654 90.0355 172.299 90.2623 172.264 89.8661C173.035 89.6294 173.793 89.1926 174.607 89.119C175.738 89.0169 175.686 90.1721 174.669 90.4535ZM172.022 88.1696C171.198 88.3629 170.519 88.8146 169.643 88.6966C168.821 88.5862 168.107 88.1585 167.459 87.6657C169.081 87.2049 170.782 87.1218 172.403 86.6761C172.93 86.531 173.624 86.1485 174.192 86.3026C174.824 86.474 174.864 87.0678 175.053 87.6081C174.042 87.7906 173.023 87.9348 172.022 88.1696ZM166.868 85.8769C166.076 86.0667 165.266 86.4817 164.604 85.7655C164.497 85.6499 164.404 85.7653 164.417 85.4092C164.43 85.0338 164.769 84.7919 165.062 84.6597C165.748 84.349 166.711 84.5499 167.441 84.5042C168.604 84.4315 169.789 84.1889 170.94 84.002C171.737 83.8728 172.56 83.5858 173.375 83.6424C174.003 83.6862 174.762 84.2239 173.846 84.6162C173.011 84.9736 171.76 84.9188 170.855 85.0736C169.519 85.3024 168.187 85.5606 166.868 85.8769ZM166.094 82.1395C166.145 82.1919 166.197 82.2443 166.248 82.2968C166.239 82.2948 166.552 82.0413 166.634 82.034C167.036 81.9989 167.439 82.0266 167.841 82.0039C168.768 81.9514 169.701 81.7895 170.611 81.6112C171.352 81.4659 172.107 81.2156 172.87 81.2783C173.531 81.3325 173.6 81.4683 173.643 82.1078C171.957 82.1078 170.221 82.0722 168.564 82.4302C167.485 82.6631 166.297 83.357 165.756 82.1062C165.869 82.1173 165.981 82.1284 166.094 82.1395ZM167.148 79.4321C167.566 79.7516 168.706 79.2204 169.207 79.1673C169.751 79.1095 170.263 79.0496 170.79 78.9136C171.257 78.7929 172.804 78.19 173.163 78.7666C173.713 79.6499 171.487 79.812 171.134 79.8557C169.654 80.0392 168.118 80.2018 166.678 80.5913C166.834 80.205 166.991 79.8187 167.148 79.4321ZM169.178 76.4319C169.286 76.8402 172.634 75.3357 172.695 76.4292C172.742 77.2681 169.383 77.6861 168.779 77.6125C168.92 77.2262 169.297 76.8802 169.178 76.4319ZM170.302 73.8655C170.373 73.042 170.483 73.0468 171.142 72.9692C171.644 72.91 172.334 72.6147 172.203 73.5125C172.091 74.2812 170.231 74.6966 170.302 73.8655ZM171.499 71.032C171.657 70.5898 172.013 71.185 172.021 71.4098C172.041 72.0081 171.589 71.8787 171.154 71.8787C171.275 71.5992 171.39 71.3166 171.499 71.032ZM177.008 67.7131C176.919 67.6058 176.421 67.5649 176.279 67.5128C175.93 67.3846 175.979 67.1112 175.533 67.3808C175.511 67.3582 175.553 67.1556 175.529 67.1463C175.517 67.1415 175.204 67.0232 175.103 66.9579C174.857 66.8003 174.636 66.6461 174.411 66.4484C174.172 66.2384 173.932 65.9336 173.658 65.7664C173.543 65.6959 173.449 65.596 173.309 65.5744C172.949 65.5186 173.052 65.7708 172.737 65.8208C172.542 65.8517 172.401 65.6241 172.147 65.7223C171.927 65.807 171.8 66.1159 171.702 66.2998C171.346 66.9689 171.072 67.6892 170.724 68.3654C168.943 71.8236 166.919 75.1506 165.195 78.6411C164.364 80.3226 163.497 82.0158 162.913 83.8027C162.491 85.0916 161.539 86.9744 162.358 88.2622C162.954 89.1985 164.146 89.6029 165.097 90.0553C166.529 90.7362 167.849 91.626 169.296 92.286C171.022 93.0732 172.698 93.8965 174.38 94.7754C175.098 95.1503 175.745 95.6902 176.46 96.0453C176.898 96.2624 177.573 95.8919 177.715 96.3896C178.264 95.7235 179.151 96.1676 179.785 95.6985C180.158 95.4226 180.431 94.8791 180.742 94.5393C181.209 94.0299 181.715 93.5573 182.191 93.0567C184.081 91.0687 185.827 88.9981 187.546 86.8627C189.189 84.8236 191.107 82.8971 192.495 80.665C193.046 79.7789 193.145 78.8497 192.782 77.8708C192.516 77.1567 191.877 76.0785 190.963 76.5513C191.31 75.9741 189.973 75.3578 189.568 75.245C189.562 75.2434 189.482 75.6868 189.369 75.6757C189.409 75.6797 189.029 74.6934 188.862 74.567C188.367 74.1907 187.764 73.7517 187.223 73.442C186.727 73.158 186.204 73.0173 185.724 72.6994C185.141 72.3143 184.607 71.8575 184.022 71.4749C183.458 71.1056 182.829 70.669 182.205 70.4151C181.664 70.1948 181.179 70.1516 180.692 69.7906C180.09 69.3439 179.565 69.0409 178.87 68.7332C178.27 68.467 177.437 68.2344 177.008 67.7131Z" fill="black"/>
<path fill-rule="evenodd" clip-rule="evenodd" d="M95.0128 121.199C95.1233 120.938 95.2333 120.678 95.3438 120.418C95.4803 120.872 95.5186 121.097 95.0128 121.199ZM95.1598 122.401C94.9205 122.444 95.0148 121.691 95.0148 121.559C95.428 121.794 95.0858 122.076 95.1598 122.401ZM94.7867 120.228C94.9907 120.107 95.1947 119.987 95.3987 119.866C95.1146 120.394 95.226 120.064 95.3432 120.417C95.129 120.478 94.9207 120.406 94.7867 120.228ZM93.5779 124.355C92.8133 127.139 90.3848 129.334 87.8197 130.471C86.3457 131.124 84.8966 131.287 83.3049 131.214C82.691 131.186 81.9686 130.986 81.3778 131.023C80.9229 131.052 80.9434 131.072 80.5666 131.458C80.4 131.15 80.5207 130.934 80.1863 130.755C79.7691 130.531 79.5959 130.792 79.389 131.101C79.1181 130.82 79.0073 130.673 78.6563 130.506C78.6674 130.511 78.3204 130.498 78.3346 130.502C78.2719 130.483 77.8945 130.239 77.7763 130.195C77.2914 130.012 76.7308 129.937 76.2834 129.675C75.892 129.447 75.5697 128.805 75.1219 129.298C75.1215 128.474 74.0151 128.132 73.4965 127.701C72.6861 127.026 72.0418 126.027 71.6378 125.061C71.207 124.031 71.0632 123.044 70.8616 121.982C70.7207 121.24 69.7983 120.168 70.3522 119.419C70.4842 119.733 70.4223 120.055 70.6414 120.339C70.8387 119.958 70.9472 119.531 71.0364 119.114C71.0801 118.909 71.3338 118.309 71.305 118.131C71.2464 117.767 70.7967 117.747 71.046 117.3C71.5632 117.865 71.9807 116.873 71.5899 116.478C71.397 116.696 71.3261 116.944 71.2372 117.214C70.7286 116.184 72.1361 116.516 71.8282 115.586C72.3419 115.487 72.6372 115.357 72.8325 114.848C73.0496 114.281 72.8899 114.158 73.383 113.784C73.5527 113.655 74.0324 113.47 74.1202 113.258C74.2901 112.849 73.8578 112.728 74.2364 112.344C74.3642 112.569 74.8625 113.015 75.1353 112.591C75.19 112.506 74.9606 112.446 75.1274 112.252C75.3746 111.963 75.6512 111.681 76.0692 111.741C75.7382 110.911 77.8533 110.845 78.395 110.65C78.9378 110.453 79.3984 110.325 79.9741 110.279C80.5491 110.234 80.5777 110.064 81.0645 109.717C81.1058 110.214 81.2249 110.105 81.577 110.193C81.6617 110.047 81.7485 110.03 81.8372 110.143C81.9256 110.228 82.0337 110.267 82.1611 110.263C82.3545 110.273 82.5738 110.247 82.7764 110.252C83.252 110.261 83.7426 110.221 84.2092 110.231C84.3295 110.211 84.4419 110.169 84.5473 110.105C84.5913 110.188 84.6354 110.272 84.6792 110.355C84.9264 110.386 84.9456 110.697 85.2495 110.357C85.3395 110.789 85.5979 110.564 85.8709 110.681C86.1199 110.788 86.1595 110.959 86.3893 111.079C86.5404 111.202 86.7024 111.218 86.8756 111.128C87.0403 111.25 87.2076 111.369 87.3772 111.485C87.6899 111.662 88.0584 111.77 88.3878 111.91C88.607 112.001 88.8248 112.095 89.0408 112.193C89.0473 112.455 89.1643 112.547 89.3915 112.47C89.5969 112.642 89.6547 112.636 89.8539 112.929C90.3053 113.594 90.7057 114.111 91.2758 114.706C93.7537 117.29 94.5149 120.945 93.5779 124.355ZM94.3384 113.364C93.2197 111.861 91.6362 110.14 90.2133 109.191C89.4921 108.71 88.4798 107.846 87.5978 107.591C87.3887 107.531 87.1723 107.527 86.9667 107.463C86.8079 107.415 86.7215 107.251 86.5404 107.222C86.4138 107.201 86.3998 107.485 86.2653 107.459C85.984 107.404 85.8056 107.124 85.607 106.949C85.1803 107.687 84.9487 106.446 84.3222 107.28C83.5765 106.107 81.8248 106.364 80.6341 106.423C80.281 106.44 80.1151 106.566 79.802 106.66C79.5107 106.747 79.4819 106.724 79.1637 106.722C78.3713 106.716 77.6678 106.816 76.9354 107.165C75.7048 107.751 74.5753 108.665 73.4065 109.372C72.1002 110.162 70.9227 111.167 69.9234 112.322C66.3107 116.5 65.3446 122.597 68.2253 127.439C72.8009 135.131 84.6035 135.953 91.2914 130.734C96.4584 126.702 98.4247 118.853 94.3384 113.364Z" fill="black"/>
<path fill-rule="evenodd" clip-rule="evenodd" d="M150.971 91.7206C150.843 92.028 149.644 91.9245 149.617 91.5621C149.578 91.0206 151.194 91.1865 150.971 91.7206ZM152.245 91.5195C152.924 91.575 154.041 92.0381 154.696 91.7582C155.695 91.3311 154.646 90.6756 154.11 90.4797C153.564 90.2804 152.751 90.3863 152.471 89.8139C152.26 89.3834 152.781 88.1817 152.134 88.3749C151.455 88.5775 151.653 90.299 150.587 89.7187C150.079 89.4418 150.286 87.7552 149.435 88.6169C149.202 88.8526 149.182 89.2855 148.873 89.4612C148.559 89.6407 148.164 89.4537 147.831 89.4693C146.951 89.5107 146.671 90.3366 147.563 90.6641C147.893 90.7855 149.137 90.9335 148.383 91.4746C147.908 91.8154 146.853 91.1002 146.446 91.6935C145.885 92.5085 147.386 92.5269 147.79 92.7708C148.473 93.1836 147.909 94.1481 147.963 94.8348C148.046 95.8842 148.654 95.6649 148.875 94.7769C149.062 94.0234 148.83 92.9388 149.962 93.2383C151.806 93.7259 148.937 96.0742 150.287 96.6751C151.148 97.0582 151.27 94.987 151.337 94.6304C151.585 93.3141 152.322 93.6212 153.438 93.6616C154.743 93.7087 155.057 92.7407 153.676 92.4634C153.236 92.3749 152.629 92.4868 152.247 92.2051C152.02 92.0387 151.709 91.476 152.245 91.5195Z" fill="black"/>
<path fill-rule="evenodd" clip-rule="evenodd" d="M104.087 134.525C103.032 134.146 101.266 134.228 101.005 135.596C100.895 136.169 101.108 136.774 101.502 137.19C101.96 137.673 102.687 137.717 102.649 136.877C102.622 136.296 102.07 135.791 103.04 135.674C103.643 135.601 104.535 136.054 104.565 136.722C104.633 138.229 102.033 138.347 101.075 138.087C99.1732 137.57 99.6898 135.571 100.996 134.659C101.333 134.424 102.301 134.061 102.345 133.571C102.404 132.922 101.604 133.055 101.212 133.14C98.3291 133.77 97.7008 138.615 100.713 139.528C102.081 139.943 104.007 139.515 104.831 138.272C105.604 137.107 105.615 135.074 104.087 134.525Z" fill="black"/>
<path fill-rule="evenodd" clip-rule="evenodd" d="M65.8664 100.228C64.9653 100.663 64.0642 101.098 63.1633 101.533C62.8654 100.894 62.3622 99.1468 61.6067 98.9237C60.3836 98.5625 61.1625 100.467 61.3735 100.902C61.5469 101.26 61.9491 101.814 61.8515 102.24C61.7205 102.815 60.9129 103.018 60.4902 103.314C59.4441 104.048 59.4524 105.588 60.9674 104.936C61.8247 104.566 62.8862 103.542 63.5432 104.705C63.8466 105.242 64.5655 108.24 65.3163 106.279C65.7808 105.065 63.5448 103.804 64.6471 102.776C65.002 102.446 65.4175 102.418 65.772 102.228C66.6281 101.769 66.1454 100.921 65.8664 100.228Z" fill="black"/>
<path fill-rule="evenodd" clip-rule="evenodd" d="M197.973 56.7767C197.435 56.5796 196.771 56.1947 196.174 56.3259C195.539 56.4652 195.284 57.1029 194.822 57.4863C193.568 58.5287 192.837 56.975 192.148 56.1236C191.497 55.3197 190.703 55.1245 189.784 55.6185C189.418 55.8155 187.877 56.7178 188.146 57.2959C188.339 57.7119 189.101 57.3384 189.36 57.2476C189.924 57.0507 190.448 56.8783 191.025 57.1654C192.107 57.7038 192.388 59.18 193.697 59.4102C195.05 59.6483 195.095 58.3559 196.061 57.8694C196.708 57.5435 197.159 58.1206 197.784 58.0056C198.38 57.8962 198.655 57.0269 197.973 56.7767Z" fill="black"/>
<path fill-rule="evenodd" clip-rule="evenodd" d="M187.044 61.9853C187.523 62.0896 187.835 61.1581 188.135 60.9217C188.632 60.5301 189.494 60.4511 190 60.8453C190.989 61.6148 190.648 63.2762 192.056 63.7092C193.313 64.0963 193.906 62.434 194.965 62.0202C195.581 61.7795 196.256 61.622 196.016 60.7585C195.85 60.1613 195.361 60.008 194.83 60.2373C193.917 60.6312 193.607 62.2357 192.524 62.2644C191.404 62.2941 191.282 60.6738 190.801 59.968C190.068 58.8923 188.561 58.6324 187.704 59.661C187.445 59.9713 186.132 61.7872 187.044 61.9853Z" fill="black"/>
<path fill-rule="evenodd" clip-rule="evenodd" d="M164.9 43.6165C165.566 44.0737 166.893 44.0578 167.506 43.4908C168.131 42.9139 167.297 42.8252 166.789 42.8428C166.398 42.8565 165.665 43.051 165.888 42.3732C166.086 41.7717 167.174 42.0779 167.264 41.4176C166.446 41.2704 165.544 41.3234 164.939 41.9688C164.501 42.4353 164.276 43.1884 164.9 43.6165Z" fill="black"/>
</g>
<defs>
<clipPath id="clip0_4_829">
<rect width="202" height="152" fill="white" transform="translate(28 20)"/>
</clipPath>
</defs>
</svg>
