<svg width="258" height="193" viewBox="0 0 258 193" fill="none" xmlns="http://www.w3.org/2000/svg">
<g clip-path="url(#clip0_4_679)">
<path fill-rule="evenodd" clip-rule="evenodd" d="M95.1953 87.2295C96.1911 83.3386 97.1296 79.363 98.6071 75.6237C99.5319 73.2837 100.512 70.9649 101.493 68.6486C101.629 68.327 101.687 68.0171 101.952 67.857C102.305 67.6431 103.037 67.6477 103.436 67.5743C109.105 66.5294 114.833 65.7318 120.58 65.2832C127.138 64.7713 133.532 65.0054 140.021 66.0794C145.571 66.9979 151.066 68.2637 156.501 69.7132C157.3 69.9261 158.098 70.1439 158.894 70.3675C159.265 70.4717 159.881 70.5249 160.204 70.7424C160.895 71.2073 161.13 73.1125 161.389 73.9196C161.736 75.0014 161.938 76.4877 162.607 77.408C163.604 78.7779 165.12 79.9663 166.355 81.1052C170.665 85.0799 175.39 88.7056 180.957 90.6707C189.568 93.7107 198.649 95.6161 207.57 97.4999C207.778 97.5437 207.986 97.5873 208.193 97.6305C205.884 100.2 203.575 102.77 201.265 105.34C199.963 106.789 198.661 108.238 197.359 109.687C196.69 110.432 196.763 110.565 195.817 110.357C191.073 109.317 186.338 108.183 181.68 106.801C179.397 106.123 177.074 105.42 174.95 104.323C172.026 102.812 169.281 100.945 166.61 99.0278C164.222 97.3135 161.89 95.5202 159.601 93.6761C159.149 93.3126 157.521 91.5601 156.992 91.6743C156.537 91.7728 155.748 92.8146 155.414 93.118C154.532 93.9208 153.646 94.7196 152.755 95.512C151.336 96.7727 149.887 98.3169 148.23 99.2658C146.484 100.266 144.482 100.947 142.639 101.744C141.611 102.188 140.582 102.63 139.552 103.071C139.284 103.187 138.908 103.437 138.619 103.443C137.761 103.462 136.515 102.761 135.719 102.488C133.675 101.787 131.645 101.041 129.637 100.241C125.349 98.5338 120.636 96.6788 117.107 93.6063C116.491 93.0704 115.89 92.4705 115.482 91.7544C115.341 91.5061 115.131 91.1604 115.117 90.8674C115.094 90.4 115.355 90.3082 115.744 90.0161C117.751 88.5084 119.916 87.1943 122.044 85.8694C122.544 85.5581 123.046 85.2482 123.548 84.9414L98.6766 86.9485C97.5161 87.0423 96.3557 87.1358 95.1953 87.2295Z" fill="#FF9F1C"/>
<path fill-rule="evenodd" clip-rule="evenodd" d="M132.231 39.6394C134.859 39.7599 137.553 39.8826 140.158 40.2543C142.754 40.6246 145.177 41.5719 147.524 42.7188C151.755 44.7868 156.08 47.3006 158.802 51.2784C160.074 53.1382 161.112 55.0856 162.869 56.5496C163.279 56.892 163.727 57.3035 164.273 57.4082C164.706 57.4915 165.089 57.3152 165.513 57.2941C166.324 57.2537 166.631 57.683 166.631 58.492C167.239 58.2481 167.901 58.0273 168.565 58.1169C169.119 58.192 169.56 58.528 170.093 58.6693C171.054 58.9244 171.994 58.5429 172.908 58.2588C175.216 57.5411 177.752 56.9977 180.177 57.2537C181.774 57.4224 183.709 58.1184 182.882 60.186C182.196 61.9011 179.631 62.7693 178.011 63.1959C176.633 63.559 174.78 63.235 174.897 65.1458C174.978 66.4794 175.179 67.9102 176.59 68.3429C177.363 68.5801 180.103 68.9336 178.503 70.1371C177.321 71.0257 176.909 72.5899 176.01 73.7647C174.864 75.262 173.311 76.4726 171.496 77.0191C169.464 77.6306 167.315 77.5133 165.228 77.7505C166.698 79.7886 168.82 81.1905 170.751 82.7403C172.782 84.37 174.742 86.1509 177.092 87.3127C179.199 88.3539 181.475 89.077 183.651 89.9599C185.936 90.8872 188.238 91.8038 190.596 92.5263C195.355 93.9834 200.36 95.0013 205.252 95.8952C207.666 96.3363 210.033 96.2716 212.471 96.3109C214.973 96.3513 217.472 96.7921 219.928 97.2447C221.118 97.4644 222.32 97.6028 223.51 97.8215C224.081 97.9264 226.342 98.1577 226.423 98.9983C226.555 100.367 225.082 101.135 224.003 101.517C223.542 101.68 222.8 101.656 222.401 101.88C221.969 102.123 222.138 102.48 222.088 102.95C222.016 103.632 221.653 104.123 221.095 104.502C220.637 104.814 220.085 104.801 220.401 105.391C220.546 105.664 220.911 105.835 221.079 106.122C221.271 106.449 221.359 106.808 221.32 107.185C221.252 107.844 220.819 108.348 220.214 108.581C219.247 108.954 218.113 108.69 217.123 108.569C215.466 108.366 213.785 108.346 212.15 107.982C210.446 107.602 208.788 107.017 207.082 106.628C206.207 106.429 205.33 106.262 204.475 105.985C203.919 105.805 203.115 105.338 202.522 105.485C201.967 105.621 201.534 106.295 201.171 106.686C200.67 107.225 200.185 107.779 199.676 108.31C199.339 108.663 198.993 109.007 198.625 109.327C198.505 109.431 197.766 109.885 197.756 110.007C197.727 110.351 198.534 110.345 198.707 110.482C199.711 111.28 198.202 111.785 197.551 111.745C196.049 111.653 194.541 111.468 193.054 111.246C189.514 110.718 185.984 110.149 182.6 108.957C179.252 107.779 175.985 106.525 172.889 104.769C169.917 103.083 167.042 101.176 164.235 99.2281C162.872 98.2826 161.501 97.3029 160.35 96.0985C159.226 94.9205 158.309 93.5681 157.376 92.2371C155.142 94.4053 152.992 96.6852 150.592 98.6728C148.309 100.563 145.565 101.574 142.909 102.801C142.995 103.359 145.591 103.694 146.065 103.839C148.23 104.5 150.307 105.563 152.412 106.396C155.915 107.781 159.239 109.585 160.405 113.433C161.552 117.217 160.222 121.026 158.6 124.444C156.685 128.48 154.41 132.217 151.66 135.735C150.491 137.232 149.231 138.609 147.947 140.003C146.852 141.192 145.913 142.6 146.372 144.29C147.254 144.014 147.415 144.705 146.839 145.29C146.327 145.809 145.442 145.91 144.758 145.997C142.685 146.258 140.543 146.165 138.468 145.971C134.689 145.618 130.902 144.659 127.48 143.01C125.778 142.19 125.162 143.513 123.992 144.537C123.071 145.343 121.803 145.866 121.103 146.909C120.527 147.767 120.903 149.122 122.099 148.801C123.029 148.551 123.777 147.508 124.763 147.467C126.512 147.396 123.211 149.904 122.789 150.21C123.625 150.962 124.573 149.931 125.416 149.759C126.225 149.594 126.451 150.015 126.02 150.692C125.684 151.22 124.628 151.594 125.33 152.237C125.912 152.769 127.201 153.049 127.916 153.282C130.143 154.01 132.36 154.528 134.679 154.86C135.428 154.967 136.628 154.899 137.236 155.432C138.036 156.136 137.65 157.302 137.245 158.108C135.709 161.162 132.517 162.663 129.238 162.883C127.219 163.018 125.18 162.887 123.154 162.996C120.935 163.116 118.71 163.295 116.485 163.221C112.908 163.103 110.632 160.505 108.849 157.648C107.716 155.833 106.672 153.965 105.691 152.064C105.308 151.321 104.506 150.551 104.369 149.716C104.246 148.965 104.723 148.362 105.187 147.83C106.407 146.431 107.875 145.363 109.31 144.206C110.129 143.546 110.443 143 110.808 142.039C111.115 141.23 111.705 140.884 112.225 140.239C112.797 139.529 112.617 139.403 112.171 138.823C111.705 138.215 111.888 137.32 112.084 136.633C112.365 135.646 112.968 135.429 113.868 135.111C114.689 134.822 115.384 134.314 116.112 133.842C119.707 131.513 123.094 128.877 126.734 126.612C130.324 124.378 134.077 122.405 137.504 119.912C134.721 119.536 132.268 118.026 129.643 117.132C128.296 116.674 126.961 116.184 125.658 115.609C125.16 115.39 124.58 115.195 124.136 114.873C123.69 114.549 123.347 114.123 122.879 113.816C121.77 113.088 120.45 112.674 119.257 112.107C117.968 111.495 116.696 110.825 115.498 110.046C114.38 109.318 113.307 108.486 112.377 107.525C111.636 106.759 110.916 105.761 109.867 105.409C109.977 106.877 111.786 108.092 112.778 108.975C114.387 110.407 116.059 111.625 117.857 112.808C115.84 114.545 113.382 115.675 111.02 116.848C108.364 118.167 105.783 119.629 103.138 120.968C100.897 122.102 98.5396 122.976 96.2622 124.03C93.805 125.167 91.276 126.121 88.7123 126.986C86.3921 127.769 84.2078 128.604 82.0186 129.703C79.8904 130.771 77.6133 131.588 75.3366 132.274C72.7786 133.044 70.3382 133.777 67.878 134.833C65.6596 135.785 63.4321 136.394 61.0843 136.912C60.3088 137.083 59.313 137.397 58.7699 136.642C58.3582 136.07 58.2963 135.189 58.1781 134.516C57.7255 131.943 57.6897 129.329 57.2826 126.752C55.7371 127.22 54.2735 127.797 52.643 127.871C51.6181 127.918 50.9953 128.024 50.7399 129.149C51.3328 129.216 53.4513 129.245 53.5085 130.089C53.5603 130.85 52.2785 130.858 51.8239 130.879C51.0105 130.916 50.2733 130.782 49.8392 131.582C50.4788 131.82 51.8969 131.387 52.1801 132.251C52.5451 133.366 50.8878 133.363 50.2915 133.453C49.2511 133.61 49.358 134.431 49.4293 135.308C49.523 136.463 49.5941 137.619 49.7492 138.768C50.0809 141.222 50.6488 143.64 50.9177 146.103C51.1502 148.234 51.2806 150.28 49.7653 151.977C49.156 152.66 48.309 153.445 47.3515 153.527C46.3798 153.609 46.3975 152.925 45.7926 152.422C45.4219 152.113 44.9309 152.05 44.4943 151.884C43.9632 151.682 43.4478 151.386 42.9706 151.079C42.0911 150.513 41.3223 149.811 40.7004 148.967C38.2684 145.665 37.3989 140.732 37.1581 136.729C37.0048 134.183 37.1577 131.634 37.3902 129.098C37.5154 127.732 37.6414 126.366 37.8058 125.004C37.8567 124.582 37.9419 124.16 37.9736 123.737C37.9917 123.494 37.8754 123.005 37.9985 122.772C37.8413 123.069 37.5628 122.85 37.2863 122.616C36.7155 122.135 36.8912 121.21 37.1965 120.576C38.1165 118.668 40.8735 118.593 42.667 118.445C47.4882 118.046 52.0684 116.747 56.684 115.36C56.0326 114.38 57.0571 113.733 57.8513 113.396C59.076 112.876 60.3407 112.42 61.5768 111.924C64.3682 110.804 67.1016 109.759 70.0247 109.045C72.6725 108.397 75.2345 107.323 77.8468 106.535C80.5458 105.721 83.196 104.791 85.8509 103.843C91.1088 101.965 96.3716 100.047 101.474 97.769C102.764 97.1932 103.996 96.5257 105.241 95.8598C106.252 95.3188 107.439 94.9221 108.296 94.1406C109.115 93.3944 109.605 92.3568 110.495 91.6792C111.296 91.0689 112.392 91.0605 113.056 90.3024C113.954 89.2776 115.025 88.8273 116.244 88.2262C116.635 88.0332 119.213 87.0578 119.16 86.5042C117.318 86.5042 115.428 87.0547 113.606 87.3111C111.68 87.5823 109.755 87.8838 107.815 88.0338C104.67 88.2766 101.527 88.2109 98.3963 87.8685C97.9284 87.8174 96.0514 87.4302 95.7278 87.9344C95.4812 88.3187 96.0943 88.7761 96.1004 89.189C96.1095 89.7948 95.6235 90.1198 95.0731 89.9093C94.0017 89.4999 94.1587 87.7651 94.2588 86.8847C94.4503 85.2006 94.8765 83.5321 95.2488 81.8821C93.0383 83.0126 90.9392 84.464 89.0357 86.0592C87.5611 87.2947 86.2297 88.9699 84.4994 89.8507C82.8381 90.6967 81.8503 89.975 81.9184 88.1127C81.9496 87.2594 82.1217 86.4497 82.4158 85.655C82.5547 85.2795 83.1255 84.2168 82.8581 83.8168C81.3398 85.0333 79.8315 86.253 78.2377 87.3697C77.1109 88.1592 75.4775 89.3904 74.0064 89.0771C72.7072 88.8005 72.8343 87.364 73.2461 86.3962C73.6033 85.5568 74.2452 84.811 74.8813 84.1699C75.4073 83.6401 76.1552 83.1652 76.4186 82.4307C74.6736 83.2186 72.877 83.8149 71.0489 84.3686C69.7489 84.7623 68.8403 86.3976 67.3286 86.1559C65.8153 85.9141 66.4179 84.0351 67.0219 83.218C67.4446 82.6465 68.0293 82.1431 68.5965 81.7207C69.1496 81.3086 69.991 80.9496 70.2631 80.2639C68.4953 80.5972 66.7179 81.1769 64.8988 81.07C63.8186 81.0064 62.0153 80.5325 62.2286 79.0735C62.4445 77.596 64.4025 77.4828 65.5035 77.2073C67.0048 76.8314 68.4414 76.1258 69.89 75.5877C72.8122 74.502 75.7913 73.6312 78.7812 72.7658L79.7257 72.4925C83.1006 71.5152 86.4945 70.6828 89.9112 69.8709C91.6 69.4696 93.2828 69.0318 94.9849 68.6895C96.6315 68.3582 98.3046 68.1664 99.9387 67.7704C98.5615 65.6817 100.229 63.9653 102.03 62.9713C100.888 62.7392 99.7264 62.5996 98.5941 62.3184C97.6271 62.0782 96.6952 61.7093 95.7211 61.4967C94.047 61.1316 92.3751 60.9395 90.9461 59.8979C88.2453 57.9294 88.0157 54.797 90.2912 52.4267C92.5877 50.0343 95.9584 48.9142 99.2023 48.8029C102.833 48.6784 106.964 49.3856 110.362 50.6773C112.031 51.3119 113.768 52.1186 115.199 53.1993C116.172 53.9344 117.711 55.3429 119.017 55.3429C117.453 53.4419 115.533 51.476 115.25 48.9013C114.983 46.4638 116.083 43.8729 117.93 42.2962C121.619 39.1468 127.708 39.4319 132.231 39.6394ZM111.197 144.113C110.234 145.618 108.902 146.84 107.644 148.089C107.211 148.52 106.34 149.068 106.298 149.743C106.264 150.294 106.937 150.913 107.231 151.346C108.784 153.636 110.063 156.165 111.961 158.198C114.105 160.496 116.553 160.943 119.59 160.95C122.962 160.957 126.38 161.381 129.746 161.202C132.597 161.051 135.408 159.775 136.826 157.182C135.902 156.703 134.588 156.931 133.587 156.942C132.222 156.956 130.889 156.932 129.54 156.693C128.318 156.477 127.11 156.153 125.96 155.679C125.365 155.434 124.777 155.154 124.229 154.813C123.828 154.564 123.527 154.182 123.133 153.938C121.679 153.036 120.001 155.903 118.448 155.848C117.496 155.814 117.841 154.874 118.237 154.348C118.951 153.398 120.198 152.812 121.139 152.119C120.263 151.309 119.273 152.159 118.438 152.582C117.395 153.112 116.311 153.762 115.146 153.961C115.233 152.451 117.276 151.642 118.404 151.028C118.905 150.755 119.534 150.502 119.657 149.901C119.75 149.449 119.591 148.807 119.544 148.35C119.485 147.77 119.44 147.585 118.826 147.421C118.08 147.223 117.329 147.28 116.582 147.033C114.538 146.354 112.949 145.348 111.197 144.113ZM44.7694 120.329C44.2703 120.468 43.766 120.589 43.259 120.696C42.2556 120.909 41.2508 121.13 40.244 121.323C39.7389 121.42 39.1782 121.358 39.0294 121.843C38.9529 122.091 39.1454 122.537 39.1784 122.795C39.2377 123.26 39.2415 123.731 39.2471 124.2C39.2997 128.515 38.4018 132.806 38.7972 137.121C39.1311 140.767 39.9126 145.379 42.5786 148.095C43.7293 149.267 45.1451 150.54 46.594 151.341C47.7298 151.969 49.3165 150.393 49.5485 149.302C49.7147 148.521 49.4375 147.696 49.257 146.942C49.0256 145.976 48.7911 145.011 48.5619 144.045C48.0725 141.983 47.6276 139.901 47.4869 137.781C47.4408 137.085 47.4507 136.414 47.4898 135.72C47.511 135.344 47.6875 134.436 47.4253 134.114C47.0863 133.697 46.3116 133.969 45.8529 134.005C45.35 134.044 44.8591 134.014 44.3678 133.885C43.1981 133.578 42.9932 132.644 44.2703 132.211C45.1619 131.909 46.7917 132.347 47.5408 131.765C48.4209 131.082 46.6421 130.988 46.2267 130.971C45.6736 130.947 43.839 131.093 43.9327 130.057C44.002 129.289 45.5812 129.238 46.1338 129.205C47.3143 129.135 48.8079 129.58 49.3181 128.149C49.5226 127.577 48.2914 127.286 47.9825 127.002C47.2317 126.311 46.9855 125.127 46.921 124.157C46.8575 123.204 47.7918 119.897 46.3683 119.81C45.9312 119.783 45.2046 120.208 44.7694 120.329ZM114.785 139.41C113.947 140.413 113.223 141.511 112.442 142.558C114.273 143.573 116.144 144.389 118.037 145.262C118.898 145.659 119.501 145.973 120.334 145.371C120.931 144.94 121.379 144.327 121.962 143.878C122.8 143.233 123.676 142.642 124.535 142.027C122 141.098 119.427 140.283 116.892 139.351C115.945 139.003 115.469 138.591 114.785 139.41ZM93.9119 136.227C94.4539 136.779 93.4103 138.309 93.2048 138.833C94.8857 138.699 96.5524 138.432 98.203 138.09C98.7651 137.973 98.5579 138.661 98.3476 138.887C98.0876 139.168 97.5673 139.253 97.2196 139.353C95.9403 139.721 94.628 139.899 93.3151 140.095C93.9159 140.838 95.3616 142 94.8961 143.117C94.0564 142.39 93.4527 141.423 92.524 140.794C92.2557 141.197 91.699 142.615 91.0889 142.529C90.1311 142.392 91.1015 140.734 91.3017 140.335C90.6568 140.335 88.2332 140.903 87.8951 140.106C87.5491 139.29 89.8879 139.316 90.3202 139.123L90.2396 139.024L90.1587 138.926C89.8354 138.535 89.5249 138.149 89.4811 137.611C90.2044 137.861 90.6872 139 91.482 139.016C92.2356 139.032 92.572 137.894 92.8405 137.356C92.9932 137.049 93.5117 135.819 93.9119 136.227ZM175.463 125.495C177.084 126.868 175.983 129.638 174.757 130.883C173.383 132.278 170.324 133.56 168.583 132.138C167.63 131.359 167.974 130.172 168.209 129.137C168.469 127.986 168.632 127.016 169.58 126.227C171.056 124.998 173.819 124.102 175.463 125.495ZM172.174 126.293C170.593 126.631 168.991 128.218 168.615 129.853C168.122 131.998 170.338 132.155 171.798 131.832C173.635 131.427 175.586 130.074 175.68 127.951C175.76 126.12 173.402 126.03 172.174 126.293ZM57.1328 117.02C54.7654 117.905 52.5401 119.116 50.0563 119.642C49.2982 119.802 48.9869 119.977 48.7995 120.687C48.5369 121.68 48.2882 122.686 48.4756 123.724C48.8647 125.878 51.8482 125.614 53.505 125.529C54.3556 125.486 55.9916 125.642 56.7295 125.109C57.2686 124.719 57.0424 123.989 56.9584 123.421C56.6442 121.295 56.9869 119.144 57.1328 117.02ZM186.208 96.492C185.336 96.6571 183.829 97.3709 185.079 98.2658C185.912 98.8625 187.153 98.935 188.133 99.0824C190.046 99.3704 192.088 99.6192 193.748 100.704C196.825 102.713 196.448 106.505 195.528 109.608C196.191 110 198.137 107.436 198.504 107.019C199.992 105.327 201.485 103.641 202.985 101.96C203.627 101.241 198.365 98.7585 197.892 98.5349C195.392 97.3534 193.059 96.5754 190.256 96.3726C188.926 96.2765 187.523 96.2429 186.208 96.492ZM175.355 90.2027C175.116 90.8077 175.535 91.0819 175.919 91.4999C178.069 93.8361 179.582 97.1429 180.779 100.043C181.376 101.489 181.794 102.948 182.163 104.463C182.526 105.95 183.677 106.347 185.057 106.769C188.236 107.741 191.582 108.067 194.771 109.027C195.626 109.284 195.793 107.396 195.847 106.917C196 105.555 195.858 104.134 195.146 102.933C193.799 100.663 191.099 100.181 188.691 99.794C187.314 99.573 185.499 99.3448 184.409 98.3987C183.862 97.9239 183.785 97.3792 184.211 96.7892C184.989 95.7132 186.359 95.575 187.583 95.4872C188.179 95.4445 191.869 95.8193 191.99 95.3805C190.152 94.779 188.266 94.3822 186.456 93.6942C185.043 93.1574 183.62 92.6504 182.194 92.148L180.769 91.6461C179.319 91.1354 177.992 90.5141 176.602 89.8992C176.079 89.6685 175.6 89.5828 175.355 90.2027ZM206.524 100.046C206.064 100.668 205.607 101.19 205.262 101.889C204.86 102.704 204.192 103.224 203.634 103.924C206.533 104.438 209.299 105.09 212.092 106.032C213.526 106.516 215.007 106.754 216.474 107.101C217.705 107.391 219.016 107.842 220.291 107.575C218.839 105.566 214.968 106.121 213.949 103.687C213.256 102.032 214.96 100.711 216.354 100.424C218.788 99.9221 221.382 99.8834 223.854 99.7046C223.88 98.7543 214.907 98.2622 214.019 98.1853C212.444 98.0483 210.799 97.7515 209.227 97.6967C207.767 97.6458 207.29 99.0112 206.524 100.046ZM172.28 93.0956C171.416 93.9351 170.569 94.793 169.706 95.6336C169.138 96.1863 168.369 96.7749 167.922 97.4334C167.35 98.274 168.351 98.6782 169.018 99.076C170.701 100.08 172.441 101.018 174.154 101.974C175.692 102.832 177.293 103.925 178.991 104.427C179.9 104.695 180.753 105.112 181.629 105.465C181.206 101.653 179.028 98.1914 177.02 95.0138C176.558 94.2841 176.082 93.5646 175.621 92.8351C175.388 92.4679 174.957 91.6012 174.47 91.5264C173.75 91.4156 172.717 92.6715 172.28 93.0956ZM216.321 102.797C217.374 103.403 218.43 103.711 219.617 103.253C219.909 103.133 220.199 103.006 220.484 102.873C219.693 101.789 217.353 102.449 216.321 102.797ZM129.116 89.532C127.249 90.3775 125.253 91.2197 123.63 92.4953C123.03 92.9662 121.692 93.9555 122.005 94.8527C122.273 95.6209 123.755 96.2751 124.459 96.5092C128.161 97.7407 132.375 96.8448 135.784 99.1047C136.707 99.7163 137.008 100.516 137.693 101.32C138.313 102.047 139.097 101.957 139.93 101.655C141.024 101.259 142.032 100.652 143.13 100.263C143.692 100.064 144.646 99.9319 144.704 99.1706C144.979 95.5821 144.217 91.0102 141.069 88.8145C137.535 86.3497 132.659 87.9269 129.116 89.532ZM127.114 97.8945C127.024 98.3495 130.527 99.1733 130.907 99.2786C133.022 99.8641 134.999 101.256 137.19 101.48C137.571 100.627 134.536 99.2675 134.056 99.0922C131.865 98.2929 129.414 98.148 127.114 97.8945ZM195.902 96.3008C198.558 97.3943 201.132 98.7333 203.358 100.595C204.126 101.237 205.991 98.1901 206.409 97.7229C202.872 97.5752 199.386 96.8971 195.902 96.3008ZM146.266 74.8662C143.804 76.5005 141.66 78.6374 138.957 79.8902C139.803 80.024 140.726 79.4738 141.534 79.2808C142.32 79.0929 143.116 78.9689 143.882 78.7029C144.352 78.5395 146.295 77.4845 146.659 78.1996C147.229 79.3165 143.217 80.0893 142.647 80.2799C140.72 80.9231 138.807 81.5969 136.9 82.2969C135.053 82.9749 133.208 83.7045 131.3 84.1915C129.361 84.686 127.306 84.8135 125.443 85.5815C123.795 86.2607 122.379 87.3847 120.79 88.178C119.196 88.9735 117.385 89.4656 116.011 90.6495C117.505 92.2515 119.271 93.593 121.204 94.6142C121.514 92.1712 124.364 90.7802 126.313 89.8411C130.563 87.7939 136.947 84.7069 141.279 88.1761C144.445 90.7116 144.874 95.5227 144.874 99.2891C145.732 99.0146 146.515 98.5782 147.311 98.1662C147.863 97.8807 147.869 97.0857 147.939 96.5548C148.052 95.6853 148.286 94.8433 148.555 94.0092C149.149 92.1641 149.894 90.364 150.603 88.5615C151.75 85.6457 153.165 82.7701 153.87 79.7026C154.331 77.7006 154.878 74.2597 152.476 73.2659C150.398 72.4064 147.954 73.7462 146.266 74.8662ZM135.514 66.7178C135.113 66.9881 135.263 67.7991 135.29 68.206C135.39 69.6856 135.327 71.1713 135.377 72.6536C135.437 74.4596 135.45 77.7715 137.303 78.7842C138.571 79.4768 140.148 78.439 141.159 77.7323C142.871 76.537 144.441 75.1488 146.177 73.9818C148.234 72.5984 152.132 70.6847 154.101 73.2872C155.167 74.6957 155.017 76.7945 154.751 78.4332C154.401 80.5954 153.581 82.6462 152.767 84.6668C151.085 88.8393 149.329 93.0795 148.394 97.4961C150.527 96.2226 152.185 94.3873 154.046 92.7749C155.425 91.5798 157.474 90.2073 157.793 88.2597C157.865 87.8198 158.288 87.5064 158.58 87.2121C158.959 86.8292 159.227 86.4412 159.467 85.9527C159.997 84.8735 160.342 83.7079 160.559 82.527C161.015 80.0494 160.798 77.5834 160.378 75.1204C160.187 74.0065 160.467 72.8115 160.208 71.7258C160.029 70.9719 159.499 71.0165 158.795 70.8451C156.258 70.2276 153.717 69.6289 151.179 69.0172C150.148 68.7685 149.027 68.3022 147.957 68.3177C147.078 68.3305 146.34 68.8568 145.582 69.2381C144.337 69.864 142.358 70.959 140.929 70.3366C139.263 69.6113 141.204 67.9736 140.369 67.1989C139.796 66.6676 138.084 66.9862 137.308 66.8542C136.882 66.782 135.905 66.4549 135.514 66.7178ZM161.727 88.1134C160.515 88.3053 159.814 88.8333 159.147 89.8693C158.469 90.9222 158.388 91.4436 159.355 92.2676C160.397 93.1562 161.488 94.0338 162.595 94.834C163.998 95.8484 165.554 96.6162 166.941 97.6553C167.548 98.1104 170.304 94.5427 170.783 94.0535C171.443 93.3786 172.12 92.7018 172.827 92.0806C173.086 91.8536 173.897 91.3272 173.897 90.9411C173.898 89.9652 171.745 89.092 171.052 88.8233C169.499 88.2216 167.871 87.9787 166.217 87.9535C164.75 87.9313 163.179 87.8831 161.727 88.1134ZM167.125 83.8204C165.988 84.4272 164.8 84.9385 163.655 85.5327C163.249 85.7434 160.689 86.8241 160.818 87.47C163.699 87.2866 166.568 86.7966 169.44 87.357C170.729 87.6089 171.958 88.0308 173.036 88.8094C173.852 89.3988 174.475 90.5314 175.285 89.5234C173.63 88.5812 172.14 87.3323 170.673 86.1198C170.031 85.5889 169.37 85.0897 168.718 84.5733C168.33 84.2663 167.691 83.5186 167.125 83.8204ZM98.9777 69.713C98.0763 69.8402 97.1979 70.0801 96.3128 70.2861C92.727 71.1206 89.1276 71.8699 85.5513 72.7531C78.418 74.5145 71.0713 76.2129 64.2695 79.0348C64.8414 79.6701 66.3568 79.2099 67.0666 79.0854C68.456 78.8415 69.8042 78.4152 71.1768 78.0935C72.5194 77.779 73.8669 77.4039 75.2204 77.1417C75.8439 77.021 76.9437 76.8619 76.9688 77.8012C77.0044 79.1327 74.43 80.1284 73.4851 80.6151C72.4746 81.1355 71.4964 81.7107 70.5345 82.3158C69.7741 82.7943 68.3718 83.432 68.1252 84.3829C70.5928 83.3325 73.0619 82.2862 75.5143 81.2003C76.4381 80.7913 77.374 80.4058 78.2534 79.9068C78.8398 79.574 79.5945 78.99 80.2888 78.9376C81.2289 78.8664 81.3847 79.7243 80.9886 80.4163C80.4929 81.2827 79.4699 81.7715 78.7175 82.3778C77.7583 83.1509 76.9094 84.0629 76.0458 84.938C75.3288 85.6644 74.4056 86.3796 74.0314 87.3617C75.3202 87.7948 76.7846 86.4065 77.7317 85.7203C79.2199 84.6419 80.606 83.4688 82.0259 82.3034C82.7522 81.7072 83.6181 80.7417 84.574 80.5638C85.7856 80.338 85.6852 81.7297 85.3914 82.497C84.7348 84.2118 83.1974 85.6416 83.0875 87.5748C83.0199 88.765 84.0231 88.3119 84.6925 87.8345C85.8196 87.0305 86.5825 85.8054 87.6055 84.8833C90.0689 82.6625 92.8888 80.768 95.9361 79.4525C96.4815 79.217 96.6776 78.3718 96.8435 77.8637C97.0909 77.1054 97.3756 76.3703 97.673 75.6292C98.3247 74.0059 98.859 72.2513 99.7721 70.7518C100.027 70.3336 100.684 69.9074 100.14 69.6613C99.8449 69.5278 99.2827 69.6699 98.9777 69.713ZM124.991 66.967C124.068 67.0753 123.134 67.0654 122.209 67.1634C120.7 67.3232 121.358 69.1681 121.115 70.2798C120.399 73.5522 116.947 74.1702 114.331 72.6264C112.86 71.7576 111.976 70.5125 111.185 69.0561C110.734 68.2257 110.397 68.0921 109.464 68.2999C108.824 68.4427 108.241 68.4124 107.589 68.4598C106.769 68.5196 106.698 68.6943 106.681 69.4784C106.666 70.1747 106.567 70.6572 106.105 71.2213C105.226 72.2958 103.751 73.0032 102.495 73.5431C101.237 74.0842 99.8112 74.4863 99.1201 75.765C98.7717 76.4098 98.3984 77.1795 98.2975 77.9124C98.1873 78.713 98.4577 79.2097 97.993 79.9483C97.0271 81.4838 96.5843 83.1618 96.096 84.9068C95.9368 85.4753 95.8739 85.7092 96.4915 85.8654C97.3775 86.0898 98.6359 85.7493 99.5453 85.7135C100.194 85.688 100.573 84.5387 100.784 84.073C101.194 83.1675 101.696 82.3101 102.2 81.4532C103.34 79.5118 104.56 77.5833 106.05 75.887C107.175 74.6068 108.835 73.0131 110.275 74.8121C111.679 76.5653 112.69 78.6188 114.379 80.147C115.863 81.4912 117.393 81.5127 118.932 80.2388C120.448 78.9846 121.6 77.2735 122.542 75.5662C123.561 73.7199 124.33 71.7488 125.323 69.8915C125.634 69.3094 127.071 67.7345 126.633 67.06C126.338 66.6044 125.406 66.9184 124.991 66.967ZM132.721 66.5643C131.909 66.6029 131.091 66.5111 130.279 66.4948C128.808 66.4656 127.578 66.5173 126.84 67.9333C126.188 69.1829 125.633 70.5123 125.038 71.7919C123.746 74.5717 122.478 77.4159 120.494 79.7814C118.736 81.877 116.465 82.9327 114.178 80.9308C113.164 80.0432 112.394 78.898 111.666 77.7723C111.083 76.8699 110.417 75.2818 109.44 74.7557C108.351 74.1692 107.103 75.5146 106.437 76.2446C105.317 77.472 104.382 78.9154 103.483 80.3092C102.831 81.32 102.206 82.3522 101.573 83.3749C101.316 83.7897 100.27 85.1462 100.618 85.6628C100.967 86.1808 102.672 85.8267 103.165 85.7793C104.342 85.6665 105.518 85.6258 106.696 85.5239C110.36 85.2072 113.97 84.3982 117.643 84.1823C120.063 84.0399 122.447 83.5699 124.829 83.1429C127.145 82.7278 129.476 82.4445 131.768 81.8958C133.115 81.5732 134.465 81.2502 135.809 80.9154C136.275 80.7997 138.474 80.484 138.61 79.8764C137.096 79.6108 136.301 79.0206 135.764 77.5361C135.092 75.6769 135.014 73.6049 134.956 71.646C134.934 70.8924 134.931 70.1385 134.93 69.3846L134.93 68.4801C134.93 67.9394 135.162 66.9583 134.677 66.5833C134.228 66.2363 133.241 66.5393 132.721 66.5643ZM162.782 78.5703C162.845 81.0201 162.41 83.4892 161.408 85.7274C162.456 85.896 163.702 84.5754 164.581 84.133C164.919 83.9625 167.16 83.1441 166.41 82.5184C165.029 81.3677 164.124 79.76 162.782 78.5703ZM192.822 80.5625C193.129 81.1717 192.75 81.9448 192.544 82.5227C194.143 82.9086 195.735 83.2878 197.345 83.6154C198.559 83.8623 198.136 84.5939 197.082 84.5434C195.617 84.4733 194.253 83.8495 192.795 83.7686C191.406 83.6914 191.243 84.9099 190.059 85.1445C190.099 84.4741 190.639 84.0085 191.026 83.5056C190.387 83.1761 189.734 82.8698 189.115 82.5068C188.793 82.3188 187.906 81.5302 188.248 81.1113C188.593 80.6885 189.497 81.4809 189.818 81.6554C190.276 81.9036 191.189 82.4505 191.727 82.2936C192.464 82.0787 192.31 81.0155 192.822 80.5625ZM169.79 64.6005C169.141 64.6457 168.436 64.4265 167.822 64.7133C167.209 64.9993 166.478 65.6254 165.966 66.0596C165.47 66.48 165.224 66.9904 164.607 67.2385C163.991 67.4866 163.361 67.4647 163.123 68.2212C163.682 68.3752 164.779 68.171 165.216 68.5837C165.853 69.1842 164.742 69.8449 164.281 70.0339C163.621 70.3049 163.08 70.217 162.405 70.1662C162.111 70.1442 162.113 70.0534 161.873 70.1996C160.98 70.742 161.598 72.6715 161.887 73.3754C163.305 76.8206 168.147 75.6604 170.94 75.3076C170.051 74.408 168.596 73.4156 168.522 72.0027C168.5 71.582 168.604 70.83 169.142 70.795C169.572 70.767 170.087 71.4195 170.355 71.6767C171.149 72.4388 172.175 73.7028 173.323 73.8121C174.857 73.9584 176.037 71.4619 176.673 70.3731C175.891 70.2254 175.034 70.2341 174.58 69.4633C174.04 68.5471 174.03 67.1434 174.04 66.112C174.048 65.2337 174.326 64.2729 173.158 64.2298C172.082 64.1902 170.876 64.5249 169.79 64.6005ZM66.7887 66.8531C66.5652 67.343 65.594 67.535 65.1677 67.666C63.5458 68.1638 61.9622 68.7961 60.381 69.4161C57.1889 70.6683 54.0317 72.0512 51.1168 73.8913C50.5721 74.2354 50.8389 73.5717 50.9804 73.3324C51.2976 72.7959 51.9641 72.4163 52.4619 72.0877C53.8089 71.1981 55.2356 70.5731 56.7251 69.9781C59.7055 68.7875 62.7312 67.5251 65.7878 66.5607C66.1424 66.4489 67.089 66.1949 66.7887 66.8531ZM103.81 69.279C103.218 69.3405 102.524 69.2052 101.954 69.3995C101.211 69.6527 101.334 70.165 101.114 70.7949C100.741 71.8642 100.342 72.9246 99.9531 73.9883C101.393 73.9208 102.772 72.7754 103.992 72.1161C104.683 71.743 107.085 70.5043 106.361 69.3703C105.902 68.6526 104.468 69.2104 103.81 69.279ZM120.197 67.4148C119.306 67.3986 118.325 67.6698 117.423 67.7148C116.213 67.7753 115.021 68.0066 113.813 68.0624C113.018 68.0993 112.238 68.2635 111.451 68.3711C112.234 70.1927 113.761 71.7861 115.68 72.4459C117.194 72.9665 119.313 73.0549 120.347 71.6145C120.942 70.7859 121.915 67.4459 120.197 67.4148ZM166.624 59.8902C165.652 60.5392 164.872 61.4691 164.06 62.2989C162.026 64.3769 159.921 66.6018 159.04 69.4504C158.919 69.8406 159.836 70.1854 160.085 70.2006C160.609 70.2324 160.716 69.9665 160.922 69.5211C161.432 68.4182 161.627 67.1862 162.442 66.2459C163.436 65.0993 164.633 63.9815 165.786 62.9965C166.57 62.3272 168.491 61.3848 168.716 60.2783C168.982 58.9702 167.212 59.4973 166.624 59.8902ZM141.545 67.4597C140.995 67.6204 140.952 68.1316 140.826 68.6824C140.321 70.8954 145.432 68.4809 146.144 68.1192C145.907 67.4087 143.577 67.5383 143.038 67.5103C142.618 67.4888 141.951 67.341 141.545 67.4597ZM171.737 68.6092C170.98 68.6385 171.329 65.5298 172.19 65.8424C172.928 66.1108 172.223 68.5901 171.737 68.6092ZM65.2607 65.0348C64.101 66.0407 62.2803 66.1756 60.8383 66.4985C58.7136 66.9742 56.6074 67.5806 54.4998 68.1278C53.169 68.4734 53.9182 67.6494 54.5845 67.3398C55.7302 66.8075 57.0273 66.5238 58.2519 66.2309C59.5776 65.9138 60.9323 65.7021 62.2505 65.3561C63.1633 65.1165 64.3404 64.5035 65.2607 65.0348ZM101.341 43.4151C102.629 43.6529 103.916 44.0671 105.046 44.7456C105.981 45.3073 105.944 46.1812 104.758 45.6741C99.2273 43.3083 92.3641 44.7414 86.963 46.8362C86.3671 47.0672 86.4114 46.5632 86.5915 46.1747C86.8395 45.6395 87.3695 45.3288 87.8783 45.0803C89.4069 44.3333 91.169 43.9109 92.8312 43.6006C95.6012 43.0834 98.5575 42.9017 101.341 43.4151ZM102.149 40.0171C102.852 40.2086 103.659 40.6837 104.089 41.2865C104.592 41.9918 104.192 42.3523 103.494 41.9375C102.715 41.4745 102.002 41.0129 101.108 40.7684C100.636 40.6395 100.655 40.342 100.994 40.0808C101.312 39.8363 101.804 39.9231 102.149 40.0171Z" fill="black"/>
</g>
<defs>
<clipPath id="clip0_4_679">
<rect width="203" height="153" fill="white" transform="translate(27 20)"/>
</clipPath>
</defs>
</svg>
