<svg width="258" height="193" viewBox="0 0 258 193" fill="none" xmlns="http://www.w3.org/2000/svg">
<path fill-rule="evenodd" clip-rule="evenodd" d="M109.788 77.6868C107.116 77.8571 104.423 77.7877 101.749 77.7028C101.486 77.6943 100.856 77.572 100.695 77.7292C100.511 77.9102 100.55 78.9075 100.519 79.1545C100.288 81.0258 100.057 82.8973 99.8264 84.7686C99.7201 85.6278 99.614 86.4872 99.508 87.3464C99.4778 87.5907 99.1782 88.647 99.3213 88.8589C99.5813 89.2445 101.444 89.3325 101.935 89.4269L107.781 90.5514C108.332 90.6572 109.737 90.6822 109.992 91.1164C110.154 91.3919 110.055 92.138 110.074 92.4506L110.233 95.0301C110.442 98.4085 110.65 101.787 110.858 105.165C114.995 104.833 119.133 104.501 123.27 104.169C124.277 104.088 125.284 104.008 126.29 103.927C126.53 103.907 127.032 103.958 127.228 103.826C127.655 103.537 128.02 102.3 128.25 101.856C128.838 100.724 129.425 99.5918 130.013 98.4594C130.579 97.3683 131.146 96.2771 131.712 95.186C131.857 94.9067 132.219 94.4408 132.21 94.1354C132.199 93.7913 131.685 93.1751 131.525 92.881C131.054 92.0188 130.584 91.1567 130.113 90.2946C127.783 86.0257 125.453 81.7569 123.123 77.4882C123.005 77.2718 122.741 76.4851 122.51 76.3655C122.061 76.1335 120.492 76.6002 120.008 76.6554C116.61 77.0427 113.203 77.4693 109.788 77.6868Z" fill="#8239F8"/>
<path fill-rule="evenodd" clip-rule="evenodd" d="M70.3785 70.3538C71.2044 71.3324 72.0303 72.311 72.8564 73.2897C75.0466 70.5902 77.2368 67.8908 79.4271 65.1914C78.329 64.7014 77.2311 64.2114 76.1332 63.7214C75.1586 63.2867 75.2831 63.4934 74.6666 64.3555C73.2373 66.3551 71.8078 68.3544 70.3785 70.3538Z" fill="black"/>
<path fill-rule="evenodd" clip-rule="evenodd" d="M112.616 134.03C112.612 135.452 112.609 136.874 112.606 138.297C116.962 138.082 121.319 137.868 125.676 137.654C125.478 137.057 125.28 136.46 125.082 135.864C124.928 135.398 124.732 133.989 124.356 133.676C123.946 133.335 122.14 133.687 121.589 133.707C118.598 133.814 115.607 133.922 112.616 134.03Z" fill="black"/>
<path fill-rule="evenodd" clip-rule="evenodd" d="M102.236 26.354C97.1469 29.5648 92.0571 32.7757 86.9673 35.9865C88.0912 37.2989 89.2146 38.6113 90.3382 39.9237C90.6074 40.2381 90.6552 40.437 90.9631 40.4065C91.3212 40.3709 91.924 39.8095 92.2223 39.6238C95.8306 37.3812 99.4383 35.1386 103.046 32.8963C104.138 32.2177 105.23 31.5391 106.321 30.8605C104.96 29.3584 103.598 27.8562 102.236 26.354Z" fill="black"/>
<path fill-rule="evenodd" clip-rule="evenodd" d="M220.491 76.5387C220.307 75.0462 219.554 73.5289 219.002 72.1466C218.353 70.5178 217.668 68.9026 216.967 67.2952C216.524 66.2776 216.363 66.5277 215.202 66.5732C213.846 66.626 212.49 66.679 211.135 66.732C212.179 70.5169 213.223 74.3015 214.267 78.0861C214.447 78.7412 214.74 81.1974 215.309 81.5291C215.506 81.6441 216.187 81.4962 216.411 81.488C217.05 81.4638 217.69 81.44 218.33 81.4161C219.199 81.3835 220.068 81.351 220.938 81.3184C220.816 79.7235 220.687 78.1266 220.491 76.5387Z" fill="black"/>
<path fill-rule="evenodd" clip-rule="evenodd" d="M101.77 76.8406C103.468 76.8447 105.151 76.632 106.848 76.6555C108.749 76.682 110.617 76.7334 112.516 76.5784C114.385 76.4257 116.247 76.4182 118.116 76.3046C118.704 76.2691 121.978 76.0196 120.06 75.0848C119.415 74.7704 118.639 75.1622 117.938 75.3034C117.126 75.4671 116.307 75.5285 115.486 75.6271C114.704 75.7212 113.873 75.9809 113.084 75.9617C112.257 75.9416 111.635 75.7938 110.803 75.9133C109.079 76.1612 107.362 76.0225 105.638 75.8628C104.449 75.7526 101.84 75.0853 101.77 76.8406ZM150.895 58.7382C150.729 60.631 150.637 62.0889 149.502 63.6817C148.29 65.3825 146.897 65.2301 144.983 65.4171C143.266 65.585 141.918 66.1517 140.539 67.1657C138.916 68.3581 137.166 69.3483 135.437 70.3747C132.148 72.3273 128.225 72.8673 124.49 73.4476C123.551 73.5937 121.817 74.0134 122.922 75.1249C124.11 76.3198 124.776 78.083 125.574 79.578C127.404 83.0056 128.806 86.6874 130.894 89.9702C131.737 91.2964 132.746 92.8967 134.04 93.8331C135.269 94.7217 137.735 93.0714 138.985 92.5255C140.611 91.816 142.317 91.2776 143.848 90.4021C145.276 89.5854 146.73 88.8809 148.232 88.2086C149.706 87.5482 151.134 86.891 152.678 86.4092C154.494 85.842 156.414 85.6409 158.26 85.1468C160.153 84.6403 161.647 84.1032 163.177 82.8501C163.888 82.268 164.755 81.6857 165.041 80.7657C165.334 79.8243 165.118 78.6237 165.074 77.6586C165.027 76.6496 164.87 75.6165 164.891 74.6072C164.912 73.5899 165.411 72.7915 165.713 71.8461C166.189 70.3544 166.731 67.6498 165.223 66.6451C165.117 68.2389 164.554 69.6689 164.027 71.1638C163.519 72.6038 162.685 73.4845 161.439 74.324C160.965 74.6434 160.452 75.0882 159.89 75.2332C159.295 75.3873 158.462 75.3083 157.843 75.3149C156.451 75.3296 154.942 74.9654 153.87 74.0283C151.699 72.1312 151.226 68.731 151.435 66.0339C151.556 64.4826 151.812 62.9198 152.524 61.5201C152.769 61.0389 153.256 60.5254 152.984 59.9619C152.7 59.3719 151.426 59.0146 150.895 58.7382Z" fill="#8239F8"/>
<path fill-rule="evenodd" clip-rule="evenodd" d="M134.381 172.369C132.048 171.781 129.51 172.338 127.159 172.355C125.775 172.364 124.393 172.272 123.009 172.343C122.545 172.367 120.424 172.306 120.352 172.584C120.297 172.798 120.718 173.337 120.882 173.425C121.34 173.675 121.662 173.354 122.124 173.236C123.376 172.913 124.841 173.112 126.127 173.051C127.474 172.987 128.82 172.907 130.166 172.845C131.507 172.783 133.218 173.061 134.381 172.369ZM20.0885 51.6231C19.9095 51.2136 19.8359 50.5637 19.4247 50.3073C19.0439 50.0696 18.2457 50.2431 17.8055 50.237C16.8695 50.2243 14.8373 50.2605 14.2258 51.1114C13.4824 52.1457 15.6694 52.8832 16.3988 52.8635C17.6661 52.8291 18.8191 51.857 20.0885 51.6231ZM43.3874 38.64C43.4838 38.3781 43.1452 38.205 42.9006 38.1215C42.2783 37.9093 41.8689 38.2625 41.3212 38.5281C39.9383 39.199 38.4347 39.6425 36.98 40.1273C35.7133 40.5492 34.5384 41.1405 33.2964 41.6156C32.4158 41.9525 30.5574 41.8869 30.0503 42.7368C29.0491 44.4157 31.6717 43.1565 32.1339 42.9936C33.46 42.5267 34.8715 42.2389 36.1714 41.7052C37.4224 41.1917 38.6981 40.6693 39.9362 40.1132C40.5011 39.8594 41.0628 39.644 41.6387 39.4223C42.1776 39.2151 42.8142 38.6948 43.3874 38.64ZM81.2335 67.7383C80.9031 67.536 79.5489 66.4069 79.0938 66.5558C78.7385 66.6723 78.3408 67.9695 78.1193 68.3102C77.0101 70.0155 75.8139 71.6505 74.6247 73.3001C75.1524 73.5836 75.6801 73.8668 76.2081 74.1503C77.2842 71.6036 79.3592 69.6979 81.2335 67.7383ZM101.769 76.8404C103.468 76.8445 105.151 76.6318 106.847 76.6553C108.748 76.6818 110.617 76.7332 112.516 76.5782C114.385 76.4255 116.247 76.418 118.116 76.3045C118.703 76.2689 121.977 76.0194 120.059 75.0846C119.414 74.7702 118.638 75.162 117.937 75.3032C117.126 75.467 116.306 75.5283 115.485 75.6269C114.703 75.721 113.873 75.9807 113.084 75.9615C112.256 75.9414 111.635 75.7936 110.803 75.9131C109.078 76.161 107.361 76.0223 105.637 75.8626C104.449 75.7525 101.839 75.0851 101.769 76.8404ZM147.995 173.424C149.088 172.543 150.817 172.925 152.116 172.644C153.551 172.334 152.421 170.816 151.871 170.008C151.298 169.165 150.434 167.481 149.47 168.728C148.464 170.031 148.345 171.868 147.995 173.424ZM113.581 135.17C113.545 135.961 113.152 136.775 113.976 137.047C114.767 137.308 116.125 136.911 116.945 136.841C118.013 136.749 119.064 136.573 120.13 136.463C120.605 136.414 121.083 136.377 121.561 136.421C121.89 136.451 122.684 136.808 122.978 136.66C123.34 136.479 123.515 135.5 123.219 135.122C122.899 134.713 120.966 135.119 120.274 135.171C118.021 135.342 115.825 135.069 113.581 135.17ZM113.443 132.631C114.481 132.204 115.713 132.404 116.805 132.398C118.091 132.391 119.361 132.461 120.643 132.545C121.211 132.582 122.866 133.002 123.342 132.639C123.592 132.448 123.682 130.815 123.47 130.565C123.124 130.156 122.037 130.648 121.592 130.714C120.399 130.891 119.182 130.887 117.979 130.875C116.853 130.865 115.724 130.815 114.599 130.813C113.265 130.81 113.446 131.49 113.443 132.631ZM77.7551 65.6626C77.3313 65.4172 75.9402 64.2897 75.4206 64.4609C74.9784 64.6066 74.509 65.9522 74.2449 66.375C73.7418 67.1806 73.2105 67.9706 72.6891 68.7647C72.3559 69.2724 71.4672 70.1897 71.6191 70.8761C71.6999 71.2415 72.4399 71.8726 72.8135 71.7618C73.1992 71.6475 73.8342 70.2153 74.0483 69.9327C75.2065 68.405 76.6616 67.2555 77.7551 65.6626ZM212.65 67.3171C214.135 70.2227 214.326 73.5083 215.13 76.6268C215.318 77.3526 215.606 78.069 215.765 78.7991C215.854 79.2058 215.691 79.9029 215.918 80.249C216.489 81.1159 219.13 80.8406 219.7 80.0775C220.035 79.6293 219.775 79.1644 219.633 78.6991C219.44 78.0706 219.532 77.5234 219.421 76.8961C219.198 75.6389 218.063 74.37 217.525 73.2096C216.937 71.9421 216.667 70.4171 215.825 69.2848C215.261 68.5272 213.68 66.9637 212.65 67.3171ZM115.847 180.665C117.834 180.404 120.958 179.814 120.854 177.148C120.751 174.498 117.272 174.028 115.335 173.796C114.768 173.728 114.706 173.695 114.13 174.039C113.734 174.275 113.339 174.527 112.97 174.802C112.251 175.338 111.436 176.069 111.283 177.004C110.893 179.38 114.104 180.454 115.847 180.665ZM104.493 30.1359C105.394 30.2311 104.195 29.3565 103.968 29.2506C103.278 28.9292 102.512 28.9875 101.78 29.1097C100.008 29.4054 98.4402 30.8906 96.9265 31.8088C95.3235 32.7809 93.7414 33.8802 92.0699 34.7288C91.3057 35.117 90.6738 35.4464 90.0388 36.0253C89.7152 36.3205 89.603 36.5252 89.168 36.525C88.9268 36.525 88.3888 35.9619 88.132 36.2877C87.415 37.1969 91.0273 37.491 91.4044 37.4295C93.2877 37.1218 94.9216 36.4083 96.5377 35.4405C98.1877 34.4528 99.9399 33.6508 101.598 32.6893C102.315 32.2735 102.929 31.7222 103.583 31.2283C103.676 31.1575 103.845 30.9191 103.94 30.8286C104.092 30.8731 104.219 30.8338 104.321 30.7105C104.375 30.5177 104.432 30.3261 104.493 30.1359ZM140.927 172.394C139.095 173.043 136.101 173.549 135.241 175.695C134.268 178.125 138.644 179.859 140.361 179.99C142.165 180.129 145.371 179.4 145.623 177.16C145.767 175.87 144.744 175.047 143.787 174.404C142.809 173.747 141.414 173.606 140.927 172.394ZM23.7098 37.0105C22.4149 37.1589 21.5348 37.2865 20.5033 38.1256C19.6474 38.8222 18.9422 39.5257 18.5935 40.6001C17.7872 43.0832 19.78 45.2152 22.34 44.926C22.6222 44.8941 22.8978 44.7898 23.1844 44.8186C23.4475 44.845 23.6315 45.0337 23.854 45.0715C24.3783 45.1604 24.48 45.0686 24.9102 44.6611C25.7878 43.8297 26.6686 42.9162 27.1547 41.7943C28.3253 39.0925 26.5649 37.0589 23.7098 37.0105ZM53.1502 31.8355C53.2761 29.0391 49.0131 28.5796 47.0474 28.7923C44.8156 29.0339 41.154 31.2966 42.004 34.0727C42.7521 36.5162 46.9728 36.33 48.797 35.8332C49.1872 35.7271 49.7937 35.4964 50.1777 35.5744C50.7546 35.6911 50.7826 36.1653 51.3262 35.7362C51.6679 35.4663 51.9764 34.6806 52.2176 34.2935C52.6983 33.5223 52.9468 32.7183 53.1502 31.8355ZM113.067 146.674C113.008 147.273 112.779 148.043 113.425 148.328C113.824 148.504 114.93 148.311 115.331 148.325C117.004 148.384 118.72 148.252 120.382 148.384C120.874 148.424 122.343 148.921 122.78 148.588C123.208 148.261 122.874 147.24 122.845 146.783C122.729 144.918 122.979 143.105 123.06 141.25C123.081 140.752 123.287 139.542 122.905 139.173C122.439 138.723 121.406 138.983 120.851 139.039C119.119 139.214 117.338 139.471 115.597 139.475C115.12 139.476 114.062 139.137 113.648 139.316C113.011 139.59 113.161 140.546 113.126 141.157C113.019 142.998 112.949 144.831 113.067 146.674ZM74.1408 63.1791C71.8707 61.4998 69.5176 59.9074 67.2475 58.2745C66.4392 57.6933 65.8383 56.8632 65.0809 56.2959C64.6059 55.9395 64.461 55.7846 63.8117 56.1284C63.0613 56.5259 62.3638 57.1503 61.6716 57.6435C61.0902 58.0575 60.5061 58.4681 59.924 58.8805C59.3845 59.2626 59.2039 59.3495 59.5862 59.9841C60.2587 61.1005 61.6555 62.1081 62.5686 63.0264C64.8222 65.2925 67.0235 67.6369 69.5554 69.5945C70.4258 67.0589 72.2265 64.9971 74.1408 63.1791ZM99.5889 24.0392C95.6481 22.4843 95.3491 17.2195 93.9709 13.8637C93.5441 16.161 94.6763 19.8947 92.7647 21.6989C91.589 22.8083 90.9078 21.2426 90.2767 20.3904C89.3153 19.0927 88.2834 17.8521 87.3657 16.5214C87.6474 18.1267 88.4549 19.9284 88.304 21.5609C88.1854 22.8425 87.365 24.598 86.171 23.1447C85.3511 22.1466 84.3015 21.2129 83.3454 20.3277C82.196 19.2635 80.8845 18.576 79.6351 17.6684C80.1189 20.0691 81.0411 22.2002 82.4008 24.232C83.0982 25.2744 83.8618 26.2757 84.5201 27.344C85.0583 28.2172 85.3122 29.3033 86.0253 30.0451C86.6915 30.7381 87.671 31.2914 88.4685 31.8238C89.6043 32.5816 89.8766 32.366 90.921 31.6457C92.9426 30.2517 95.1375 29.1355 97.1722 27.7591C96.7956 27.2618 96.1941 26.7707 96.2138 26.0938C96.2297 25.5459 96.6497 25.0471 97.2118 25.1127C97.6522 25.164 97.8559 25.6249 98.3461 25.4694C98.7604 25.3378 99.3269 24.3498 99.5889 24.0392ZM235.291 65.966C233.465 66.1812 231.76 66.8311 229.888 66.7126C229.13 66.6646 228.565 66.8042 228.232 66.045C227.967 65.4384 228.239 64.5168 227.404 64.3516C226.785 64.2295 226.02 64.8032 225.562 65.1278C224.741 65.7113 224.013 66.2291 223.082 66.6413C221.433 67.372 219.759 68.0071 217.956 68.0869C218.392 69.4094 218.851 70.734 219.455 71.9909C220.034 73.1958 220.604 74.2209 220.776 75.5631C220.85 76.1375 220.85 76.7635 221.414 77.0159C221.968 77.2639 222.956 77.0596 223.555 77.0702C224.928 77.0949 226.302 77.127 227.676 77.1302C228.722 77.1322 229.763 77.3813 230.782 77.3668C232.049 77.3485 233.482 76.7988 234.718 76.5377C237.059 76.0432 240.334 75.7364 242.2 74.1419C240.473 73.8707 238.714 74.0553 237.018 74.4268C236.241 74.5971 234.46 75.4832 233.939 74.596C233.319 73.539 234.533 72.0799 235.389 71.5887C236.355 71.0342 237.797 71.0942 238.478 70.0949C237.192 70.2033 235.837 70.2508 234.593 70.6286C233.641 70.9179 232.411 71.7423 232.034 70.3146C231.423 68.0014 233.698 66.9044 235.291 65.966ZM98.9987 85.7701C99.3217 82.7081 99.9137 79.6135 99.9662 76.5307C99.9886 75.1989 98.4816 75.4371 97.4268 75.0586C95.8936 74.5086 94.3907 73.8576 92.8853 73.237C91.3847 72.6185 89.8759 72.0219 88.37 71.4161C87.0029 70.8664 85.6908 70.035 84.3124 69.5463C83.5622 69.2803 83.5038 69.54 83.0684 70.2275C82.645 70.8962 82.2 71.5509 81.7395 72.1948C80.7723 73.5474 79.7367 74.8494 78.6783 76.1314C81.8631 78.046 85.1873 79.8153 88.4735 81.5505C91.8271 83.3214 95.4749 84.3935 98.9987 85.7701ZM167.029 74.1539C168.714 74.158 170.354 73.9159 172.031 73.8646C173.689 73.8139 175.293 73.8865 176.937 73.9295C178.516 73.9707 180.065 74.2906 181.639 74.365C182.023 74.3831 182.421 74.3815 182.802 74.424C183.185 74.4668 183.412 74.6089 183.767 74.669C184.641 74.817 185.491 74.6075 186.373 74.6546C189.623 74.8279 192.825 75.4946 196.076 75.6635C199.417 75.8373 202.679 76.0963 206.005 76.4965C207.763 76.7081 209.524 76.8322 211.291 76.956C211.653 76.9813 212.428 77.2091 212.627 76.7965C212.868 76.2954 212.05 74.5835 211.9 74.053C211.704 73.3637 211.543 72.6588 211.281 71.9903C211.127 71.5996 210.803 70.3241 210.491 70.0761C210.056 69.7305 209.406 70.0626 208.898 70.1359C207.869 70.2843 206.823 70.3727 205.789 70.4745C204.258 70.6257 202.725 70.9869 201.195 71.0329C199.467 71.0844 197.749 71.0105 196.023 70.9462C192.568 70.817 189.028 70.8838 185.591 70.5313C181.618 70.1239 177.627 69.9583 173.645 69.6592C172.701 69.5882 171.754 69.5703 170.81 69.5137C170.134 69.4732 168.754 68.9995 168.123 69.2192C167.481 69.4425 167.603 70.2008 167.53 70.7901C167.391 71.9147 167.212 73.0359 167.029 74.1539ZM125.663 105.36C123.266 105.728 120.914 105.872 118.49 105.942C117.421 105.972 116.359 106.023 115.295 106.13C114.405 106.22 113.906 106.259 113.873 107.232C113.728 111.5 113.495 115.723 113.364 119.993C113.29 122.404 113.375 124.818 113.367 127.23C113.364 128.145 113.176 128.805 114.183 128.912C115.407 129.041 116.692 128.871 117.923 128.883C119.056 128.893 120.19 128.921 121.324 128.946C122.051 128.962 123.401 129.323 123.645 128.443C123.723 128.162 123.583 127.667 123.59 127.356C123.604 126.777 123.675 126.192 123.71 125.613C123.79 124.285 123.849 122.955 123.93 121.627C124.26 116.185 125.149 110.788 125.663 105.36ZM98.2144 37.6107C99.7956 38.8221 101.594 39.6556 103.284 40.715C104.095 41.2231 104.877 41.7679 105.671 42.3004C106.488 42.8483 107.437 43.1802 108.208 43.7888C109.702 44.9668 111.549 45.7174 113.19 46.7395C114.857 47.7781 116.519 48.8185 118.224 49.7945C118.978 50.2264 119.804 50.4858 120.577 50.8754C121.505 51.3426 122.346 51.9545 123.286 52.4009C125.299 53.3567 127.309 54.3136 129.313 55.288C133.247 57.2003 137.279 58.9672 141.296 60.7001C142.151 61.0693 143.051 61.2315 143.953 61.4496C144.379 61.5525 144.919 61.6059 145.303 61.8104C145.423 61.8742 145.549 61.8833 145.644 61.9903C145.825 62.1955 145.671 62.4828 145.783 62.6355C146.408 63.4904 148.145 61.0881 148.549 60.506C149.173 59.6065 148.92 59.4608 147.957 59.0877C146.985 58.7113 146.005 58.3563 145.043 57.9541C143.273 57.2132 141.463 56.375 139.771 55.4674C138.012 54.5231 136.18 53.7435 134.44 52.7588C132.488 51.6543 130.551 50.5272 128.577 49.4619C125.246 47.6645 122.185 45.3984 118.949 43.4474C117.162 42.3703 115.483 41.0885 113.754 39.9026C112.067 38.7452 110.467 37.453 108.744 36.3716C107.797 35.7769 106.811 35.2819 105.925 34.5948C105.263 34.0815 104.603 33.5549 103.773 33.9858C102.876 34.4514 102.03 35.2342 101.159 35.7748C100.176 36.3852 99.1956 36.9985 98.2144 37.6107ZM171.618 57.6433C171.105 57.375 169.221 56.659 170.106 55.7819C170.735 55.1577 172.224 55.9871 172.834 56.1936C172.821 55.3305 172.822 54.7353 172.544 53.9125C172.265 53.0857 172.342 52.4604 173.023 51.8337C173.335 51.5471 174.465 51.2998 174.596 50.9238C174.799 50.3397 173.786 50.525 173.44 50.4433C171.612 50.0117 171.722 48.098 171.677 46.6329C171.623 44.9104 171.22 43.2542 169.887 42.1346C169.284 41.629 169.067 41.6281 168.325 41.9602C168.052 42.0826 167.806 42.2794 167.504 42.3337C167.078 42.4104 166.792 42.1328 166.412 42.1516C165.824 42.1805 165.223 43.1522 164.651 43.4626C163.909 43.8648 163.179 43.7447 162.447 44.0324C161.795 44.2883 161.165 44.9824 160.557 45.3516C159.729 45.8543 159.918 46.3477 159.971 47.3354C160.015 48.1595 159.988 48.7002 159.177 49.0059C158.915 49.1045 158.455 49.0601 158.232 49.2187C157.903 49.4529 158.082 49.6289 157.976 50.0205C157.707 51.0114 157.138 50.4067 156.411 50.2743C155.527 50.113 154.552 50.7365 155.015 51.6846C155.18 52.024 155.535 52.333 155.89 52.4387C156.31 52.5633 156.835 52.2199 157.222 52.3749C158.211 52.7705 157.421 53.7076 157.468 54.3462C158.068 54.0211 158.272 53.0893 158.892 54.1222C159.34 54.8688 159.162 56.0029 159.05 56.818C158.792 58.7038 158.213 61.0141 156.985 62.5269C156.808 62.7447 156.544 63.154 156.211 63.1024C155.934 63.0597 155.901 62.7013 155.662 62.6097C155.149 62.4124 154.363 62.7045 154.167 63.1789C153.835 63.9806 153.87 65.1568 153.843 66.0054C153.813 66.982 153.698 68.0869 153.935 69.045C154.341 70.6813 155.865 71.251 157.348 71.6125C158.174 71.8136 159.08 72.0484 159.917 71.7656C160.829 71.457 161.456 70.6293 162.099 69.9612C162.583 69.459 163.521 68.8873 163.584 68.1609C163.614 67.8209 163.372 67.3521 163.317 67.004C163.229 66.4513 163.204 65.8927 163.219 65.3335C163.246 64.3062 163.534 63.2619 163.446 62.2346C163.356 61.1838 162.573 61.1082 162.147 60.2988C161.894 59.8158 161.834 59.0638 162.451 58.8995C162.81 58.8041 163.482 59.076 163.871 59.1036C164.463 59.1457 165.064 59.1549 165.659 59.1608C166.754 59.1719 167.58 59.1158 168.571 58.6394C169.592 58.1494 170.504 57.8437 171.618 57.6433ZM146.216 172.773C146.257 171.877 146.382 170.982 146.66 170.127C146.896 169.4 147.403 168.763 147.488 168.013C147.666 166.445 147.146 164.973 145.633 164.407C144.166 163.859 142.577 163.868 141.045 163.971C140.156 164.03 139.402 163.726 138.529 163.767C137.611 163.809 136.8 163.683 135.888 163.587C134.193 163.407 132.749 162.662 131.104 162.347C130.298 162.192 130.02 162.536 129.527 163.102C128.984 163.725 128.373 164.249 127.685 164.707C126.628 165.411 124.736 166.704 124.635 164.522C124.551 162.691 126.387 161.334 127.521 160.148C126.373 159.661 126.471 157.85 125.136 158.579C124.557 158.895 124.099 159.362 123.564 159.742C123.114 160.061 122.08 160.95 121.488 160.88C120.652 160.783 120.562 159.596 120.688 158.938C120.915 157.742 122.167 157.054 123.055 156.352C123.592 155.927 124.395 155.593 124.851 155.095C125.336 154.565 125.228 153.972 125.212 153.306C125.205 153.003 125.432 151.862 125.308 151.6C125.118 151.197 124.459 151.304 123.989 151.262C123.118 151.184 122.252 151.032 121.384 150.95C120.703 150.885 120.049 151.039 119.368 151.064C117.648 151.127 115.907 151.037 114.184 151.032C113.872 151.031 112.562 150.808 112.344 151.078C112.156 151.311 112.335 152.39 112.334 152.669C112.328 154.4 112.334 156.129 112.386 157.86C112.487 161.274 112.373 164.781 111.671 168.137C111.544 168.745 111.143 169.419 111.761 169.719C112.235 169.949 113.503 169.591 114.02 169.557C115.7 169.448 117.397 169.556 119.067 169.434C121.974 169.222 124.981 169.417 127.947 169.485C131.892 169.577 135.815 170.003 139.759 170.104C141.473 170.148 143.217 169.836 144.909 169.887C145.574 169.908 145.762 170.076 145.8 170.787C145.844 171.633 145.476 172.087 146.216 172.773ZM63.434 52.0124C61.9187 49.4563 60.4902 46.8497 58.9765 44.2928C58.2926 43.1382 57.5247 42.0405 56.7614 40.9378C56.3703 40.373 55.9381 39.8022 55.6391 39.18C55.3651 38.6104 55.2836 37.9555 54.9611 37.4087C54.351 38.7556 53.0414 39.4945 51.6709 39.9766C50.6059 40.3512 49.5669 40.8876 48.4557 41.1188C45.5497 41.7242 42.675 43.0284 39.8233 43.9741C33.768 45.9814 27.2957 47.0838 21.4658 49.692C23.455 51.6584 22.837 55.8509 26.1562 56.485C27.4767 56.7375 28.8558 56.3316 30.1197 55.9839C31.7156 55.5448 33.3127 55.1091 34.9102 54.6747C36.6435 54.203 38.3942 53.837 40.1417 53.4252C41.0193 53.2185 41.9026 53.075 42.782 52.8886C43.5146 52.7334 43.5234 52.5814 43.9072 51.8923C44.5563 50.7275 45.7604 49.5359 46.7788 51.0727C47.1934 51.6987 47.1056 52.4843 47.469 53.1047C47.7795 53.6345 48.4433 53.9094 48.9099 54.2675C49.2338 53.3544 49.6205 52.1179 50.3361 51.4165C51.1169 50.6514 51.8924 51.267 52.1735 52.1663C52.5111 53.247 52.0135 54.562 51.7958 55.6253C51.6894 56.145 51.4876 56.7422 51.6098 57.2752C51.7723 57.9835 52.3903 58.7138 52.7585 59.3285C56.2002 56.7669 59.7161 54.151 63.434 52.0124ZM130.718 95.048C129.71 93.6838 128.645 92.4751 127.888 90.9469C127.08 89.3135 126.426 87.5544 125.563 85.9626C124.707 84.382 123.919 82.7712 123.137 81.1482C122.591 80.0155 121.97 77.296 120.408 77.3641C119.627 77.3983 118.831 77.679 118.046 77.7559C117.125 77.8464 116.201 77.8412 115.282 77.9534C113.265 78.1998 111.302 78.6403 109.267 78.7595C107.518 78.862 105.746 78.9145 103.995 78.8385C103.518 78.8179 102.276 78.4466 101.834 78.6593C101.318 78.9072 101.49 79.8744 101.447 80.3693C101.282 82.231 101.03 84.0942 100.747 85.9409C100.699 86.2558 100.211 87.8295 100.429 88.0955C100.766 88.5059 102.211 88.2315 102.683 88.2679C104.542 88.4109 106.37 88.8351 108.222 89.0402C109.162 89.1443 110.103 89.1683 111.048 89.1717C111.966 89.1749 113.305 88.9219 114.176 89.2359C114.735 89.438 115.053 89.913 114.872 90.5182C114.673 91.1853 114.025 91.3344 113.424 91.4593C112.984 91.5507 111.705 91.4998 111.428 91.9043C111.128 92.3423 111.654 93.1676 111.802 93.5829C112.086 94.3793 111.925 94.7211 111.904 95.4998C111.881 96.3194 112.357 97.0406 112.293 97.8695C112.232 98.6796 112.198 99.3264 112.277 100.152C112.346 100.878 112.298 101.673 112.4 102.378C112.636 104.009 116.168 103.022 117.265 102.998C119.531 102.947 121.805 103.313 124.063 103.205C124.727 103.173 126.267 103.293 126.735 102.73C127.21 102.16 127.285 100.858 127.591 100.153C128.391 98.3084 129.582 96.6918 130.718 95.048ZM150.894 58.738C150.729 60.6309 150.637 62.0887 149.502 63.6816C148.29 65.3823 146.896 65.2299 144.983 65.417C143.265 65.5848 141.917 66.1515 140.538 67.1655C138.916 68.3579 137.166 69.3481 135.437 70.3745C132.147 72.3271 128.224 72.8671 124.489 73.4474C123.55 73.5936 121.817 74.0132 122.922 75.1247C124.11 76.3196 124.775 78.0828 125.573 79.5778C127.403 83.0054 128.806 86.6872 130.893 89.9701C131.736 91.2962 132.745 92.8966 134.039 93.8329C135.268 94.7215 137.734 93.0712 138.985 92.5253C140.61 91.8159 142.316 91.2774 143.847 90.4019C145.276 89.5852 146.73 88.8808 148.231 88.2084C149.705 87.548 151.133 86.8908 152.677 86.409C154.494 85.8418 156.414 85.6407 158.259 85.1466C160.152 84.6401 161.647 84.103 163.177 82.8499C163.888 82.2679 164.754 81.6855 165.041 80.7655C165.334 79.8241 165.118 78.6235 165.073 77.6584C165.027 76.6495 164.87 75.6163 164.89 74.6071C164.911 73.5897 165.411 72.7913 165.712 71.8459C166.189 70.3542 166.73 67.6496 165.223 66.6449C165.116 68.2387 164.553 69.6687 164.026 71.1636C163.518 72.6036 162.685 73.4843 161.438 74.3238C160.964 74.6433 160.451 75.088 159.89 75.233C159.294 75.3871 158.461 75.3081 157.842 75.3147C156.45 75.3294 154.942 74.9652 153.869 74.0281C151.699 72.131 151.225 68.7308 151.435 66.0337C151.556 64.4824 151.812 62.9196 152.524 61.5199C152.768 61.0387 153.255 60.5252 152.984 59.9617C152.699 59.3717 151.426 59.0145 150.894 58.738ZM108.07 91.7903C105.51 91.4566 102.844 91.1849 100.358 90.4635C99.4527 90.2008 98.3615 89.8685 98.352 88.7851C98.3488 88.4525 98.5982 87.8519 98.4547 87.539C98.3076 87.2187 97.3908 87.1969 96.9667 87.1128C92.0348 86.1361 87.454 84.227 83.0514 81.8364C78.5986 79.4183 74.4855 76.5651 70.2839 73.7472C66.1846 70.998 62.7787 67.6406 59.3712 64.1098C58.898 63.6193 58.4123 63.1413 57.9235 62.6662C57.5668 62.3194 57.0714 61.6131 56.6025 61.4249C55.7598 61.0865 54.5816 62.3683 53.8364 62.7499C52.8671 63.2463 51.7109 63.3214 51.0712 62.2753C50.6486 61.5842 51.0415 61.458 51.1019 60.8078C51.1517 60.2732 50.7853 59.97 50.4631 59.5979C50.2146 60.1838 49.884 61.2557 49.038 61.1225C48.2776 61.003 48.1941 59.9565 48.14 59.3597C48.0769 58.664 48.2939 57.7804 47.8225 57.2173C47.4516 56.7743 46.727 56.4506 46.2522 56.8519C45.2972 57.6591 45.9166 60.0632 44.5687 60.6625C42.6682 61.5073 42.8535 57.6526 42.8132 56.882C38.5585 57.3519 34.5594 59.2077 30.2999 59.8151C28.5664 60.0623 26.564 59.9811 25.0511 58.993C23.66 58.0847 22.2153 56.0859 21.6206 54.5521C20.1937 55.6081 18.7019 56.4178 16.8697 55.9468C15.0072 55.4676 13.3688 54.4358 12.6844 52.5665C11.9974 50.6901 12.1961 49.2613 13.9112 48.2023C14.613 47.7688 15.1679 47.5566 15.9403 47.3474C16.7955 47.1157 17.8788 46.9478 18.6863 46.5809C17.8537 45.3663 16.9066 44.1763 16.5282 42.7248C16.1014 41.0878 16.3144 39.2461 16.9763 37.6982C18.1728 34.9007 21.5362 33.0289 24.5657 33.6682C27.2097 34.2261 29.0805 36.5117 29.8314 39.0115C30.1727 40.1481 29.8731 40.851 31.2653 40.2361C32.8463 39.5377 34.2299 38.5102 35.8629 37.8939C37.2796 37.3591 38.8246 36.9098 40.1372 36.142C40.8165 35.7448 40.7846 35.7106 40.5076 34.9815C40.1637 34.0759 39.9512 33.2327 40.0279 32.2486C40.2472 29.4309 42.5826 27.4336 45.082 26.5065C47.9153 25.4554 51.4287 25.8705 53.5519 28.1419C54.5834 29.2454 55.2875 30.6958 55.3775 32.2142C55.4178 32.8873 55.0159 33.9105 55.2399 34.531C55.435 35.071 56.3581 35.485 56.7143 36.0013C57.2792 36.8207 57.541 37.8014 58.1016 38.6348C58.5877 39.3565 59.0801 40.0723 59.5472 40.8069C60.6819 42.5902 61.7456 44.4175 62.673 46.3176C63.0973 47.1867 63.4956 48.0684 63.8844 48.954C64.1514 49.5615 64.3716 50.6711 64.8518 51.155C65.3368 51.6441 66.0599 51.4876 66.4763 52.1068C67.0009 52.8864 66.5025 53.5757 66.0868 54.2548C69.2478 55.1794 71.1889 57.8521 73.7183 59.8108C76.2719 61.7876 79.0747 63.4997 81.8198 65.1948C84.6772 66.9594 87.4825 68.6412 90.5933 69.9234C93.492 71.1184 96.2939 72.5269 99.1848 73.7368C99.5899 73.9064 99.9055 74.1313 100.306 73.868C100.677 73.6241 100.751 72.838 101.139 72.5194C102.12 71.7122 104.429 72.1602 105.597 72.1418C107.282 72.1156 108.991 72.0206 110.675 72.1075C111.245 72.1366 111.795 72.3635 112.354 72.2884C113.209 72.1735 114.008 71.9989 114.899 71.9629C115.64 71.9328 116.38 71.8781 117.123 71.9045C117.475 71.9172 118.07 72.0681 118.386 71.8287C118.78 71.5308 118.542 70.8155 118.811 70.3818C118.986 70.1008 119.331 70.0239 119.5 69.8022C119.478 69.8305 119.768 69.33 119.688 69.3936C120.207 68.9848 121.658 68.8611 122.272 69.0068C122.449 69.0488 122.478 69.3466 122.7 69.3472C122.922 69.3479 122.94 69.1239 123.097 69.0703C123.259 69.0145 123.303 68.7894 123.521 68.7552C123.761 68.7172 124.07 68.9875 124.33 69.0027C124.624 69.0194 124.904 68.8251 125.177 68.7493C125.54 68.6489 125.82 68.7226 126.123 68.6869C126.674 68.6215 127.267 68.5595 127.84 68.4925C128.673 68.3953 129.485 68.1356 130.298 67.9381C130.654 67.8514 131.01 67.7505 131.378 67.7227C131.802 67.6903 132.354 67.8899 132.754 67.7955C133.097 67.715 132.818 67.5928 133.115 67.4901C133.436 67.379 133.783 67.3485 134.108 67.2361C134.856 66.9777 135.545 66.5483 136.217 66.1391C137.781 65.1855 139.181 63.9974 140.727 63.0183C140.374 62.5052 139.06 62.4183 138.504 62.2369C137.739 61.9871 136.988 61.6946 136.239 61.3996C134.537 60.7286 132.848 60.0252 131.159 59.3226C127.956 57.9899 124.734 56.704 121.672 55.0688C118.796 53.5329 115.724 52.3359 112.872 50.7451C111.421 49.9359 109.969 49.0839 108.558 48.2061C107.244 47.3885 105.83 46.8309 104.469 46.0832C101.81 44.6224 99.3678 42.8051 96.6986 41.3754C96.0681 41.0378 95.3681 40.323 94.6878 40.1393C94.1031 39.9813 93.5099 40.3071 92.9815 40.5356C92.4216 40.7777 91.8963 41.1749 91.2681 41.1885C90.5763 41.2034 89.7845 40.8313 89.1318 40.6057C87.9188 40.1868 86.8651 39.0253 86.424 37.8159C86.2086 37.2245 86.1088 36.5676 86.0291 35.9454C85.9348 35.2081 86.1842 34.3412 86.0042 33.6399C85.6621 32.3061 84.0815 31.0537 83.1978 30.0969C82.1005 28.909 81.1493 27.5795 80.283 26.2167C78.3465 23.17 77.0029 19.5563 78.0824 15.9703C78.2469 15.4237 78.5402 14.5206 79.0247 14.1569C79.6971 13.6515 79.9849 14.2412 80.5666 14.5342C81.2889 14.8982 81.9742 15.1102 82.6515 15.6047C83.4723 16.204 84.1476 16.9349 84.9044 17.6053C84.9082 16.0574 84.667 14.7005 85.0015 13.1504C85.1732 12.3547 85.5575 10.6996 86.5711 10.5578C87.6228 10.4105 88.3766 12.3135 88.8342 13.0078C89.6851 14.298 90.6358 15.5086 91.5825 16.7286C91.7053 14.8358 91.4537 10.3358 93.8369 9.59132C95.9721 8.92395 97.076 14.6704 97.5932 15.9563C98.0756 17.156 98.753 18.3412 99.486 19.4069C100.254 20.5236 101.091 19.9546 102.281 20.0071C103.381 20.0558 103.876 20.8157 103.863 21.893C103.848 23.256 102.763 24.2516 102.013 25.2801C103.637 26.0642 105.74 27.084 106.71 28.6986C106.926 29.0563 107.074 29.4669 107.087 29.889C107.1 30.3064 106.717 31.0706 106.916 31.4564C107.061 31.7385 107.551 31.8407 107.811 31.9943C108.351 32.3122 108.829 32.7232 109.362 33.0526C112.855 35.2118 116.139 37.7917 119.509 40.0714C122.551 42.1296 125.774 43.9632 128.851 46.0203C132.765 48.636 136.879 50.8614 141.068 53.0117C142.034 53.5078 142.93 54.0587 143.857 54.6141C144.809 55.1837 145.944 55.5685 146.96 56.0298C147.672 56.3529 148.448 56.9678 149.195 57.1691C150.084 57.4087 150.458 56.4671 151.493 56.7112C152.387 56.9218 153.361 57.015 153.898 57.8182C154.368 58.5224 154.324 59.5997 155.082 60.0549C155.961 60.5824 156.207 60.0169 156.41 59.2841C156.641 58.4505 157.293 57.4971 156.493 56.8969C155.736 56.33 154.665 56.2676 153.78 56.0579C153.331 55.9518 152.737 55.5642 152.31 55.5292C151.776 55.4853 151.651 55.9816 151.198 55.9823C150.957 55.9825 150.745 55.7497 150.515 55.6758C150.463 55.659 150.327 55.8488 150.265 55.8314C150.041 55.7685 150.022 55.6936 149.803 55.6038C149.023 55.2837 147.991 54.779 148.226 53.806C148.353 53.2841 149.209 52.4445 148.611 51.9658C148.049 51.5156 147.295 52.4543 146.986 51.515C146.766 50.8478 147.302 50.6689 146.62 50.1198C146.119 49.716 145.657 49.6063 145.935 48.8658C146.113 48.3889 147.042 47.6639 146.775 47.0888C146.399 46.275 144.965 47.0978 145.103 45.6276C145.202 44.5745 146.528 43.8143 146.537 42.7782C146.543 42.0366 145.839 42.0418 145.656 41.56C145.475 41.0838 145.64 41.0856 145.904 40.7512C146.1 40.5028 146.228 40.4202 146.374 40.1275C146.552 39.7716 146.86 39.3108 146.744 38.8968C146.64 38.5247 146.204 38.3034 146.094 37.8912C145.681 36.3382 148.966 32.8099 149.803 34.948C150.424 34.2302 151.239 32.7273 152.337 32.8477C153.001 32.9205 152.717 33.1096 152.948 33.4926C153.115 33.7707 153.579 33.9118 153.71 34.2125C153.971 33.4053 153.694 31.9095 154.418 31.3172C155.123 30.7399 155.566 31.7557 155.866 32.3208C156.059 31.7876 156.183 30.7869 156.849 30.5956C157.561 30.3913 158.005 31.281 158.352 31.7342C158.726 31.2039 159.427 29.6411 160.234 29.8316C160.839 29.9743 161.139 30.9835 161.421 31.4493C162.084 31.015 163.128 29.9689 163.985 30.0795C164.82 30.187 164.747 30.9688 165.723 30.6489C166.431 30.4168 167.168 29.8004 167.919 29.7542C168.712 29.7056 169.131 30.2603 170.011 30.1257C170.945 29.9829 171.088 29.7657 171.697 30.5275C171.998 30.9035 171.918 31.0684 172.44 31.1471C172.881 31.2138 173.267 30.9227 173.73 31.1062C174.072 31.2417 174.311 31.5582 174.454 31.8835C174.624 32.2676 174.428 32.9334 174.597 33.2357C174.922 33.8171 176.15 33.304 176.701 33.7078C177.445 34.2528 176.745 35.0801 177.141 35.6839C177.459 36.1687 178.355 36.0452 178.711 36.6994C179.035 37.2919 178.959 38.0751 178.584 38.6242C178.426 38.855 177.984 39.0461 177.88 39.2549C177.666 39.6857 177.846 39.6354 177.97 40.0757C178.208 40.9177 178.017 41.2353 177.368 41.8113C176.992 42.1445 176.913 42.0489 176.888 42.5552C176.869 42.9459 177.202 43.308 177.14 43.7453C177.04 44.4557 176.34 44.9021 176.129 45.6004C175.858 46.4992 175.116 46.9911 174.558 47.7308C175.218 48.1288 176.086 48.4586 176.407 49.2056C176.757 50.0205 176.692 51.1804 176.444 52.007C176.206 52.7993 175.697 53.3049 175.207 53.9336C174.611 54.6991 174.662 55.3061 174.625 56.2404C174.547 58.2156 173.698 60.0094 171.758 60.6367C170.989 60.8856 170.294 61.2516 169.513 61.4837C168.558 61.7677 167.859 61.7907 166.869 61.7346C166.249 61.6998 165.524 61.5663 165.309 62.2215C165.201 62.5491 165.24 63.8241 165.387 64.115C165.639 64.6132 166.352 64.5471 166.782 64.9778C167.557 65.7547 167.338 66.4169 168.646 66.435C172.882 66.494 177.106 66.1674 181.343 66.4737C183.432 66.6248 185.476 66.9854 187.574 67.0915C189.883 67.208 192.197 67.2469 194.504 67.387C196.682 67.5191 198.812 67.8039 201.002 67.6912C203.046 67.586 205.01 67.446 207.046 67.2205C207.742 67.1433 208.821 67.2542 209.314 66.7223C209.586 66.4275 209.649 65.9219 209.921 65.5973C210.173 65.2975 210.514 65.0806 210.823 64.8466C211.571 64.2795 212.276 63.7693 213.264 63.7881C214.129 63.8046 214.818 64.4286 215.524 64.8874C216.342 65.4201 216.681 65.6649 217.651 65.4584C218.618 65.2527 219.505 64.8713 220.448 64.5908C222.439 63.9992 224.304 63.1481 226.117 62.1389C227.01 61.6416 227.639 61.3075 228.667 61.6068C229.722 61.9136 230.021 62.2156 230.034 63.309C230.038 63.656 229.906 64.2729 230.305 64.4734C230.595 64.6188 231.233 64.213 231.48 64.1062C232.567 63.635 233.635 63.144 234.772 62.7999C235.81 62.4857 236.861 62.207 237.903 61.907C238.774 61.6559 239.937 61.2923 240.805 61.7597C242.999 62.9402 239.771 65.9398 238.932 66.9377C239.978 66.6875 242.222 66.8302 242.772 67.9507C243.423 69.2769 242.118 70.5919 241.382 71.5559C242.413 72.0249 244.495 71.6215 244.785 73.0981C245.03 74.3376 243.738 75.5862 242.897 76.3112C240.718 78.188 237.34 79.5022 234.463 79.5269C233.733 79.5332 233.022 79.3911 232.296 79.3565C231.764 79.3314 231.285 79.5149 230.769 79.5156C230.041 79.5165 229.396 79.3737 228.646 79.4762C227.781 79.5943 226.923 79.7393 226.054 79.837C225.248 79.9275 224.441 80.0101 223.633 80.073C223.1 80.1148 222.296 79.9972 221.8 80.1759C221.16 80.4071 221.346 80.6383 221.294 81.2539C221.23 82.0097 220.847 82.6929 220.289 83.197C218.263 85.0281 214.813 84.5885 213.795 81.9007C213.547 81.2469 213.876 80.9053 213.782 80.316C213.688 79.723 213.136 79.7431 212.595 79.7031C210.949 79.5814 209.281 79.5701 207.628 79.4563C204.427 79.2362 201.131 78.7878 197.932 78.864C194.593 78.9434 191.233 78.7428 187.898 78.5618C186.342 78.4774 184.73 77.9324 183.198 78.05C181.572 78.1747 179.844 77.8247 178.208 77.655C174.552 77.2754 170.471 77.1655 167.093 75.6486C167.36 79.3058 167.804 83.0187 164.832 85.7464C163.586 86.8893 162.022 88.1985 160.389 88.6857C158.284 89.3138 156.267 89.8345 154.125 90.3006C150.142 91.1673 146.185 93.2413 142.592 95.1045C140.902 95.981 138.919 96.3226 137.087 96.8137C136.214 97.0478 135.231 97.3564 134.316 97.3239C133.414 97.2917 132.788 96.6798 131.992 96.3144C131.231 98.1061 130.202 99.7465 129.436 101.515C129.056 102.392 128.756 103.325 128.313 104.174C127.975 104.82 127.429 105.168 127.377 105.918C127.252 107.739 127.585 109.638 127.496 111.479C127.398 113.487 127.086 115.526 126.902 117.536C126.503 121.881 126.689 126.256 126.366 130.607C126.071 134.581 126.255 138.525 125.814 142.504C125.691 143.608 125.555 144.711 125.467 145.819C125.409 146.546 125.006 148.219 125.385 148.871C125.551 149.156 125.95 149.186 126.216 149.329C126.632 149.552 127.011 149.892 127.322 150.247C127.978 150.996 128.135 151.888 128.284 152.842C129.134 152.386 132.695 150.044 132.162 152.608C131.997 153.404 131.274 153.832 130.704 154.34C130.286 154.712 129.887 155.106 129.443 155.447C129.143 155.677 128.507 155.962 128.363 156.338C128.104 157.009 129.439 157.967 130.069 157.96C130.955 157.95 132.059 156.623 132.809 156.201C134.8 155.078 134.62 157.502 133.87 158.556C133.303 159.351 133.782 159.29 134.561 159.451C135.778 159.704 136.903 159.919 138.14 160.073C140.505 160.368 142.832 159.987 145.179 160.533C147.515 161.076 148.905 162.532 149.245 164.932C149.425 166.201 149.594 165.564 150.66 165.862C151.645 166.136 152.201 167.261 152.768 168.023C153.9 169.545 156.016 173.378 154.282 175.172C153.546 175.933 151.759 175.74 150.791 175.87C150.167 175.954 149.417 176.244 148.788 176.094C148.19 175.951 147.793 175.417 147.361 175.025C147.356 177.433 147.341 179.525 145.43 181.263C143.888 182.667 141.827 183.311 139.759 183.169C137.733 183.03 135.652 182.207 134.368 180.58C133.691 179.722 133.208 178.669 133.034 177.588C132.953 177.09 132.93 176.566 133.008 176.065C133.054 175.768 133.338 175.229 133.158 174.941C132.842 174.439 131.298 174.857 130.788 174.908C129.442 175.044 128.099 175.213 126.759 175.393C125.65 175.541 124.519 175.698 123.407 175.488C122.451 175.308 122.086 175.205 122.258 176.335C122.604 178.607 122.028 180.623 120.156 182.02C118.284 183.418 116.555 183.695 114.265 183.327C112.173 182.991 110.259 181.018 109.649 179.055C108.838 176.442 109.674 174.062 111.628 172.279C110.443 171.679 109.657 171.325 109.239 169.94C108.802 168.493 109.211 166.971 109.417 165.519C109.861 162.402 109.688 159.369 109.841 156.241C109.908 154.862 110.193 153.457 110.198 152.081C110.2 151.296 110.157 151.325 109.348 151.318C108.846 151.314 108.314 151.349 108.103 150.765C107.593 149.357 109.986 149.476 110.587 148.915C111.305 148.247 110.809 145.61 110.788 144.682C110.72 141.667 111.019 138.723 111.077 135.717C111.104 134.359 111.187 132.931 111.074 131.577C111.029 131.037 110.72 130.601 110.74 130.063C110.767 129.375 110.9 128.732 110.864 128.015C110.552 121.715 110.483 115.299 111.293 109.041C111.341 108.666 111.606 107.822 111.465 107.446C111.25 106.876 110.567 107.078 110.09 106.869C108.757 106.285 108.427 105.358 108.354 104.001C108.311 103.197 108.268 102.393 108.226 101.588C108.205 101.175 108.184 100.762 108.161 100.348C108.135 99.8694 108.333 99.3307 108.321 98.9285C108.317 98.7993 108.262 98.6063 108.261 98.5301C108.106 98.4543 108.046 98.343 108.08 98.196C108.073 98.0577 108.095 97.9229 108.146 97.7919C108.154 97.8702 108.053 97.3483 108.044 97.3944C108.058 97.3229 108.32 96.8997 108.294 96.8483C108.172 96.6087 107.913 96.8999 107.826 96.4533C107.754 96.0785 107.998 95.6375 107.917 95.1987C107.697 94.027 107.904 92.976 108.07 91.7903Z" fill="black"/>
<path fill-rule="evenodd" clip-rule="evenodd" d="M43.1464 110.186C57.9659 110.22 72.82 110.585 87.6021 111.022C89.2311 111.07 90.8653 111.207 92.4952 111.277C92.7785 111.289 93.7112 111.171 93.9213 111.474C94.2631 111.968 93.4804 112.472 93.1117 112.697C91.8428 113.473 90.1633 113.337 88.7254 113.386C86.7415 113.453 84.7564 113.461 82.7716 113.433C75.8751 113.338 68.9757 112.814 62.094 112.407C57.8548 112.157 53.6025 112.003 49.3574 111.878C47.262 111.817 45.165 111.783 43.0698 111.714C42.504 111.695 41.4732 111.871 41.4732 111.129C41.4732 110.355 42.6038 110.227 43.1464 110.186Z" fill="black"/>
<path fill-rule="evenodd" clip-rule="evenodd" d="M60.8688 118.509C71.3553 118.96 81.849 119.27 92.3364 119.688C93.0163 119.715 94.4635 119.515 94.7188 120.348C94.9844 121.214 93.8787 122.083 93.147 122.307C92.1969 122.599 90.9872 122.435 89.9955 122.463C88.6611 122.501 87.3931 122.489 86.0632 122.399C80.9955 122.057 75.9365 121.612 70.8677 121.268C67.9982 121.074 65.1308 120.844 62.2656 120.597C61.5015 120.531 59.2324 120.736 58.6972 120.114C58.3675 119.731 58.7169 119.139 59.0427 118.843C59.5792 118.357 60.1961 118.467 60.8688 118.509Z" fill="black"/>
<path fill-rule="evenodd" clip-rule="evenodd" d="M91.8104 129.957C88.4026 130.14 84.957 129.87 81.6071 129.308C81.1508 129.232 80.0958 129.223 79.8041 128.8C79.3586 128.154 80.1958 127.59 80.7589 127.533C82.3192 127.374 84.1744 127.918 85.7489 128.014C87.3958 128.114 89.0653 127.939 90.7163 127.926C91.66 127.918 92.6037 127.912 93.5476 127.909C94.1012 127.907 94.8972 127.767 95.4438 127.893C96.9735 128.244 95.0282 129.53 94.3469 129.678C94.1105 129.729 91.8183 130.069 91.8104 129.957Z" fill="black"/>
<path fill-rule="evenodd" clip-rule="evenodd" d="M166.176 48.3212C166.199 47.9219 166.095 46.9127 166.59 46.7235C167.555 46.3546 167.491 48.7202 167.867 49.0532C169.247 50.2742 168.876 45.5696 170.191 47.0869C171.26 48.3199 170.401 51.2905 168.898 51.8447C167.79 52.2528 167.037 51.4673 166.606 50.5578C166.596 50.5368 165.998 48.3117 166.176 48.3212Z" fill="black"/>
<path fill-rule="evenodd" clip-rule="evenodd" d="M167.426 42.9346C168.092 42.8079 168.96 43.4989 168.552 44.1681C168.253 44.6575 166.231 45.4162 165.684 45.429C165.011 45.4449 165.068 44.9108 165.283 44.367C165.619 43.516 166.515 42.9248 167.426 42.9346Z" fill="black"/>
<path fill-rule="evenodd" clip-rule="evenodd" d="M45.9971 32.2154C46.2019 31.3641 46.504 30.3555 47.5129 31.1761C48.1906 31.7275 48.6862 33.087 48.7542 33.9374C48.8355 34.9556 48.2758 35.4735 47.371 34.9023C46.4529 34.3228 46.1027 33.2542 45.9971 32.2154Z" fill="black"/>
<path fill-rule="evenodd" clip-rule="evenodd" d="M24.1294 42.9204C23.8011 45.1967 21.7791 43.0782 21.8702 41.6895C21.9175 40.9668 22.332 40.3744 23.1192 40.8079C23.824 41.1964 24.0693 42.2173 24.1294 42.9204Z" fill="black"/>
<path fill-rule="evenodd" clip-rule="evenodd" d="M139.249 175.968C139.399 175.403 139.432 174.239 140.087 173.991C141.055 173.625 141.475 175.232 141.508 175.879C141.543 176.58 141.297 178.07 140.292 177.946C139.468 177.845 139.413 176.582 139.249 175.968Z" fill="black"/>
<path fill-rule="evenodd" clip-rule="evenodd" d="M114.868 176.87C115.053 176.178 115.089 174.928 115.921 174.718C116.838 174.488 117.119 175.735 117.13 176.441C117.14 177.1 116.771 178.807 115.837 178.702C115.117 178.62 115.021 177.429 114.868 176.87Z" fill="black"/>
</svg>
