<svg width="258" height="193" viewBox="0 0 258 193" fill="none" xmlns="http://www.w3.org/2000/svg">
<g clip-path="url(#clip0_4_305)">
<path fill-rule="evenodd" clip-rule="evenodd" d="M166.741 114.411C165.85 115.445 164.534 116.213 163.525 117.158C162.465 118.151 161.314 119.018 160.258 119.999C155.6 114.287 149.219 110.785 143.691 106.045C141.07 103.798 139.139 100.749 137.726 97.6211C137.002 96.0174 136.467 94.3668 136.048 92.6584C135.859 91.8889 135.675 91.1219 135.551 90.3419C135.402 89.3973 135.363 89.3167 134.728 88.5795C134.455 88.2622 133.925 87.3352 133.39 87.4373C132.939 87.5234 132.114 88.8999 131.83 89.2399C130.46 90.8753 129.132 92.5604 127.69 94.1324C125.483 96.5379 123.474 98.905 121.426 101.455C117.235 106.671 112.715 111.581 108.153 116.489C107.815 116.853 107.026 117.92 106.54 118.064C105.949 118.238 104.988 117.511 104.393 117.104C102.956 116.123 101.824 114.908 100.596 113.692C98.1994 111.319 96.5765 107.987 95.4848 104.817C94.8313 102.92 94.4064 100.953 93.7319 99.0622C93.4508 98.2741 92.8136 97.3054 93.1372 96.6191C93.2334 96.4144 93.8465 95.8708 94.0627 95.8292C94.3184 95.7799 94.7447 96.1316 94.8334 96.1073C95.6817 95.8743 95.211 94.9835 95.7156 94.5041C96.0017 94.2322 97.4565 94.272 97.8909 94.1225C99.4791 93.5759 100.904 92.5333 102.405 91.9108C108.691 89.3055 115.053 86.7711 120.479 82.5165C121.886 81.4133 122.821 80.5843 124.5 79.8712C126.197 79.1506 127.903 78.5077 129.634 77.8789C131.162 77.3242 132.698 76.8041 134.276 76.4064C135.982 75.9764 138.403 75.4311 140.108 75.9851C143.456 77.0726 144.537 79.8405 145.871 82.7604C147.675 86.7108 149.856 90.449 152.221 94.0851C156.77 101.081 162.302 107.359 166.741 114.411Z" fill="#09C03C"/>
<path fill-rule="evenodd" clip-rule="evenodd" d="M65.9066 52.5628C65.7223 52.469 64.2839 53.0564 64.0424 53.1463C63.078 53.5053 62.1696 54.1018 61.261 54.5871C61.9573 55.4373 62.6539 56.2878 63.35 57.1382C64.0325 55.4585 64.9098 54.0725 65.9066 52.5628ZM66.3814 63.0138C66.1445 63.0405 68.1447 67.8632 68.3783 68.4047C69.2283 70.3741 70.1208 72.3244 70.982 74.2889C71.8164 76.1927 72.875 77.944 73.9414 79.7225C74.8535 81.2435 75.7917 83.6039 77.1677 84.7304C76.2989 80.8635 76.4133 76.4173 73.9215 73.1705C71.3385 69.8045 68.7847 66.5177 66.3814 63.0138ZM166.741 114.583C162.881 108.451 158.049 103.025 154.024 97.0024C151.771 93.6299 149.577 90.2143 147.68 86.6245C146.3 84.0132 145.442 80.2874 143.311 78.291C142.372 77.4114 141.368 76.5505 140.108 76.1565C138.383 75.6173 136.009 76.1517 134.276 76.578C131.047 77.3723 127.893 78.6057 124.835 79.901C121.733 81.2148 119.087 83.5748 116.284 85.4708C113.277 87.505 110.023 88.9868 106.654 90.284C103.721 91.4135 101.112 93.035 98.1948 94.1718C97.6135 94.3984 96.4271 94.3652 95.9395 94.6607C95.414 94.9787 95.6209 95.918 94.9829 96.2646C94.6951 96.4209 94.5992 95.8541 94.3783 95.8634C94.1081 95.8747 93.8617 96.1929 93.6013 96.3944C92.541 97.2152 93.1906 97.7624 93.6104 98.8917C94.9788 102.571 95.7142 106.315 97.6356 109.789C99.2153 112.644 101.476 115.203 104.138 117.093C104.543 117.381 105.863 118.496 106.338 118.422C106.766 118.355 107.637 117.214 107.932 116.904C109.272 115.498 110.498 113.985 111.837 112.576C113.907 110.399 115.9 108.164 117.909 105.957C120.241 103.396 122.305 100.493 124.406 97.7563C125.372 96.4972 126.616 95.4715 127.69 94.304C129.134 92.7342 130.46 91.0465 131.83 89.4115C132.244 88.9167 132.938 87.6511 133.582 87.6659C134.034 87.6764 134.83 88.7426 135.066 89.0767C135.943 90.3186 135.939 92.5614 136.376 94.1117C137.44 97.8919 139.36 101.584 141.994 104.501C144.612 107.402 147.967 109.465 151.064 111.797C154.419 114.323 157.597 116.908 160.258 120.171C161.314 119.19 162.465 118.322 163.525 117.329C164.534 116.384 165.85 115.617 166.741 114.583ZM117.056 131.932C117.806 131.94 119.077 132.403 119.748 132.124C117.757 129.914 115.929 128.017 113.409 126.397C110.795 124.716 108.189 123.05 105.65 121.257C100.533 117.643 96.769 113.358 94.6314 107.34C94.081 105.79 93.7123 104.165 93.3089 102.572C93.0919 101.714 92.6599 97.7003 91.9263 97.3537C91.4917 97.1483 88.2211 99.4546 87.7028 99.742C86.4912 100.414 85.2751 100.936 84.0225 101.462C81.33 102.593 78.5543 103.456 75.699 104.176C72.2759 105.039 69.9442 103.61 67.8236 100.911C65.4177 97.8485 63.4185 94.3931 61.2187 91.1769C60.2184 89.7141 59.3897 88.2537 58.6509 86.6403C58.1674 85.5846 56.2498 82.7364 56.9124 81.6116C58.8028 83.0556 59.483 85.9268 60.7708 87.8603C62.3757 90.2699 64.1844 92.5418 65.7977 94.9492C67.1543 96.9735 68.5383 99.4267 70.5425 100.882C72.3055 102.162 73.9803 101.768 75.8776 101.193C78.1771 100.496 80.5606 100.152 82.8142 99.2878C85.253 98.3522 87.5604 97.025 89.9398 95.9428C91.0491 95.4381 92.3772 95.1513 93.4226 94.5221C94.3235 93.9802 94.1891 93.6941 94.2552 92.54C94.3325 91.1936 94.4215 89.8462 94.4809 88.4985C94.5207 87.5931 94.0327 86.3654 94.3639 85.6895C91.6626 86.1594 89.0223 86.7887 86.3399 87.3455C84.8713 87.6503 83.4551 88.0271 81.9715 88.2666C81.4059 88.3578 80.6328 88.3553 80.1265 88.6024C79.7225 88.4861 79.5165 88.5601 79.5086 88.8243C79.4893 88.9678 79.4587 89.1093 79.4167 89.2485C78.5884 89.6265 78.1067 88.8156 77.3882 88.0378C76.5017 87.0779 75.8379 85.9969 75.1875 84.8689C73.7333 82.3471 72.0571 79.9753 70.7114 77.3824C69.3398 74.7392 68.2258 71.9092 67.0629 69.1668C65.9961 66.6509 65.313 63.93 64.1341 61.4736C63.608 60.3772 62.9413 59.4705 62.1627 58.5442C61.5202 57.7799 60.5317 56.131 59.5722 55.7799C59.3185 55.6871 58.6541 55.8431 58.3659 55.8225C57.7915 55.7813 57.2795 55.5698 56.6917 55.6161C55.4189 55.716 54.0314 56.5235 53.0143 57.2334C53.6716 57.8213 55.3158 58.5357 54.1347 59.5946C52.9886 60.6226 52.3556 58.7786 51.9183 57.9707C49.8588 59.6674 50.1565 62.007 49.9186 64.4044C49.7943 65.656 49.4674 66.8886 49.2566 68.1214C49.1047 69.0087 49.2112 69.9264 49.1678 70.8323C49.0571 73.1343 48.8265 75.3377 48.8374 77.6074C48.8496 80.0334 49.0143 82.3764 49.2078 84.7848C49.5335 88.8398 50.2798 92.8961 50.9197 96.9187C51.2797 99.1799 51.7725 101.377 52.2509 103.601C52.7937 106.126 53.798 108.518 54.3612 111.036C54.935 110.304 55.3667 110.3 56.2948 110.397C57.0087 110.472 57.4883 110.302 57.4464 111.296C57.4194 111.941 56.8525 112.433 56.2252 112.546C55.4071 112.692 55.1292 112.283 54.7076 111.661C54.609 112.838 55.398 114.069 55.7101 115.219C56.0054 116.308 56.2011 117.376 56.6974 118.419C57.1817 119.436 57.5964 120.44 58.0864 121.448C58.312 121.911 58.5231 122.382 58.7513 122.844C58.8667 123.078 59.0027 123.401 59.1749 123.598C59.5789 124.061 59.5146 123.837 59.9874 124.1C61.0175 124.674 60.6307 124.531 60.6548 125.717C60.6782 126.886 61.276 127.745 62.2345 128.403C64.2681 129.798 66.2739 130.186 68.5858 130.89C70.74 131.547 73.0089 132.11 75.2899 132.098C78.0836 132.082 80.8402 131.714 83.6338 131.677C86.7159 131.636 89.8276 131.653 92.9034 131.76C94.1704 131.804 95.3471 131.861 96.5703 132.185C97.9908 132.562 99.365 132.413 100.829 132.355C103.953 132.234 107.184 131.991 110.266 131.969C112.486 131.954 114.828 131.798 117.056 131.932ZM198.051 133.147C198.606 133.441 199.851 133.321 200.409 133.239C201.393 133.095 201.498 132.704 202.122 131.824C203.196 130.309 204.068 128.858 204.7 127.103C205.909 123.745 206.402 120.308 206.933 116.795C207.523 112.891 206.446 108.844 206.06 104.966C205.972 104.077 205.851 103.195 205.711 102.312C205.627 101.784 205.605 99.9886 205.259 99.5316C204.594 98.6537 201.5 99.3618 200.284 99.4414C196.89 99.6638 193.473 99.7159 190.08 99.7545C188.271 99.775 186.452 99.851 184.66 99.8651C183.838 99.8716 183.034 99.8307 182.208 99.7503C181.932 99.7236 181.662 99.6599 181.384 99.6444C180.432 99.5916 180.503 99.453 180.257 100.299C179.826 101.782 180.158 103.667 180.044 105.206C179.893 107.262 179.811 109.347 179.849 111.407C179.883 113.311 179.819 115.211 179.889 117.119C179.919 117.909 180.005 118.554 180.213 119.308C180.448 120.161 180.706 122.155 181.291 122.745C181.358 122.813 181.855 122.656 181.987 122.823C182.19 123.081 182.153 123.627 182.293 123.793C182.745 124.333 183.679 124.376 184.356 124.618C186.216 125.283 187.921 126.006 189.673 126.902C191.239 127.704 193.763 128.386 194.705 129.967C195.136 130.692 195.195 131.647 195.592 132.395C196.043 133.247 195.139 132.802 196.246 133.147C196.745 133.303 197.54 133.147 198.051 133.147ZM32.9879 123.513C32.847 125.48 31.7425 127.354 31.3581 129.288C31.1782 130.193 30.873 131.084 30.6615 131.984C30.4587 132.848 29.7261 133.871 29.8003 134.725C32.5044 133.759 35.2434 133.515 38.0696 133.255C40.7483 133.008 43.5781 132.909 46.2343 132.908C48.9409 132.907 51.835 132.641 54.622 132.6C57.5366 132.557 60.4952 132.482 63.3676 132.178C61.8656 131.062 59.9862 130.014 58.8772 128.461C57.6715 126.773 57.0454 124.658 55.9845 122.877C53.8556 119.302 52.5022 114.867 51.3862 110.851C49.1333 102.744 46.6156 94.7866 46.0088 86.3775C44.854 86.9708 43.9373 89.2728 43.3591 90.4191C42.6211 91.8827 42.2347 93.4692 41.7549 95.0248C40.767 98.2289 40.0833 101.551 38.8737 104.725C36.5617 110.791 35.0757 117.328 32.9879 123.513ZM179.776 76.2629C180.276 79.8888 181.324 83.5615 181.365 87.2311C181.373 88.0384 181.237 88.9349 181.405 89.731C181.584 90.5808 182.166 91.3321 182.503 92.1398C183.037 93.4219 184.388 96.0499 183.085 97.1362C183.058 96.1053 182.118 94.7961 181.644 93.8945C180.93 92.5362 179.992 91.2943 179.219 89.9697C177.599 87.197 175.783 84.4838 173.696 82.0395C171.662 79.6586 169.319 77.5466 167.162 75.2795C166.515 74.5983 161.317 68.0419 161.111 68.1335C162.723 74.3707 165.463 79.7975 169.214 85.0198C171.052 87.5798 173.259 89.2645 175.497 91.4333C177.361 93.2394 180.875 95.1707 180.23 98.1302C183.144 97.8491 186.039 97.4 188.979 97.4C188.495 93.6663 188.125 89.9918 187.262 86.3195C186.282 82.1496 185.618 77.855 184.789 73.6481C183.942 69.3533 182.507 65.1954 181.614 60.9088C180.759 56.804 180.024 52.7065 179.397 48.556C178.879 50.8558 179.07 53.3818 178.887 55.7283C178.699 58.1257 178.717 60.4789 178.779 62.8903C178.895 67.3694 179.371 71.7944 179.776 76.2629ZM192.402 54.9081C192.418 52.9909 192.788 51.0996 192.903 49.1869C192.938 48.6001 193.52 44.5965 192.977 44.3875C192.53 45.3648 192.426 46.6154 192.02 47.6408C191.615 48.6652 191.073 49.6412 190.684 50.6727C189.841 52.9074 189.55 55.436 189.459 57.8118C189.254 63.1856 189.148 68.5474 189.508 73.9212C189.662 76.2245 189.78 78.5319 189.738 80.8398C189.692 83.3792 189.304 85.5834 189.775 88.1021C190.241 90.5963 190.534 93.0801 190.689 95.6107C190.798 97.3868 190.842 97.2611 192.531 97.1362C193.75 97.046 194.981 97.1424 196.202 97.0863C195.631 90.164 195.538 83.2274 194.626 76.3316C194.161 72.8136 194.148 69.2448 193.57 65.7399C193.283 63.9988 192.801 62.2928 192.524 60.5497C192.227 58.6782 192.373 56.7941 192.402 54.9081ZM68.8922 50.5518C72.1437 50.8344 75.6024 51.8097 78.9352 51.1657C78.3858 50.9425 76.9481 50.6345 77.5951 49.7534C78.253 48.8574 79.3617 49.9938 80.0178 49.8765C80.4224 49.804 81.3164 48.1073 81.5657 47.756C82.1317 46.9576 82.1999 46.8185 83.2176 46.6138C84.2035 46.4159 84.427 46.6303 84.5519 45.6468C84.6953 44.5159 84.3053 43.2445 84.344 42.0881C84.427 39.5985 85.2275 37.4153 85.9726 35.0729C82.8071 35.7638 79.7118 36.5832 76.4751 37.0285C75.0915 37.2189 72.9389 37.6581 71.6819 36.7144C71.355 36.469 71.4073 36.1377 71.1398 35.8533C70.6912 35.3761 69.8592 34.8825 69.223 34.7465C65.3079 33.9103 64.926 39.51 66.888 41.6054C67.3794 42.1304 68.0631 42.3897 68.5663 42.8708C69.238 43.5125 69.293 44.1884 69.3911 45.1679C69.5749 47.0045 69.3252 48.8483 68.5442 50.5284L68.8922 50.5518ZM116.403 76.9875C117.558 77.2076 118.765 77.1573 119.923 77.3451C120.335 77.4118 121.569 77.6446 121.931 77.4031C122.484 77.0344 122.681 75.6821 122.942 75.0523C123.402 73.9445 124.052 72.9783 124.49 71.8504C126.281 67.2433 127.952 62.6178 130.118 58.168C129.288 57.9515 128.65 57.943 127.813 57.8312C126.942 57.7146 126.151 57.1974 125.32 56.9752C124.529 56.764 123.701 56.8178 122.918 56.5722C122.487 56.437 122.116 56.1364 121.691 56.0313C121.013 55.8641 120.222 55.7663 119.819 56.2128C119.405 56.6708 119.26 57.9265 119.036 58.5181C118.437 60.0941 117.741 61.6151 117.239 63.2274C116.786 64.6814 116.356 66.1201 115.958 67.5875C115.537 69.1365 114.707 70.4133 114.202 71.8931C113.817 73.0195 113.455 74.171 113.397 75.3719C113.341 76.5438 113.171 76.6184 114.339 76.8056C114.929 76.9 115.848 77.2515 116.403 76.9875ZM192.447 131.833C192.748 131.974 193.031 131.956 193.298 131.777C190.688 130.671 188.149 129.137 185.427 128.379C182.873 127.667 180.39 126.817 177.93 125.94C175.93 125.228 174.133 124.674 172.325 123.421C171.228 122.66 170.254 121.805 169.5 120.693C168.66 119.455 168.473 117.694 167.564 116.579C166.337 117.931 164.896 118.955 163.444 120.029C162.942 120.401 161.737 121.211 161.566 121.786C161.349 122.512 161.93 123.206 162.217 123.941C162.952 125.822 163.312 127.702 163.711 129.657C163.871 130.441 164.216 131.619 164.858 131.948C165.442 132.246 167.134 132.029 167.862 131.974C171.655 131.685 175.381 131.39 179.197 131.653C183.516 131.95 188.139 132.155 192.447 131.833ZM200.023 96.9779C200.713 96.9803 201.386 96.8938 202.073 96.8938C201.677 95.0363 202.604 92.6328 202.932 90.7787C203.3 88.7048 203.58 86.5601 203.825 84.4696C204.342 80.0661 204.576 75.7161 204.583 71.2804C204.589 66.9882 205.368 63.0659 206.459 58.9397C207.63 54.5083 209.548 50.5233 211.134 46.2497C209.395 47.1723 208.432 49.3314 207.517 50.982C206.362 53.0691 205.592 55.38 205.12 57.7229C204.21 62.2427 203.211 66.7762 202.161 71.2885C201.067 75.9868 200.424 80.7283 199.171 85.3883C198.56 87.6608 197.729 90.4565 197.683 92.8001C197.664 93.7695 197.372 95.7997 197.81 96.6416C198.22 97.4293 199.125 97.0582 200.023 96.9779ZM95.9556 91.1484C95.9193 91.631 95.885 92.0899 95.7996 92.5665C96.7546 92.5574 97.964 91.5633 98.7831 91.117C99.7808 90.5733 100.78 89.9736 101.756 89.4272C103.64 88.3719 105.778 87.6766 107.79 86.8097C110.101 85.8138 112.225 84.6105 114.434 83.4115C115.206 82.9927 120.754 80.5801 120.661 79.921C119.443 79.8803 118.225 79.8397 117.007 79.7991C115.963 79.7643 114.345 80.001 113.345 79.6772C112.798 79.4997 112.183 78.8463 111.976 78.3347C111.772 77.8285 112.231 75.5 111.964 75.3515C110.601 76.7478 109.744 78.6037 108.525 80.11C107.178 81.7749 105.438 82.7471 103.52 83.6318C101.402 84.6089 99.2099 85.3655 97.0453 86.2029C96.1324 86.556 96.1505 86.7581 96.071 87.7623C95.9821 88.8847 95.9917 90.0231 95.9556 91.1484ZM206.019 133.376C208.315 133.623 210.668 133.482 212.982 133.675C213.824 133.745 214.991 133.85 214.144 134.983C213.611 135.697 211.902 135.468 211.127 135.518C209.046 135.651 206.843 135.579 204.757 135.548C204.318 135.542 203.833 135.411 203.389 135.44C202.877 135.474 202.263 135.844 201.796 135.841C201.509 135.839 201.405 135.535 201.157 135.507C200.617 135.446 200.076 135.401 199.531 135.402C191.287 135.403 183.157 135.237 174.933 135.228C171.001 135.224 167.006 135.156 163.075 134.971C162.25 134.932 157.55 135.101 157.68 133.61C157.747 132.842 159.281 132.734 159.841 132.652C160.256 132.592 160.686 132.601 161.102 132.579C162.206 132.52 162.69 132.786 162.457 131.574C161.573 126.976 159.99 123.176 156.607 119.87C153.841 117.167 150.51 114.715 147.377 112.457C143.573 109.716 140.487 106.833 138.229 102.639C136.91 100.189 135.806 97.685 135.128 94.9768C134.884 94.0024 134.879 92.8943 134.58 91.955C134.35 91.2318 133.826 90.7257 133.518 89.9766C129.733 96.319 124.717 101.625 120.117 107.344C117.919 110.076 115.412 112.671 112.787 115.048C112.007 115.753 111.28 116.49 110.553 117.249C109.945 117.884 108.979 118.448 108.465 119.153C107.972 119.829 108.094 119.797 108.844 120.334C109.835 121.044 110.928 121.633 111.935 122.325C113.544 123.431 115.301 124.366 116.741 125.697C118.297 127.137 119.657 128.804 121.018 130.428C121.925 131.51 123.115 132.898 123.343 134.266C123.418 134.719 123.705 135.838 123.326 136.17C123.003 136.453 123.035 136.345 122.634 136.173C122.108 135.946 121.953 135.427 121.31 135.179C119.665 134.546 117.674 134.763 115.963 134.755C114.25 134.748 112.524 134.941 110.812 134.934C106.904 134.918 103.079 135.235 99.1721 135.405C95.0224 135.586 90.8218 135.152 86.6859 135.214C83.6216 135.259 80.4756 135.029 77.3267 135.2C75.7069 135.288 74.1162 135.085 72.5369 135.062C70.4691 135.032 68.3456 135.314 66.2601 135.354C62.8371 135.421 59.456 135.42 56.0121 135.503C48.6044 135.681 41.2367 135.864 33.8247 135.982C32.836 135.998 31.7536 135.964 30.7765 136.076C29.7395 136.194 30.2749 136.416 29.5633 136.79C27.5713 137.839 28.0314 133.952 28.0791 133.188C28.3352 129.092 29.3716 125.075 30.6171 121.186C31.7987 117.498 32.7581 113.638 33.7588 109.87C34.8542 105.746 36.2814 101.79 37.5774 97.707C38.9054 93.5227 39.9867 89.1752 42.3986 85.4661C42.948 84.6214 43.5157 83.7123 44.3995 83.1797C45.3902 82.5826 45.4328 82.9313 45.432 81.8386C45.4314 80.8095 45.4945 79.4346 45.2525 78.4525C45.0337 77.5652 45.0674 78.0913 44.5749 77.454C44.174 76.9357 43.7546 76.5814 43.467 75.952C41.7003 77.7493 37.6562 76.8009 35.9492 75.5067C33.86 73.9226 32.2686 71.2501 31.6855 68.7049C31.2172 66.661 31.7918 62.765 34.0466 61.7822C35.1458 61.303 39.183 60.9408 39.3446 59.3793C39.4278 58.5731 38.0069 57.4397 37.679 56.7466C37.0715 55.4625 36.4879 53.7545 36.3191 52.3469C35.9893 49.5994 37.2324 46.5271 39.2128 44.6713C42.8456 41.2667 49.2376 39.5195 53.9106 41.6796C52.9231 37.8948 52.327 34.6298 52.8243 30.6928C53.2528 27.3011 55.2473 25.4035 57.9919 23.7141C62.6754 20.8308 69.0443 19.6928 74.3994 20.5312C75.6164 20.7218 76.7842 21.1305 77.911 21.4556C79.5479 21.9281 81.5075 21.7707 83.0531 22.5383C84.1738 23.0946 85.0248 24.2029 86.0089 24.9429C87.158 25.8068 88.1128 27.0963 88.9111 28.2887C90.6184 30.8387 89.9513 35.5713 88.5223 38.1309C88.2159 38.6799 87.8374 39.1421 87.3304 39.5167C86.8025 39.9066 85.9979 40.028 85.7258 40.5336C85.0291 41.829 85.7012 44.6333 85.7941 46.0333C85.9024 47.659 85.0832 48.8802 83.2458 49.0098C82.183 49.085 82.149 48.4663 81.6401 49.7393C81.3103 50.5644 81.0106 51.4634 80.5346 52.2198C79.5532 53.7788 77.7557 53.6266 76.1184 53.5845C74.2231 53.5354 72.3562 53.2349 70.4599 53.0453C70.9607 54.6554 72.3317 55.905 73.1878 57.3393C74.3454 59.2793 75.0421 60.8874 75.2303 63.1476C75.3747 64.8841 75.063 66.2555 73.8787 67.5479C73.3885 68.0828 72.9539 68.1092 73.0756 68.7263C73.1498 69.1027 73.7986 69.7238 74.0282 70.0242C74.6356 70.819 75.3408 71.5486 75.8754 72.3974C77.9325 75.6635 78.5401 80.6422 78.5452 84.4442C78.5454 84.6186 78.6381 84.9893 78.5614 85.1696C78.5045 85.3028 78.0729 85.7245 78.0666 85.7608C77.9822 86.2496 78.4572 87.0876 79.2027 87.1705C79.9856 87.2574 81.4195 86.6019 82.1478 86.3866C83.3133 86.0418 84.5012 85.7873 85.6641 85.4332C87.5423 84.8614 89.4118 84.4054 91.3211 83.9573C92.1839 83.7551 93.0515 83.5864 93.9171 83.3972C94.903 83.1819 95.3611 82.7657 95.87 83.7721C96.3066 84.6358 96.0351 84.7924 97.0927 84.3571C98.1427 83.9247 99.1687 83.3887 100.194 82.9007C102.002 82.0401 104.155 81.273 105.715 80.0026C108.317 77.8831 109.28 74.5078 111.77 72.2589C112.464 71.6327 112.877 71.6216 113.316 70.7541C113.785 69.8257 114.027 68.635 114.274 67.6363C114.706 65.8875 115.013 64.1326 115.405 62.3854C115.894 60.2087 116.949 58.2375 117.719 56.1613C118.019 55.3524 118.174 54.3243 118.658 53.5973C118.786 53.4045 119.031 53.2959 119.131 53.1364C119.476 52.5887 119.472 52.4383 119.561 51.7795C119.978 48.7009 121.81 50.3204 123.812 51.0264C124.655 51.3238 128.659 53.2529 127.13 54.5358C128.953 55.0665 131.872 54.7781 131.848 57.3989C131.835 58.7418 131.035 60.1782 130.605 61.4352C130.223 62.5513 129.854 63.6717 129.467 64.7859C128.618 67.2269 127.587 69.5947 126.758 72.0432C126.381 73.159 126.069 74.301 125.543 75.3541C125.079 76.2831 123.956 77.3071 123.771 78.3231C128.629 76.2439 133.122 73.238 138.559 73.4296C140.94 73.5133 143.1 74.5173 144.415 76.6174C146.063 79.2497 147.148 82.1969 148.759 84.8535C154.62 94.5176 161.61 103.297 168.044 112.561C168.538 113.273 169.174 113.946 169.345 114.826C169.457 115.4 169.24 115.974 169.374 116.526C169.653 117.671 171.059 119.102 172.012 119.761C173.84 121.023 176.812 122.803 179.093 122.646C177.661 119.194 177.68 115.412 177.747 111.73C177.81 108.233 178.187 104.764 178.634 101.302C178.735 100.519 178.823 99.7933 179.048 99.0342C179.305 98.1634 179.659 98.2459 178.887 97.4632C177.701 96.2579 176.289 95.2661 175.093 94.0458C172.505 91.4067 169.853 89.3383 167.817 86.1869C165.88 83.1894 163.837 80.1053 162.403 76.8228C160.927 73.4438 160.337 69.8352 159.604 66.2567C159.307 64.8045 158.223 63.1834 158.441 61.667C158.716 59.7505 159.602 61.1461 159.962 62.1774C161.063 65.3257 163.639 68.1434 165.773 70.6753C168.079 73.4106 170.899 75.6991 173.305 78.3547C175.926 81.2471 177.721 84.5711 180.052 87.6586C180.052 83.8269 178.748 79.9252 178.214 76.1347C177.745 72.7984 177.598 69.4516 177.301 66.1009C176.627 58.4894 177.209 50.6537 178.155 43.0967C178.604 39.5076 178.349 36.0031 178.363 32.4018C178.367 31.2557 177.894 28.6141 178.497 27.597C179.651 25.6489 180.325 29.9087 180.383 30.5438C180.732 34.3272 180.106 38.0684 180.426 41.8355C180.76 45.7695 181.485 49.5931 182.102 53.4815C182.771 57.6918 183.859 61.8071 184.901 65.9366C185.995 70.2724 186.915 74.6986 188.131 78.9997C188.459 77.6478 187.999 75.9868 187.908 74.6099C187.778 72.6395 187.525 70.6686 187.503 68.693C187.468 65.5444 187.443 62.3373 187.621 59.2033C187.796 56.1142 187.743 52.8773 188.687 49.9012C189.136 48.4887 189.793 47.1106 190.436 45.78C191.229 44.1393 191.51 42.5484 191.949 40.8034C192.326 39.3089 192.876 37.8538 193.127 36.3295C193.283 35.3815 193.718 32.5829 194.8 34.7032C195.428 35.9338 195.156 37.7582 195.174 39.0803C195.196 40.7753 194.938 42.4233 194.898 44.1112C194.821 47.4227 194.766 50.7303 194.519 54.0363C194.261 57.5048 194.487 60.6133 195.144 64.0309C195.864 67.7719 196.075 71.5211 196.448 75.3078C196.64 77.263 196.965 79.2073 197.121 81.1653C197.204 82.2022 196.779 85.1755 197.52 85.9139C197.591 84.1181 198.104 82.3206 198.493 80.5706C198.954 78.4974 199.14 76.318 199.479 74.2151C200.029 70.8082 201.096 67.5546 201.801 64.1859C203.256 57.2416 204.465 48.3165 210.562 43.7712C211.36 43.1764 212.237 42.7374 213.099 42.248C213.587 41.9709 214.313 41.254 214.871 41.129C215.481 40.9924 215.735 41.0985 215.983 41.8082C216.327 42.7976 215.697 43.2597 215.108 43.9784C213.072 46.465 212.202 49.6526 210.945 52.5689C208.065 59.2468 206.792 66.2903 206.777 73.5087C206.769 77.2876 206.509 80.9322 206.108 84.6881C205.676 88.7301 205.106 93.0051 203.882 96.8936C205.11 97.1697 206.442 96.758 206.775 98.1897C206.857 98.5414 206.709 98.9573 206.8 99.415C206.888 99.8599 207.099 100.302 207.225 100.74C207.483 101.645 207.62 102.538 207.746 103.468C208.233 107.059 209.068 110.476 209.157 114.117C209.239 117.484 208.582 120.895 207.977 124.196C207.367 127.522 205.619 130.356 204.242 133.364C204.834 133.364 205.427 133.37 206.019 133.376Z" fill="black"/>
<path fill-rule="evenodd" clip-rule="evenodd" d="M128.099 125.732C127.446 125.917 124.294 126.267 124.295 127.259C124.295 127.854 127.443 127.842 128 127.907C128.033 127.182 128.066 126.457 128.099 125.732ZM135.057 132.58C136.874 132.926 139.339 132.439 140.5 130.832C141.043 130.081 141.3 128.94 141.477 128.044C141.646 127.19 142.167 125.059 141.812 124.259C141.377 123.276 137.204 124.303 135.988 124.416C133.868 124.612 131.675 124.636 129.554 124.497C129.554 126.695 129.442 128.837 130.73 130.729C131.66 132.094 133.406 132.416 135.057 132.58ZM134.692 135.295C132.718 134.57 130.646 135.041 129.361 132.915C129.035 132.376 128.76 131.796 128.563 131.197C128.467 130.934 128.392 130.665 128.338 130.39C128.439 129.798 128.222 129.631 127.689 129.889C126.643 129.685 125.496 130.405 124.394 130.193C121.722 129.678 122.207 125.837 124.001 124.507C124.355 124.244 124.709 124.171 125.115 124.042C126.009 123.756 126.492 124.075 127.31 123.994C127.971 123.928 128.153 123.233 128.863 122.927C129.328 122.727 129.973 122.742 130.462 122.722C133.02 122.616 135.586 122.617 138.161 122.45C139.362 122.372 140.658 122.563 141.834 122.357C142.385 122.261 142.306 121.893 142.828 122.215C143.368 122.549 143.134 123.785 143.107 124.278C142.95 127.126 142.78 130.181 141.26 132.672C139.868 134.95 137.13 135.183 134.692 135.295Z" fill="black"/>
<path fill-rule="evenodd" clip-rule="evenodd" d="M30.4592 136.079C31.0942 136.072 31.729 136.066 32.3619 136.059C31.7261 136.066 31.0926 136.073 30.4592 136.079Z" fill="black"/>
<path fill-rule="evenodd" clip-rule="evenodd" d="M206.781 75.3435C206.78 74.7315 206.778 74.1196 206.777 73.5088C206.778 74.1211 206.779 74.7323 206.781 75.3435Z" fill="black"/>
<path fill-rule="evenodd" clip-rule="evenodd" d="M45.2544 77.8564C45.2524 78.4526 45.2505 79.0487 45.2485 79.6434C45.2503 79.0469 45.2522 78.4516 45.2544 77.8564Z" fill="black"/>
<path fill-rule="evenodd" clip-rule="evenodd" d="M98.0366 135.403C98.5418 135.404 99.047 135.405 99.5498 135.406C99.0439 135.405 98.5404 135.405 98.0366 135.403Z" fill="black"/>
<path fill-rule="evenodd" clip-rule="evenodd" d="M67.3624 135.282C67.8676 135.284 68.3726 135.285 68.8754 135.287C68.3694 135.286 67.866 135.284 67.3624 135.282Z" fill="black"/>
<path fill-rule="evenodd" clip-rule="evenodd" d="M177.814 110.524C177.792 110.927 177.769 111.329 177.747 111.731C177.769 111.328 177.792 110.926 177.814 110.524Z" fill="black"/>
<path fill-rule="evenodd" clip-rule="evenodd" d="M206.019 133.376C205.629 133.372 205.239 133.368 204.848 133.364C205.24 133.199 205.631 133.207 206.019 133.376Z" fill="black"/>
<path fill-rule="evenodd" clip-rule="evenodd" d="M171.359 135.157C171.639 135.153 171.919 135.149 172.197 135.144C171.916 135.148 171.637 135.153 171.359 135.157Z" fill="black"/>
<path fill-rule="evenodd" clip-rule="evenodd" d="M206.629 80.3087C206.636 80.0045 206.643 79.7005 206.65 79.3975C206.643 79.7019 206.636 80.0053 206.629 80.3087Z" fill="black"/>
<path fill-rule="evenodd" clip-rule="evenodd" d="M180.426 41.8356C180.403 41.5219 180.38 41.2084 180.356 40.8955C180.38 41.2094 180.403 41.5225 180.426 41.8356Z" fill="black"/>
<path fill-rule="evenodd" clip-rule="evenodd" d="M206.767 76.5412C206.771 76.2267 206.775 75.9124 206.778 75.5991C206.775 75.9138 206.771 76.2275 206.767 76.5412Z" fill="black"/>
<path fill-rule="evenodd" clip-rule="evenodd" d="M118.652 134.768C118.901 134.771 119.15 134.775 119.397 134.778C119.147 134.774 118.899 134.771 118.652 134.768Z" fill="black"/>
<path fill-rule="evenodd" clip-rule="evenodd" d="M182.823 135.28C183.067 135.285 183.31 135.29 183.552 135.295C183.307 135.29 183.065 135.285 182.823 135.28Z" fill="black"/>
<path fill-rule="evenodd" clip-rule="evenodd" d="M209.13 113.171C209.112 112.895 209.094 112.62 209.077 112.344C209.095 112.62 209.112 112.896 209.13 113.171Z" fill="black"/>
<path fill-rule="evenodd" clip-rule="evenodd" d="M204.757 135.548C204.956 135.547 205.154 135.546 205.35 135.545C205.151 135.547 204.954 135.548 204.757 135.548Z" fill="black"/>
<path fill-rule="evenodd" clip-rule="evenodd" d="M177.748 135.293C177.944 135.288 178.141 135.283 178.335 135.279C178.138 135.284 177.943 135.289 177.748 135.293Z" fill="black"/>
<path fill-rule="evenodd" clip-rule="evenodd" d="M133.622 135.143C133.838 135.141 134.054 135.14 134.268 135.139C134.052 135.14 133.837 135.141 133.622 135.143Z" fill="black"/>
<path fill-rule="evenodd" clip-rule="evenodd" d="M83.7911 135.142C83.9964 135.143 84.202 135.145 84.4052 135.146C84.199 135.145 83.995 135.143 83.7911 135.142Z" fill="black"/>
<path fill-rule="evenodd" clip-rule="evenodd" d="M71.6689 135.175C71.8784 135.163 72.0875 135.152 72.295 135.14C72.0849 135.152 71.877 135.163 71.6689 135.175Z" fill="black"/>
<path fill-rule="evenodd" clip-rule="evenodd" d="M129.705 55.0945C129.394 55.0676 129.082 55.0407 128.77 55.0136C129.082 55.0355 129.412 54.8503 129.705 55.0945Z" fill="black"/>
<path fill-rule="evenodd" clip-rule="evenodd" d="M209.159 133.495C208.851 133.464 208.544 133.433 208.237 133.401C208.544 133.433 208.851 133.464 209.159 133.495Z" fill="black"/>
<path fill-rule="evenodd" clip-rule="evenodd" d="M187.722 56.9927C187.701 57.2628 187.68 57.5332 187.66 57.8025C187.68 57.532 187.701 57.2622 187.722 56.9927Z" fill="black"/>
<path fill-rule="evenodd" clip-rule="evenodd" d="M206.844 68.2566C206.865 68.0005 206.886 67.7444 206.907 67.4893C206.886 67.7458 206.865 68.0011 206.844 68.2566Z" fill="black"/>
<path fill-rule="evenodd" clip-rule="evenodd" d="M187.6 61.1836C187.578 61.4534 187.555 61.7229 187.533 61.9917C187.555 61.7217 187.578 61.4526 187.6 61.1836Z" fill="black"/>
<path fill-rule="evenodd" clip-rule="evenodd" d="M206.714 78.5956C206.712 78.335 206.71 78.0743 206.708 77.8145C206.877 78.0743 206.87 78.3344 206.714 78.5956Z" fill="black"/>
<path fill-rule="evenodd" clip-rule="evenodd" d="M177.818 116.028C177.816 116.289 177.814 116.551 177.811 116.811C177.638 116.547 177.673 116.287 177.818 116.028Z" fill="black"/>
<path fill-rule="evenodd" clip-rule="evenodd" d="M197.407 85.8014C197.377 85.537 197.347 85.2724 197.317 85.0088C197.347 85.2736 197.377 85.5376 197.407 85.8014Z" fill="black"/>
<path fill-rule="evenodd" clip-rule="evenodd" d="M35.2021 61.5312C34.9983 61.8014 34.7208 61.6164 34.4785 61.6492C34.72 61.6098 34.961 61.5706 35.2021 61.5312Z" fill="black"/>
<path fill-rule="evenodd" clip-rule="evenodd" d="M135.964 122.637C135.706 122.638 135.449 122.638 135.192 122.638C135.449 122.638 135.706 122.637 135.964 122.637Z" fill="black"/>
<path fill-rule="evenodd" clip-rule="evenodd" d="M177.093 62.6411C177.117 62.8608 177.141 63.0805 177.165 63.2994C177.141 63.0793 177.117 62.8602 177.093 62.6411Z" fill="black"/>
<path fill-rule="evenodd" clip-rule="evenodd" d="M49.8672 40.8224C49.6084 40.8275 49.3496 40.8327 49.0908 40.8378C49.3468 40.6866 49.6048 40.6429 49.8672 40.8224Z" fill="black"/>
<path fill-rule="evenodd" clip-rule="evenodd" d="M187.593 64.9839C187.576 65.2143 187.559 65.4444 187.543 65.6738C187.56 65.4434 187.576 65.2137 187.593 64.9839Z" fill="black"/>
<path fill-rule="evenodd" clip-rule="evenodd" d="M180.495 36.705C180.516 36.495 180.536 36.285 180.556 36.0762C180.535 36.2866 180.516 36.4958 180.495 36.705Z" fill="black"/>
<path fill-rule="evenodd" clip-rule="evenodd" d="M178.462 36.0474C178.441 36.2752 178.421 36.5032 178.401 36.7302C178.421 36.502 178.441 36.2746 178.462 36.0474Z" fill="black"/>
<path fill-rule="evenodd" clip-rule="evenodd" d="M66.0412 20.8291C65.7778 20.8612 65.5145 20.8932 65.2513 20.9251C65.5147 20.893 65.7778 20.8612 66.0412 20.8291Z" fill="black"/>
<path fill-rule="evenodd" clip-rule="evenodd" d="M47.0201 41.0039C46.7498 41.0316 46.4796 41.0593 46.2095 41.087C46.4798 41.0593 46.75 41.0316 47.0201 41.0039Z" fill="black"/>
<path fill-rule="evenodd" clip-rule="evenodd" d="M195.114 41.6715C195.131 41.4596 195.147 41.2474 195.164 41.0366C195.147 41.2488 195.13 41.4602 195.114 41.6715Z" fill="black"/>
<path fill-rule="evenodd" clip-rule="evenodd" d="M38.1499 76.6548C38.3055 76.6572 38.461 76.6593 38.6143 76.6617C38.458 76.6593 38.304 76.6572 38.1499 76.6548Z" fill="black"/>
<path fill-rule="evenodd" clip-rule="evenodd" d="M178.47 102.816C178.454 103.051 178.438 103.286 178.423 103.52C178.439 103.285 178.454 103.051 178.47 102.816Z" fill="black"/>
<path fill-rule="evenodd" clip-rule="evenodd" d="M194.347 57.1368C194.34 56.9106 194.334 56.6846 194.328 56.459C194.334 56.6854 194.34 56.911 194.347 57.1368Z" fill="black"/>
<path fill-rule="evenodd" clip-rule="evenodd" d="M72.6706 20.2938C72.4306 20.2938 72.1905 20.294 71.9508 20.294C72.1909 20.1285 72.4308 20.1326 72.6706 20.2938Z" fill="black"/>
<path fill-rule="evenodd" clip-rule="evenodd" d="M136.764 73.5382C136.501 73.5449 136.239 73.5516 135.976 73.5584C136.234 73.3751 136.497 73.3705 136.764 73.5382Z" fill="black"/>
<path fill-rule="evenodd" clip-rule="evenodd" d="M159.744 134.758C159.9 134.761 160.056 134.765 160.21 134.769C160.053 134.766 159.898 134.762 159.744 134.758Z" fill="black"/>
<path fill-rule="evenodd" clip-rule="evenodd" d="M165.614 135.033C165.769 135.027 165.925 135.022 166.079 135.017C165.922 135.022 165.768 135.028 165.614 135.033Z" fill="black"/>
<path fill-rule="evenodd" clip-rule="evenodd" d="M73.748 135.142C73.9104 135.146 74.0727 135.15 74.2329 135.154C74.07 135.15 73.909 135.146 73.748 135.142Z" fill="black"/>
<path fill-rule="evenodd" clip-rule="evenodd" d="M208.995 110.554C208.972 110.33 208.948 110.106 208.925 109.884C208.948 110.108 208.972 110.331 208.995 110.554Z" fill="black"/>
<path fill-rule="evenodd" clip-rule="evenodd" d="M187.792 72.8511C187.81 73.0642 187.829 73.2774 187.847 73.4892C187.829 73.2758 187.81 73.0634 187.792 72.8511Z" fill="black"/>
<path fill-rule="evenodd" clip-rule="evenodd" d="M195.952 69.1914C195.926 68.9654 195.901 68.7394 195.876 68.5142C195.901 68.7404 195.926 68.9658 195.952 69.1914Z" fill="black"/>
<path fill-rule="evenodd" clip-rule="evenodd" d="M75.0652 135.277C75.2289 135.274 75.3928 135.272 75.5548 135.27C75.3903 135.272 75.2277 135.274 75.0652 135.277Z" fill="black"/>
<path fill-rule="evenodd" clip-rule="evenodd" d="M134.692 135.295C134.851 135.287 135.01 135.28 135.168 135.273C135.008 135.28 134.85 135.287 134.692 135.295Z" fill="black"/>
<path fill-rule="evenodd" clip-rule="evenodd" d="M194.62 52.6875C194.612 52.4586 194.605 52.2296 194.598 52.001C194.605 52.2302 194.612 52.4588 194.62 52.6875Z" fill="black"/>
<path fill-rule="evenodd" clip-rule="evenodd" d="M59.5397 135.426C59.6995 135.425 59.8591 135.424 60.0167 135.423C59.8562 135.424 59.6981 135.425 59.5397 135.426Z" fill="black"/>
<path fill-rule="evenodd" clip-rule="evenodd" d="M194.553 135.424C194.717 135.425 194.881 135.427 195.043 135.429C194.878 135.427 194.715 135.426 194.553 135.424Z" fill="black"/>
<path fill-rule="evenodd" clip-rule="evenodd" d="M198.099 135.404C198.257 135.416 198.416 135.427 198.572 135.438C198.413 135.427 198.256 135.416 198.099 135.404Z" fill="black"/>
<path fill-rule="evenodd" clip-rule="evenodd" d="M199.531 135.402C199.692 135.407 199.854 135.412 200.013 135.415C199.851 135.41 199.691 135.406 199.531 135.402Z" fill="black"/>
<path fill-rule="evenodd" clip-rule="evenodd" d="M206.884 70.0991C206.873 69.8739 206.863 69.6485 206.852 69.4238C206.863 69.6495 206.873 69.8743 206.884 70.0991Z" fill="black"/>
<path fill-rule="evenodd" clip-rule="evenodd" d="M98.5193 132.449C99.0103 132.424 99.5015 132.398 99.9927 132.372C99.5015 132.398 99.0103 132.423 98.5193 132.449Z" fill="black"/>
<path fill-rule="evenodd" clip-rule="evenodd" d="M68.8922 50.5518C69.3184 50.589 69.7447 50.6262 70.1706 50.663C69.7443 50.626 69.3182 50.5888 68.8922 50.5518Z" fill="black"/>
<path fill-rule="evenodd" clip-rule="evenodd" d="M189.253 69.1465C189.267 69.5546 189.28 69.9627 189.294 70.3696C189.28 69.9613 189.267 69.554 189.253 69.1465Z" fill="black"/>
<path fill-rule="evenodd" clip-rule="evenodd" d="M198.051 133.147C198.496 133.174 198.941 133.201 199.386 133.228C198.938 133.248 198.483 133.377 198.051 133.147Z" fill="black"/>
<path fill-rule="evenodd" clip-rule="evenodd" d="M195.417 84.8739C195.421 84.4846 195.424 84.0953 195.427 83.707C195.424 84.0965 195.421 84.4852 195.417 84.8739Z" fill="black"/>
<path fill-rule="evenodd" clip-rule="evenodd" d="M194.278 97.1055C194.669 97.1106 195.06 97.116 195.45 97.1211C195.059 97.1158 194.669 97.1106 194.278 97.1055Z" fill="black"/>
<path fill-rule="evenodd" clip-rule="evenodd" d="M95.9841 90.2612C95.9742 90.5579 95.9645 90.8546 95.9552 91.1499C95.9651 90.8528 95.9746 90.5571 95.9841 90.2612Z" fill="black"/>
<path fill-rule="evenodd" clip-rule="evenodd" d="M200.777 77.6987C200.761 77.994 200.745 78.2891 200.729 78.5828C200.746 78.2873 200.761 77.993 200.777 77.6987Z" fill="black"/>
<path fill-rule="evenodd" clip-rule="evenodd" d="M192.447 131.833C192.731 131.814 193.015 131.795 193.298 131.776C193.084 131.948 192.87 131.962 192.447 131.833Z" fill="black"/>
<path fill-rule="evenodd" clip-rule="evenodd" d="M190.546 93.2397C190.565 93.558 190.585 93.8762 190.604 94.1935C190.585 93.8751 190.565 93.5574 190.546 93.2397Z" fill="black"/>
<path fill-rule="evenodd" clip-rule="evenodd" d="M84.3347 43.0078C84.3377 42.7005 84.3407 42.3931 84.3438 42.0869C84.3409 42.3947 84.3379 42.7012 84.3347 43.0078Z" fill="black"/>
<path fill-rule="evenodd" clip-rule="evenodd" d="M190.889 97.1696L191.948 97.1465C191.599 97.3159 191.246 97.3218 190.889 97.1696Z" fill="black"/>
<path fill-rule="evenodd" clip-rule="evenodd" d="M200.657 99.438C200.407 99.4402 200.158 99.4421 199.91 99.4447C200.16 99.4427 200.409 99.4404 200.657 99.438Z" fill="black"/>
<path fill-rule="evenodd" clip-rule="evenodd" d="M109.23 131.956C109.575 131.96 109.921 131.965 110.267 131.969C109.919 132.144 109.573 132.169 109.23 131.956Z" fill="black"/>
<path fill-rule="evenodd" clip-rule="evenodd" d="M189.375 71.7676C189.392 72.087 189.409 72.4065 189.427 72.7249C189.409 72.4051 189.392 72.0864 189.375 71.7676Z" fill="black"/>
<path fill-rule="evenodd" clip-rule="evenodd" d="M77.4185 51.302C77.7142 51.1558 78.0122 51.1312 78.3133 51.2862C78.0148 51.2916 77.7167 51.2969 77.4185 51.302Z" fill="black"/>
<path fill-rule="evenodd" clip-rule="evenodd" d="M179.702 75.4561C179.727 75.7254 179.752 75.995 179.776 76.2636C179.751 75.9938 179.727 75.7248 179.702 75.4561Z" fill="black"/>
<path fill-rule="evenodd" clip-rule="evenodd" d="M204.682 69.169C204.529 68.9054 204.535 68.6432 204.689 68.3833C204.687 68.6455 204.684 68.9074 204.682 69.169Z" fill="black"/>
<path fill-rule="evenodd" clip-rule="evenodd" d="M189.423 60.0171C189.423 60.2837 189.424 60.5505 189.424 60.8163C189.423 60.5491 189.423 60.2831 189.423 60.0171Z" fill="black"/>
<path fill-rule="evenodd" clip-rule="evenodd" d="M200.023 96.978C200.328 96.8844 200.632 96.752 200.935 96.9811C200.631 96.9802 200.327 96.979 200.023 96.978Z" fill="black"/>
<path fill-rule="evenodd" clip-rule="evenodd" d="M59.6786 132.329C59.9592 132.206 60.2391 132.141 60.5155 132.339C60.2363 132.335 59.9576 132.332 59.6786 132.329Z" fill="black"/>
<path fill-rule="evenodd" clip-rule="evenodd" d="M117.056 131.932C117.356 131.801 117.655 131.729 117.951 131.941C117.653 131.938 117.354 131.935 117.056 131.932Z" fill="black"/>
<path fill-rule="evenodd" clip-rule="evenodd" d="M50.2839 92.9971C50.3065 93.2688 50.3292 93.5406 50.3516 93.8115C50.3289 93.5396 50.3063 93.2684 50.2839 92.9971Z" fill="black"/>
<path fill-rule="evenodd" clip-rule="evenodd" d="M119.923 77.345C120.219 77.2373 120.513 77.1811 120.802 77.361C120.509 77.3555 120.216 77.3503 119.923 77.345Z" fill="black"/>
<path fill-rule="evenodd" clip-rule="evenodd" d="M189.37 85.4341C189.387 85.6997 189.403 85.9653 189.42 86.2303C189.403 85.9645 189.387 85.6993 189.37 85.4341Z" fill="black"/>
<path fill-rule="evenodd" clip-rule="evenodd" d="M50.0935 61.4678C50.0689 61.6817 50.0443 61.8959 50.02 62.1086C50.0445 61.8943 50.0689 61.6811 50.0935 61.4678Z" fill="black"/>
<path fill-rule="evenodd" clip-rule="evenodd" d="M32.9881 123.513C32.9728 123.722 32.9577 123.93 32.9427 124.137C32.9583 123.928 32.9732 123.721 32.9881 123.513Z" fill="black"/>
<path fill-rule="evenodd" clip-rule="evenodd" d="M195.548 86.8393C195.532 86.624 195.515 86.4087 195.499 86.1943C195.515 86.4101 195.532 86.6248 195.548 86.8393Z" fill="black"/>
<path fill-rule="evenodd" clip-rule="evenodd" d="M95.8844 92.0938C95.9335 92.2505 95.9826 92.4075 96.0317 92.5644C95.7037 92.644 95.6546 92.487 95.8844 92.0938Z" fill="black"/>
<path fill-rule="evenodd" clip-rule="evenodd" d="M115.602 76.9907C115.869 76.9895 116.136 76.9885 116.403 76.9873C116.136 77.1144 115.869 77.2016 115.602 76.9907Z" fill="black"/>
<path fill-rule="evenodd" clip-rule="evenodd" d="M50.4335 94.2837C50.4426 94.5212 50.4518 94.7589 50.4605 94.9956C50.4512 94.7579 50.4423 94.5208 50.4335 94.2837Z" fill="black"/>
<path fill-rule="evenodd" clip-rule="evenodd" d="M180.351 96.7881C180.36 97.0068 180.37 97.2255 180.38 97.443C180.371 97.2237 180.361 97.006 180.351 96.7881Z" fill="black"/>
<path fill-rule="evenodd" clip-rule="evenodd" d="M47.7859 132.856C48.0394 132.687 48.2935 132.702 48.5479 132.853C48.2938 132.854 48.0398 132.855 47.7859 132.856Z" fill="black"/>
<path fill-rule="evenodd" clip-rule="evenodd" d="M54.4609 58.4126C54.4746 58.6358 54.4885 58.8593 54.5027 59.0812C54.4891 58.8575 54.475 58.6351 54.4609 58.4126Z" fill="black"/>
<path fill-rule="evenodd" clip-rule="evenodd" d="M46.467 132.879C46.7306 132.88 46.9941 132.881 47.2575 132.882C46.9931 133.063 46.7298 133.071 46.467 132.879Z" fill="black"/>
<path fill-rule="evenodd" clip-rule="evenodd" d="M192.402 54.9082C192.404 54.6813 192.406 54.4547 192.408 54.2285C192.406 54.4555 192.404 54.6817 192.402 54.9082Z" fill="black"/>
<path fill-rule="evenodd" clip-rule="evenodd" d="M71.409 50.9419C71.6611 50.9749 71.9132 51.008 72.1651 51.0409C71.913 51.0078 71.6609 50.9749 71.409 50.9419Z" fill="black"/>
<path fill-rule="evenodd" clip-rule="evenodd" d="M49.1623 70.5156C49.1657 70.7274 49.169 70.9394 49.173 71.1501C49.1696 70.938 49.1661 70.7268 49.1623 70.5156Z" fill="black"/>
<path fill-rule="evenodd" clip-rule="evenodd" d="M194.099 70.4851C194.085 70.2693 194.071 70.0536 194.058 69.8389C194.071 70.055 194.085 70.2701 194.099 70.4851Z" fill="black"/>
<path fill-rule="evenodd" clip-rule="evenodd" d="M135.3 132.626C135.611 132.654 135.922 132.683 136.233 132.711C135.922 132.682 135.611 132.654 135.3 132.626Z" fill="black"/>
<path fill-rule="evenodd" clip-rule="evenodd" d="M134.26 124.546C134.092 124.549 133.924 124.552 133.757 124.555C133.926 124.553 134.093 124.55 134.26 124.546Z" fill="black"/>
<path fill-rule="evenodd" clip-rule="evenodd" d="M134.275 132.502C134.535 132.528 134.797 132.554 135.057 132.58C134.796 132.554 134.535 132.528 134.275 132.502Z" fill="black"/>
<path fill-rule="evenodd" clip-rule="evenodd" d="M87.3211 114.874C87.6606 116.798 84.6795 118.681 84.4432 115.945C84.3568 114.944 85.0235 114.241 85.7702 113.629C86.8299 112.762 87.4219 113.593 87.3211 114.874Z" fill="black"/>
<path fill-rule="evenodd" clip-rule="evenodd" d="M54.4621 91.3936C55.1643 91.6819 60.5298 93.4361 57.7428 94.3184C57.005 94.5519 55.8899 94.5867 55.2504 94.1753C54.481 93.6801 53.705 92.2189 54.4621 91.3936Z" fill="black"/>
<path fill-rule="evenodd" clip-rule="evenodd" d="M55.7825 65.3311C57.6036 65.1189 59.2816 68.1199 57.0363 68.0225C55.4019 67.9515 53.204 65.3311 55.7825 65.3311Z" fill="black"/>
<path fill-rule="evenodd" clip-rule="evenodd" d="M62.2972 72.6895C63.8179 74.0206 60.9992 76.9999 59.8801 75.8468C59.3086 75.2578 59.8357 73.989 60.3074 73.4962C60.7915 72.9905 61.6527 72.8955 62.2972 72.6895Z" fill="black"/>
<path fill-rule="evenodd" clip-rule="evenodd" d="M66.8245 107.2C65.9267 107.343 61.9786 108.637 62.802 106.286C63.1161 105.39 63.9919 105.656 64.7926 105.697C66.0832 105.763 66.8245 105.701 66.8245 107.2Z" fill="black"/>
<path fill-rule="evenodd" clip-rule="evenodd" d="M64.2239 113.256C65.5678 113.977 63.6033 118.014 62.4893 117.155C60.9437 115.964 63.0576 113.618 64.2239 113.256Z" fill="black"/>
<path fill-rule="evenodd" clip-rule="evenodd" d="M70.0853 110.01C70.7389 109.742 73.8196 112.715 72.6468 113.543C72.0458 113.967 70.9069 113.24 70.5446 112.802C69.8652 111.98 69.8036 110.966 70.0853 110.01Z" fill="black"/>
<path fill-rule="evenodd" clip-rule="evenodd" d="M52.3112 85.709C52.9792 85.819 54.1324 85.8539 54.1756 86.7955C54.2135 87.6232 53.1792 87.8914 52.4511 87.9563C51.6956 88.0236 50.6954 87.8097 50.681 86.8567C50.6658 85.8285 52.2875 85.8905 52.3112 85.709Z" fill="black"/>
<path fill-rule="evenodd" clip-rule="evenodd" d="M68.7825 126.688C69.4938 127.122 72.8118 128.682 71.3896 129.809C70.8573 130.23 69.2439 129.359 68.8807 128.917C68.4473 128.388 68.0238 127.15 68.7825 126.688Z" fill="black"/>
<path fill-rule="evenodd" clip-rule="evenodd" d="M78.0063 115.369C77.9035 113.647 80.7989 112.961 80.1987 115.405C80.0294 116.095 79.8657 117.141 79.0165 117.181C78.0128 117.228 77.9765 116.036 78.0063 115.369Z" fill="black"/>
<path fill-rule="evenodd" clip-rule="evenodd" d="M69.0618 85.4259C69.082 86.7322 66.5873 87.8841 66.568 85.8137C66.5509 83.9635 69.155 83.422 69.0618 85.4259Z" fill="black"/>
<path fill-rule="evenodd" clip-rule="evenodd" d="M67.4146 78.6226C68.0293 78.8213 68.8462 78.9236 68.9002 79.7071C68.9576 80.5364 68.1899 80.9055 67.499 80.859C66.9325 80.8208 66.0941 80.4 65.9911 79.7833C65.8402 78.8781 66.7208 78.8189 67.4146 78.6226Z" fill="black"/>
<path fill-rule="evenodd" clip-rule="evenodd" d="M55.9845 102.538C55.9741 101.46 58.127 100.164 58.5235 101.415C58.6504 101.815 57.6357 103.61 57.2981 103.744C56.4051 104.1 56.2804 103.271 55.9845 102.538Z" fill="black"/>
<path fill-rule="evenodd" clip-rule="evenodd" d="M73.6269 120.477C72.8993 121.13 70.717 122.966 70.8801 120.502C70.9843 118.928 73.8188 119.01 73.6269 120.477Z" fill="black"/>
<path fill-rule="evenodd" clip-rule="evenodd" d="M109.183 127.519C109.421 126.483 112.835 128.28 111.696 129.588C111.314 130.027 110.314 129.63 109.929 129.37C109.168 128.854 109.152 128.379 109.183 127.519Z" fill="black"/>
<path fill-rule="evenodd" clip-rule="evenodd" d="M90.1594 105.345C90.2926 104.883 90.4405 104.066 90.8796 103.772C91.6742 103.238 92.366 104.043 92.3662 104.89C92.3664 106.472 90.5723 106.971 90.1594 105.345Z" fill="black"/>
<path fill-rule="evenodd" clip-rule="evenodd" d="M81.6973 123.833C82.5838 124.037 84.5576 126.199 83.4129 127.081C82.3112 127.93 80.8459 124.479 81.6973 123.833Z" fill="black"/>
<path fill-rule="evenodd" clip-rule="evenodd" d="M82.5412 107.468C83.681 107.56 85.2477 109.411 83.4761 109.706C82.0903 109.936 80.4786 107.922 82.5412 107.468Z" fill="black"/>
<path fill-rule="evenodd" clip-rule="evenodd" d="M92.8601 115.99C93.1459 115.024 95.9728 116.059 95.814 117.123C95.7295 117.688 94.5738 117.821 93.9662 117.672C93.0718 117.451 92.8396 116.863 92.8601 115.99Z" fill="black"/>
<path fill-rule="evenodd" clip-rule="evenodd" d="M59.5386 62.0366C59.5591 60.7877 61.9509 60.2787 62.1261 61.5372C62.2845 62.6742 59.5086 63.8841 59.5386 62.0366Z" fill="black"/>
<path fill-rule="evenodd" clip-rule="evenodd" d="M92.0699 128.858C92.2423 128.23 92.3167 127.474 93.0984 127.392C93.9936 127.297 93.9672 127.986 93.862 128.699C93.5756 130.641 92.482 130.738 92.0699 128.858Z" fill="black"/>
<path fill-rule="evenodd" clip-rule="evenodd" d="M54.2983 76.8953C53.0514 77.1775 50.7677 74.7681 52.1635 74.2511C53.1471 73.8864 54.2983 76.1683 54.2983 76.8953Z" fill="black"/>
<path fill-rule="evenodd" clip-rule="evenodd" d="M70.2023 95.611C69.5677 95.9109 69.4215 96.0928 68.9341 95.6007C68.5096 95.1723 68.5283 93.9784 68.8927 93.5327C70.2881 91.8259 70.2554 94.9203 70.2023 95.611Z" fill="black"/>
<path fill-rule="evenodd" clip-rule="evenodd" d="M75.3798 92.1494C76.0416 92.2339 78.0081 94.1054 76.9841 94.8492C75.7293 95.7604 75.0194 92.9059 75.3798 92.1494Z" fill="black"/>
<path fill-rule="evenodd" clip-rule="evenodd" d="M89.6989 92.6423C89.2178 94.5009 88.017 93.2503 88.0851 91.8439C88.1943 89.5912 89.4387 91.5531 89.6989 92.6423Z" fill="black"/>
<path fill-rule="evenodd" clip-rule="evenodd" d="M97 122.493C97.8139 122.831 98.9186 125.953 97.7561 126.12C96.4504 126.308 96.8852 123.143 97 122.493Z" fill="black"/>
<path fill-rule="evenodd" clip-rule="evenodd" d="M86.8358 120.74C87.7671 120.424 88.1083 122.395 87.567 122.761C86.3761 123.567 86.6273 121.205 86.8358 120.74Z" fill="black"/>
<path fill-rule="evenodd" clip-rule="evenodd" d="M78.0064 115.369C77.9945 115.63 77.9828 115.892 77.9705 116.152C77.9822 115.89 77.9941 115.629 78.0064 115.369Z" fill="black"/>
<path fill-rule="evenodd" clip-rule="evenodd" d="M109.183 127.519C109.173 127.787 109.163 128.055 109.153 128.322C109.163 128.053 109.173 127.786 109.183 127.519Z" fill="black"/>
<path fill-rule="evenodd" clip-rule="evenodd" d="M92.8602 115.99C92.8551 116.217 92.8495 116.445 92.8436 116.671C92.8487 116.443 92.8547 116.216 92.8602 115.99Z" fill="black"/>
<path fill-rule="evenodd" clip-rule="evenodd" d="M195.872 112.073C197.803 112.011 199.956 111.282 201.854 111.514C202.376 111.578 203.578 111.71 202.742 112.487C202.341 112.859 200.425 112.666 199.845 112.79C196.3 113.543 192.276 114.028 188.641 113.966C186.94 113.936 185.225 113.8 183.524 113.709C181.825 113.619 181.658 112.926 183.57 112.706C185.556 112.477 187.595 112.562 189.591 112.559C191.689 112.557 193.777 112.213 195.872 112.073Z" fill="black"/>
<path fill-rule="evenodd" clip-rule="evenodd" d="M200.111 107.405C199.925 107.936 199.762 109.155 199.049 109.235C198.052 109.346 197.887 107.628 197.924 107C197.968 106.242 198.24 104.982 199.18 105.244C199.973 105.466 200.053 106.798 200.111 107.405Z" fill="black"/>
<path fill-rule="evenodd" clip-rule="evenodd" d="M194.072 107.017C194.218 106.449 194.29 105.167 195.091 105.123C195.987 105.075 196.242 106.41 196.237 107.05C196.231 107.657 196.007 108.805 195.294 108.945C194.327 109.135 194.24 107.667 194.072 107.017Z" fill="black"/>
<path fill-rule="evenodd" clip-rule="evenodd" d="M184.017 108.036C183.727 108.72 183.535 109.661 182.637 109.195C181.942 108.835 181.845 107.382 181.976 106.717C182.112 106.027 182.4 105.237 183.189 105.547C184.099 105.904 184.007 107.284 184.017 108.036Z" fill="black"/>
<path fill-rule="evenodd" clip-rule="evenodd" d="M191.632 107.406C190.776 110.009 189.215 108.248 189.807 106.304C190.427 104.273 191.553 106.246 191.632 107.406Z" fill="black"/>
<path fill-rule="evenodd" clip-rule="evenodd" d="M187.461 107.534C187.224 107.993 186.971 108.982 186.33 108.877C185.544 108.75 185.519 107.233 185.605 106.668C185.681 106.174 185.902 105.35 186.559 105.36C187.509 105.376 187.446 106.941 187.461 107.534Z" fill="black"/>
<path fill-rule="evenodd" clip-rule="evenodd" d="M204.535 108.034C203.898 109.469 203.021 108.233 203.302 107.214C203.718 105.704 204.499 107.042 204.535 108.034Z" fill="black"/>
<path fill-rule="evenodd" clip-rule="evenodd" d="M188.93 112.561C188.235 112.558 187.538 112.556 186.843 112.553C187.539 112.421 188.235 112.37 188.93 112.561Z" fill="black"/>
<path fill-rule="evenodd" clip-rule="evenodd" d="M202.759 111.508C202.155 111.512 201.552 111.515 200.949 111.519C201.551 111.338 202.155 111.334 202.759 111.508Z" fill="black"/>
<path fill-rule="evenodd" clip-rule="evenodd" d="M184.017 108.037C184.012 107.689 184.008 107.341 184.003 106.994C184.183 107.34 184.17 107.687 184.017 108.037Z" fill="black"/>
<path fill-rule="evenodd" clip-rule="evenodd" d="M187.803 113.958C188.083 113.961 188.363 113.963 188.641 113.966C188.36 113.963 188.082 113.961 187.803 113.958Z" fill="black"/>
<path fill-rule="evenodd" clip-rule="evenodd" d="M183.099 113.71C183.383 113.71 183.667 113.709 183.948 113.71C183.663 113.71 183.381 113.71 183.099 113.71Z" fill="black"/>
<path fill-rule="evenodd" clip-rule="evenodd" d="M185.425 112.591C185.031 112.624 184.636 112.656 184.242 112.689C184.636 112.656 185.031 112.624 185.425 112.591Z" fill="black"/>
<path fill-rule="evenodd" clip-rule="evenodd" d="M190.759 112.557C190.37 112.558 189.98 112.558 189.591 112.559C189.98 112.395 190.37 112.39 190.759 112.557Z" fill="black"/>
<path fill-rule="evenodd" clip-rule="evenodd" d="M187.461 107.535C187.452 107.172 187.442 106.809 187.433 106.447C187.443 106.81 187.452 107.172 187.461 107.535Z" fill="black"/>
<path fill-rule="evenodd" clip-rule="evenodd" d="M181.976 106.717C181.974 107.07 181.972 107.424 181.969 107.776C181.971 107.422 181.974 107.07 181.976 106.717Z" fill="black"/>
<path fill-rule="evenodd" clip-rule="evenodd" d="M198.085 111.941C197.741 111.973 197.396 112.004 197.052 112.035C197.397 112.004 197.741 111.973 198.085 111.941Z" fill="black"/>
<path fill-rule="evenodd" clip-rule="evenodd" d="M204.535 108.034C204.524 107.725 204.513 107.416 204.502 107.108C204.513 107.417 204.524 107.726 204.535 108.034Z" fill="black"/>
<path fill-rule="evenodd" clip-rule="evenodd" d="M189.884 113.968C190.124 113.964 190.364 113.959 190.601 113.955C190.36 113.96 190.122 113.964 189.884 113.968Z" fill="black"/>
<path fill-rule="evenodd" clip-rule="evenodd" d="M200.111 107.406C200.09 107.184 200.068 106.962 200.047 106.74C200.069 106.963 200.09 107.184 200.111 107.406Z" fill="black"/>
<path fill-rule="evenodd" clip-rule="evenodd" d="M191.632 107.406C191.616 107.178 191.601 106.95 191.585 106.722C191.601 106.95 191.616 107.178 191.632 107.406Z" fill="black"/>
<path fill-rule="evenodd" clip-rule="evenodd" d="M68.0179 40.4051C67.0752 40.1569 66.8984 38.8277 67.0499 38.0113C67.2217 37.6179 67.3936 37.2246 67.5654 36.8311C67.4981 36.6857 67.431 36.5402 67.364 36.3947C67.4502 35.5845 67.2298 35.2324 68.158 35.5605C69.8821 36.1705 70.1576 40.3426 68.0179 40.4051Z" fill="black"/>
<path fill-rule="evenodd" clip-rule="evenodd" d="M81.9728 37.835C82.7494 37.7736 84.16 38.6811 83.3869 39.559C82.908 40.1029 81.3297 39.8456 80.6858 39.9592C79.8318 40.1098 78.9412 40.3159 79.4032 39.0326C79.7659 38.0248 81.0616 37.8087 81.9728 37.835Z" fill="black"/>
<path fill-rule="evenodd" clip-rule="evenodd" d="M81.1555 43.8711C80.3667 43.2363 80.7188 40.3454 81.9194 40.8655C83.1544 41.4009 81.8138 43.4538 81.1555 43.8711Z" fill="black"/>
<path fill-rule="evenodd" clip-rule="evenodd" d="M67.0504 38.0112C67.0504 38.3154 67.0502 38.6198 67.0497 38.9226C66.8844 38.6178 66.8896 38.3144 67.0504 38.0112Z" fill="black"/>
<path fill-rule="evenodd" clip-rule="evenodd" d="M68.0179 40.4051C68.1787 40.4005 68.3397 40.3958 68.4985 40.3916C68.3369 40.3967 68.1775 40.4009 68.0179 40.4051Z" fill="black"/>
<path fill-rule="evenodd" clip-rule="evenodd" d="M165.424 123.662C165.35 124.977 163.943 124.005 164.043 123.125C164.224 121.529 165.124 123.106 165.424 123.662Z" fill="black"/>
</g>
<defs>
<clipPath id="clip0_4_305">
<rect width="202" height="152" fill="white" transform="translate(28 20)"/>
</clipPath>
</defs>
</svg>
