<svg width="69" height="59" viewBox="0 0 69 59" fill="none" xmlns="http://www.w3.org/2000/svg">
<path d="M8.73381 22.8177C8.08733 24.2411 9.27122 24.7452 11.1879 23.8275C13.244 22.843 18.127 26.331 19.8624 29.9553C20.7301 31.7675 20.5362 31.9888 16.9467 33.7075C6.66622 38.63 7.21201 49.164 17.9358 52.6826C33.1962 57.7133 41.4725 37.6003 29.2231 25.2591C22.987 19.0346 11.0866 17.6215 8.73381 22.8177Z" fill="#BDC5DD"/>
<path d="M54.8925 10.7833C49.0799 6.06966 37.013 5.29299 34.2293 9.41042C33.4493 10.555 34.1512 10.9473 37.6008 11.3518C44.2406 12.1566 48.3618 16.7377 44.2148 18.7234C32.5751 24.2966 37.5933 42.1136 50.2757 40.2393C65.4708 37.9758 68.0701 21.395 54.8925 10.7833Z" fill="#BDC5DD"/>
</svg>
