<svg width="144" height="160" viewBox="0 0 144 160" fill="none" xmlns="http://www.w3.org/2000/svg">
<path fill-rule="evenodd" clip-rule="evenodd" d="M137.52 0H136.08V7.2H123.12V0H121.68V7.2H108.72V0H107.28V7.2H94.32V0H92.88V7.2H79.92V0H78.48V7.2H65.52V0H64.08V7.2H51.12V0H49.68V7.2H36.72V0H35.28V7.2H22.32V0H20.88V7.2H7.92V0H6.48V7.2H0V8.8H6.48V23.2H0V24.8H6.48V39.2H0V40.8H6.48V55.2H0V56.8H6.48V71.2H0V72.8H6.48V87.2H0V88.8H6.48V103.2H0V104.8H6.48V119.2H0V120.8H6.48V135.2H0V136.8H6.48V151.2H0V152.8H6.48V160H7.92V152.8H20.88V160H22.32V152.8H35.28V160H36.72V152.8H49.68V160H51.12V152.8H64.08V160H65.52V152.8H78.48V160H79.92V152.8H92.88V160H94.32V152.8H107.28V160H108.72V152.8H121.68V160H123.12V152.8H136.08V160H137.52V152.8H144V151.2H137.52V136.8H144V135.2H137.52V120.8H144V119.2H137.52V104.8H144V103.2H137.52V88.8H144V87.2H137.52V72.8H144V71.2H137.52V56.8H144V55.2H137.52V40.8H144V39.2H137.52V24.8H144V23.2H137.52V8.8H144V7.2H137.52V0ZM123.12 23.2H136.08V8.8H123.12V23.2ZM123.12 39.2H136.08V24.8H123.12V39.2ZM123.12 55.2H136.08V40.8H123.12V55.2ZM123.12 71.2H136.08V56.8H123.12V71.2ZM123.12 87.2H136.08V72.8H123.12V87.2ZM123.12 103.2H136.08V88.8H123.12V103.2ZM123.12 119.2H136.08V104.8H123.12V119.2ZM123.12 135.2H136.08V120.8H123.12V135.2ZM123.12 151.2H136.08V136.8H123.12V151.2ZM20.88 136.8H7.92V151.2H20.88V136.8ZM20.88 120.8H7.92V135.2H20.88V120.8ZM20.88 104.8H7.92V119.2H20.88V104.8ZM20.88 88.8H7.92V103.2H20.88V88.8ZM20.88 72.8H7.92V87.2H20.88V72.8ZM20.88 56.8H7.92V71.2H20.88V56.8ZM20.88 40.8H7.92V55.2H20.88V40.8ZM20.88 24.8H7.92V39.2H20.88V24.8ZM20.88 8.8H7.92V23.2H20.88V8.8ZM108.72 23.2H121.68V8.8H108.72V23.2ZM108.72 39.2H121.68V24.8H108.72V39.2ZM108.72 55.2H121.68V40.8H108.72V55.2ZM108.72 71.2H121.68V56.8H108.72V71.2ZM108.72 87.2H121.68V72.8H108.72V87.2ZM108.72 103.2H121.68V88.8H108.72V103.2ZM108.72 119.2H121.68V104.8H108.72V119.2ZM108.72 135.2H121.68V120.8H108.72V135.2ZM35.28 120.8H22.32V135.2H35.28V120.8ZM35.28 104.8H22.32V119.2H35.28V104.8ZM35.28 88.8H22.32V103.2H35.28V88.8ZM35.28 72.8H22.32V87.2H35.28V72.8ZM35.28 56.8H22.32V71.2H35.28V56.8ZM35.28 40.8H22.32V55.2H35.28V40.8ZM35.28 24.8H22.32V39.2H35.28V24.8ZM94.32 39.2H107.28V24.8H94.32V39.2ZM94.32 55.2H107.28V40.8H94.32V55.2ZM94.32 71.2H107.28V56.8H94.32V71.2ZM94.32 87.2H107.28V72.8H94.32V87.2ZM94.32 103.2H107.28V88.8H94.32V103.2ZM94.32 119.2H107.28V104.8H94.32V119.2ZM49.68 104.8H36.72V119.2H49.68V104.8ZM49.68 88.8H36.72V103.2H49.68V88.8ZM49.68 72.8H36.72V87.2H49.68V72.8ZM49.68 56.8H36.72V71.2H49.68V56.8ZM49.68 40.8H36.72V55.2H49.68V40.8ZM79.92 55.2H92.88V40.8H79.92V55.2ZM79.92 71.2H92.88V56.8H79.92V71.2ZM79.92 87.2H92.88V72.8H79.92V87.2ZM79.92 103.2H92.88V88.8H79.92V103.2ZM64.08 88.8H51.12V103.2H64.08V88.8ZM64.08 72.8H51.12V87.2H64.08V72.8ZM64.08 56.8H51.12V71.2H64.08V56.8ZM65.52 71.2H78.48V56.8H65.52V71.2ZM65.52 87.2H78.48V72.8H65.52V87.2ZM78.48 88.8H65.52V103.2H78.48V88.8ZM65.52 55.2H78.48V40.8H65.52V55.2ZM51.12 55.2H64.08V40.8H51.12V55.2ZM64.08 104.8H51.12V119.2H64.08V104.8ZM78.48 104.8H65.52V119.2H78.48V104.8ZM92.88 104.8H79.92V119.2H92.88V104.8ZM79.92 39.2H92.88V24.8H79.92V39.2ZM65.52 39.2H78.48V24.8H65.52V39.2ZM51.12 39.2H64.08V24.8H51.12V39.2ZM36.72 39.2H49.68V24.8H36.72V39.2ZM49.68 120.8H36.72V135.2H49.68V120.8ZM64.08 120.8H51.12V135.2H64.08V120.8ZM78.48 120.8H65.52V135.2H78.48V120.8ZM92.88 120.8H79.92V135.2H92.88V120.8ZM107.28 120.8H94.32V135.2H107.28V120.8ZM94.32 23.2H107.28V8.8H94.32V23.2ZM79.92 23.2H92.88V8.8H79.92V23.2ZM65.52 23.2H78.48V8.8H65.52V23.2ZM51.12 23.2H64.08V8.8H51.12V23.2ZM36.72 23.2H49.68V8.8H36.72V23.2ZM22.32 23.2H35.28V8.8H22.32V23.2ZM35.28 136.8H22.32V151.2H35.28V136.8ZM49.68 136.8H36.72V151.2H49.68V136.8ZM64.08 136.8H51.12V151.2H64.08V136.8ZM78.48 136.8H65.52V151.2H78.48V136.8ZM92.88 136.8H79.92V151.2H92.88V136.8ZM107.28 136.8H94.32V151.2H107.28V136.8ZM121.68 136.8H108.72V151.2H121.68V136.8Z" fill="white" fill-opacity="0.1"/>
</svg>
