<svg width="81" height="82" viewBox="0 0 81 82" fill="none" xmlns="http://www.w3.org/2000/svg">
<rect x="0.884338" y="0.234009" width="80" height="81" rx="14" fill="#E71D36" fill-opacity="0.1"/>
<path d="M49.6123 41.9053C51.6989 41.9053 53.5778 42.7442 54.9533 44.1256V44.1399L55.0915 44.2848C56.3828 45.6392 57.1689 47.464 57.1689 49.4619C57.1689 53.6336 53.7841 57.0184 49.6123 57.0184C47.3786 57.0184 45.38 56.044 43.9926 54.4992C42.7943 53.1588 42.0558 51.3961 42.0558 49.4619C42.0558 45.2901 45.4406 41.9053 49.6123 41.9053ZM46.5911 47.8037V47.8036L46.5792 47.8039C45.6053 47.8271 44.849 48.6005 44.849 49.5626C44.849 50.5437 45.6268 51.3214 46.6078 51.3214H47.8535V52.6509C47.8535 53.6152 48.648 54.4098 49.6123 54.4098C50.5766 54.4098 51.3712 53.6152 51.3712 52.6509V51.3214H52.6167C53.5978 51.3214 54.3756 50.5437 54.3756 49.5626C54.3756 48.6026 53.6022 47.8037 52.6167 47.8037H51.3712V46.5749V46.5624L51.3706 46.55C51.324 45.6181 50.5558 44.8664 49.6123 44.8664C48.723 44.8664 47.9604 45.5503 47.8763 46.4263C47.8519 46.5198 47.8531 46.5963 47.8534 46.6202C47.8535 46.6223 47.8535 46.624 47.8535 46.6253V47.8037H46.5911Z" fill="#E71D36" stroke="#E71D36"/>
<path opacity="0.4" d="M56.3203 40.5801L56.3189 40.5845C56.0449 41.4587 55.7087 42.3008 55.3189 43.0939C53.7997 41.7262 51.8061 40.9054 49.6123 40.9054C44.8883 40.9054 41.0558 44.7379 41.0558 49.462C41.0558 51.4122 41.7183 53.2062 42.8152 54.6433C42.4364 54.8048 42.0857 54.9406 41.7669 55.0468L41.7668 55.0467L41.7586 55.0497C41.5434 55.1256 41.2263 55.1722 40.8843 55.1722C40.5424 55.1722 40.2253 55.1256 40.0101 55.0497L40.0101 55.0496L40.0048 55.0478C38.0458 54.3813 35.0464 52.8156 32.2117 50.3794C29.3791 47.945 26.7396 44.6662 25.4494 40.5833L25.4494 40.5833L25.4484 40.5801C24.9099 38.9157 24.5998 37.1213 24.5998 35.1783C24.5998 30.2657 28.5576 26.2958 33.432 26.2958C36.3051 26.2958 38.8787 27.6925 40.484 29.8382L40.8843 30.3733L41.2847 29.8382C42.89 27.6925 45.4636 26.2958 48.3367 26.2958C53.2111 26.2958 57.1689 30.2657 57.1689 35.1783C57.1689 37.1213 56.8588 38.9157 56.3203 40.5801Z" fill="#E71D36" stroke="#E71D36"/>
</svg>
