<svg width="81" height="82" viewBox="0 0 81 82" fill="none" xmlns="http://www.w3.org/2000/svg">
<rect x="0.929657" y="0.782104" width="80" height="81" rx="14" fill="#FF9F1C" fill-opacity="0.1"/>
<path opacity="0.8" d="M42.3922 25.8771L42.3434 25.9909L37.6309 36.9271H32.9997C31.8947 36.9271 30.8547 37.1384 29.8797 37.5609L32.7234 30.7684L32.7884 30.6221L32.8859 30.3621C32.9347 30.2484 32.9672 30.1509 33.0159 30.0696C35.1447 25.1459 37.5497 24.0246 42.3922 25.8771Z" fill="#FF9F1C"/>
<path d="M51.1509 37.2521C50.4197 37.0408 49.6559 36.9271 48.8597 36.9271H37.6309L42.3434 25.9908L42.3922 25.8771C42.6197 25.9583 42.8634 26.0721 43.1072 26.1533L46.6984 27.6646C48.6972 28.4933 50.0947 29.3546 50.9559 30.3946C51.1022 30.5896 51.2322 30.7683 51.3622 30.9796C51.5084 31.2071 51.6222 31.4346 51.6872 31.6783C51.7522 31.8246 51.8009 31.9546 51.8334 32.1008C52.2559 33.4821 51.9959 35.1558 51.1509 37.2521Z" fill="#FF9F1C"/>
<path opacity="0.4" d="M56.7897 44.8571V48.0259C56.7897 48.3509 56.7734 48.6759 56.7572 48.9846C56.4484 54.6721 53.2797 57.5321 47.2672 57.5321H34.5922C34.1859 57.5321 33.8122 57.4996 33.4384 57.4509C28.2709 57.1096 25.5084 54.3471 25.1509 49.1796C25.1022 48.7896 25.0697 48.4159 25.0697 48.0259V44.8571C25.0697 41.5909 27.0522 38.7796 29.8797 37.5609C30.8547 37.1384 31.8947 36.9271 32.9997 36.9271H48.8597C49.6559 36.9271 50.4197 37.0409 51.1509 37.2521C54.4009 38.2434 56.7897 41.2659 56.7897 44.8571Z" fill="#FF9F1C"/>
<path opacity="0.6" d="M32.7234 30.7683L29.8797 37.5608C27.0522 38.7796 25.0697 41.5908 25.0697 44.8571V40.0958C25.0697 35.4808 28.3522 31.6296 32.7234 30.7683Z" fill="#FF9F1C"/>
<path opacity="0.6" d="M56.7897 40.0958V44.8571C56.7897 41.2658 54.4009 38.2433 51.1509 37.2521C51.9959 35.1558 52.2559 33.4821 51.8334 32.1008C51.8009 31.9546 51.7522 31.8246 51.6872 31.6783C54.7259 33.2546 56.7897 36.4558 56.7897 40.0958Z" fill="#FF9F1C"/>
<path d="M44.9922 45.6534H42.1484V42.9071C42.1484 42.2409 41.5959 41.6884 40.9297 41.6884C40.2634 41.6884 39.7109 42.2409 39.7109 42.9071V45.6534H36.8672C36.2009 45.6534 35.6484 46.2059 35.6484 46.8721C35.6484 47.5384 36.2009 48.0909 36.8672 48.0909H39.7109V51.0321C39.7109 51.6984 40.2634 52.2509 40.9297 52.2509C41.5959 52.2509 42.1484 51.6984 42.1484 51.0321V48.0909H44.9922C45.6584 48.0909 46.2109 47.5384 46.2109 46.8721C46.2109 46.2059 45.6584 45.6534 44.9922 45.6534Z" fill="#FF9F1C"/>
</svg>
