<svg width="81" height="82" viewBox="0 0 81 82" fill="none" xmlns="http://www.w3.org/2000/svg">
<rect x="0.874451" y="0.478149" width="80" height="81" rx="14" fill="#2EC4B6" fill-opacity="0.1"/>
<path opacity="0.4" d="M50.179 33.3771C50.0465 33.3619 49.9136 33.3619 49.7811 33.3771C47.4685 33.2821 45.6377 31.3808 45.6377 29.0443C45.6377 26.6506 47.5802 24.6936 49.9885 24.6936C52.3817 24.6936 54.3383 26.6352 54.3392 29.0428C54.3233 31.3815 52.4905 33.2822 50.179 33.3771Z" fill="#09C03C" stroke="#09C03C"/>
<path opacity="0.4" d="M55.3494 45.0943L55.3492 45.0945C53.7551 46.162 51.5463 46.6386 49.4041 46.4901C49.8963 45.2191 50.1539 43.8438 50.1689 42.41L50.1689 42.41V42.4048C50.1689 40.9071 49.8871 39.4671 49.3411 38.1636C51.5184 38.0043 53.7261 38.4812 55.3341 39.5484L55.3357 39.5495C56.5572 40.3535 57.0999 41.3661 57.1017 42.3155C57.1034 43.2654 56.5638 44.2822 55.3494 45.0943Z" fill="#09C03C" stroke="#09C03C"/>
<path opacity="0.4" d="M31.9181 33.3771C31.7856 33.3619 31.6527 33.3619 31.5202 33.3771C29.2087 33.2822 27.3759 31.3815 27.36 29.0427C27.3609 26.6352 29.3176 24.6936 31.7108 24.6936C34.119 24.6936 36.0615 26.6506 36.0615 29.0443C36.0615 31.3808 34.2307 33.2821 31.9181 33.3771Z" fill="#09C03C" stroke="#09C03C"/>
<path opacity="0.4" d="M31.7269 42.4048C31.7269 44.0329 32.0794 45.5771 32.7172 46.9702C30.3505 47.2219 27.8832 46.7184 26.0705 45.5267C23.4185 43.7643 23.4185 40.8942 26.0705 39.1318C27.8664 37.9233 30.4009 37.4366 32.7843 37.7051C32.0961 39.115 31.7269 40.7095 31.7269 42.4048Z" fill="#09C03C"/>
<path d="M41.0759 47.4737C40.9416 47.4569 40.7905 47.4569 40.6395 47.4737C37.5511 47.373 35.0838 44.8386 35.0838 41.7166C35.0838 38.5276 37.6518 35.9427 40.8577 35.9427C44.0467 35.9427 46.6315 38.5276 46.6315 41.7166C46.6315 44.8386 44.181 47.373 41.0759 47.4737Z" fill="#09C03C"/>
<path d="M35.6209 50.9482C33.0864 52.6434 33.0864 55.4296 35.6209 57.1081C38.5078 59.0383 43.2411 59.0383 46.128 57.1081C48.6625 55.4128 48.6625 52.6266 46.128 50.9482C43.2579 49.0179 38.5246 49.0179 35.6209 50.9482Z" fill="#09C03C"/>
</svg>
