<svg width="81" height="82" viewBox="0 0 81 82" fill="none" xmlns="http://www.w3.org/2000/svg">
<rect x="0.29895" y="0.963989" width="80" height="81" rx="14" fill="#8239F8" fill-opacity="0.1"/>
<path opacity="0.4" d="M33.2826 25.1794H47.3313C50.2866 25.1794 52.5853 26.0584 54.1447 27.6178C55.7041 29.1772 56.5831 31.4759 56.5831 34.4312V48.4799C56.5831 51.4352 55.7041 53.7339 54.1447 55.2933C52.5853 56.8527 50.2866 57.7317 47.3313 57.7317H33.2826C30.3273 57.7317 28.0286 56.8527 26.4692 55.2933C24.9098 53.7339 24.0308 51.4352 24.0308 48.4799V34.4312C24.0308 31.4759 24.9098 29.1772 26.4692 27.6178C28.0286 26.0584 30.3273 25.1794 33.2826 25.1794Z" fill="#8239F8" stroke="#8239F8"/>
<path d="M32.6788 40.5374H36.6266V50.0444H31.2654V41.9507C31.2654 41.1694 31.8975 40.5374 32.6788 40.5374Z" fill="#8239F8" stroke="#8239F8"/>
<path opacity="0.4" d="M39.0233 32.9003H41.5746C42.3501 32.9003 42.9712 33.5267 42.9712 34.3137V50.0276H37.6099V34.3137C37.6099 33.5324 38.242 32.9003 39.0233 32.9003Z" fill="#8239F8" stroke="#8239F8"/>
<path d="M47.9359 42.8906H43.488V50.5277H49.8494V44.8041C49.8326 43.7467 48.9765 42.8906 47.9359 42.8906Z" fill="#8239F8"/>
</svg>
