<svg width="46" height="53" viewBox="0 0 46 53" fill="none" xmlns="http://www.w3.org/2000/svg">
<path opacity="0.2" d="M14.2158 51H26.3513C26.626 51 26.7634 51 26.8795 50.9955C30.0108 50.8742 32.5214 48.3636 32.6427 45.2323C32.6472 45.1162 32.6472 44.9788 32.6472 44.7041H11.7859C10.3713 44.7041 9.664 44.7041 8.9989 44.5508C8.29618 44.3888 7.62843 44.1015 7.02766 43.7026C6.45904 43.3251 5.97274 42.8115 5.00012 41.7843C5.00012 44.7826 5.00012 46.2818 5.52387 47.4517C6.12625 48.7972 7.20292 49.8739 8.54845 50.4762C9.71834 51 11.2175 51 14.2158 51Z" fill="#2EC4B6"/>
<path d="M5.00012 30.2647V37.1765C5.00012 43.6046 5.00012 46.8186 6.95334 48.8508C7.01738 48.9174 7.08272 48.9827 7.14935 49.0468C9.18149 51 12.3955 51 18.8237 51H28.6729C30.8678 51 32.6472 49.2207 32.6472 47.0257V47.0257V45.0386" stroke="#09C03C" stroke-width="2.5"/>
<path opacity="0.2" d="M5 18C5 11.4003 5 8.1005 7.05025 6.05025C9.1005 4 12.4003 4 19 4L26.9412 4C33.5408 4 36.8407 4 38.8909 6.05025C40.9412 8.1005 40.9412 11.4003 40.9412 18V22.4314H5L5 18Z" fill="#09C03C"/>
<rect x="5" y="4" width="35.9412" height="41.4706" rx="7" stroke="#011627" stroke-width="2.5"/>
<g filter="url(#filter0_d_1_9079)">
<path d="M31.0337 38.5473C30.7642 38.5473 30.4946 38.4851 30.2458 38.3814C29.997 38.2777 29.7689 38.1326 29.5823 37.946C29.1883 37.552 28.981 37.0336 28.981 36.4738C28.981 35.9346 29.1883 35.3955 29.5823 35.0015C30.1421 34.421 31.0752 34.2551 31.8424 34.5661C32.0913 34.6698 32.3193 34.8149 32.506 35.0015C32.8999 35.3955 33.1073 35.9346 33.1073 36.4738C33.1073 37.0336 32.8999 37.552 32.506 37.946C32.112 38.3399 31.5936 38.5473 31.0337 38.5473Z" fill="#09C03C"/>
</g>
<g filter="url(#filter1_d_1_9079)">
<path d="M22.7406 38.5473C22.2015 38.5473 21.6831 38.3399 21.2891 37.946C20.8951 37.552 20.6671 37.0336 20.6671 36.4738C20.6671 36.3286 20.6878 36.2042 20.7085 36.059C20.75 35.9346 20.7915 35.8102 20.8329 35.6858C20.8951 35.5614 20.9573 35.437 21.0196 35.3126C21.1025 35.2089 21.1854 35.1052 21.2891 35.0015C21.4757 34.8149 21.7038 34.6698 21.9526 34.5661C22.7198 34.2551 23.6322 34.421 24.2128 35.0015C24.6068 35.3955 24.8141 35.9346 24.8141 36.4738C24.8141 37.0336 24.6068 37.552 24.2128 37.946C24.0262 38.1326 23.7981 38.2777 23.5493 38.3814C23.3004 38.4851 23.0309 38.5473 22.7406 38.5473Z" fill="#09C03C"/>
</g>
<g filter="url(#filter2_d_1_9079)">
<path d="M14.4671 38.5486C13.9072 38.5486 13.3888 38.3412 12.9949 37.9472C12.6009 37.5533 12.3728 37.0349 12.3728 36.475C12.3728 35.9359 12.6009 35.3968 12.9949 35.0028C13.1815 34.8162 13.4096 34.6711 13.6584 34.5674C14.1768 34.36 14.7366 34.36 15.255 34.5674C15.3794 34.6089 15.5038 34.6711 15.6075 34.754C15.7319 34.8162 15.8356 34.9199 15.9185 35.0028C16.3125 35.3968 16.5406 35.9359 16.5406 36.475C16.5406 37.0349 16.3125 37.5533 15.9185 37.9472C15.5246 38.3412 15.0062 38.5486 14.4671 38.5486Z" fill="#09C03C"/>
</g>
<g filter="url(#filter3_d_1_9079)">
<path d="M31.0346 30.2389C30.4955 30.2389 29.9772 30.0316 29.5832 29.6376C29.1892 29.2436 28.9611 28.7253 28.9611 28.1654C28.9611 27.6263 29.1892 27.0872 29.5832 26.6932C30.3504 25.926 31.7397 25.926 32.5069 26.6932C32.9008 27.0872 33.1289 27.6263 33.1289 28.1654C33.1289 28.435 33.0667 28.7045 32.963 28.9533C32.8594 29.2022 32.7142 29.4303 32.5069 29.6376C32.1129 30.0316 31.5945 30.2389 31.0346 30.2389Z" fill="#09C03C"/>
</g>
<g filter="url(#filter4_d_1_9079)">
<path d="M22.7406 30.2389C22.2015 30.2389 21.6831 30.0316 21.2891 29.6376C20.8951 29.2436 20.6671 28.7253 20.6671 28.1654C20.6671 27.6263 20.8951 27.0872 21.2891 26.6932C22.0563 25.926 23.4456 25.926 24.2128 26.6932C24.3994 26.9006 24.5653 27.1079 24.669 27.3775C24.7726 27.6263 24.8141 27.8958 24.8141 28.1654C24.8141 28.7253 24.6068 29.2436 24.2128 29.6376C23.8188 30.0316 23.3004 30.2389 22.7406 30.2389Z" fill="#09C03C"/>
</g>
<g filter="url(#filter5_d_1_9079)">
<path d="M14.4671 30.2667C14.1768 30.2667 13.9072 30.2045 13.6584 30.1008C13.4096 29.9971 13.1815 29.852 12.9949 29.6654C12.6009 29.2714 12.3728 28.753 12.3728 28.1932C12.3728 27.9236 12.435 27.654 12.5387 27.4052C12.6424 27.1357 12.7875 26.9283 12.9949 26.7209C13.4718 26.244 14.1975 26.0159 14.861 26.1611C14.9854 26.1818 15.1306 26.2233 15.255 26.2855C15.3794 26.327 15.5038 26.3892 15.6075 26.4721C15.7319 26.5343 15.8356 26.638 15.9185 26.7209C16.1052 26.9283 16.271 27.1357 16.3747 27.4052C16.4784 27.654 16.5199 27.9236 16.5199 28.1932C16.5199 28.753 16.3125 29.2714 15.9185 29.6654C15.5246 30.0593 15.0062 30.2667 14.4671 30.2667Z" fill="#09C03C"/>
</g>
<g filter="url(#filter6_d_1_9079)">
<rect x="12.3727" y="9.52942" width="21.1961" height="10.1373" rx="2" fill="#09C03C"/>
</g>
<defs>
<filter id="filter0_d_1_9079" x="24.981" y="32.4117" width="12.1263" height="12.1356" filterUnits="userSpaceOnUse" color-interpolation-filters="sRGB">
<feFlood flood-opacity="0" result="BackgroundImageFix"/>
<feColorMatrix in="SourceAlpha" type="matrix" values="0 0 0 0 0 0 0 0 0 0 0 0 0 0 0 0 0 0 127 0" result="hardAlpha"/>
<feOffset dy="2"/>
<feGaussianBlur stdDeviation="2"/>
<feComposite in2="hardAlpha" operator="out"/>
<feColorMatrix type="matrix" values="0 0 0 0 0.180392 0 0 0 0 0.768627 0 0 0 0 0.713726 0 0 0 0.42 0"/>
<feBlend mode="normal" in2="BackgroundImageFix" result="effect1_dropShadow_1_9079"/>
<feBlend mode="normal" in="SourceGraphic" in2="effect1_dropShadow_1_9079" result="shape"/>
</filter>
<filter id="filter1_d_1_9079" x="16.6671" y="32.4117" width="12.147" height="12.1356" filterUnits="userSpaceOnUse" color-interpolation-filters="sRGB">
<feFlood flood-opacity="0" result="BackgroundImageFix"/>
<feColorMatrix in="SourceAlpha" type="matrix" values="0 0 0 0 0 0 0 0 0 0 0 0 0 0 0 0 0 0 127 0" result="hardAlpha"/>
<feOffset dy="2"/>
<feGaussianBlur stdDeviation="2"/>
<feComposite in2="hardAlpha" operator="out"/>
<feColorMatrix type="matrix" values="0 0 0 0 0.180392 0 0 0 0 0.768627 0 0 0 0 0.713726 0 0 0 0.42 0"/>
<feBlend mode="normal" in2="BackgroundImageFix" result="effect1_dropShadow_1_9079"/>
<feBlend mode="normal" in="SourceGraphic" in2="effect1_dropShadow_1_9079" result="shape"/>
</filter>
<filter id="filter2_d_1_9079" x="8.3728" y="32.4119" width="12.1678" height="12.1367" filterUnits="userSpaceOnUse" color-interpolation-filters="sRGB">
<feFlood flood-opacity="0" result="BackgroundImageFix"/>
<feColorMatrix in="SourceAlpha" type="matrix" values="0 0 0 0 0 0 0 0 0 0 0 0 0 0 0 0 0 0 127 0" result="hardAlpha"/>
<feOffset dy="2"/>
<feGaussianBlur stdDeviation="2"/>
<feComposite in2="hardAlpha" operator="out"/>
<feColorMatrix type="matrix" values="0 0 0 0 0.180392 0 0 0 0 0.768627 0 0 0 0 0.713726 0 0 0 0.42 0"/>
<feBlend mode="normal" in2="BackgroundImageFix" result="effect1_dropShadow_1_9079"/>
<feBlend mode="normal" in="SourceGraphic" in2="effect1_dropShadow_1_9079" result="shape"/>
</filter>
<filter id="filter3_d_1_9079" x="24.9611" y="24.1178" width="12.1678" height="12.1212" filterUnits="userSpaceOnUse" color-interpolation-filters="sRGB">
<feFlood flood-opacity="0" result="BackgroundImageFix"/>
<feColorMatrix in="SourceAlpha" type="matrix" values="0 0 0 0 0 0 0 0 0 0 0 0 0 0 0 0 0 0 127 0" result="hardAlpha"/>
<feOffset dy="2"/>
<feGaussianBlur stdDeviation="2"/>
<feComposite in2="hardAlpha" operator="out"/>
<feColorMatrix type="matrix" values="0 0 0 0 0.180392 0 0 0 0 0.768627 0 0 0 0 0.713726 0 0 0 0.42 0"/>
<feBlend mode="normal" in2="BackgroundImageFix" result="effect1_dropShadow_1_9079"/>
<feBlend mode="normal" in="SourceGraphic" in2="effect1_dropShadow_1_9079" result="shape"/>
</filter>
<filter id="filter4_d_1_9079" x="16.6671" y="24.1178" width="12.147" height="12.1212" filterUnits="userSpaceOnUse" color-interpolation-filters="sRGB">
<feFlood flood-opacity="0" result="BackgroundImageFix"/>
<feColorMatrix in="SourceAlpha" type="matrix" values="0 0 0 0 0 0 0 0 0 0 0 0 0 0 0 0 0 0 127 0" result="hardAlpha"/>
<feOffset dy="2"/>
<feGaussianBlur stdDeviation="2"/>
<feComposite in2="hardAlpha" operator="out"/>
<feColorMatrix type="matrix" values="0 0 0 0 0.180392 0 0 0 0 0.768627 0 0 0 0 0.713726 0 0 0 0.42 0"/>
<feBlend mode="normal" in2="BackgroundImageFix" result="effect1_dropShadow_1_9079"/>
<feBlend mode="normal" in="SourceGraphic" in2="effect1_dropShadow_1_9079" result="shape"/>
</filter>
<filter id="filter5_d_1_9079" x="8.3728" y="24.1178" width="12.147" height="12.1489" filterUnits="userSpaceOnUse" color-interpolation-filters="sRGB">
<feFlood flood-opacity="0" result="BackgroundImageFix"/>
<feColorMatrix in="SourceAlpha" type="matrix" values="0 0 0 0 0 0 0 0 0 0 0 0 0 0 0 0 0 0 127 0" result="hardAlpha"/>
<feOffset dy="2"/>
<feGaussianBlur stdDeviation="2"/>
<feComposite in2="hardAlpha" operator="out"/>
<feColorMatrix type="matrix" values="0 0 0 0 0.180392 0 0 0 0 0.768627 0 0 0 0 0.713726 0 0 0 0.42 0"/>
<feBlend mode="normal" in2="BackgroundImageFix" result="effect1_dropShadow_1_9079"/>
<feBlend mode="normal" in="SourceGraphic" in2="effect1_dropShadow_1_9079" result="shape"/>
</filter>
<filter id="filter6_d_1_9079" x="0.372681" y="0.529419" width="45.1961" height="34.1373" filterUnits="userSpaceOnUse" color-interpolation-filters="sRGB">
<feFlood flood-opacity="0" result="BackgroundImageFix"/>
<feColorMatrix in="SourceAlpha" type="matrix" values="0 0 0 0 0 0 0 0 0 0 0 0 0 0 0 0 0 0 127 0" result="hardAlpha"/>
<feOffset dy="3"/>
<feGaussianBlur stdDeviation="6"/>
<feComposite in2="hardAlpha" operator="out"/>
<feColorMatrix type="matrix" values="0 0 0 0 0 0 0 0 0 0 0 0 0 0 0 0 0 0 0.25 0"/>
<feBlend mode="normal" in2="BackgroundImageFix" result="effect1_dropShadow_1_9079"/>
<feBlend mode="normal" in="SourceGraphic" in2="effect1_dropShadow_1_9079" result="shape"/>
</filter>
</defs>
</svg>
