<svg width="18" height="18" viewBox="0 0 18 18" fill="none" xmlns="http://www.w3.org/2000/svg">
<path fill-rule="evenodd" clip-rule="evenodd" d="M11.2727 6.72725C11.4924 6.94692 11.4924 7.30308 11.2727 7.52275L7.52272 11.2727C7.30305 11.4924 6.9469 11.4924 6.72723 11.2727C6.50756 11.0531 6.50756 10.6969 6.72723 10.4773L10.4772 6.72725C10.6969 6.50758 11.0531 6.50758 11.2727 6.72725Z" fill="#7E8AAB"/>
<path fill-rule="evenodd" clip-rule="evenodd" d="M6.72725 6.72734C6.94692 6.50767 7.30308 6.50767 7.52275 6.72734L11.2727 10.4773C11.4924 10.697 11.4924 11.0532 11.2727 11.2728C11.0531 11.4925 10.6969 11.4925 10.4773 11.2728L6.72725 7.52283C6.50758 7.30316 6.50758 6.94701 6.72725 6.72734Z" fill="#7E8AAB"/>
<path fill-rule="evenodd" clip-rule="evenodd" d="M8.21606 0.9375H9.78394C11.1613 0.937494 12.241 0.937489 13.0976 1.0303C13.9718 1.125 14.6801 1.32174 15.2848 1.76111C15.6509 2.02711 15.9729 2.34907 16.2389 2.71518C16.6783 3.31992 16.875 4.0282 16.9697 4.90236C17.0625 5.75896 17.0625 6.83865 17.0625 8.21605V9.78395C17.0625 11.1613 17.0625 12.241 16.9697 13.0976C16.875 13.9718 16.6783 14.6801 16.2389 15.2848C15.9729 15.6509 15.6509 15.9729 15.2848 16.2389C14.6801 16.6783 13.9718 16.875 13.0976 16.9697C12.241 17.0625 11.1613 17.0625 9.78395 17.0625H8.21605C6.83865 17.0625 5.75896 17.0625 4.90236 16.9697C4.0282 16.875 3.31992 16.6783 2.71518 16.2389C2.34907 15.9729 2.02711 15.6509 1.76111 15.2848C1.32174 14.6801 1.125 13.9718 1.0303 13.0976C0.937489 12.241 0.937494 11.1613 0.9375 9.78394V8.21606C0.937494 6.83866 0.937489 5.75896 1.0303 4.90236C1.125 4.0282 1.32174 3.31992 1.76111 2.71518C2.02711 2.34907 2.34907 2.02711 2.71518 1.76111C3.31992 1.32174 4.0282 1.125 4.90236 1.0303C5.75896 0.937489 6.83866 0.937494 8.21606 0.9375ZM5.02353 2.14875C4.2451 2.23309 3.75744 2.39444 3.37643 2.67126C3.10583 2.86786 2.86786 3.10583 2.67126 3.37643C2.39444 3.75744 2.23309 4.2451 2.14875 5.02353C2.06327 5.81249 2.0625 6.83132 2.0625 8.25V9.75C2.0625 11.1687 2.06327 12.1875 2.14875 12.9765C2.23309 13.7549 2.39444 14.2426 2.67126 14.6236C2.86786 14.8942 3.10583 15.1321 3.37643 15.3287C3.75744 15.6056 4.2451 15.7669 5.02353 15.8512C5.81249 15.9367 6.83132 15.9375 8.25 15.9375H9.75C11.1687 15.9375 12.1875 15.9367 12.9765 15.8512C13.7549 15.7669 14.2426 15.6056 14.6236 15.3287C14.8942 15.1321 15.1321 14.8942 15.3287 14.6236C15.6056 14.2426 15.7669 13.7549 15.8512 12.9765C15.9367 12.1875 15.9375 11.1687 15.9375 9.75V8.25C15.9375 6.83132 15.9367 5.81249 15.8512 5.02353C15.7669 4.2451 15.6056 3.75744 15.3287 3.37643C15.1321 3.10583 14.8942 2.86786 14.6236 2.67126C14.2426 2.39444 13.7549 2.23309 12.9765 2.14875C12.1875 2.06327 11.1687 2.0625 9.75 2.0625H8.25C6.83132 2.0625 5.81249 2.06327 5.02353 2.14875Z" fill="#7E8AAB"/>
</svg>
