<svg width="45" height="41" viewBox="0 0 45 41" fill="none" xmlns="http://www.w3.org/2000/svg">
<path d="M29.26 15.511C29.26 22.9385 23.2066 28.9596 15.7394 28.9596C13.0787 28.9596 10.5976 28.1951 8.5058 26.8751L2.21875 28.9596L4.31443 22.706C2.98727 20.6254 2.21875 18.1575 2.21875 15.511C2.21875 8.08361 8.27214 2.0625 15.7394 2.0625C23.2066 2.0625 29.26 8.08361 29.26 15.511Z" fill="#7E8AAB" stroke="#626E94" stroke-width="2.5" stroke-linecap="round" stroke-linejoin="round"/>
<path opacity="0.2" d="M22.4994 30.0804C22.4994 35.651 27.0394 40.1668 32.6398 40.1668C34.6353 40.1668 36.4962 39.5935 38.065 38.6034L42.7803 40.1668L41.2085 35.4767C42.2039 33.9162 42.7803 32.0653 42.7803 30.0804C42.7803 24.5099 38.2403 19.994 32.6398 19.994C27.0394 19.994 22.4994 24.5099 22.4994 30.0804Z" fill="#7E8AAB"/>
<path d="M29.26 15.511C29.26 22.9385 23.2066 28.9596 15.7394 28.9596C13.0787 28.9596 10.5976 28.1951 8.5058 26.8751L2.21875 28.9596L4.31443 22.706C2.98727 20.6254 2.21875 18.1575 2.21875 15.511C2.21875 8.08361 8.27214 2.0625 15.7394 2.0625C23.2066 2.0625 29.26 8.08361 29.26 15.511Z" stroke="#626E94" stroke-width="2.5" stroke-linecap="round" stroke-linejoin="round"/>
<path d="M16.5007 28.9363C18.3502 34.1719 23.3645 37.9253 29.2602 37.9253C31.9209 37.9253 34.4021 37.161 36.4938 35.8408L42.7809 37.9253L40.6852 31.6718L41.0052 31.1437C42.1352 29.1787 42.7809 26.9027 42.7809 24.4768C42.7809 17.0494 36.7275 11.0283 29.2602 11.0283L28.7534 11.0375L28.4989 11.051" stroke="#626E94" stroke-width="2.5" stroke-linecap="round" stroke-linejoin="round"/>
</svg>
