<svg width="26" height="26" viewBox="0 0 26 26" fill="none" xmlns="http://www.w3.org/2000/svg">
<path opacity="0.4" d="M17.5389 2.16675H8.47141C4.52808 2.16675 2.17725 4.51758 2.17725 8.46091V17.5284C2.17725 21.4717 4.52808 23.8226 8.47141 23.8226H17.5389C21.4822 23.8226 23.8331 21.4717 23.8331 17.5284V8.46091C23.8331 4.51758 21.4822 2.16675 17.5389 2.16675Z" fill="#7E8AAB"/>
<path d="M15.08 10.0533L15.1341 13.2491L17.9833 13.2058C18.1891 13.2058 18.3408 13.39 18.3083 13.585L17.9291 15.6541C17.8966 15.8058 17.7666 15.9141 17.615 15.925L15.1775 15.9683L15.3075 23.8225L12.0575 23.8766L11.9275 16.0225L10.0858 16.055C9.90162 16.055 9.7608 15.9141 9.7608 15.73L9.7283 13.6716C9.7283 13.4875 9.86912 13.3466 10.0533 13.3466L11.895 13.3141L11.8408 9.79331C11.8083 7.99497 13.2383 6.52164 15.0366 6.48914L17.9616 6.4458C18.1458 6.4458 18.2866 6.58664 18.2866 6.7708L18.33 9.37081C18.33 9.55497 18.1891 9.6958 18.005 9.6958L15.405 9.73914C15.2208 9.7283 15.08 9.87997 15.08 10.0533Z" fill="#7E8AAB"/>
</svg>
