<svg width="26" height="26" viewBox="0 0 26 26" fill="none" xmlns="http://www.w3.org/2000/svg">
<path opacity="0.4" d="M17.5392 2.16675H8.46085C4.51752 2.16675 2.16669 4.51758 2.16669 8.46092V17.5284C2.16669 21.4826 4.51752 23.8334 8.46085 23.8334H17.5284C21.4717 23.8334 23.8225 21.4826 23.8225 17.5392V8.46092C23.8334 4.51758 21.4825 2.16675 17.5392 2.16675Z" fill="#7E8AAB"/>
<path d="M13 17.2033C15.3215 17.2033 17.2034 15.3214 17.2034 13C17.2034 10.6785 15.3215 8.79663 13 8.79663C10.6786 8.79663 8.79669 10.6785 8.79669 13C8.79669 15.3214 10.6786 17.2033 13 17.2033Z" fill="#7E8AAB"/>
<path d="M18.4166 8.1249C18.1241 8.1249 17.8533 8.01656 17.6475 7.81073C17.55 7.7024 17.4741 7.58323 17.42 7.45323C17.3658 7.32323 17.3333 7.1824 17.3333 7.04156C17.3333 6.90073 17.3658 6.7599 17.42 6.6299C17.4741 6.48906 17.55 6.38073 17.6475 6.2724C17.8966 6.02323 18.2758 5.90406 18.6225 5.9799C18.6983 5.99073 18.7633 6.0124 18.8283 6.0449C18.8933 6.06656 18.9583 6.09906 19.0233 6.1424C19.0775 6.1749 19.1316 6.22906 19.1858 6.2724C19.2833 6.38073 19.3591 6.48906 19.4133 6.6299C19.4675 6.7599 19.5 6.90073 19.5 7.04156C19.5 7.1824 19.4675 7.32323 19.4133 7.45323C19.3591 7.58323 19.2833 7.7024 19.1858 7.81073C19.0775 7.90823 18.9583 7.98406 18.8283 8.03823C18.6983 8.0924 18.5575 8.1249 18.4166 8.1249Z" fill="#7E8AAB"/>
</svg>
