<svg width="59" height="59" viewBox="0 0 59 59" fill="none" xmlns="http://www.w3.org/2000/svg">
<path opacity="0.4" fill-rule="evenodd" clip-rule="evenodd" d="M36.8411 35.7424C36.4833 39.4818 33.3332 42.4062 29.5 42.4062C25.6668 42.4062 22.5167 39.4818 22.1589 35.7424H11.0625C11.0625 37.6723 12.6289 39.2682 14.5639 39.2682C17.8994 39.2682 19.2631 41.6435 17.5861 44.5569C16.6278 46.227 17.1991 48.3982 18.8761 49.3632L22.0642 51.2003C23.52 52.0725 25.3997 51.5529 26.2658 50.0869L26.4685 49.7343C28.1455 46.8209 30.8729 46.8209 32.5315 49.7343L32.7342 50.0869C33.6003 51.5529 35.48 52.0725 36.9358 51.2003L40.1239 49.3632C41.8009 48.3982 42.3722 46.2456 41.4139 44.5569C39.7369 41.6435 41.1006 39.2682 44.4361 39.2682C46.3711 39.2682 47.9375 37.6723 47.9375 35.7424H36.8411Z" fill="#7E8AAB"/>
<path d="M11.0625 35.7424C11.0625 37.6723 12.6289 39.2682 14.5639 39.2682C17.8994 39.2682 19.2631 41.6435 17.5861 44.5569C16.6278 46.227 17.1991 48.3982 18.8761 49.3632L22.0642 51.2003C23.52 52.0725 25.3997 51.5529 26.2658 50.0869L26.4685 49.7343C28.1455 46.8209 30.8729 46.8209 32.5315 49.7343L32.7342 50.0869C33.6003 51.5529 35.48 52.0725 36.9358 51.2003L40.1239 49.3632C41.8009 48.3982 42.3722 46.2456 41.4139 44.5569C39.7369 41.6435 41.1006 39.2682 44.4361 39.2682C46.3711 39.2682 47.9375 37.6723 47.9375 35.7424" stroke="#626E94" stroke-width="2.5" stroke-miterlimit="10" stroke-linecap="round" stroke-linejoin="round"/>
<path d="M21.5104 31.3437C21.5104 28.6962 25.0875 26.55 29.5 26.55C33.9125 26.55 37.4896 28.6962 37.4896 31.3437" stroke="#626E94" stroke-width="2.5" stroke-linecap="round" stroke-linejoin="round"/>
<path d="M39.0875 22.155C41.9093 22.8947 43.8812 24.5841 43.8812 26.5498" stroke="#7E8AAB" stroke-width="2.5" stroke-linecap="round" stroke-linejoin="round"/>
<path d="M19.9125 22.155C17.0907 22.8947 15.1187 24.5841 15.1187 26.5498" stroke="#7E8AAB" stroke-width="2.5" stroke-linecap="round" stroke-linejoin="round"/>
<path d="M29.5 21.7563C32.1475 21.7563 34.2937 19.61 34.2937 16.9625C34.2937 14.315 32.1475 12.1688 29.5 12.1688C26.8525 12.1688 24.7062 14.315 24.7062 16.9625C24.7062 19.61 26.8525 21.7563 29.5 21.7563Z" fill="#7E8AAB"/>
<path d="M39.0875 15.7419C40.0682 14.8641 40.6854 13.5885 40.6854 12.1688C40.6854 9.52123 38.5392 7.375 35.8917 7.375C34.6639 7.375 33.5439 7.83656 32.6958 8.59564" stroke="#626E94" stroke-width="2.5" stroke-linecap="round" stroke-linejoin="round"/>
<path d="M19.9125 15.7419C18.9318 14.8641 18.3146 13.5885 18.3146 12.1688C18.3146 9.52123 20.4608 7.375 23.1083 7.375C24.3361 7.375 25.4561 7.83656 26.3042 8.59564" stroke="#626E94" stroke-width="2.5" stroke-linecap="round" stroke-linejoin="round"/>
</svg>
