<svg width="59" height="59" viewBox="0 0 59 59" fill="none" xmlns="http://www.w3.org/2000/svg">
<path opacity="0.2" d="M22.125 31.5C22.125 30.3954 23.0204 29.5 24.125 29.5H44.25V47.7812C44.25 48.8858 43.3546 49.7812 42.25 49.7812H22.125V31.5Z" fill="#7E8AAB"/>
<path fill-rule="evenodd" clip-rule="evenodd" d="M18.75 9.21875C16.5409 9.21875 14.75 11.0096 14.75 13.2188V22.125H44.25V13.2188C44.25 11.0096 42.4591 9.21875 40.25 9.21875H18.75ZM25.8125 14.4219C25.1221 14.4219 24.5625 14.9815 24.5625 15.6719C24.5625 16.3622 25.1221 16.9219 25.8125 16.9219H33.1875C33.8779 16.9219 34.4375 16.3622 34.4375 15.6719C34.4375 14.9815 33.8779 14.4219 33.1875 14.4219H25.8125Z" fill="#7E8AAB"/>
<path d="M44.25 19.3594V39.6406C44.25 47.7531 42.4062 49.7813 35.0312 49.7813H23.9688C16.5938 49.7813 14.75 47.7531 14.75 39.6406V19.3594C14.75 11.2469 16.5938 9.21875 23.9688 9.21875H35.0312C42.4062 9.21875 44.25 11.2469 44.25 19.3594Z" stroke="#626E94" stroke-width="2.5" stroke-linecap="round" stroke-linejoin="round"/>
<path d="M29.5 42.5906C31.0783 42.5906 32.3578 41.3111 32.3578 39.7328C32.3578 38.1545 31.0783 36.875 29.5 36.875C27.9217 36.875 26.6422 38.1545 26.6422 39.7328C26.6422 41.3111 27.9217 42.5906 29.5 42.5906Z" fill="#626E94"/>
</svg>
