<svg width="40" height="40" viewBox="0 0 40 40" fill="none" xmlns="http://www.w3.org/2000/svg">
<path fill-rule="evenodd" clip-rule="evenodd" d="M0.833333 20.0111C0.833333 9.43202 9.43613 0.833374 20 0.833374C30.5639 0.833374 39.1667 9.43202 39.1667 20.0111C39.1667 30.5681 30.5639 39.1667 20 39.1667C9.43613 39.1667 0.833333 30.5681 0.833333 20.0111ZM27.0312 21.9507C27.2347 21.7473 27.4937 21.4329 27.5492 21.3589C27.8452 20.9706 27.9932 20.4898 27.9932 20.0109C27.9932 19.4728 27.8267 18.9735 27.5122 18.5667C27.4864 18.5409 27.4359 18.486 27.3702 18.4144C27.2471 18.2805 27.0705 18.0882 26.9017 17.9195C25.3846 16.2922 21.4255 13.6294 19.3534 12.8158C19.0389 12.6882 18.2434 12.409 17.8178 12.3905C17.4108 12.3905 17.0223 12.4829 16.6523 12.6678C16.1898 12.9267 15.8198 13.3335 15.6163 13.8143C15.4868 14.1472 15.2833 15.1457 15.2833 15.1642C15.0798 16.2552 14.9688 18.0304 14.9688 19.9906C14.9688 21.8601 15.0798 23.5595 15.2463 24.669C15.2508 24.6735 15.2668 24.7529 15.2915 24.8762C15.3666 25.2509 15.5232 26.0317 15.6903 26.3517C16.0973 27.1284 16.8928 27.6091 17.7438 27.6091H17.8178C18.3729 27.5907 19.5384 27.1099 19.5384 27.0914C21.4995 26.2777 25.3661 23.7444 26.9202 22.0616L27.0312 21.9507Z" fill="white"/>
</svg>
