<svg width="31" height="21" viewBox="0 0 31 21" fill="none" xmlns="http://www.w3.org/2000/svg">
<path opacity="0.4" d="M21.671 8.5658L27.6822 8.03418C29.0312 8.03418 30.125 9.1386 30.125 10.5008C30.125 11.8629 29.0312 12.9674 27.6822 12.9674L21.671 12.4357C20.6127 12.4357 19.7547 11.5694 19.7547 10.5008C19.7547 9.43036 20.6127 8.5658 21.671 8.5658Z" fill="#0CA0A2"/>
<path d="M1.48481 8.66349C1.57876 8.56862 1.92976 8.16766 2.25948 7.83473C4.18287 5.7494 9.20494 2.3395 11.8321 1.29594C12.2309 1.12948 13.2396 0.77506 13.7803 0.75C14.2961 0.75 14.789 0.869929 15.2587 1.10621C15.8455 1.43735 16.3135 1.96002 16.5723 2.57578C16.7372 3.00179 16.996 4.28162 16.996 4.30489C17.253 5.70286 17.3931 7.97613 17.3931 10.4893C17.3931 12.8807 17.253 15.0609 17.0421 16.4821C17.019 16.5072 16.7602 18.0949 16.4784 18.639C15.9625 19.6342 14.9538 20.25 13.8742 20.25L13.7803 20.25C13.0765 20.2267 11.5981 19.6092 11.5981 19.5877C9.11099 18.5442 4.20768 15.2989 2.23644 13.142C2.23644 13.142 1.67981 12.5871 1.43872 12.2416C1.0629 11.744 0.874997 11.1283 0.874997 10.5125C0.874997 9.82518 1.08595 9.18616 1.48481 8.66349Z" fill="#0CA0A2"/>
</svg>
