<svg width="31" height="21" viewBox="0 0 31 21" fill="none" xmlns="http://www.w3.org/2000/svg">
<path opacity="0.4" d="M9.32903 12.4342L3.31779 12.9658C1.96876 12.9658 0.875 11.8614 0.875 10.4992C0.874999 9.13706 1.96876 8.03264 3.31779 8.03264L9.32903 8.56427C10.3873 8.56427 11.2453 9.43061 11.2453 10.4992C11.2453 11.5696 10.3873 12.4342 9.32903 12.4342Z" fill="#BFC4D5"/>
<path d="M29.5152 12.3365C29.4212 12.4314 29.0702 12.8323 28.7405 13.1653C26.8171 15.2506 21.7951 18.6605 19.1679 19.7041C18.7691 19.8705 17.7604 20.2249 17.2197 20.25C16.7039 20.25 16.211 20.1301 15.7413 19.8938C15.1545 19.5626 14.6865 19.04 14.4277 18.4242C14.2628 17.9982 14.004 16.7184 14.004 16.6951C13.747 15.2971 13.6069 13.0239 13.6069 10.5107C13.6069 8.11933 13.747 5.93914 13.9579 4.5179C13.981 4.49284 14.2398 2.90513 14.5216 2.36098C15.0375 1.36575 16.0462 0.75 17.1258 0.749999L17.2197 0.749999C17.9235 0.773269 19.4019 1.39081 19.4019 1.41229C21.889 2.45585 26.7923 5.70107 28.7636 7.85799C28.7636 7.85799 29.3202 8.41288 29.5613 8.75835C29.9371 9.25596 30.125 9.87172 30.125 10.4875C30.125 11.1748 29.914 11.8138 29.5152 12.3365Z" fill="#BFC4D5"/>
</svg>
