<svg width="22" height="19" viewBox="0 0 22 19" fill="none" xmlns="http://www.w3.org/2000/svg">
<path d="M0.844175 8.90545C2.96375 7.74451 5.32978 6.77557 7.54049 5.80168C11.3438 4.20653 15.1621 2.63902 19.019 1.17968C19.7695 0.931027 21.1178 0.687855 21.25 1.79366C21.1776 3.35892 20.8798 4.91501 20.6755 6.4711C20.157 9.89309 19.5578 13.3034 18.9734 16.7141C18.7721 17.8502 17.3408 18.4383 16.425 17.7113C14.2241 16.233 12.0063 14.7692 9.83354 13.2566C9.1218 12.5375 9.78179 11.5048 10.4175 10.9912C12.2302 9.21488 14.1526 7.70567 15.8706 5.83752C16.334 4.72472 14.9647 5.66256 14.5131 5.9499C12.0315 7.65038 9.6106 9.45468 6.9942 10.9492C5.65774 11.6807 4.10008 11.0555 2.76423 10.6473C1.56647 10.1542 -0.188696 9.65743 0.844054 8.90553L0.844175 8.90545Z" fill="#7E8AAB"/>
</svg>
