<svg width="21" height="21" viewBox="0 0 21 21" fill="none" xmlns="http://www.w3.org/2000/svg">
<path d="M18.8333 7.60008V3.81675C18.8333 2.64175 18.3 2.16675 16.975 2.16675H13.6083C12.2833 2.16675 11.75 2.64175 11.75 3.81675V7.59175C11.75 8.77508 12.2833 9.24175 13.6083 9.24175H16.975C18.3 9.25008 18.8333 8.77508 18.8333 7.60008Z" stroke="#0CA0A2" stroke-width="1.5" stroke-linecap="round" stroke-linejoin="round"/>
<path d="M18.8333 16.975V13.6083C18.8333 12.2833 18.3 11.75 16.975 11.75H13.6083C12.2833 11.75 11.75 12.2833 11.75 13.6083V16.975C11.75 18.3 12.2833 18.8333 13.6083 18.8333H16.975C18.3 18.8333 18.8333 18.3 18.8333 16.975Z" stroke="#0CA0A2" stroke-width="1.5" stroke-linecap="round" stroke-linejoin="round"/>
<path d="M9.25002 7.60008V3.81675C9.25002 2.64175 8.71669 2.16675 7.39169 2.16675H4.02502C2.70002 2.16675 2.16669 2.64175 2.16669 3.81675V7.59175C2.16669 8.77508 2.70002 9.24175 4.02502 9.24175H7.39169C8.71669 9.25008 9.25002 8.77508 9.25002 7.60008Z" stroke="#0CA0A2" stroke-width="1.5" stroke-linecap="round" stroke-linejoin="round"/>
<path d="M9.25002 16.975V13.6083C9.25002 12.2833 8.71669 11.75 7.39169 11.75H4.02502C2.70002 11.75 2.16669 12.2833 2.16669 13.6083V16.975C2.16669 18.3 2.70002 18.8333 4.02502 18.8333H7.39169C8.71669 18.8333 9.25002 18.3 9.25002 16.975Z" stroke="#0CA0A2" stroke-width="1.5" stroke-linecap="round" stroke-linejoin="round"/>
</svg>
